<svg width="40" height="40" viewBox="0 0 40 40" xmlns="http://www.w3.org/2000/svg"><title>angel icon</title><g fill="none" fill-rule="evenodd"><ellipse fill="#4FC1E9" cx="20" cy="19.969" rx="20" ry="19.969"/><path d="M13.076 22.143c-.153-.46-.31-.912-.452-1.366-.162-.513-.078-1.003.187-1.46.377-.647.898-1.155 1.546-1.526.534-.304 1.092-.298 1.652-.087.273.104.536.235.823.363-.02-.064-.037-.123-.058-.183-.794-2.284-1.604-4.565-2.252-6.897-.206-.74-.384-1.497-.497-2.257-.125-.844.01-1.658.593-2.334.453-.525 1.05-.72 1.724-.706.31.007.575.154.78.37.295.313.59.636.83.99.71 1.05 1.242 2.195 1.69 3.373.683 1.8 1.316 3.618 1.97 5.428.02.053.037.105.07.202.035-.088.054-.14.073-.19.596-1.613 1.17-3.234 1.795-4.836.45-1.16.99-2.284 1.695-3.314.228-.333.493-.643.767-.94.93-1.012 2.286-.48 2.805.25.31.435.452.923.478 1.45.037.73-.14 1.434-.316 2.134-.596 2.377-1.41 4.685-2.225 6.992l-.076.222c.132.034.26.064.385.097.78.205 1.472.556 1.965 1.223.365.493.565 1.062.657 1.657.418 2.703.196 5.337-1.07 7.792-1.456 2.817-3.72 4.664-6.852 5.32-2.533.53-4.987.278-7.244-1.056-1.886-1.114-3.312-2.67-4.056-4.772-.426-1.202-.492-2.436-.14-3.672.3-1.062 1.042-1.7 2.054-2.054.234-.082.476-.144.702-.213zm4.994 5.393c.014.073.023.132.037.19.29 1.204-.412 1.87-1.08 2.155-.5.215-1.025.206-1.528.025-1.28-.46-2.206-1.33-2.807-2.55-.146-.296-.202-.622-.187-.955.01-.21.04-.42.22-.59.175.225.34.447.516.66.385.465.76.94 1.17 1.383.292.316.656.547 1.08.66.415.11.79.043 1.11-.26.187-.178.262-.388.167-.634-.088-.223-.18-.444-.293-.653-.374-.69-.85-1.312-1.344-1.92-.39-.485-.792-.96-1.28-1.354-.473-.383-.876-.405-1.434-.003-.437.313-.72.75-.887 1.26-.2.617-.18 1.242-.013 1.858.45 1.667 1.385 3.034 2.676 4.15 1.3 1.12 2.837 1.702 4.54 1.846 1.332.113 2.635-.014 3.89-.493 1.944-.742 3.374-2.09 4.444-3.847.776-1.272 1.196-2.67 1.353-4.146.116-1.092.123-2.185-.06-3.274-.135-.815-.536-1.424-1.307-1.76-.198-.085-.39-.185-.594-.256-2.263-.794-4.6-1.107-6.99-1.07-.147.002-.297.038-.44.078-.305.085-.495.29-.548.604-.125.75.097 1.372.696 1.846.38.3.823.475 1.286.6 1.06.29 2.15.367 3.24.4.582.018 1.164.01 1.746.016.334.003.51.125.634.435.015.036.028.073.04.11.08.274.085.31-.164.44-.39.206-.786.414-1.2.566-1.632.604-2.822 1.697-3.627 3.23-.507.964-.628 1.966-.296 3.015.136.433.268.87.38 1.31.038.152.006.322.006.493-.31-.02-.56-.115-.78-.28-.307-.23-.508-.54-.663-.884-.256-.564-.363-1.164-.398-1.778-.013-.24-.002-.482-.002-.723-.017-.006-.033-.01-.05-.017-.39.33-.82.224-1.263.118zm2.39-10.713c-.016-.057-.02-.09-.032-.12-.772-2.232-1.532-4.47-2.325-6.694-.267-.75-.604-1.478-.94-2.2-.11-.234-.297-.45-.495-.618-.467-.4-1.112-.24-1.334.336-.087.225-.115.488-.108.732.02.692.204 1.36.387 2.022.573 2.07 1.314 4.085 2.056 6.098.084.232.173.46.27.72.185-.303.462-.37.758-.38.22-.007.443.003.664.017.358.024.716.056 1.097.086zm2.354.237c.05.01.076.02.103.024.72.125 1.44.244 2.158.38.153.03.21 0 .262-.146.433-1.24.885-2.475 1.312-3.718.48-1.4.952-2.805 1.298-4.247.09-.373.128-.745.014-1.12-.2-.647-.874-.87-1.378-.42-.252.223-.473.504-.637.8-.268.483-.517.985-.705 1.504-.63 1.736-1.227 3.484-1.836 5.227-.197.565-.39 1.13-.592 1.716zm-7.453 1.858c-.14.047-.29.073-.416.145-.384.218-.692.526-.878.928-.08.173-.123.392-.096.577.04.275.126.554.246.806.754 1.587 1.786 2.975 3.06 4.178.242.23.53.424.823.585.504.277.95.12 1.228-.39.127-.232.14-.474.067-.724-.533-1.81-1.325-3.494-2.453-5.008-.228-.306-.54-.555-.834-.803-.205-.173-.462-.262-.747-.292zm5.277 5.685c.295-.31.598-.655.932-.967.33-.31.694-.584 1.056-.883-1.008-.057-1.987-.205-2.915-.543l.927 2.393z" fill="#FFF"/></g></svg>