<svg width="40" height="40" viewBox="0 0 40 40" xmlns="http://www.w3.org/2000/svg"><title>contact icon hover</title><g fill="none" fill-rule="evenodd"><circle fill="#FFF" cx="20" cy="20" r="20"/><path d="M10.32 13C9.592 13 9 13.54 9 14.207v12.586C9 27.458 9.592 28 10.32 28h19.36c.728 0 1.32-.542 1.32-1.207V14.207C31 13.54 30.408 13 29.68 13H10.32zm9.702 10.097c-.364 0-.98-.54-1.412-.947-.79-.743-6.035-6.443-7.68-8.138h18.38c-1.6 1.64-7.618 7.76-8.257 8.387-.49.48-.807.695-1.03.697zM9.997 25.942V15.268c1.243 1.28 3.776 3.675 5.52 5.45l-5.52 5.224zm7.726-3.004c.845.796 1.525 1.29 2.295 1.29.725-.007 1.298-.428 1.94-1.058.193-.19.833-.84 1.68-1.706l5.477 5.54h-18.04l5.273-5.44c.663.673 1.167 1.18 1.375 1.374zm12.34-7.647v10.713l-5.598-5.386c1.828-1.87 4.45-4.148 5.598-5.326z" fill="#3BAFDA"/></g></svg>