<svg width="154" height="154" viewBox="0 0 154 154" xmlns="http://www.w3.org/2000/svg"><title>Oval 32 Copy + Graduater</title><g transform="translate(2 2)" fill="none" fill-rule="evenodd"><circle stroke="#FFF" stroke-width="3" fill="#57A8D9" cx="75" cy="75" r="75"/><path d="M123 64.167L75.5 40 28 64.167 51.333 78v23.5c0 4.833 3.167 8.5 7.5 8.5H92c4.333 0 7.5-3.5 7.5-8.5V78l10-6v16h3.333V70.167l10.167-6zM75.5 43.833L116 64.5 75.5 88.667 35 64.5l40.5-20.667zM96.333 101.5c0 2.5-1.333 5-4.166 5H59c-3 0-4.167-2.5-4.167-5V80l20.834 12.333L96.5 80v21.5h-.167z" fill="#000"/></g></svg>