<svg width="320" height="241" viewBox="0 0 320 241" xmlns="http://www.w3.org/2000/svg"><title>Co-creat anim</title><g fill="none" fill-rule="evenodd"><path d="M16 31c8.284 0 15-6.716 15-15 0-8.284-6.716-15-15-15C7.716 1 1 7.716 1 16c0 8.284 6.716 15 15 15zM149 54c8.284 0 15-6.716 15-15 0-8.284-6.716-15-15-15-8.284 0-15 6.716-15 15 0 8.284 6.716 15 15 15zM304 182c8.284 0 15-6.716 15-15 0-8.284-6.716-15-15-15-8.284 0-15 6.716-15 15 0 8.284 6.716 15 15 15zM16 93c8.284 0 15-6.716 15-15 0-8.284-6.716-15-15-15-8.284 0-15 6.716-15 15 0 8.284 6.716 15 15 15zM63 240c8.284 0 15-6.716 15-15 0-8.284-6.716-15-15-15-8.284 0-15 6.716-15 15 0 8.284 6.716 15 15 15zM133.5 159c21.263 0 38.5-17.237 38.5-38.5S154.763 82 133.5 82 95 99.237 95 120.5s17.237 38.5 38.5 38.5z" stroke="#3BAFDA" stroke-width="2"/><path d="M152.66 100.586c-.64 0-1.197.135-1.667.405-.472.27-.707.657-.707 1.16v27.553l-14.08-26.26c-.528-1.005-1.066-1.733-1.61-2.183-.55-.448-1.217-.674-2.01-.674-1.583 0-2.374.52-2.374 1.563l-.04 27.553-14.08-26.26c-.53-1.005-1.067-1.733-1.612-2.183-.548-.448-1.216-.674-2.008-.674-1.583 0-2.375.52-2.375 1.563v36.233c0 .503.235.898.708 1.186.47.288 1.026.43 1.667.43.64 0 1.197-.142 1.67-.43.47-.29.705-.684.705-1.187V110.83l14.703 27.122c.79 1.365 1.79 2.048 2.995 2.048.64 0 1.197-.142 1.67-.43.47-.29.707-.684.707-1.187l.04-27.552 14.702 27.122c.79 1.365 1.79 2.048 2.996 2.048.64 0 1.197-.142 1.67-.43.47-.29.707-.684.707-1.187V102.15c0-.503-.238-.89-.707-1.16-.473-.27-1.03-.404-1.67-.404z" fill="#4FC1E9"/><path d="M24.5 28.5l77 68M29 85l65 25M140.5 81.5l6-27M171 134l118 30.5M71.5 212.5l39-61" stroke="#3BAFDA" stroke-width="2" stroke-linecap="square"/></g></svg>