<svg width="235" height="242" viewBox="0 0 235 242" xmlns="http://www.w3.org/2000/svg"><title>Share anim</title><g stroke="#4FC1E9" fill="none" fill-rule="evenodd"><rect stroke-width="3" x=".5" y=".5" width="94.306" height="69.862" rx="8"/><rect stroke-width="3" x="8.836" y="171.292" width="94.306" height="69.862" rx="8"/><rect stroke-width="3" x="104.406" y=".5" width="94.306" height="69.862" rx="8"/><rect stroke-width="3" x="35.604" y="86.076" width="94.306" height="69.862" rx="8"/><rect stroke-width="3" x="140.194" y="86.076" width="94.306" height="69.862" rx="8"/><rect stroke-width="3" x="112.413" y="171.638" width="94.306" height="69.862" rx="8"/><path d="M92.265 132.43c0-5.04 5.135-8.13 5.135-14.96s-.663-12.198-1.49-13.174c-2.154-5.692-6.626-6.83-10.105-6.83-4.14 0-7.785 1.626-7.785 1.626-3.81 1.463-6.295 3.578-7.62 6.505-2.153 4.88-.828 9.595.828 13.66 2.65 6.994 6.13 6.994 6.13 12.198 0 5.855-8.45 7.97-8.45 7.97-4.14 1.3-16.5 3.903-16.5 12.522v2.765h61.606v-2.765c-.166-6.83-5.963-9.107-10.104-11.06-1.988-.812-10.65-4.065-11.314-5.69-.33-.873-.33-1.79-.33-2.766zM56.834 46.774c0-5.042 5.134-8.132 5.134-14.962s-.662-12.198-1.49-13.174c-2.154-5.692-6.626-6.83-10.105-6.83-4.14 0-7.785 1.626-7.785 1.626-3.81 1.464-6.294 3.578-7.62 6.505-2.153 4.878-.827 9.595.83 13.66 2.65 6.994 6.128 6.994 6.128 12.198 0 5.855-8.448 7.97-8.448 7.97-4.14 1.3-16.502 3.902-16.502 12.522v2.764h61.606V66.29c-.165-6.83-5.963-9.108-10.104-11.06-1.988-.813-10.65-4.065-11.313-5.692-.33-.872-.33-1.788-.33-2.764zM65.044 217.46c0-5.042 5.135-8.132 5.135-14.963 0-6.83-.664-12.197-1.492-13.173-2.153-5.692-6.626-6.83-10.104-6.83-4.14 0-7.786 1.626-7.786 1.626-3.81 1.464-6.294 3.578-7.62 6.505-2.152 4.88-.827 9.596.83 13.66 2.65 6.995 6.128 6.995 6.128 12.2 0 5.854-8.448 7.968-8.448 7.968-4.14 1.3-16.502 3.903-16.502 12.522v2.765h61.606v-2.765c-.165-6.83-5.963-9.107-10.104-11.06-1.987-.812-10.65-4.064-11.313-5.69-.33-.873-.33-1.79-.33-2.765z" stroke-width="2" stroke-linecap="round" stroke-linejoin="round"/><g stroke-width="2" stroke-linecap="square"><path d="M122.638 20.29h57.47M122.638 30.89h57.47M122.638 41.49h57.47M122.638 52.092h57.47"/></g><g stroke-width="2" stroke-linecap="square"><path d="M191.217 107.068h26.96M191.217 115.414h26.96M191.217 123.76h26.96M191.217 132.105h26.96"/></g><g stroke-width="2" stroke-linecap="square"><path d="M128.39 211.56h61.017M128.39 218.3h61.017M128.39 225.04h61.017"/></g><g transform="translate(128.727 187.08)" stroke-width="2"><ellipse cx="7.558" cy="7.421" rx="7.522" ry="7.421"/><ellipse cx="30.087" cy="7.421" rx="7.522" ry="7.421"/><ellipse cx="52.615" cy="7.421" rx="7.522" ry="7.421"/></g><path d="M94.7 37.004h11.104M130.518 120.864h11.103M102.58 207.684h11.103" stroke-width="2" stroke-linecap="square"/><g transform="translate(154.515 105.805)" stroke-width="2" stroke-linecap="round" stroke-linejoin="round"><path d="M.564.353h29.8V34.63H.564z"/><ellipse cx="22.484" cy="8.552" rx="2.221" ry="2.191"/><path d="M4.934 29.825h21.132l-5.66-6.856-2.72 2.543-5.875-5.44-6.876 9.752z"/></g></g></svg>