<svg width="311" height="282" viewBox="0 0 311 282" xmlns="http://www.w3.org/2000/svg"><title>mark-up anim</title><g stroke="#4FC1E9" fill="none" fill-rule="evenodd"><g stroke-width="2"><path d="M184.764 8.013h-.002l-7.864-6.73h-.003c-.153-.132-.35-.21-.554-.205-.21.006-.385.104-.5.252l-17.525 21.294c-.08.092-.122.21-.142.34l-1.677 10.25s-.01.13.002.2c.03.207.14.39.294.522.154.132.35.21.557.206.067-.002.192-.035.192-.035l9.53-3.53c.12-.043.23-.106.304-.203L184.9 9.082c.125-.14.188-.333.157-.548-.03-.204-.14-.39-.293-.52" fill="#FFF"/><path d="M159.635 22.044l7.976 6.644" stroke-linecap="square"/></g><path d="M13.26 259.104c-.146-.05-.267-.16-.332-.305l-5.012-10.94c-.06-.16-.167-.288-.343-.288-.128 0-.216.078-.257.125-.022.026-.046.048-.07.068l-5.622 6.367c-.158.18-.407.24-.628.154-.22-.087-.365-.304-.365-.545V222.37c0-.234.14-.448.35-.537.214-.092.458-.04.62.123l20.44 21.786c.166.1.278.285.278.5 0 .324-.26.593-.582.582h-8.73c-.186 0-.34.153-.34.337 0 .013 0 .057.05.147l5.258 10.84c.138.285.028.63-.247.776l-4.02 2.145c-.082.044-.172.067-.263.067-.06 0-.124-.01-.183-.03zM8.97 247.42l4.737 10.333 2.998-1.6-4.996-10.296c-.122-.22-.185-.455-.185-.698 0-.823.663-1.497 1.478-1.503h7.33L1.772 223.76v28.465l4.693-5.313c.026-.03.056-.057.087-.08.278-.272.645-.426 1.023-.426 0 0 1.187.408 1.396 1.015zM70.318 177.594c-.147-.05-.268-.16-.333-.306l-5.012-10.937c-.06-.16-.166-.288-.343-.288-.128 0-.216.078-.257.125-.02.025-.045.047-.07.067l-5.622 6.367c-.157.18-.406.24-.627.155-.22-.086-.365-.303-.365-.544V140.86c0-.235.138-.448.35-.538.213-.092.457-.042.62.123l20.44 21.785c.165.102.277.287.277.5 0 .326-.26.595-.58.583h-8.73c-.188.003-.343.154-.343.338 0 .014 0 .06.05.148l5.26 10.84c.137.286.027.63-.247.777l-4.02 2.145c-.083.044-.173.066-.264.066-.06 0-.122-.01-.182-.03zm-4.29-11.684l4.736 10.333 2.998-1.6-4.995-10.296c-.12-.22-.185-.455-.185-.7 0-.82.663-1.494 1.48-1.5h7.33L58.827 142.25v28.465l4.692-5.313c.027-.032.056-.057.087-.082.278-.27.645-.424 1.023-.424 0 0 1.187.408 1.397 1.014zM224.48 130.136c-.147-.052-.268-.16-.333-.306l-5.012-10.937c-.06-.162-.167-.29-.343-.29-.128 0-.216.08-.257.125-.022.026-.045.048-.07.068l-5.622 6.367c-.158.18-.407.24-.628.154-.22-.086-.365-.303-.365-.544V93.4c0-.235.138-.448.35-.538.213-.092.457-.042.62.122l20.44 21.786c.165.102.277.287.277.5 0 .326-.26.595-.58.583h-8.73c-.188 0-.343.153-.343.337 0 .014 0 .058.05.148l5.26 10.84c.137.285.027.63-.247.776l-4.02 2.146c-.083.044-.173.066-.264.066-.06 0-.123-.01-.183-.03zm-4.292-11.684l4.738 10.332 2.998-1.6-4.996-10.295c-.12-.22-.184-.456-.184-.7 0-.822.663-1.496 1.48-1.502h7.33L212.99 94.79v28.465l4.692-5.313c.026-.032.056-.057.087-.082.277-.27.644-.424 1.022-.424 0 0 1.187.408 1.396 1.014z" fill="#4FC1E9"/><path d="M147.348 31.04c-12-3.5-16.5-6-31.98-6-15.477 0-72.467 16.23-89.128 52.886-4.384 9.645-3 24.466-3 34 0 44.968 31.99 124.287 90 116 20.855-2.98 61.452-57.097 71-75 9.612-18.022 18.476-40.19 13-61-8.12-30.86-42.768-48.39-70-58-26.45-9.336-82.665-12.887-101 14.615" stroke-width="3"/><rect stroke-width="2" fill="#FFF" x="32.369" y="249" width="68" height="33" rx="5"/><rect stroke-width="2" fill="#FFF" x="89.369" y="170" width="68" height="33" rx="5"/><rect stroke-width="2" fill="#FFF" x="242.369" y="124" width="68" height="33" rx="5"/></g></svg>