<svg width="288" height="164" viewBox="0 0 288 164" xmlns="http://www.w3.org/2000/svg"><title>Integrate anim</title><g transform="translate(2 2)" fill="none" fill-rule="evenodd"><path d="M206.056 87.525c-9.437 0-17.087-2.25-17.087-5.024 0-5.247 7.79-11.808 7.79-11.808 1.328 0 3.984 3.937 5.312 3.937 1.328 0 6.64-7.874 9.296-7.874 9.125 5.636 11.256 13.19 11.676 15.214.018.05.02.103.033.153.046.237.064.372.065.376 0 2.776-7.65 5.025-17.086 5.025m21.453-5.55c-1.123-5.107-6.38-24.5-21.454-24.5-15.076 0-20.332 19.393-21.454 24.5-.147.404-.25.812-.25 1.23 0 4.737 9.718 8.577 21.704 8.577 11.985 0 21.702-3.84 21.702-8.576 0-.42-.1-.827-.25-1.23" stroke="#4FC1E9" stroke-width="3"/><path d="M94.52 66.862c-.323-.184-.702-.276-1.138-.276-.436 0-.815.092-1.135.276-.32.183-.48.446-.48.788v18.755l-9.584-17.873c-.36-.685-.726-1.18-1.097-1.487-.373-.305-.828-.46-1.368-.46-1.077 0-1.615.356-1.615 1.065l-.028 18.755-9.583-17.873c-.36-.685-.726-1.18-1.097-1.487-.373-.305-.828-.46-1.367-.46-1.078 0-1.617.356-1.617 1.065v24.663c0 .342.16.61.483.807.32.197.698.294 1.135.294.436 0 .814-.097 1.136-.294.32-.196.48-.465.48-.807V73.56l10.008 18.46c.54.93 1.218 1.394 2.04 1.394.435 0 .814-.097 1.136-.294.32-.196.48-.465.48-.807l.028-18.754 10.007 18.46c.54.93 1.218 1.394 2.04 1.394.435 0 .814-.097 1.136-.294.318-.196.48-.465.48-.807V67.65c0-.342-.162-.605-.48-.788" fill="#4FC1E9"/><ellipse stroke="#4FC1E9" stroke-width="3" cx="81.819" cy="80" rx="81.671" ry="80"/><ellipse stroke="#4FC1E9" stroke-width="3" cx="202.813" cy="80" rx="81.671" ry="80"/></g></svg>