<svg width="182" height="172" viewBox="0 0 182 172" xmlns="http://www.w3.org/2000/svg"><title>Have fun anim</title><g stroke="#4FC1E9" fill="none" fill-rule="evenodd"><path d="M92.01 119.7c0-11.31 11.536-18.244 11.536-33.57 0-15.327-1.49-27.37-3.35-29.558C95.36 43.8 85.31 41.246 77.496 41.246c-9.304 0-17.49 3.65-17.49 3.65-8.56 3.283-14.142 8.027-17.12 14.595-4.837 10.95-1.86 21.53 1.862 30.654 5.954 15.69 13.77 15.69 13.77 27.368 0 13.137-18.98 17.88-18.98 17.88-9.304 2.92-37.074 8.758-37.074 28.1v6.202H140.87v-6.203c-.37-15.326-13.396-20.434-22.7-24.813-4.465-1.825-23.928-9.123-25.416-12.772-.745-1.957-.745-4.014-.745-6.204z" stroke-width="3" stroke-linecap="round" stroke-linejoin="round"/><path d="M63.372 50.052c-9.152 2.122-38.77-40.205-39.06-40.208-5.002-.05 22.123 52.164 22.52 52.882M93.335 53.4c7.01-6.66 5.854-5.743 14.684-13.107 8.68-7.24 29.494-38 27.747-38.197-1.59-.178-.39 2.907-.586 4.36-1.2 8.94-14.445 44.76-27.886 63.262" stroke-width="3"/><g stroke-width="2"><path d="M179.764 38.013h-.002l-7.864-6.73h-.003c-.153-.132-.35-.21-.554-.205-.21.006-.385.104-.5.252l-17.525 21.294c-.08.092-.122.21-.142.34l-1.677 10.25s-.01.13.002.2c.03.207.14.39.294.522.154.132.35.21.557.206.067-.002.192-.035.192-.035l9.53-3.53c.12-.043.23-.106.304-.203L179.9 39.082c.125-.14.188-.333.157-.548-.03-.204-.14-.39-.293-.52" fill="#FFF"/><path d="M154.635 52.044l7.976 6.644" stroke-linecap="square"/></g></g></svg>