<svg width="478" height="112" viewBox="0 0 478 112" xmlns="http://www.w3.org/2000/svg"><title>Interact anim</title><g fill="none" fill-rule="evenodd"><rect stroke="#4FC1E9" stroke-width="3" x=".413" y=".638" width="145.408" height="110.448" rx="8"/><rect stroke="#4FC1E9" stroke-width="3" x="166.005" y=".638" width="145.408" height="110.448" rx="8"/><rect stroke="#4FC1E9" stroke-width="3" x="331.596" y=".638" width="145.408" height="110.448" rx="8"/><path d="M105.042 28.135c-.64-.367-1.395-.55-2.264-.55-.868 0-1.622.183-2.258.55-.64.364-.958.89-.958 1.57v37.34L80.482 31.46c-.717-1.364-1.447-2.35-2.186-2.96-.742-.608-1.647-.914-2.722-.914-2.144 0-3.217.707-3.217 2.12l-.055 37.34-19.08-35.586c-.717-1.364-1.446-2.35-2.184-2.96-.743-.608-1.65-.914-2.723-.914-2.145 0-3.218.707-3.218 2.12v49.103c0 .68.318 1.216.96 1.606.636.39 1.39.584 2.258.584.868 0 1.622-.193 2.262-.584.637-.39.958-.925.958-1.607V41.47L71.46 78.225C72.532 80.075 73.885 81 75.52 81c.868 0 1.622-.193 2.262-.584.637-.39.958-.925.958-1.607l.054-37.34L98.72 78.225c1.07 1.85 2.424 2.775 4.058 2.775.87 0 1.623-.193 2.264-.584.636-.39.958-.925.958-1.607V29.704c0-.68-.322-1.206-.958-1.57M267.18 28.135c-.64-.367-1.396-.55-2.264-.55-.868 0-1.622.183-2.26.55-.638.364-.956.89-.956 1.57v37.34L242.62 31.46c-.718-1.364-1.447-2.35-2.186-2.96-.742-.608-1.647-.914-2.723-.914-2.143 0-3.215.707-3.215 2.12l-.056 37.34-19.08-35.586c-.717-1.364-1.446-2.35-2.185-2.96-.742-.608-1.648-.914-2.722-.914-2.145 0-3.218.707-3.218 2.12v49.103c0 .68.318 1.216.96 1.606.636.39 1.39.584 2.258.584.868 0 1.622-.193 2.262-.584.637-.39.958-.925.958-1.607V41.47l19.925 36.755c1.072 1.85 2.424 2.775 4.06 2.775.867 0 1.62-.193 2.262-.584.637-.39.958-.925.958-1.607l.053-37.34 19.927 36.755c1.072 1.85 2.425 2.775 4.06 2.775.867 0 1.622-.193 2.263-.584.636-.39.958-.925.958-1.607V29.704c0-.68-.322-1.206-.958-1.57M431.363 29.135c-.64-.367-1.395-.55-2.264-.55-.87 0-1.623.183-2.26.55-.64.364-.957.89-.957 1.57v37.34l-19.08-35.585c-.717-1.364-1.447-2.35-2.185-2.96-.743-.608-1.648-.914-2.723-.914-2.144 0-3.217.707-3.217 2.12l-.055 37.34-19.08-35.586c-.717-1.364-1.446-2.35-2.184-2.96-.744-.608-1.65-.914-2.724-.914-2.145 0-3.218.707-3.218 2.12v49.103c0 .68.318 1.216.96 1.606.636.39 1.39.584 2.258.584.868 0 1.622-.193 2.262-.584.637-.39.958-.925.958-1.607V42.47l19.925 36.755c1.073 1.85 2.426 2.775 4.06 2.775.87 0 1.623-.193 2.263-.584.637-.39.958-.925.958-1.607l.055-37.34 19.925 36.755c1.072 1.85 2.425 2.775 4.06 2.775.868 0 1.622-.193 2.263-.584.636-.39.958-.925.958-1.607V30.704c0-.68-.32-1.206-.957-1.57" fill="#4FC1E9"/></g></svg>