<svg width="894" height="498" viewBox="0 0 894 498" xmlns="http://www.w3.org/2000/svg"><title>Group</title><g transform="translate(-65 2)" fill="none" fill-rule="evenodd"><circle stroke="#FFF" stroke-width="3" cx="531.5" cy="269.5" r="201.5"/><g transform="translate(587 344)"><circle stroke="#FFF" stroke-width="3" fill="#57A8D9" cx="75" cy="75" r="75"/><path d="M73.72 36c-12.224 0-23.17 8.07-26.44 19.678-.852 2.55-1.278 5.24-1.278 8.212 0 11.61 5.26 16.14 9.382 19.678.426.283.71.708 1.137.99 3.412 2.833 5.402 5.24 6.54 10.336v16.28c0 2.407 1.848 4.248 4.264 4.248h13.504c2.274 0 3.696-1.7 3.696-4.247V95.743c1.563-4.955 3.696-7.645 6.254-9.91 2.275-1.557 4.265-3.397 5.97-5.38 2.417-2.548 3.84-5.238 4.69-8.494.996-2.832 1.423-5.664 1.423-8.637C102.72 48.458 89.358 36 73.72 36zm7.677 75.033c0 1.416-.57 1.416-.71 1.416H67.18c-.853 0-1.28-.85-1.28-1.417v-1.416H81.54v-2.83H65.902v-2.832H81.54l-.143 7.078zm17.057-40.065c-.71 2.832-2.132 5.238-4.122 7.504-1.564 1.982-3.41 3.54-5.544 4.955l-.142.14c-3.127 2.69-5.544 5.947-7.25 11.468v6.088H65.76V94.47c-1.28-5.947-3.838-9.203-7.533-12.318-.427-.283-.71-.566-1.138-.85-3.98-3.397-8.53-7.078-8.53-17.554 0-2.69.427-5.096 1.138-7.362C52.683 46.052 62.49 38.69 73.436 38.69c13.93 0 26.156 11.326 26.156 24.35.284 2.69-.143 5.38-1.138 7.928zM74.29 62.616c-3.98 0-7.25 3.256-7.25 7.22 0 3.54 2.558 6.37 5.828 7.078V92.77h2.843V76.914c3.412-.708 5.97-3.54 5.97-7.078 0-4.106-3.268-7.22-7.39-7.22zm1.42 11.467v-4.106H72.87v4.106c-1.848-.566-3.27-2.265-3.27-4.39 0-2.547 2.133-4.67 4.69-4.67 2.56 0 4.692 2.123 4.692 4.67 0 2.125-1.28 3.824-3.27 4.39z" fill="#000"/><text font-family="Exo" font-size="24" font-weight="420" fill="#113958"><tspan x="175.26" y="68.152">Machine</tspan> <tspan x="175.26" y="101.152">Learning</tspan></text></g><g transform="translate(0 119)"><circle stroke="#FFF" stroke-width="3" fill="#57A8D9" cx="331" cy="75" r="75"/><text font-family="Exo" font-size="24" font-weight="420" fill="#113958"><tspan x="65" y="63.005">Disrupt IT with </tspan> <tspan x="64.424" y="96.005">Micro Services</tspan></text><path d="M364.4 67.07v-1.94c0-17.45-14.1-31.55-31.55-31.55h-.176c-14.98 0-27.67 10.4-30.844 24.676-10.222.705-18.33 9.34-18.33 19.917v.705c0 10.927 8.99 19.916 19.917 19.916h13.57V95.27h-13.57c-8.99 0-16.392-7.404-16.392-16.392v-.705c0-8.99 7.403-16.392 16.392-16.392h1.41l.176-1.41c2.29-13.394 13.924-23.264 27.67-23.264h.178c15.51 0 28.025 12.514 28.025 28.024v.176c0 1.058 0 2.115-.176 3.173l-.178 1.937h2.644c6.52 0 11.985 5.288 11.985 11.986v.88c0 6.522-5.286 11.986-11.984 11.986h-14.63v3.524h14.454c8.46 0 15.51-6.874 15.51-15.51v-.88c0-7.933-6.17-14.63-14.1-15.335zm-30.14 9.164c-.176-.176-.528-.353-.704-.353-.705-.35-1.587-.35-2.115.178l-10.575 10.398c-.705.705-.705 1.763 0 2.468.353.352.882.53 1.234.53.528 0 .88-.178 1.233-.53l7.58-7.403v33.137c0 1.057.704 1.762 1.76 1.762 1.06 0 1.764-.706 1.764-1.763V81.52l7.58 7.756c.35.353.88.53 1.233.53.528 0 .88-.177 1.233-.53.705-.705.705-1.762 0-2.467L334.26 76.233z" fill="#000"/></g><g transform="translate(454)"><circle stroke="#FFF" stroke-width="3" fill="#57A8D9" cx="75" cy="75" r="75"/><path d="M123 64.167L75.5 40 28 64.167 51.333 78v23.5c0 4.833 3.167 8.5 7.5 8.5H92c4.333 0 7.5-3.5 7.5-8.5V78l10-6v16h3.333V70.167l10.167-6zM75.5 43.833L116 64.5 75.5 88.667 35 64.5l40.5-20.667zM96.333 101.5c0 2.5-1.333 5-4.166 5H59c-3 0-4.167-2.5-4.167-5V80l20.834 12.333L96.5 80v21.5h-.167z" fill="#000"/></g><text font-family="Exo" font-size="24" font-weight="420" fill="#113958" transform="translate(454)"><tspan x="178" y="32">Reduce the cost of </tspan> <tspan x="178" y="65">education</tspan></text><g transform="translate(654 147)"><circle stroke="#FFF" stroke-width="3" fill="#57A8D9" cx="75" cy="75" r="75"/><text font-family="Exo" font-size="24" font-weight="420" fill="#113958"><tspan x="172.078" y="62.851">MarTech and </tspan> <tspan x="172.078" y="95.851">analytics</tspan></text><path d="M53.055 52.94V37.986c0-.888-.585-1.48-1.463-1.48-.878 0-1.463.592-1.463 1.48V52.94c-2.488.594-4.39 2.815-4.39 5.628v.296c0 2.666 1.902 5.035 4.39 5.627v47.534c0 .888.584 1.48 1.462 1.48s1.463-.592 1.463-1.48V64.49c2.487-.59 4.39-2.812 4.39-5.626v-.296c0-2.813-1.903-5.034-4.39-5.627zm1.463 5.924c0 1.48-1.17 2.814-2.78 2.814h-.292c-1.463 0-2.78-1.185-2.78-2.814v-.296c0-1.48 1.17-2.813 2.78-2.813h.292c1.463 0 2.78 1.184 2.78 2.813v.296zm21.945 8.885V37.984c0-.888-.585-1.48-1.463-1.48-.878 0-1.463.592-1.463 1.48V67.75c-2.487.59-4.39 2.812-4.39 5.626v.296c0 2.665 1.903 5.035 4.39 5.627v32.724c0 .888.585 1.48 1.463 1.48.878 0 1.463-.592 1.463-1.48V79.3c2.487-.593 4.39-2.815 4.39-5.628v-.296c0-2.814-1.903-5.035-4.39-5.627zm1.463 5.922c0 1.48-1.17 2.813-2.78 2.813h-.292c-1.463 0-2.78-1.184-2.78-2.813v-.296c0-1.48 1.17-2.814 2.78-2.814h.292c1.463 0 2.78 1.185 2.78 2.814v.296zm21.945 8.885V37.985c0-.888-.584-1.48-1.462-1.48s-1.463.592-1.463 1.48v44.572c-2.487.592-4.39 2.813-4.39 5.627v.296c0 2.665 1.903 5.034 4.39 5.627v17.917c0 .888.585 1.48 1.463 1.48.878 0 1.463-.592 1.463-1.48V94.107c2.488-.593 4.39-2.814 4.39-5.627v-.296c0-2.814-1.902-5.035-4.39-5.627zm1.464 5.923c0 1.48-1.17 2.813-2.78 2.813h-.292c-1.463 0-2.78-1.184-2.78-2.813v-.296c0-1.48 1.17-2.814 2.78-2.814h.292c1.463 0 2.78 1.185 2.78 2.814v.296z" fill="#000"/></g><g transform="translate(185 344)"><circle stroke="#FFF" stroke-width="3" fill="#57A8D9" cx="229" cy="75" r="75"/><text font-family="Exo" font-size="24" font-weight="420" fill="#113958"><tspan x="7.675" y="84.72"> B2B SAAS</tspan></text><g fill="#000"><path d="M262.83 38.848h-67.66c-4.306 0-7.69 3.38-7.69 7.685v49.184c0 4.304 3.384 7.685 7.69 7.685h67.66c4.306 0 7.69-3.38 7.69-7.685V46.533c0-4.304-3.384-7.685-7.69-7.685zm4.613 56.87c0 2.612-2 4.61-4.613 4.61h-67.66c-2.614 0-4.613-1.998-4.613-4.61V46.532c0-2.613 2-4.61 4.613-4.61h67.66c2.614 0 4.613 1.997 4.613 4.61v49.184zm-24.603 16.866h-7.69V104.9c0-.923-.614-1.538-1.537-1.538-.922 0-1.538.615-1.538 1.537v7.684h-6.15V104.9c0-.923-.616-1.538-1.538-1.538-.923 0-1.538.615-1.538 1.537v7.684h-6.152c-.923 0-1.538.615-1.538 1.537 0 .923.615 1.538 1.538 1.538h26.142c.922 0 1.537-.615 1.537-1.537 0-.92-.615-1.536-1.537-1.536z"/><path d="M243.428 53.38v2.076h6.954L235.02 70.61 222.565 59.4l-20.552 11.833 1.038 1.764 19.203-11.002 12.767 11.52 16.712-16.606v6.85h2.076V53.38h-10.38z"/><path d="M210.316 75.8v13.91h37.368V71.024l-12.664 10.07-13.493-11.315-11.21 6.02zm2.076 11.833v-10.69l8.927-4.672 13.7 11.522 10.588-8.407v12.248h-33.216z"/></g></g></g></svg>