<svg width="66" height="66" viewBox="0 0 66 66" xmlns="http://www.w3.org/2000/svg"><title>Imported-Layers</title><path d="M33.405 48.478c-8.554.227-15.666-6.513-15.89-15.065-.24-8.55 6.504-15.67 15.058-15.9 8.542-.226 15.666 6.518 15.89 15.05.242 8.554-6.51 15.675-15.058 15.915M62.152 49.6c.16.056.29.007.396-.15 1.547-2.765 2.695-5.758 3.435-8.928.018-.224-.108-.362-.372-.424l.007-.006c-3.695-.706-6.54-3.89-6.666-7.802-.097-3.92 2.573-7.268 6.234-8.158v-.006c.246-.068.375-.203.323-.43-.88-3.1-2.186-6.03-3.874-8.698-.138-.185-.31-.203-.54-.043v-.037c-3.12 2.136-7.38 1.897-10.233-.798-2.842-2.695-3.3-6.95-1.354-10.166l-.015.006c.142-.24.115-.41-.073-.552C46.66 1.885 43.677.725 40.507 0c-.22-.01-.356.1-.393.357L40.108.35c-.72 3.714-3.89 6.557-7.824 6.66-3.92.105-7.262-2.565-8.164-6.217-.067-.264-.196-.362-.433-.326-3.103.89-6.022 2.192-8.674 3.865-.217.156-.236.328-.073.567h-.006c2.108 3.12 1.89 7.38-.823 10.223-2.694 2.852-6.936 3.306-10.155 1.35v.01c-.24-.138-.412-.117-.544.068C1.88 19.31.73 22.31.005 25.456c-.027.23.08.36.332.42C4.04 26.58 6.9 29.77 7 33.685 7.11 37.63 4.445 40.95.777 41.87l.01.007c-.262.042-.36.186-.342.416.903 3.082 2.2 5.997 3.877 8.668.153.22.328.25.568.092v.006c3.116-2.13 7.373-1.897 10.228.792 2.848 2.704 3.3 6.95 1.366 10.184-.145.22-.126.393.086.53 2.74 1.542 5.73 2.687 8.873 3.4.242.045.384-.07.42-.327.71-3.7 3.905-6.552 7.815-6.678 3.935-.098 7.268 2.576 8.18 6.23l.006-.005c.074.264.196.362.417.338 3.117-.884 6.023-2.198 8.687-3.874.228-.146.24-.32.083-.555h.006c-2.114-3.115-1.9-7.378.792-10.223 2.744-2.904 7.07-3.327 10.304-1.27" fill="#91AA9D" fill-rule="evenodd"/></svg>