<svg width="69" height="84" viewBox="0 0 69 84" xmlns="http://www.w3.org/2000/svg"><title>Imported-Layers</title><path d="M57.482 51.7H46.434l7.68-8.406H65.16l-7.68 8.407zm-29.418 0l7.68-8.406H46.79L39.113 51.7H28.064zm-18.37 0l7.68-8.406H28.42l-7.68 8.407H9.694zM8.056 29.97l10.22-6.393-.493 8.52-10.22 6.392.493-8.52zm16.993-10.63l10.22-6.393-.494 8.52-10.22 6.392.493-8.518zM42.042 8.71l10.222-6.392-.494 8.52-10.22 6.392.493-8.52zM66.38 40.464H7.906l49.43-30.687c.842-.523 1.108-1.642.594-2.5L54.084.872C53.57.014 52.47-.256 51.627.267L.857 31.787c-.843.522-1.11 1.642-.594 2.5l3.843 6.404c.27.45.704.734 1.175.83-.105.233-.168.49-.168.762v38.985c0 1.005.8 1.82 1.788 1.82h59.48c.99 0 1.79-.815 1.79-1.82V42.282c0-1.004-.8-1.82-1.79-1.82z" fill="#91AA9D" fill-rule="evenodd"/></svg>