<svg width="73" height="76" viewBox="0 0 73 76" xmlns="http://www.w3.org/2000/svg"><title>Imported-Layers</title><path d="M73 30.768v4.065c0 .16-.13.28-.29.268l-10.024-.826c-.16-.013-.29-.155-.29-.315v-2.317c0-.16.13-.302.29-.315L72.71 30.5c.16-.012.29.108.29.268zm-9.107-20.09l-7.673 6.504c-.122.104-.315.096-.428-.017l-1.637-1.637c-.114-.113-.122-.306-.018-.43l6.504-7.672c.104-.122.282-.13.395-.016l2.875 2.874c.113.114.106.292-.017.395zM50.45 20.864c1.794 2.01 5.872 7.54 4.998 15.445-.515 4.656-2.702 7.994-4.817 11.223-2.304 3.52-4.68 6.625-4.934 11.93 0 .005-.003.008-.003.013-.063.515-.45.698-1.097.698H27.41c-.505 0-.652-.472-.68-.902 0-.006-.003-.01-.003-.017-.402-5.088-2.736-8.328-5-11.977-2.777-4.472-5.4-8.696-4.714-15.204.68-6.468 3.998-10.57 6.66-12.87 2.02-1.746 6.32-4.68 12.403-4.69h.038c7.54 0 12.218 3.98 14.335 6.353zM38.615.29l-.827 10.024c-.014.16-.156.29-.316.29H35.16c-.162 0-.303-.13-.317-.29L34.016.29c-.013-.16.107-.29.268-.29h4.065c.16 0 .28.13.266.29zm-19.77 15.238l-1.637 1.637c-.115.113-.307.12-.43.017L9.107 10.68c-.122-.104-.13-.282-.016-.396l2.876-2.874c.113-.113.29-.106.394.016l6.504 7.673c.103.122.095.315-.018.428zm-8.53 15.8c.16.013.29.155.29.315v2.316c0 .16-.13.3-.29.314L.29 35.1c-.16.014-.29-.106-.29-.267v-4.065c0-.16.13-.28.29-.267l10.025.828zm16.47 35.003l.016-4.164c0-.106.09-.194.195-.194h18.455c.107 0 .192.088.19.194l-.01 2.69c0 .106-.083.2-.19.208L26.978 66.51c-.106.008-.193-.073-.192-.18zm.242 2.215l18.44-1.444c.107-.008.173.07.147.174l-1.865 4.58c-.057.09-.192.162-.298.162H29.745c-.106 0-.71-.43-.964-.632-.937-.742-1.855-2.654-1.855-2.654-.05-.094-.003-.18.103-.185zm6.016 4.983h6.383c.106 0 .263 2.478-3.192 2.415-3.454-.062-3.298-2.415-3.19-2.415z" fill="#91AA9D" fill-rule="evenodd"/></svg>