<svg width="48" height="70" viewBox="0 0 48 70" xmlns="http://www.w3.org/2000/svg"><title>Imported-Layers</title><path d="M20.55 57.567c0 2.08 1.685 3.765 3.764 3.765 2.08 0 3.764-1.686 3.764-3.765 0-2.08-1.685-3.765-3.764-3.765-2.08 0-3.765 1.686-3.765 3.765m0-11.763c0 2.08 1.685 3.764 3.764 3.764 2.08 0 3.764-1.685 3.764-3.764 0-2.08-1.685-3.765-3.764-3.765-2.08 0-3.765 1.684-3.765 3.764m0-11.764c0 2.08 1.685 3.765 3.764 3.765 2.08 0 3.764-1.686 3.764-3.765 0-2.08-1.685-3.764-3.764-3.764-2.08 0-3.765 1.685-3.765 3.764M7.215 57.567c0 2.08 1.685 3.765 3.764 3.765 2.08 0 3.765-1.686 3.765-3.765 0-2.08-1.685-3.765-3.765-3.765s-3.764 1.686-3.764 3.765m0-11.763c0 2.08 1.685 3.764 3.764 3.764 2.08 0 3.765-1.685 3.765-3.764 0-2.08-1.685-3.765-3.765-3.765s-3.764 1.684-3.764 3.764m0-11.764c0 2.08 1.685 3.765 3.764 3.765 2.08 0 3.765-1.686 3.765-3.765 0-2.08-1.685-3.764-3.765-3.764S7.216 31.96 7.216 34.04m34.196-14.304V8.81c0-1.227-.996-2.222-2.224-2.222H9.438c-1.227 0-2.222.995-2.222 2.223v10.926c0 1.228.995 2.223 2.223 2.223h29.748c1.228 0 2.224-.996 2.224-2.224m0 14.304c0-2.08-1.686-3.764-3.765-3.764-2.08 0-3.765 1.685-3.765 3.764 0 2.08 1.686 3.765 3.765 3.765 2.08 0 3.765-1.686 3.765-3.765m0 11.764c0-2.08-1.686-3.765-3.765-3.765-2.08 0-3.765 1.684-3.765 3.764s1.686 3.764 3.765 3.764c2.08 0 3.765-1.685 3.765-3.764m0 11.763c0-2.08-1.686-3.765-3.765-3.765-2.08 0-3.765 1.686-3.765 3.765 0 2.08 1.686 3.765 3.765 3.765 2.08 0 3.765-1.686 3.765-3.765M48 65.2c0 2.456-1.99 4.447-4.447 4.447H4.447C1.99 69.647 0 67.657 0 65.2V4.447C0 1.99 1.99 0 4.447 0h39.106C46.01 0 48 1.99 48 4.447V65.2" fill="#91AA9D" fill-rule="evenodd"/></svg>