<svg width="84" height="84" viewBox="0 0 84 84" xmlns="http://www.w3.org/2000/svg"><title>Fill-1</title><path d="M83.527 13.082s-7.888-2.103-9.72-3.55C72.738 7.033 69.323 0 69.323 0s-7.8 6.703-8.223 10.84c-.272 2.642.4 4.89 1.12 7.475-5.02 3.693-10.986 8.188-15.887 12.71-2.133 1.968-5.044 4.24-4.3 7.663-2.476 3.192-6.437 4.9-7.1 9.906 5.085-.646 6.652-4.81 10.092-7.102 3.557.565 5.567-2.263 7.476-4.3 1.712-1.824 3.165-3.502 4.487-5.046 3.24-3.78 5.52-7.836 8.41-10.84 3.518 1.32 8.04 1.65 11.028 0 1.845-1.02 7.102-8.224 7.102-8.224zM59.23 34.39c2.437 4.21 4.102 9.063 3.55 15.886-1.068 13.2-11.566 23.318-24.484 24.297C21.71 75.833 7.5 62.99 8.952 45.043c1.044-12.902 11.342-23.3 24.484-24.298 6.233-.472 11.225.936 15.887 3.552 2.297-2.065 4.93-3.794 7.29-5.794-7.807-6.706-23.75-8.552-34.765-3.925C9.108 19.93-1.472 33.49.168 51.398c1.61 17.584 16.583 32.18 35.51 32.147 19.36-.036 34.394-14.594 35.887-32.52.808-9.71-1.81-17.41-6.73-24.11-1.704 2.654-3.786 4.934-5.606 7.474zm-21.495 4.298c1.357-1.758 1.53-4.387 2.617-5.98.52-.763 1.64-1.214 1.308-1.87-12.406-3.936-23.888 4.977-23.737 17.008.13 10.317 8.587 17.756 17.943 17.756 11.468 0 20.946-11.255 16.82-23.923-1.124.598-2.318 1.927-4.11 2.615-1.257.482-2.947.358-3.74 1.495.775 6.642-3.85 10.373-7.662 10.84-13.66 1.677-13.47-20.34.56-17.942z" fill="#91AA9D" fill-rule="evenodd"/></svg>