<svg width="100" height="100" viewBox="0 0 100 100" xmlns="http://www.w3.org/2000/svg"><title>icon_metrics</title><g fill="none" fill-rule="evenodd"><path fill="#FFF" d="M0 0h100v100H0z"/><path d="M46.05 72.067c0 2.08 1.685 3.765 3.764 3.765 2.08 0 3.764-1.686 3.764-3.765 0-2.08-1.685-3.765-3.764-3.765-2.08 0-3.765 1.686-3.765 3.765m0-11.763c0 2.08 1.685 3.764 3.764 3.764 2.08 0 3.764-1.685 3.764-3.764 0-2.08-1.685-3.765-3.764-3.765-2.08 0-3.765 1.684-3.765 3.764m0-11.764c0 2.08 1.685 3.765 3.764 3.765 2.08 0 3.764-1.686 3.764-3.765 0-2.08-1.685-3.764-3.764-3.764-2.08 0-3.765 1.685-3.765 3.764M32.715 72.067c0 2.08 1.685 3.765 3.764 3.765 2.08 0 3.765-1.686 3.765-3.765 0-2.08-1.685-3.765-3.765-3.765s-3.764 1.686-3.764 3.765m0-11.763c0 2.08 1.685 3.764 3.764 3.764 2.08 0 3.765-1.685 3.765-3.764 0-2.08-1.685-3.765-3.765-3.765s-3.764 1.684-3.764 3.764m0-11.764c0 2.08 1.685 3.765 3.764 3.765 2.08 0 3.765-1.686 3.765-3.765 0-2.08-1.685-3.764-3.765-3.764s-3.764 1.685-3.764 3.764m34.196-14.304V23.31c0-1.227-.996-2.222-2.224-2.222h-29.75c-1.227 0-2.222.995-2.222 2.223v10.926c0 1.228.995 2.223 2.223 2.223h29.748c1.228 0 2.224-.996 2.224-2.224m0 14.304c0-2.08-1.686-3.764-3.765-3.764-2.08 0-3.765 1.685-3.765 3.764 0 2.08 1.686 3.765 3.765 3.765 2.08 0 3.765-1.686 3.765-3.765m0 11.764c0-2.08-1.686-3.765-3.765-3.765-2.08 0-3.765 1.684-3.765 3.764s1.686 3.764 3.765 3.764c2.08 0 3.765-1.685 3.765-3.764m0 11.763c0-2.08-1.686-3.765-3.765-3.765-2.08 0-3.765 1.686-3.765 3.765 0 2.08 1.686 3.765 3.765 3.765 2.08 0 3.765-1.686 3.765-3.765M73.5 79.7c0 2.456-1.99 4.447-4.447 4.447H29.947c-2.456 0-4.447-1.99-4.447-4.447V18.947c0-2.456 1.99-4.447 4.447-4.447h39.106c2.456 0 4.447 1.99 4.447 4.447V79.7" fill="#0079BA"/></g></svg>