<svg width="100" height="100" viewBox="0 0 100 100" xmlns="http://www.w3.org/2000/svg"><title>icon_market</title><g fill="none" fill-rule="evenodd"><path fill="#FFF" d="M0 0h100v100H0z"/><g fill="#0079BA"><path d="M95.488 18.045s-7.888-2.103-9.72-3.55c-1.07-2.498-4.485-9.532-4.485-9.532s-7.8 6.703-8.223 10.84c-.27 2.642.402 4.89 1.12 7.475-5.02 3.693-10.985 8.188-15.886 12.71-2.133 1.968-5.044 4.24-4.3 7.663-2.476 3.193-6.437 4.902-7.1 9.907 5.085-.646 6.652-4.81 10.092-7.102 3.557.565 5.567-2.263 7.476-4.3 1.71-1.824 3.164-3.502 4.486-5.046 3.24-3.782 5.52-7.837 8.41-10.84 3.518 1.32 8.04 1.65 11.028 0 1.845-1.02 7.102-8.225 7.102-8.225"/><path d="M71.19 39.352c2.438 4.21 4.103 9.064 3.55 15.887-1.067 13.2-11.565 23.317-24.483 24.296-16.587 1.26-30.796-11.583-29.344-29.53 1.044-12.902 11.342-23.3 24.484-24.298 6.233-.472 11.225.936 15.887 3.552 2.297-2.065 4.93-3.794 7.29-5.794-7.807-6.706-23.75-8.552-34.765-3.925-12.74 5.353-23.32 18.913-21.68 36.82 1.61 17.585 16.582 32.182 35.51 32.148 19.36-.036 34.393-14.594 35.886-32.52.808-9.71-1.81-17.41-6.73-24.11-1.704 2.654-3.786 4.934-5.606 7.474"/><path d="M49.696 43.65c1.357-1.757 1.53-4.386 2.617-5.98.52-.762 1.64-1.213 1.308-1.87-12.405-3.935-23.887 4.978-23.736 17.01.13 10.316 8.587 17.755 17.943 17.755 11.468 0 20.946-11.255 16.82-23.923-1.124.6-2.318 1.928-4.11 2.616-1.257.482-2.947.358-3.74 1.495.775 6.642-3.85 10.373-7.662 10.84-13.66 1.677-13.47-20.34.56-17.942"/></g></g></svg>