<svg width="73" height="73" viewBox="0 0 73 73" xmlns="http://www.w3.org/2000/svg"><title>Imported-Layers</title><path d="M65.02 37.487c.415 3.28.098 7.63-.315 11.32-3.328 6.74-10.805 12.137-17.56 14.06.044-1.874.098-3.716.182-5.48 1.528-.794 2.708-1.2 3.523-2.348 1.634-2.305 2.097-8.536 2.006-12.385-.065-2.782-.44-4.75-.17-6.24.144-.803 2.685-4.44 3.34-4.964 2.572.72 5.842-.292 7.71 1.208.914.735 1.04 2.91 1.284 4.83m-11.692-8.184c-5.243.76-7.763-8.034-4.625-11.536.785-.876 2.06-1.465 3.468-1.61 7.796-.8 7.165 12.275 1.158 13.146m-16.446-2.146c-.136.01-.272.01-.406.005-.135.004-.27.004-.407-.005-6.063-.428-7.652-13.58.256-13.816h.3c7.907.235 6.32 13.388.256 13.816m-17.258 2.146c-6.007-.87-6.638-13.945 1.156-13.146 1.41.145 2.684.734 3.47 1.61 3.136 3.502.616 12.297-4.626 11.536m-2.7 2.147c.657.526 3.197 4.162 3.342 4.964.27 1.49-.105 3.46-.17 6.24-.09 3.85.372 10.08 2.006 12.385.815 1.148 1.994 1.553 3.522 2.347.084 1.764.14 3.606.184 5.48-6.757-1.923-14.233-8.164-17.56-14.06-.415-3.69-.73-8.04-.316-11.32.242-1.918.37-4.094 1.285-4.83 1.867-1.5 5.137-.487 7.708-1.206m11.82 24.012c-1.475-.12-3.83-.927-4.496-2.415-.465-1.033-.643-3.24-.9-5.097-.538-3.877-.33-7.336.128-11.134.295-2.448.213-4.502 1.927-5.365.828-.416 6.323-2.672 7.452-2.347 1.563.45 2.202 4.396 3.62 5.364 1.416-.968 2.055-4.915 3.618-5.364 1.13-.325 6.624 1.93 7.45 2.348 1.716.864 1.634 2.918 1.928 5.366.458 3.798.666 7.257.13 11.134-.258 1.857-.437 4.064-.9 5.097-.667 1.488-3.022 2.294-4.497 2.415-.052 2.348-.134 5.258-.222 8.273-2.344.43-4.758.655-7.226.655-2.667 0-5.272-.265-7.793-.764-.087-2.976-.168-5.843-.22-8.164m44.207-18.986C72.952 16.33 56.622 0 36.476 0 16.33 0 0 16.33 0 36.476 0 56.62 16.33 72.952 36.476 72.952c20.145 0 36.476-16.33 36.476-36.476" fill="#91AA9D" fill-rule="evenodd"/></svg>