<svg width="100" height="100" viewBox="0 0 100 100" xmlns="http://www.w3.org/2000/svg"><title>icon_story</title><g fill="none" fill-rule="evenodd"><path fill="#FFF" d="M0 0h100v100H0z"/><path d="M72.482 56.7H61.434l7.68-8.406H80.16l-7.68 8.407zm-29.418 0l7.68-8.406H61.79L54.113 56.7H43.064zm-18.37 0l7.68-8.406H43.42l-7.68 8.407H24.694zM23.056 34.97l10.22-6.393-.493 8.52-10.22 6.392.493-8.52zm16.993-10.63l10.22-6.393-.494 8.52-10.22 6.392.493-8.518zm16.993-10.63l10.222-6.392-.494 8.52-10.22 6.392.493-8.52zM81.38 45.464H22.906l49.43-30.687c.842-.523 1.108-1.642.594-2.5l-3.845-6.404c-.514-.858-1.615-1.128-2.458-.605l-50.77 31.52c-.843.522-1.11 1.642-.594 2.5l3.843 6.404c.27.45.704.734 1.175.83-.105.233-.168.49-.168.762v38.985c0 1.005.8 1.82 1.788 1.82h59.48c.99 0 1.79-.815 1.79-1.82V47.282c0-1.004-.8-1.82-1.79-1.82z" fill="#0079BA"/></g></svg>