<svg width="539" height="330" viewBox="0 0 539 330" xmlns="http://www.w3.org/2000/svg" xmlns:xlink="http://www.w3.org/1999/xlink"><title>screens_a</title><defs><path id="a" d="M.452.41l.2.12 4.61 2.658L.45.41z"/></defs><g fill="none" fill-rule="evenodd"><path d="M358.758 73.636l167.958 96.412.198 94.478-168.122-96.32-.034-94.57" fill="#D3E7C9"/><path d="M414.298 139.113c.123-1.423-3.9-10.642 1.995-16.344 3.336-3.23 19.07-5.08 22.583 4.502 0 0 1.74.6 2.64 1.29 2.812 2.153 4.645 8.532 4.645 15.28 0 5.906-.745 14.15-5.248 17.05-2.984 1.922 4.028 8.935 4.028 8.935s1.08-.935 1.22 4.57c.14 5.503 0 9.245 0 9.245s-33.97-23.27-33.732-23.473c.24-.202 6.226-7.853 6.226-7.853l-4.356-13.204" fill="#463C39"/><path d="M444.238 147.6c-.507-3.15-4.948 2.317-4.948 2.317-.31-3.02-.388-2.336.49-6.1.37-1.583-1.672-7.335-1.672-7.335s-6.17-1.765-12.783-.174c-5.37 1.292-9.302-5.52-10.587-.94-.858 3.06.08 7.48.08 7.48s1.875 9.79 3.956 16.04c0 0-12.965 9.596-10.61 19.45.29 1.22 7.06 11.263 7.06 11.263s14.414 2.37 16.18 1.71c9.967-3.722 6.493-18.844 6.493-18.844s1.492-13.876 2.92-15.48c0 0 4.79-.87 3.42-9.387" fill="#E9D5C3"/><path d="M418.774 158.89s4.578 6.332 4.834 6.99c.255.656 3.393 2.726 6.263 2.528 2.872-.198 10.018-8.88 10.018-8.88s-5.51 14.19-7.473 14.868c-1.965.68-7.323 3.103-9.604 0-2.28-3.103-4.036-15.507-4.036-15.507" fill="#BBAC9E"/><path d="M418.41 185.614c2.108 1.477 7.206 4.402 11.315 3.876 1.413-.182 7.59-2.536 7.59-2.536l-3.15 3.652-8.153 25.552-28.856-16.793c0-.202 5.408-16.664 5.408-16.664l7.65-11.718s2.213 10.434 8.197 14.632" fill="#5B5E67"/><path d="M382.228 186.435s3.834-23.146 5.11-25.892c1.582-3.405 6.876-4.114 13.087-3.862 5.782.236 13.9 2.21 13.9 2.21h4.642s-7.015 8.81-7.572 18.186c-.48 8.118-3.518 23.907-3.518 23.907l-25.65-14.548M427.366 211.914s-.444-12.82 6.442-24.148c4.05-6.66 2.836-15.508 3.507-15.537l.915-3.374c1.4 3.552 16.09 15.135 19.268 19.866 2.866 4.264 2.768 18.666 2.154 23.192-.77 5.672-.308 16.364 2.305 19.946" fill="#E95465"/><path d="M437.977 218.275l4.41-8.09 3.774-10.5-3.773 24.46-4.41-5.87M391.99 170.89s-4.853 11.055-5.743 13.17c-.89 2.12 0 5.413 0 5.413s2.665.728 2.673.883c.008.155 3.07-19.465 3.07-19.465" fill="#DA4453"/><path d="M358.792 142.507v.025l23.468 13.54v-.013l-23.468-13.553m0-68.36v44.824l11.68 6.722-.003-7.013 11.79 6.83V87.58l-23.468-13.434" fill="#9FA99B"/><path d="M484.46 240.203v.138l42.192 24.25v.01l.012.007v-.224l-42.205-24.18" fill="#F0F3F6"/><path d="M517.025 207.662l-30.23-17.456v-1.54l30.23 17.456v1.54m4.96-.7l-35.19-20.327v-1.54l35.19 20.328v1.54m-3.76-6.434l-31.43-18.043v-1.54l31.43 18.043v1.54m4.472-.875l-35.903-20.738v-1.54l35.903 20.738v1.54m-7.76-7.964l-28.143-16.34v-1.54l28.143 16.342v1.54m6.755.11l-34.898-20.02v-1.54l34.898 20.02v1.54m-4.667-6.714l-30.23-17.457v-1.538l30.23 17.456v1.54m4.667-.992l-34.898-20.034v-1.54l34.898 20.035v1.54m-20.752-15.79l-14.146-7.97v-1.54l14.146 7.97v1.54m-16.48-22.14v94.036l42.204 24.18.015-93.78-42.22-24.378v-.06" fill="#E7EEEC"/><path d="M526.716 160.567L358.758 63.86V50.282l167.958 96.65v13.635" fill="#CCCCCD"/><path d="M362.322 56.08c.332.737.253 1.493-.18 1.687-.43.193-1.048-.25-1.38-.988-.332-.74-.253-1.495.178-1.688.43-.193 1.05.248 1.382.987" fill="#EB5C55"/><path d="M365.436 57.847c.333.738.253 1.494-.177 1.687-.433.194-1.05-.25-1.384-.987-.332-.74-.252-1.494.18-1.687.43-.194 1.048.248 1.38.987" fill="#F8BB31"/><path d="M368.55 59.614c.334.74.253 1.495-.177 1.688-.43.194-1.05-.25-1.382-.987-.332-.74-.25-1.494.18-1.687.43-.194 1.05.248 1.38.986" fill="#6EB647"/><path d="M401.567 81.77c-.27-1.103-.76-3.085-.9-3.575-.196-.688-.49-1.277-1.477-1.77-.984-.49-26.09-14.746-26.647-15.078-.558-.332-.624-.455-.92 0-.294.456-1.13 2.53-1.13 2.53l-11.7-6.7v7.146l167.923 96.65v-7.145l-125.15-72.06" fill="#E8E6E6"/><path d="M530.487 273.853l-3.825 2.256.02-129.042 3.826-2.187-.02 128.973" fill="#868C96"/><path d="M526.682 147.068l-167.89-96.786 3.825-2.187 167.89 96.786-3.825 2.188" fill="#E9E9EB"/><path d="M370.45 137.8l-11.81-6.823.086 16.59 11.724 6.72V137.8" fill="#2C2E33"/><path d="M382.26 144.485l-11.81-6.686v16.488l11.81 6.686v-16.49" fill="#B8BEC6"/><path d="M382.26 163.93l-23.468-13.42v17.592l23.468 13.503V163.93" fill="#5B5E67"/><path d="M372.47 165.978l-.178.08c.36.8.532 1.608.532 2.303 0 .49-.085.922-.243 1.258-.157.338-.38.576-.668.706-.157.07-.325.105-.503.105-.473 0-1.03-.25-1.556-.713-.527-.462-1.024-1.133-1.387-1.942-.36-.8-.534-1.607-.534-2.302 0-.49.086-.922.243-1.258.16-.337.383-.575.67-.705.157-.07.325-.104.503-.104.47-.002 1.026.246 1.554.71.527.463 1.023 1.134 1.388 1.943l.18-.082.178-.08c-.386-.857-.91-1.57-1.487-2.077-.576-.503-1.206-.805-1.814-.807-.23 0-.455.045-.665.14-.387.173-.678.494-.865.896-.188.402-.28.89-.28 1.423 0 .76.187 1.616.568 2.463.385.857.91 1.57 1.486 2.077.576.504 1.207.807 1.815.808.228 0 .453-.043.663-.138.387-.173.677-.495.865-.897.188-.403.28-.89.28-1.424 0-.76-.187-1.615-.568-2.462l-.18.08" fill="#B1B1B1"/><path d="M368.75 166.26l2.867 1.66c.093.055.214.023.268-.07.055-.094.023-.215-.07-.27l-2.868-1.662c-.093-.054-.214-.022-.27.072-.053.093-.02.214.073.27" fill="#B1B1B1"/><path d="M370.085 165.073v3.638c0 .11.088.197.197.197.11 0 .197-.088.197-.196v-3.637c0-.108-.09-.196-.198-.196-.11 0-.197.088-.197.196" fill="#B1B1B1"/><path d="M358.902 64.267l167.802 96.68v9.613L358.758 73.58l.144-9.313" fill="#2B2E32"/><path d="M484.46 146.166v.06l42.22 24.376v-.056l-42.22-24.38" fill="#666A69"/><path d="M526.704 161.005v9.555l-.025-.014v.056l.024.014v-9.61" fill="#3F4347"/><path d="M484.46 136.613v9.553l42.22 24.38.024.014v-9.555l-42.245-24.392" fill="#1B1D1F"/><path d="M358.758 64.267v9.312l.143-9.194-.108-.063v-.037l-.034-.02" fill="#707171"/><path d="M358.792 64.286v.037l.11.063v-.038l-.11-.062" fill="#666767"/><path d="M358.758 73.58v.056L375.3 83.13l-16.542-9.55" fill="#707171"/><path d="M358.758 73.636l23.502 13.556v-.04l-6.96-4.02-16.542-9.496" fill="#5E675C"/><path d="M358.9 64.348v.038l-.142 9.193 23.502 13.57v-9.368L358.9 64.348" fill="#1B1D1F"/><path d="M484.465 146.282l42.244 24.392v6.407l-42.245-24.39v-6.408" fill="#B8BEC6"/><path d="M486.794 158.798v1.54l14.146 7.968v-1.54l-14.146-7.968M486.794 162.522v1.54l34.898 20.034v-1.54l-34.898-20.034M486.794 166.092v1.54l30.23 17.456v-1.54l-30.23-17.456M486.794 170.24v1.54l34.898 20.023v-1.54l-34.898-20.022M486.794 173.81v1.54l28.143 16.34v-1.538l-28.143-16.34M486.794 177.377v1.54l35.903 20.738v-1.54l-35.903-20.738M486.794 180.947v1.54l31.432 18.042v-1.54l-31.432-18.043M486.794 185.095v1.54l35.192 20.328v-1.54l-35.192-20.328M486.794 188.666v1.54l30.23 17.456v-1.54l-30.23-17.456" fill="#ADB3B8"/><path d="M358.792 168.118l167.86 96.472v11.523L358.758 179.33l.034-11.212" fill="#2B2E32"/><path d="M370.45 99.62l-11.66-6.68.005 16.534 11.655 6.66V99.62" fill="#B9D0DE"/><path d="M366.67 101.477s-.733.15-.694.766c.04.616.104 1.588.85 2.186l.266-2.388-.423-.565" fill="#2C2E33"/><path d="M370.45 102.58l-2.086-2.12-1.17.37-.425.78-.156 1.014.21 1.805.268.93.537 1.353-.23.054-.16 2.854.77 2.394.468.446 1.972-1.348v-8.53" fill="#E9D5C3"/><path d="M370.45 100.756c-.604-.49-1.293-.843-1.872-.75 0 0 .298.06 1.262.59.218.12.422.302.61.515v-.354" fill="#2C2E33"/><path d="M370.45 100.924l-1.284-.81-1.44-.49s-.83-.05-1.126.394c-.296.443.195 1.89.195 1.89s.063-.297.447-.327c.61-.047.395-.565.686-.543.29.023.097-.16.694.872.598 1.03.33.478.797.458.304-.012.72.256 1.03.58v-2.024" fill="#B17F49"/><path d="M370.45 108.143c-.146.096-.296.177-.425.213-.425.115-1.768-.588-2.085-1.023-.09-.125-.218-.394-.36-.737l-.18.17.15.29s.676 1.81 1.09 2.05c.41.24 1.512-.172 1.76-.355l.05-.045v-.562" fill="#BBAC9E"/><path d="M370.45 110.75c-.654.274-1.872.537-1.872.537s-.904-1.535-1.073-2.48c-.094-.525-.106-2.04-.106-2.04s-1.476-.527-2.058-.61c-.582-.083-2.367.222-2.535.414-.168.194-1.39 4.12-1.364 4.404l9.007 5.256v-5.48" fill="#FDCD55"/><path d="M370.43 152.238l11.85 6.698-.034-14.507-11.816-6.695v14.503" fill="#8978B5"/><path d="M370.43 154.342l11.85 6.696-.034-2.2-11.816-6.695v2.2" fill="#A28FC3"/><path d="M377.19 145.03l2.877 1.565v.392l-2.877-1.565v-.392M377.19 146.295l4.857 2.707v.268l-4.857-2.707v-.268M377.19 146.917l4.207 2.362v.267l-4.207-2.362v-.268M377.19 147.638l4.857 2.704v.268l-4.857-2.704v-.268M377.19 148.26l3.917 2.214v.268l-3.917-2.215v-.268M377.19 148.88l4.996 2.806v.268l-4.996-2.807v-.267M377.19 149.5l4.375 2.438v.267l-4.375-2.437v-.268M377.19 150.222l4.898 2.75v.27l-4.898-2.752v-.268M377.19 150.843l4.207 2.362v.268l-4.207-2.362v-.267" fill="#ECF0F3"/><path d="M370.43 141.13v9.3l5.788 3.38v-9.323l-5.788-3.358" fill="#FFF"/><path d="M372.963 145.895l-.932-1.466-1.6.295v2.087c.53.624.95 1.265 1.256 1.788.72 1.236 4.532 3.132 4.532 3.132v-4.094l-3.255-1.743" fill="#6597D0"/><path d="M370.43 145.73v4.7l5.788 3.38v-5.224l-5.788-2.856" fill="#ACDEF9"/><path d="M370.47 118.68l11.793 6.83.034 16.49-11.822-6.817-.006-16.504" fill="#ECF0F3"/><path d="M378.856 126.934l-4.94-2.805v3.754l4.94 2.85v-3.8" fill="#5084C4"/><path d="M373.014 135.69l-2.54-1.452v.963l2.54 1.5v-1.01" fill="#E95465"/><path d="M378.856 138.994l-4.94-2.805v1.017l4.94 2.85v-1.063" fill="#A28FC3"/><path d="M370.474 127.845l2.434 1.367v.268l-2.434-1.366v-.27M370.474 128.467l1.783 1.022v.268l-1.783-1.022v-.27M370.474 129.19l2.434 1.365v.27l-2.434-1.366v-.27M370.474 129.813l1.492.874v.268l-1.492-.874v-.267M370.474 130.434l2.574 1.468v.268l-2.574-1.467v-.27M373.882 128.566l2.884 1.585v.393l-2.884-1.585v-.392M373.882 129.834l4.867 2.712v.268l-4.868-2.712v-.268M373.882 130.456l4.217 2.367v.268l-4.218-2.365v-.27M373.882 131.18l4.867 2.71v.268l-4.868-2.71v-.27M373.882 131.8l3.925 2.22v.27l-3.925-2.22v-.27M373.882 132.423l5.007 2.813v.268l-5.008-2.813v-.267M373.882 133.045l4.384 2.443v.268l-4.384-2.442v-.27M373.882 133.77l4.908 2.755v.27l-4.908-2.758v-.268" fill="#868C96"/><path d="M373.916 126.497v1.178-1.178" fill="#F7F9F9"/><path d="M374.487 125.992l-.57.505v1.178l.738.425.052-.5 4.15 2.45v-1.202l-1.788-.94-.304-1.03-.922.554-.35-1.095-.69.54-.317-.885" fill="#A8C2E2"/><path d="M370.474 122.19v3.776l2.54 1.466v-3.8l-2.54-1.443" fill="#42B498"/><path d="M373.014 123.96s-.866.932-1.874.932c-.218 0-.442-.044-.666-.15v.713c1.083.64 2.54 1.11 2.54 1.11v-2.604" fill="#A1DACC"/><path d="M370.474 126.603v.392l1.156.652v-.393l-1.156-.65" fill="#868C96"/><path d="M370.45 80.346l-11.692-6.71-.118 16.79 11.81 6.41v-16.49" fill="#FBC67F"/><path d="M370.45 83.77l-2.246-2.068-1.07.337-.388.714-.14.925.192 1.65.244.85.49 1.237-.21.05-.145 2.608.703 2.187.43.407 2.14-1.1v-7.8" fill="#E9D5C3"/><path d="M370.45 82.096s-1.17-.6-1.513-.71c-.343-.113-1.123-.113-1.123-.113s-.94.47-1.21.877c-.27.405.194 3.18.194 3.18s.08-.826.946.677c.278.484-.075-1.968.19-1.947.264.02.744-.97.744-.97s.064.373.49.356c.28-.012.66.233 1.282.703v-2.054" fill="#56423A"/><path d="M370.45 88.794c-.146.095-.296.176-.425.213-.425.115-1.768-.588-2.085-1.023-.09-.125-.218-.394-.36-.737l-.18.17.15.29s.676 1.81 1.09 2.05c.41.24 1.512-.172 1.76-.355l.05-.046v-.562" fill="#BBAC9E"/><path d="M370.45 90.005c-.418.204-.936.448-1.872.087-.938-.36-.98-.608-1.15-1.553-.094-.526-.03-1.122-.03-1.122s-1.474-.527-2.056-.61c-.582-.083-1.69.822-1.858 1.014-.167.192-3.93 2.83-3.903 3.113l2.963 1.608 1.247-.952-.087 1.587 6.747 3.704v-6.875" fill="#5B5E67"/><path d="M370.47 118.678l-11.68-6.49-.036 16.508 11.715 6.47V118.68" fill="#99D6F1"/><path d="M369.364 122.54l-2.66-1.82-.95.3-.343.635-.125.82.17 1.464.218.754.434 1.096-.186.044-.128 2.314.625 1.94 1.01 1.173 1.27-1.787.13-2.64s.265-.283.453-.84c.19-.56.288-2.49.288-2.49l-.204-.962" fill="#E4C1A4"/><path d="M369.364 121.35c-.657-.826-1.383-.91-1.687-1.01-.304-.098-1.32 0-1.32 0s-1.208.38-1.338 1.296c-.063.428.436 2.303.436 2.303s.173-2.906.94-1.572c.248.43.002-.7.237-.683.235.02 2.628.402 2.692 2.037.01.246.462-1.185.134 1.192 0 0 .798-2.442-.096-3.564" fill="#3C3C3B"/><path d="M369.092 126.432c-.27.537-.89.58-1.004.61-.377.104-1.338-.363-1.618-.75-.08-.11-.27-.278-.395-.582l-.085.08.134.257s.965 1.82 1.33 2.03c.367.214.977-.364 1.196-.526l.062-.274.38-.844" fill="#BDA28A"/><path d="M367.434 130.858c-.37.18.03-2.607-.8-2.928-.832-.32-.468-.306-.618-1.145-.084-.466-.026-.994-.026-.994s-1.31-.466-1.825-.54c-.516-.074-1.5.73-1.647.9-.15.17-3.487 2.51-3.462 2.76l2.626 1.427 1.107-.845-.078 1.407 7.757 4.267v-7.417l-1.582-.965-1.454 4.073" fill="#D470A8"/><path d="M382.31 106.414L370.5 99.73v16.488l11.81 6.685v-16.49" fill="#ECF0F3"/><path d="M370.5 108.954l2.092 1.213v.392l-2.092-1.215v-.39M370.5 110.22l2.976 1.707v.267l-2.976-1.706v-.268M370.5 110.84l2.976 1.748v.268l-2.976-1.747v-.27M370.5 111.563l2.976 1.73v.267l-2.976-1.73v-.267M370.5 112.183l2.976 1.767v.268l-2.976-1.767v-.267M370.5 112.803l2.976 1.73v.268l-2.976-1.73v-.267M370.5 113.425l1.132.636v.27l-1.132-.637v-.268" fill="#5B5E67"/><path d="M370.48 103.504v4.782l2.975 1.737v-4.792l-2.975-1.726M374.758 115.55v3.08l6.345 3.59v-3.055l-6.345-3.614M370.5 99.685v1.194l11.81 6.684v-1.17l-11.81-6.71" fill="#42B498"/><path d="M370.46 105.206l.02 3.08 2.975 1.737-.027-3.105-2.967-1.712" fill="#A0C86A"/><path d="M379.373 109.6l2.092 1.212v.39l-2.092-1.212v-.39M379.373 110.328l2.092 1.213v.393l-2.092-1.213v-.392M379.373 111.07l2.092 1.213v.392l-2.092-1.213v-.39" fill="#5B5E67"/><path d="M375.04 108.053c-.022-.468.056-.885.228-1.2l1.686 2.078-1.915-.877" fill="#DA4453"/><path d="M377.264 111.564c-.674-.224-1.385-.94-1.83-1.93-.08-.18-.15-.358-.205-.537l1.724-.166.31 2.634" fill="#5084C4"/><path d="M377.264 111.564c.3.1.592.1.85-.015.836-.376.99-1.842.347-3.275-.352-.784-.87-1.395-1.406-1.727l-.1 2.383.31 2.634" fill="#6EB647"/><path d="M375.268 106.854c.122-.225.294-.397.512-.494.378-.17.832-.087 1.274.188l-.1 2.383-1.686-2.076" fill="#A28FC3"/><path d="M375.23 109.097l1.724-.166-1.915-.877c.013.33.076.684.19 1.044" fill="#F7BB40"/><path d="M375.294 114.534c.1.22.077.448-.053.506-.128.058-.315-.074-.415-.296-.1-.222-.075-.45.054-.507.13-.06.314.075.414.297M376.23 115.065c.1.222.076.45-.053.507-.13.058-.315-.075-.415-.297-.1-.222-.077-.45.053-.507.13-.058.316.075.416.297M377.167 115.596c.1.222.076.45-.053.507-.13.06-.316-.074-.416-.297-.1-.22-.076-.448.054-.506.13-.058.315.074.415.296" fill="#B8BEC6"/><path d="M382.227 87.164l-11.81-6.818v16.49l11.81 7.07V87.164" fill="#FFF"/><path d="M370.45 80.346v14.45l8.993 5.248V85.56l-8.993-5.214" fill="#3AAED9"/><path d="M372.638 82.953v7.145l-2.176 1.337v-7.162l2.176-1.32" fill="#8A2C33"/><path d="M375.568 84.637v7.145l-4.447 2.596v-7.162l4.448-2.58" fill="#B83B46"/><path d="M378.007 86.088v7.145l-4.447 2.596v-7.164l4.447-2.578" fill="#E95465"/><path d="M375.784 89.172v.438l3.053 1.766v-.445l-3.053-1.758M375.784 90.027v.438l3.053 1.766v-.444l-3.053-1.76M375.784 90.882v.438l3.053 1.766v-.446l-3.053-1.758" fill="#FFF"/><path d="M380.93 99.677c.16.356.12.72-.087.814-.208.095-.507-.12-.668-.476-.16-.356-.122-.72.086-.814.21-.094.508.12.67.477" fill="#3AAED9"/><path d="M476.28 195.954l.256-.45c-12.338-6.995-18.408-10.193-31.906-14.35l-.152.494.494.15c1.335-4.38 4.682-7.837 7.748-11.434 5.13-6.032 9.475-12.746 12.9-19.93l-.465-.223-.46.237c7.888 15.292 8.888 28.527 11.074 45.572l.51-.066.256-.45-.255.45.513-.065c-2.18-17-3.188-30.425-11.18-45.915-.09-.174-.27-.282-.467-.28-.196.003-.374.118-.458.295-3.387 7.104-7.684 13.743-12.755 19.707-3.023 3.563-6.503 7.103-7.95 11.8-.082.272.07.56.343.643 13.438 4.143 19.355 7.267 31.7 14.263.17.096.38.088.543-.02.162-.11.248-.3.223-.494l-.512.064" fill="#5B61CE"/><path d="M451.22 172.882c1.665.126 3.93.7 6.397 1.52 3.704 1.23 7.883 3.01 11.37 4.63 1.746.81 3.318 1.582 4.572 2.223 1.253.64 2.196 1.155 2.655 1.44.243.148.562.073.71-.17.15-.242.076-.56-.167-.71-.68-.417-2.144-1.2-4.095-2.165-2.924-1.446-6.92-3.287-10.85-4.82-3.938-1.534-7.788-2.764-10.516-2.976-.284-.022-.532.19-.554.475-.022.283.19.53.476.552M455.244 161.533c3.007.57 6 1.82 9.036 2.978 3.036 1.156 6.12 2.22 9.338 2.358.285.01.526-.21.538-.494.012-.284-.21-.525-.494-.536-3.013-.128-6-1.14-9.014-2.29-3.016-1.147-6.058-2.427-9.21-3.028-.28-.054-.55.13-.605.41-.053.28.13.55.41.603M461.226 169.91c.084-.593.28-1.183.575-1.67.297-.488.685-.87 1.165-1.088.233-.107.504-.162.784-.162.396 0 .807.113 1.13.313.327.2.56.476.668.814.045.142.066.288.066.438.006.538-.3 1.132-.747 1.503-.58.493-1.414.736-2.292.858l.073.51.384-.345c-.308-.338-.477-.82-.476-1.292 0-.4.118-.78.337-1.065.075-.1.17-.187.256-.242.088-.053.16-.073.218-.073l.036.002h.002c.06.006.18.06.332.16.58.36 1.078.8 1.277 1.307.057.142.088.307.088.467 0 .18-.04.352-.105.484-.067.132-.152.22-.26.278-.1.052-.207.076-.34.077-.336.007-.83-.2-1.287-.446-.435-.23-.877-.488-1.205-.78-.33-.292-.533-.593-.59-.936l-.012-.164c-.006-.433.295-.904.702-1.112.233-.122.505-.183.795-.183.3 0 .616.067.906.188.263.11.565-.015.675-.278.11-.263-.014-.565-.277-.675-.41-.17-.854-.265-1.303-.265-.433 0-.874.09-1.275.3-.737.39-1.248 1.16-1.255 2.026 0 .11.01.22.027.33.107.656.49 1.162.924 1.545.44.387.948.674 1.407.918.495.257 1.09.56 1.77.566.27 0 .555-.055.82-.194.322-.17.56-.437.705-.732.148-.295.214-.62.214-.944 0-.29-.053-.58-.163-.852-.343-.838-1.035-1.386-1.686-1.797-.176-.107-.402-.25-.72-.304l.002.002-.202-.017c-.295 0-.556.1-.768.234-.214.134-.387.304-.527.486-.377.492-.55 1.094-.55 1.692 0 .71.243 1.428.74 1.982.116.13.286.19.456.167.96-.137 1.988-.4 2.813-1.09.656-.558 1.11-1.388 1.114-2.292 0-.25-.036-.502-.115-.75-.192-.607-.61-1.075-1.11-1.38-.5-.308-1.086-.465-1.673-.466-.415 0-.83.08-1.215.255-.703.32-1.24.865-1.618 1.49-.38.63-.61 1.345-.713 2.06-.04.28.156.542.438.582.282.04.544-.156.584-.438M458.393 192.086c.314-2.544.47-5.114.47-7.688 0-.636-.01-1.272-.028-1.907-.01-.317-.02-.638-.02-.955 0-.62.038-1.227.165-1.758.127-.533.338-.982.68-1.342.197-.207.19-.533-.018-.73-.206-.196-.533-.188-.73.02-.5.522-.782 1.16-.937 1.814-.155.655-.19 1.335-.19 1.995 0 .337.01.668.018.986.02.627.028 1.252.028 1.878 0 2.533-.153 5.06-.46 7.562-.036.283.165.54.448.575.283.035.54-.166.575-.448" fill="#5B61CE"/><path d="M456.45 179.337l3.98-2.124-.242-.454-.516-.017v.025c0 1.578.45 3.16 1.286 4.52.15.243.468.32.71.17.244-.148.32-.466.17-.708-.736-1.198-1.135-2.6-1.134-3.982h-.18l.18.006v-.006h-.18l.18.006c.006-.185-.087-.357-.245-.453-.157-.097-.353-.103-.515-.016-1.328.707-2.653 1.415-3.98 2.123-.252.134-.347.446-.213.698.135.25.448.345.7.212" fill="#5B61CE"/><path d="M239.613 73.772L407.37 170.56l-.05 94.03-167.674-96.124-.033-94.694" fill="#ECF0F3"/><path d="M239.46 90.507v28.464l.17.098-.01-28.474-.16-.087" fill="#B5B5B6"/><path d="M251.118 80.82v16.015l-11.5-6.24.01 28.473 23.3 13.408V87.58l-11.81-6.76" fill="#ABAEB0"/><path d="M407.383 160.567L239.426 63.86l.002-13.578 167.955 96.65v13.635" fill="#CCCCCD"/><path d="M242.99 56.08c.333.737.252 1.493-.178 1.687-.43.193-1.05-.25-1.382-.988-.333-.74-.252-1.495.178-1.688.43-.193 1.05.248 1.382.987" fill="#EB5C55"/><path d="M246.105 57.847c.332.738.252 1.494-.18 1.687-.43.194-1.048-.25-1.38-.987-.333-.74-.253-1.494.178-1.687.43-.194 1.05.248 1.382.987" fill="#F8BB31"/><path d="M249.22 59.614c.33.74.252 1.495-.18 1.688-.43.194-1.05-.25-1.38-.987-.333-.74-.253-1.494.178-1.687.43-.194 1.05.248 1.38.986" fill="#6EB647"/><path d="M282.235 81.77c-.27-1.103-.76-3.085-.9-3.575-.197-.688-.492-1.277-1.476-1.77-.985-.49-26.092-14.746-26.65-15.078-.557-.332-.623-.455-.92 0-.294.456-1.13 2.53-1.13 2.53l-11.7-6.7v7.146l167.923 96.65v-7.145l-125.148-72.06" fill="#E8E6E6"/><path d="M411.155 273.853l-3.825 2.256.02-129.042 3.826-2.187-.02 128.973" fill="#868C96"/><path d="M407.35 147.068L239.46 50.282l3.825-2.187 167.89 96.786-3.824 2.188" fill="#E9E9EB"/><path d="M251.118 80.346l-11.692-6.71-.118 16.79 11.81 6.41v-16.49" fill="#FBC67F"/><path d="M309.17 133.14l-28.337-16.09v21.537l28.336 16.36V133.14" fill="#EC6D54"/><path d="M342.082 152.254l-28.337-16.09V157.7l28.337 16.362v-21.808" fill="#42B498"/><path d="M375.597 171.204l-28.336-16.09v21.537l28.337 16.36v-21.806" fill="#5084C4"/><path d="M309.17 202.33l-28.337-16.092v8.665l28.336 16.36v-8.933" fill="#F7BB40"/><path d="M342.082 221.444l-28.337-16.092v8.666l28.337 16.36v-8.934" fill="#E95465"/><path d="M375.597 240.394l-28.336-16.092v8.665l28.337 16.36v-8.933" fill="#A28FC3"/><path d="M262.93 125.354l-11.812-6.684v16.49l11.81 6.683v-16.49" fill="#2C2E33"/><path d="M262.93 163.93l-23.47-13.42v17.592l23.47 13.503V163.93" fill="#5B5E67"/><path d="M253.14 165.978l-.18.08c.36.8.532 1.608.532 2.303 0 .49-.085.922-.242 1.258-.16.338-.383.576-.67.706-.157.07-.325.104-.503.105-.47 0-1.027-.25-1.555-.713-.528-.462-1.023-1.133-1.388-1.94-.36-.802-.532-1.61-.532-2.304 0-.49.085-.922.242-1.258.158-.337.383-.575.67-.705.157-.07.325-.104.503-.104.472-.002 1.027.247 1.554.71.53.463 1.026 1.134 1.39 1.942l.18-.08.178-.08c-.385-.857-.91-1.57-1.487-2.077-.575-.503-1.204-.805-1.813-.807-.23 0-.454.045-.664.14-.388.173-.677.494-.865.896-.188.402-.28.89-.28 1.423 0 .76.187 1.616.568 2.463.385.857.91 1.57 1.486 2.076.577.505 1.206.807 1.815.81.23 0 .454-.045.664-.14.39-.173.68-.495.866-.897.187-.403.28-.89.28-1.424 0-.76-.187-1.615-.568-2.462l-.18.08" fill="#B1B1B1"/><path d="M249.418 166.26l2.866 1.66c.094.055.214.023.27-.07.054-.095.022-.215-.072-.27l-2.867-1.662c-.093-.054-.214-.022-.27.072-.053.093-.02.214.073.27" fill="#B1B1B1"/><path d="M250.753 165.073v3.638c0 .11.088.197.197.197.108 0 .196-.088.196-.196v-3.637c0-.108-.088-.196-.196-.196-.11 0-.197.088-.197.196" fill="#B1B1B1"/><path d="M239.57 64.267l167.8 96.68v9.613L239.427 73.58l.144-9.313" fill="#2B2E32"/><g transform="translate(402.086 167.357)"><mask id="b" fill="#fff"><use xlink:href="#a"/></mask><path d="M.452.41h4.81V3.19H.45V.41z" fill="#672C34" mask="url(#b)"/></g><path d="M402.738 167.886l4.61 2.715v-.054l-4.61-2.66" fill="#686B6D"/><path d="M407.37 161.005v9.555l-.023-.014v.055l.024.016v-9.61" fill="#3F4347"/><path d="M397.122 155.043v9.534l5.416 3.19 4.81 2.78.023.013v-9.555l-10.248-5.962" fill="#1B1D1F"/><path d="M239.426 64.267v9.312l.143-9.195-.11-.062v-.037l-.034-.02" fill="#707171"/><path d="M239.46 64.286v.037l.11.062v-.037l-.11-.062" fill="#666767"/><path d="M239.426 73.58v.056l11.692 6.71v.033l11.81 6.812v-.04l-23.502-13.573" fill="#707171"/><path d="M239.426 73.636l11.692 6.743v-.034l-11.692-6.71" fill="#6E5A3E"/><path d="M239.57 64.348l-.144 9.23 23.503 13.573v-9.368l-23.36-13.434" fill="#1B1D1F"/><path d="M239.46 168.118l167.86 96.472v11.523L239.426 179.33l.034-11.212" fill="#2B2E32"/><path d="M251.118 99.62l-11.66-6.68.006 16.534 11.654 6.66V99.62" fill="#B9D0DE"/><path d="M247.336 101.477s-.73.15-.69.766c.04.616.102 1.588.848 2.186l.266-2.388-.424-.565" fill="#2C2E33"/><path d="M251.118 102.58l-2.086-2.12-1.17.37-.426.78-.154 1.014.212 1.805.266.93.536 1.353-.23.054-.157 2.854.768 2.394.468.446 1.972-1.348v-8.53" fill="#E9D5C3"/><path d="M251.118 100.756c-.604-.49-1.293-.843-1.873-.75 0 0 .3.06 1.263.59.217.12.422.302.61.515v-.354" fill="#2C2E33"/><path d="M251.118 100.924l-1.284-.81-1.44-.49s-.83-.05-1.126.394c-.295.443.195 1.89.195 1.89s.063-.297.447-.327c.61-.047.396-.565.685-.543.29.023.098-.16.695.872.598 1.03.33.478.797.458.306-.012.72.256 1.03.58v-2.024" fill="#B17F49"/><path d="M251.118 108.143c-.145.096-.296.177-.426.213-.424.115-1.767-.588-2.084-1.023-.09-.125-.22-.394-.36-.737l-.18.17.15.29s.676 1.81 1.09 2.05c.412.24 1.512-.172 1.76-.355l.05-.045v-.562" fill="#BBAC9E"/><path d="M251.118 110.75c-.654.274-1.873.537-1.873.537s-.902-1.535-1.072-2.48c-.094-.525-.106-2.04-.106-2.04s-1.476-.527-2.057-.61c-.582-.083-2.367.222-2.535.414-.167.194-1.39 4.12-1.363 4.404l9.006 5.256v-5.48" fill="#FDCD55"/><path d="M251.118 83.77l-2.246-2.068-1.07.337-.388.714-.14.925.192 1.65.243.85.49 1.237-.21.05-.145 2.608.704 2.187.427.407 2.14-1.1v-7.8" fill="#E9D5C3"/><path d="M251.118 82.096s-1.17-.6-1.512-.71c-.343-.113-1.124-.113-1.124-.113s-.94.47-1.21.877c-.27.405.194 3.18.194 3.18s.08-.826.945.677c.28.484-.073-1.968.192-1.947.265.02.743-.97.743-.97s.065.373.492.356c.28-.012.66.233 1.28.703v-2.054" fill="#56423A"/><path d="M251.118 88.794c-.145.095-.296.176-.426.213-.424.115-1.767-.588-2.084-1.023-.09-.125-.22-.394-.36-.737l-.18.17.15.29s.676 1.81 1.09 2.05c.412.24 1.512-.172 1.76-.355l.05-.046v-.562" fill="#BBAC9E"/><path d="M251.118 90.005c-.418.204-.935.448-1.873.087-.937-.36-.98-.608-1.148-1.553-.095-.526-.03-1.122-.03-1.122s-1.476-.527-2.057-.61c-.582-.083-1.69.822-1.857 1.014-.168.192-3.93 2.83-3.904 3.113l2.96 1.608 1.25-.952-.09 1.587 6.748 3.704v-6.875" fill="#5B5E67"/><path d="M239.368 131.055l11.656 6.53.034 16.554-11.685-6.516-.005-16.57" fill="#D3E7C9"/><path d="M251.036 138.34c-1.315-.996-3.146-.592-3.663-.092-1.033 1-.328 2.615-.35 2.864l.763 2.313-1.09 1.376c-.028.024 2.58 1.826 4.34 3.036v-9.495" fill="#463C39"/><path d="M251.036 140.613c-.34-.073-1.186-.208-2.08.007-.392.094-.74-.056-1.03-.207-.405-.213-.695-.426-.826.043-.15.536.015 1.31.015 1.31s.328 1.716.693 2.81c0 0-2.272 1.682-1.86 3.41.052.212 1.237 1.972 1.237 1.972s2.526.415 2.835.3c.525-.197.836-.574 1.016-1.005v-8.64" fill="#E9D5C3"/><path d="M251.036 145.224c-.41.44-.982 1-1.285 1.02-.5.035-1.05-.327-1.096-.442-.044-.116-.846-1.225-.846-1.225s.307 2.173.706 2.717c.4.544 1.34.12 1.684 0 .183-.064.542-.8.838-1.473v-.596" fill="#BBAC9E"/><path d="M249.234 153.176l1.27-3.042.552-.64s-1.083.412-1.33.445c-.72.09-1.63-.094-2.068-.19-.44-.1-.89-.567-1.108-.96-.216-.392-.43-1.45-.43-1.45l.187-.645-1.34 2.054s-.322.98-.605 1.63l4.872 2.796" fill="#5B5E67"/><path d="M246.013 151.327c.162-.9.442-2.563.5-3.564.1-1.642 1.328-3.186 1.328-3.186h-.812s-1.423-.346-2.435-.387c-1.09-.044-2.016.08-2.293.677-.167.36-.584 2.71-.785 3.878l4.498 2.582" fill="#E95465"/><path d="M242.685 149.417c.158-.994.43-2.738.43-2.738s-.85 1.936-1.007 2.307l-.028.082.605.347" fill="#DA4453"/><path d="M251.036 154.21v-7.274c-.074.187.067 1.61-.595 2.7-.81 1.337-1.04 2.79-1.104 3.598l1.7.977" fill="#E95465"/><path d="M280.636 143.48l12.576 6.952v2.25l-12.576-6.95v-2.25M280.636 150.757l27.122 15.09v1.54l-27.122-15.09v-1.54M280.636 154.327l24.19 13.58v1.54l-24.19-13.58v-1.54M280.636 158.475l27.122 15.08v1.54l-27.122-15.08v-1.54M280.636 162.046l22.52 12.733v1.538l-22.52-12.732v-1.54M280.636 165.612l27.925 15.666v1.54l-27.924-15.667v-1.538M280.636 169.182l25.152 14.012v1.54l-25.152-14.012v-1.54M280.636 173.33l11.26 6.227v1.54l-11.26-6.227v-1.54M313.55 161.437l20.594 11.606v2.25l-20.595-11.605v-2.25M313.55 168.713l27.924 15.56v1.54l-27.925-15.56v-1.54M313.55 172.284l24.19 13.58v1.54l-24.19-13.58v-1.54M313.55 176.432l27.924 15.548v1.54l-27.925-15.548v-1.54M313.55 180.002l22.518 12.733v1.54l-22.52-12.733v-1.54M313.55 183.568l28.728 16.135v1.54l-28.73-16.135v-1.54M313.55 187.138l8.766 4.93v1.54l-8.767-4.93v-1.54M347.064 180.565l16.545 9.096v2.25l-16.546-9.095v-2.25M347.064 187.84l27.926 15.562v1.54l-27.926-15.56v-1.54M347.064 191.41l24.19 13.58v1.54l-24.19-13.58v-1.54M347.064 195.56l27.926 15.548v1.54L347.064 197.1v-1.54M347.064 199.13l22.52 12.733v1.54l-22.52-12.733v-1.54M347.064 202.696l28.73 16.136v1.54l-28.73-16.136v-1.54M347.064 206.266l25.152 14.013v1.538l-25.152-14.012v-1.54M347.064 210.415l28.16 15.816v1.54l-28.16-15.815v-1.54" fill="#868C96"/><path d="M280.833 122.366v8.996l11.063 1.864-1.54 6.95 18.813 10.53V138.71l-3.382-1.848-5.37 7.318-3.095-5.404v-7.434l-16.49-8.978" fill="#F7B6AA"/><path d="M285.85 141.185l-.07-5.062 2.288 1.003-.02 5.33-2.2-1.27" fill="#DA4453"/><path d="M313.745 147.134c-.13.314-.196.518-.196.518l.195 2.708v-3.226" fill="#F7F9F9"/><path d="M316.974 143.912c-1.697 0-2.804 2.195-3.23 3.222v3.226c.39-.292.798-.436 1.222-.436 1.774 0 3.865 2.53 6.446 7.444 3.198 6.09 20.67 11.722 20.67 11.722v-14.94s-4.97 5.344-10.754 5.344c-2.132 0-4.375-.726-6.52-2.716-3.43-3.18-3.08-9.024-5.545-11.624-.852-.898-1.617-1.242-2.29-1.242" fill="#A1DACC"/><path d="M347.26 168.695v7.956-7.955" fill="#F7F9F9"/><path d="M350.535 165.804l-3.274 2.89v7.957l4.137 2.258.403-3.883 23.797 14.052v-6.79l-10.245-5.5-1.742-5.91-5.286 3.185-2.007-6.28-3.975 3.094-1.807-5.072" fill="#A8C2E2"/><path d="M280.636 108.31L302 120.12v3.824l-21.364-11.81v-3.823" fill="#868C96"/><path d="M251.098 152.238l11.85 6.698-.033-14.507-11.817-6.695v14.503" fill="#8978B5"/><path d="M251.098 154.342l11.85 6.697-.033-2.202-11.817-6.695v2.2" fill="#A28FC3"/><path d="M257.858 145.03l2.877 1.565v.39l-2.877-1.563v-.392M257.858 146.295l4.857 2.707v.268l-4.857-2.707v-.268M257.858 146.916l4.207 2.363v.267l-4.207-2.363v-.268M257.858 147.638l4.857 2.704v.268l-4.857-2.704v-.268M257.858 148.26l3.917 2.214v.268l-3.917-2.215v-.268M257.858 148.88l4.997 2.806v.268l-4.997-2.807v-.267M257.858 149.5l4.375 2.438v.267l-4.375-2.437v-.268M257.858 150.22l4.898 2.753v.268l-4.898-2.75v-.27M257.858 150.843l4.207 2.362v.268l-4.207-2.362v-.267" fill="#ECF0F3"/><path d="M251.098 141.13v9.3l5.79 3.38v-9.323l-5.79-3.358" fill="#FFF"/><path d="M253.63 145.895l-.93-1.466-1.602.295v2.087c.53.624.952 1.265 1.256 1.788.72 1.236 4.533 3.132 4.533 3.132v-4.094l-3.256-1.743" fill="#6597D0"/><path d="M251.098 145.73v4.7l5.79 3.38v-5.225l-5.79-2.855" fill="#ACDEF9"/><path d="M251.118 118.67l-11.68-6.49-.035 16.507 11.715 6.472v-16.49" fill="#99D6F1"/><path d="M250.013 122.53l-2.66-1.818-.948.3-.346.633-.126.82.172 1.465.215.755.437 1.096-.187.044-.128 2.314.624 1.94 1.01 1.174 1.27-1.788.13-2.64s.265-.283.454-.842c.188-.558.287-2.49.287-2.49l-.204-.96" fill="#E4C1A4"/><path d="M250.013 121.34c-.657-.825-1.383-.908-1.687-1.008-.304-.1-1.32 0-1.32 0s-1.207.38-1.338 1.295c-.062.428.438 2.303.438 2.303s.173-2.906.94-1.572c.247.43 0-.7.236-.68.235.017 2.628.4 2.692 2.034.01.248.463-1.185.134 1.192 0 0 .798-2.44-.095-3.564" fill="#3C3C3B"/><path d="M249.74 126.423c-.27.537-.888.58-1.003.61-.377.104-1.338-.363-1.618-.75-.082-.11-.27-.28-.396-.582l-.085.082.133.257s.965 1.816 1.33 2.03c.367.212.977-.366 1.196-.53l.06-.272.38-.845" fill="#BDA28A"/><path d="M248.084 130.85c-.37.18.03-2.61-.802-2.93-.83-.32-.467-.305-.618-1.144-.083-.465-.025-.994-.025-.994s-1.31-.468-1.826-.54c-.516-.075-1.498.728-1.647.898-.15.17-3.487 2.51-3.462 2.76l2.627 1.427 1.106-.844-.078 1.407 7.758 4.27v-7.42l-1.58-.964-1.454 4.073" fill="#D470A8"/><path d="M262.93 106.338l-11.812-6.686v16.49l11.81 6.684v-16.488" fill="#ECF0F3"/><path d="M251.118 108.877l2.092 1.213v.392l-2.092-1.213v-.393M251.118 110.143l2.976 1.706v.267l-2.976-1.706v-.267M251.118 110.764l2.976 1.747v.27l-2.976-1.748v-.268M251.118 111.486l2.976 1.73v.267l-2.976-1.73v-.267M251.118 112.106l2.976 1.767v.268l-2.976-1.766v-.267M251.118 112.726l2.976 1.73v.268l-2.976-1.73v-.268M251.118 113.348l1.132.636v.267l-1.132-.634v-.268" fill="#5B5E67"/><path d="M251.098 103.427v4.782l2.976 1.735v-4.792l-2.976-1.726M255.377 115.474v3.078l6.344 3.59v-3.054l-6.343-3.614M251.118 99.608v1.194l11.81 6.685v-1.17l-11.81-6.71" fill="#42B498"/><path d="M251.08 105.13l.018 3.08 2.976 1.735-.028-3.105-2.967-1.71" fill="#A0C86A"/><path d="M259.99 109.522l2.093 1.212v.392l-2.092-1.213v-.39M259.99 110.25l2.093 1.214v.392l-2.092-1.213v-.392M259.99 110.994l2.093 1.212v.392l-2.092-1.213v-.39" fill="#5B5E67"/><path d="M255.657 107.976c-.02-.468.057-.885.23-1.2l1.685 2.078-1.915-.878" fill="#DA4453"/><path d="M257.88 111.487c-.672-.224-1.383-.94-1.828-1.93-.08-.18-.15-.358-.205-.537l1.725-.166.31 2.633" fill="#5084C4"/><path d="M257.88 111.487c.302.1.594.1.853-.015.835-.375.99-1.84.346-3.274-.354-.784-.873-1.396-1.407-1.727l-.1 2.384.308 2.633" fill="#6EB647"/><path d="M255.886 106.777c.122-.225.294-.397.512-.495.378-.17.832-.086 1.275.19l-.1 2.382-1.687-2.077" fill="#A28FC3"/><path d="M255.847 109.02l1.725-.166-1.915-.878c.014.33.077.684.19 1.044" fill="#F7BB40"/><path d="M255.912 114.457c.1.22.077.448-.053.506-.13.06-.317-.074-.416-.296-.1-.222-.076-.45.053-.507.13-.06.316.074.415.297M256.85 114.988c.1.22.074.448-.055.507-.13.058-.315-.075-.415-.297-.1-.222-.076-.45.053-.507.13-.057.316.075.416.298M257.784 115.52c.1.22.077.448-.053.506-.128.058-.314-.075-.415-.297-.1-.222-.075-.45.055-.507.13-.058.314.074.414.296" fill="#B8BEC6"/><path d="M262.896 87.164l-11.81-6.818v16.49l11.81 7.07V87.164" fill="#FFF"/><path d="M251.118 80.346v14.45l8.993 5.248V85.56l-8.992-5.214" fill="#3AAED9"/><path d="M253.306 82.953v7.145l-2.176 1.337v-7.162l2.176-1.32" fill="#8A2C33"/><path d="M256.236 84.637v7.145l-4.447 2.596v-7.162l4.446-2.58" fill="#B83B46"/><path d="M258.675 86.088v7.145l-4.447 2.596v-7.164l4.447-2.578" fill="#E95465"/><path d="M256.45 89.172v.438l3.055 1.766v-.445l-3.054-1.758M256.45 90.027v.438l3.055 1.766v-.444l-3.054-1.76M256.45 90.882v.438l3.055 1.766v-.446l-3.054-1.758" fill="#FFF"/><path d="M261.597 99.677c.16.356.122.72-.086.814-.207.095-.506-.12-.666-.476-.16-.356-.123-.72.086-.814.207-.094.506.12.667.477" fill="#3AAED9"/><path d="M309.985 160.433c5.01-.42 9.547-3.1 14.037-4.884 7.89-3.15 14.724-5.72 18.438-7.28.24-.1.353-.377.252-.616-.1-.24-.377-.35-.617-.25-3.68 1.545-10.526 4.12-18.423 7.27-4.577 1.834-9.046 4.44-13.764 4.82-.26.023-.453.25-.43.51.02.258.248.45.507.43" fill="#5B61CE"/><path d="M316.65 135.413c5.884 9.107 11.77 18.215 17.657 27.323 1.54 2.375 3.063 4.836 3.202 7.497.013.26.235.458.495.445.26-.015.46-.237.445-.496-.168-2.992-1.817-5.575-3.35-7.956l-17.66-27.323c-.14-.218-.432-.28-.65-.14-.22.14-.282.432-.14.65" fill="#5B61CE"/><path d="M346.828 212.96c1.236-1.317 2.736-2.39 4.382-3.138l-.194-.428-.455.123c.423 1.56.74 3.15.948 4.753.024.185.156.34.336.39.18.053.375-.007.494-.15.782-.944 1.76-1.727 2.854-2.282l-.214-.42-.47.045.788 8.396c.018.183.142.34.317.4.174.06.37.012.495-.123 1.677-1.783 3.547-3.387 5.567-4.77l-.267-.39-.472-.01c0 .093-.003.186-.003.28 0 1.54.292 3.078.86 4.51.062.16.206.273.378.295.173.02.34-.052.442-.192 1.026-1.42 2.204-2.732 3.507-3.904l-.316-.35-.47-.02c-.075 1.84-.15 3.68-.223 5.518-.006.187.097.36.265.442.17.082.368.057.512-.064 1.505-1.274 2.867-2.717 4.052-4.294l-.378-.282-.47-.048c-.202 1.962-.304 3.936-.304 5.91 0 .573.008 1.147.026 1.72.004.128.06.25.154.334.094.086.22.13.348.12.655-.044 1.265-.375 1.66-.9.156-.207.113-.502-.095-.657-.208-.156-.503-.114-.66.095-.22.297-.596.502-.967.524l.03.47.472-.015c-.017-.564-.025-1.128-.025-1.69 0-1.943.1-3.884.3-5.816.022-.21-.1-.41-.296-.486-.198-.077-.42-.013-.55.155-1.14 1.52-2.455 2.913-3.907 4.142l.305.358.47.02c.075-1.84.15-3.68.222-5.517.008-.19-.1-.365-.27-.445-.17-.08-.375-.05-.515.077-1.354 1.217-2.577 2.578-3.642 4.053l.382.275.438-.173c-.523-1.322-.793-2.744-.793-4.164 0-.086 0-.172.003-.26.004-.176-.09-.34-.246-.424-.156-.084-.345-.075-.49.026-2.077 1.423-3.997 3.07-5.72 4.904l.343.32.47-.043c-.264-2.798-.526-5.596-.788-8.395-.015-.155-.105-.293-.242-.37-.136-.073-.302-.076-.44-.006-1.21.614-2.288 1.476-3.153 2.52l.363.3.467-.06c-.213-1.647-.538-3.278-.972-4.88-.036-.132-.13-.243-.254-.3-.125-.06-.27-.06-.395-.004-1.76.798-3.358 1.943-4.68 3.35-.178.19-.168.488.022.666.19.178.488.168.666-.02" fill="#E84E1B"/><path d="M274.674 105.758c.063-.16.188-.32.335-.43.145-.113.306-.17.436-.17l.17.035c.173.064.358.29.535.594.372.617.697 1.26.972 1.927.103.246.18.507.177.69 0 .116-.023.193-.068.26-.044.065-.116.125-.236.183-.12.06-.278.107-.45.154-.503.14-.982.264-1.425.263l-.14-.005c-.474-.026-.932-.25-1.112-.576-.016-.02-.08-.195-.124-.415-.148-.67-.252-1.84-.25-2.463 0-.15.006-.268.013-.316.035-.24-.132-.464-.372-.498-.24-.036-.465.13-.5.37-.018.13-.023.27-.023.444 0 .47.047 1.146.127 1.775.038.313.086.614.143.874.06.264.112.472.222.668.4.675 1.138.972 1.822 1.015l.194.006c.602-.002 1.154-.156 1.66-.294.18-.05.388-.11.598-.21.21-.1.428-.25.587-.487.16-.238.216-.507.216-.75-.002-.388-.125-.733-.244-1.025-.29-.706-.636-1.39-1.03-2.044-.197-.32-.45-.737-.95-.953-.167-.07-.342-.1-.51-.1-.366 0-.7.14-.97.346-.272.207-.49.483-.62.805-.09.227.02.483.246.573.225.09.482-.02.572-.245" fill="#5B61CE"/><path d="M357.488 222.264l24.19 13.58v9.42l-24.19-13.58v-9.42" fill="#E84E1B"/><path d="M358.906 225.455l20.064 11.19v1.54l-20.064-11.19v-1.54M358.906 228.4l17.38 9.815v1.54l-17.38-9.816v-1.54" fill="#ECF0F3"/><path d="M269.49 108.39l17.044 9.55v6.204l-17.043-9.55v-6.203" fill="#5B61CE"/><path d="M270.908 111.582l14.077 7.87v1.54l-14.077-7.87v-1.54" fill="#ECF0F3"/><path d="M383.76 181.754l6.866 3.812v3.398l-6.867-3.813v-3.396" fill="#5B61CE"/><path d="M383.7 182.077l.014.1.862 2.735-.665.045-.816-2.725c-.015-.084-.076-.174-.136-.21l-.106-.004-.967.793v-6.138l3.432 6.13-1.467-.843c-.09-.034-.15.024-.15.117" fill="#1D1D1B"/><path d="M383.7 182.077l-.1.014.016.103.004.015.825 2.614-.462.03-.795-2.65-.094.03.096-.02c-.024-.113-.088-.215-.183-.274l-.045-.014-.105-.004-.068.022-.807.66v-5.554l3.074 5.492-1.158-.666-.016-.007-.084-.016-.152.074-.048.153v.014l.1-.013h.097l.006-.032-.004-.004v.007l.003-.002-.004-.004v.007-.002.003-.003.003l.015.003.035-.09-.05.084 1.468.844.118-.016.016-.118-3.43-6.13-.112-.047-.073.095v6.14l.056.087.104-.014.938-.768.068.003.005-.097-.05.084.09.142v.01l.82 2.725.1.07.665-.045.074-.043.013-.085-.86-2.727-.014-.092-.097.014h.097-.098" fill="#5B61CE"/><path d="M385.148 183.684l4.52 2.537v1.263l-4.52-2.537v-1.262" fill="#ECF0F3"/><path d="M327.987 203.04l6.867 3.812v3.398l-6.867-3.812v-3.398" fill="#93C01F"/><path d="M327.926 203.363l.015.102.863 2.733-.665.045-.817-2.726c-.014-.083-.075-.173-.135-.21l-.106-.003-.968.792v-6.138l3.432 6.13-1.467-.843c-.09-.033-.15.025-.15.118" fill="#1D1D1B"/><path d="M327.926 203.363l-.098.014.015.102.004.014.825 2.614-.462.03-.795-2.65-.094.03.098-.02c-.025-.113-.088-.215-.184-.275l-.044-.012-.106-.005-.068.022-.805.66v-5.552l3.074 5.49-1.158-.665-.014-.007-.084-.016-.152.073-.048.153v.014l.098-.014h.098l.007-.032-.004-.003.002.006.003-.002-.004-.003.002.006.014.004.035-.092-.05.085 1.467.843.12-.015.016-.118-3.432-6.13-.11-.047-.074.095v6.138l.056.09.104-.014.938-.77.068.005.005-.1-.05.087.09.14.002.01.817 2.727.1.07.666-.044.074-.043.013-.085-.86-2.727-.014-.092-.097.014h.098-.098" fill="#93C01F"/><path d="M329.375 204.97l4.52 2.537v1.262l-4.52-2.538v-1.262" fill="#ECF0F3"/><path d="M120.095 73.636L288.04 170.56l-.038 94.03-167.873-96.384-.035-94.57" fill="#B9D0DE"/><path d="M120.13 74.146v44.838l11.65 6.704-.003-7.09 11.794 6.83.016 7.054.01.007V87.58L120.13 74.147" fill="#929EA5"/><path d="M259.406 248.172L288 264.607v-.018l-28.594-16.418" fill="#B5B5B6"/><path d="M245.796 146.18v94.17l13.61 7.822 28.596 16.418-.002-.003-42.2-24.255v-11.07l42.2 24.365v-1.583l-42.2-24.367v-14.13l42.204 24.367v-1.55l-42.203-24.367V181.28l42.21 24.37v-1.727l-42.21-24.37v-14.13l42.212 24.37V188.4l-42.21-24.372v-17.746l42.213 24.374v-.054l-42.22-24.377v-.045" fill="#929EA5"/><path d="M288.052 160.567L120.095 63.86V50.282l167.957 96.65v13.635" fill="#CCCCCD"/><path d="M123.658 56.08c.332.737.252 1.493-.178 1.687-.43.193-1.05-.25-1.382-.988-.332-.74-.253-1.495.18-1.688.43-.193 1.048.248 1.38.987" fill="#EB5C55"/><path d="M126.773 57.847c.332.738.252 1.494-.18 1.687-.43.194-1.048-.25-1.38-.987-.333-.74-.253-1.494.178-1.687.432-.194 1.05.248 1.383.987" fill="#F8BB31"/><path d="M129.887 59.614c.333.74.253 1.495-.178 1.688-.432.194-1.05-.25-1.382-.987-.333-.74-.253-1.494.177-1.687.432-.194 1.05.248 1.382.986" fill="#6EB647"/><path d="M162.903 81.77c-.27-1.103-.76-3.085-.9-3.575-.196-.688-.492-1.277-1.476-1.77-.985-.49-26.09-14.746-26.648-15.078-.56-.332-.625-.455-.92 0-.296.456-1.132 2.53-1.132 2.53l-11.7-6.7v7.146l167.923 96.65v-7.145l-125.147-72.06" fill="#E8E6E6"/><path d="M291.823 273.853l-3.825 2.256.02-129.042 3.826-2.187-.02 128.973" fill="#868C96"/><path d="M288.02 147.068L120.13 50.282l3.823-2.187 167.89 96.786-3.824 2.188" fill="#E9E9EB"/><path d="M131.787 99.652l-11.81-6.823.136 16.567 11.674 6.744V99.653" fill="#2C2E33"/><path d="M143.597 144.485l-11.81-6.686v16.488l11.81 6.686v-16.49" fill="#B8BEC6"/><path d="M143.597 163.93l-23.468-13.42v17.592l23.467 13.504V163.93" fill="#5B5E67"/><path d="M133.807 165.978l-.18.08c.36.8.534 1.608.533 2.303 0 .49-.085.922-.242 1.258-.16.338-.383.576-.67.706-.157.07-.325.105-.504.105-.47 0-1.027-.25-1.554-.713-.528-.462-1.023-1.133-1.387-1.942-.36-.8-.533-1.607-.533-2.303 0-.488.085-.92.243-1.257.158-.337.382-.575.67-.705.157-.07.323-.104.502-.104.47-.002 1.028.246 1.555.71.527.463 1.024 1.134 1.387 1.943l.18-.082.18-.08c-.387-.857-.91-1.57-1.487-2.077-.576-.503-1.207-.805-1.815-.807-.23 0-.454.045-.664.14-.386.173-.677.494-.864.896-.188.402-.28.89-.28 1.422 0 .76.187 1.617.568 2.464.385.857.91 1.57 1.487 2.077.577.504 1.207.807 1.814.808.23 0 .455-.043.665-.138.386-.173.677-.495.864-.897.188-.403.28-.89.28-1.424 0-.76-.186-1.615-.568-2.462l-.18.08" fill="#B1B1B1"/><path d="M130.086 166.26l2.867 1.66c.093.055.214.023.268-.07.056-.094.024-.215-.07-.27l-2.866-1.662c-.095-.054-.215-.022-.27.072-.054.093-.022.214.072.27" fill="#B1B1B1"/><path d="M131.422 165.073v3.638c0 .11.088.197.196.197.11 0 .197-.088.197-.196v-3.637c0-.108-.088-.196-.197-.196-.108 0-.196.088-.196.196" fill="#B1B1B1"/><path d="M120.24 64.267l167.8 96.68v9.613L120.095 73.58l.144-9.313" fill="#2B2E32"/><path d="M251.048 149.2v.01l.05.03v-.012l-.05-.03" fill="#414344"/><path d="M251.036 149.192v.013l.012.006v-.012l-.012-.006" fill="#494E49"/><path d="M262.942 156.067v.01l17.694 10.21v-.002l-17.694-10.218" fill="#4E5052"/><path d="M246.72 146.7l-.003.012 4.01 2.314c0-.004.002-.007.003-.01l-4.01-2.316" fill="#4E4B48"/><path d="M245.796 146.166v.014l.92.532.005-.012-.924-.534M250.73 149.015c0 .004-.002.007-.004.01l.31.18v-.013l-.306-.177" fill="#4E3135"/><path d="M280.636 166.285v.002l7.38 4.26-7.38-4.262" fill="#3A3C3F"/><path d="M256.887 152.57v.01l6.055 3.496v-.01l-6.055-3.496" fill="#3A3845"/><path d="M251.098 149.228v.012l5.79 3.34v-.01l-5.79-3.342" fill="#414D53"/><path d="M245.796 146.18v.045l42.22 24.377v-.056l-36.918-21.306-.05-.03-.012-.005-.31-.18-4.93-2.845" fill="#444A4D"/><path d="M288.04 161.005v9.555l-.025-.014v.056l.025.014v-9.61" fill="#3F4347"/><path d="M245.796 136.613v9.553l5.24 3.026.012.006.05.03 36.917 21.318.025.014v-9.555l-42.244-24.392" fill="#1B1D1F"/><path d="M120.095 64.267v9.312l.14-9.194-.106-.063v-.037l-.035-.02" fill="#707171"/><path d="M120.13 64.286v.037l.106.063v-.038l-.107-.062" fill="#666767"/><path d="M120.095 73.58v.056l23.502 13.556v-.04l-23.502-13.573" fill="#707171"/><path d="M120.237 64.348v.038l-.142 9.193 23.502 13.57v-9.368l-23.36-13.434" fill="#1B1D1F"/><path d="M188.736 136.075s-4.186.848-3.957 4.375c.228 3.528.59 9.087 4.854 12.51l1.524-13.654-2.422-3.23" fill="#2C2E33"/><path d="M217.06 169.08s-.6 4.85-.218 7.346c.384 2.495 1.92 7.133 1.92 7.133l.828 1.317-20.502 14.012-2.68-2.553-4.402-13.686.91-16.322 1.31-.31-3.068-7.73-1.524-5.33-1.21-10.326.885-5.793 2.434-4.475 6.688-2.11 14.032 14.262 6.22 13.77-1.623 10.794" fill="#E9D5C3"/><path d="M194.78 125.472s-4.745-.284-6.435 2.254c-1.69 2.538 1.115 10.815 1.115 10.815s.358-1.7 2.558-1.873c3.485-.273 2.262-3.24 3.92-3.11 1.656.13.557-.917 3.974 4.983 3.417 5.9 1.885 2.74 4.556 2.63 2.672-.11 6.824 3.528 8.036 6.316 1.21 2.79 3.16 10.8 3.16 10.8l2.574-3.262V147.5l-6.34-13.625-8.877-5.597-8.24-2.806" fill="#B17F49"/><path d="M214.93 164.748s2.248 6.68 5.003 6.18c2.277-.41 5.78-8.33 3.66-12.45-2.123-4.12-4.658-4.454-6.446-3.42-1.787 1.035-2.197 6.807-2.216 9.69" fill="#2C2E33"/><path d="M217.442 146.6l2.098 1.494c.91 2.06-.095 7.16.123 7.35l-2.027-.404c-.218-.19.717-6.38-.194-8.44" fill="#2C2E33"/><path d="M193.946 165.354c.812 1.958 1.548 3.498 2.064 4.208 1.81 2.492 9.49 6.514 11.92 5.85 2.43-.663 6.12-4.112 6.12-4.112s-2.566 5.327-3.977 6.375c-1.412 1.047-7.706 3.405-10.067 2.03-2.36-1.375-6.223-11.722-6.223-11.722l-.868-1.655 1.03-.974" fill="#BBAC9E"/><path d="M199.654 127.66s1.71.335 7.22 3.376c6.36 3.507 10.726 16.032 10.726 16.032s1.8 4.2 2.305 2.89c.506-1.31-2.225-10.814-6.24-14.977-4.018-4.162-9.576-8.032-14.01-7.32M215.166 165.1s-6.134 2.607-9.953 1.398c0 0-.746.935 0 1.16.747.223 3.517.503 3.742.325.224-.177 1.28-.71 1.28-.71l5.615-1.637-.684-.536M245.8 146.282l42.246 24.392v17.745L245.8 164.027v-17.746M245.8 165.422l42.246 24.392v14.13l-42.245-24.39V165.42" fill="#2C2E33"/><path d="M248.13 151.702v1.54l14.146 7.968v-1.54l-14.146-7.968" fill="#62666E"/><path d="M248.13 155.425v1.54l35.903 20.738v-1.54l-35.903-20.738M248.13 158.996v1.54l30.23 17.456v-1.54l-30.23-17.456" fill="#ABABAD"/><path d="M248.13 170.683v1.54l14.146 7.968v-1.54l-14.146-7.967" fill="#62666E"/><path d="M248.13 174.406v1.54l28.067 16.236v-1.54l-28.067-16.236" fill="#347B97"/><path d="M245.8 213.547l42.246 24.39v14.132L245.8 227.676v-14.13" fill="#2C2E33"/><path d="M248.13 218.807v1.54l14.146 7.97v-1.54l-14.146-7.97" fill="#62666E"/><path d="M262.276 245.11l-14.146-7.967v-1.54l14.146 7.968v1.54M245.8 229.26v11.072l42.2 24.255v-10.96l-42.2-24.366" fill="#4A4F55"/><path d="M288 253.627v10.96l.046.027v-10.962l-.045-.025" fill="#474A51"/><path d="M248.13 235.603v1.54l14.146 7.968v-1.54l-14.146-7.967" fill="#6E747C"/><path d="M248.13 222.532v1.54l28.067 16.235v-1.54l-28.067-16.235" fill="#ABABAD"/><path d="M245.8 181.28l42.246 24.392v30.716l-42.245-24.39V181.28" fill="#2C2E33"/><path d="M248.13 185.888v1.54l14.146 7.968v-1.54l-14.146-7.968" fill="#62666E"/><path d="M248.13 194.135v15.212l18.794 10.755V204.89l-18.794-10.755" fill="#728A54"/><path d="M248.13 189.612v1.54l35.903 20.738v-1.54l-35.903-20.738" fill="#ABABAD"/><path d="M248.655 195.396v5.996s3.226-.884 3.82-.467c.596.417 1.34 2.547 1.34 2.547s.993.198 1.14.198c.15 0 3.623-.644 4.565 0 .943.645 3.92 2.294 3.92 2.294l.744 2.87 2.133-1.002v-2.427l-17.662-10.01" fill="#FFF"/><path d="M248.655 208.834v-2.87s1.537-1.017 1.978 0c.442 1.016.956 2.41.956 2.41l2.427-1.2s2.28-1.296 2.94.32c.663 1.616.57 3.82.57 3.82l2.498-1.69s3.258 1.826 3.773 2.266c.515.44 2.284-.43 2.284-.43v7.05l-17.427-9.676" fill="#8CBF52"/><path d="M242.313 239.09c-.307-3.424-1.597-25.315-1.136-27.736.46-2.42-3.803-7.776-6.284-11.07-2.48-3.292-16.13-16.725-16.13-16.725s-3.832 2.953-6.98 4.86c-2.936 1.776-12.13 3.762-12.13 3.762s-5.163-8.78-6.132-14.19c-.538-3.002-.605-11.664-.605-11.664s-8.44-3.014-11.767-3.49c-3.328-.474-13.54 1.27-14.497 2.37-.958 1.1-7.957 23.563-7.8 25.186l83.463 48.697" fill="#FDCD55"/><path d="M221.495 223.764c.932-.91.685-17.8.685-17.8l-3.417 20.677 2.732-2.876M174.164 199.156c1.075-2.48 5.602-18.513 5.602-18.513l-2.68 20.25-2.922-1.737" fill="#F7BB40"/><path d="M120.13 168.118l167.858 96.472v11.523L120.095 179.33l.034-11.212" fill="#2B2E32"/><path d="M120.094 131.197l11.656 6.532.035 16.552-11.685-6.515-.006-16.57" fill="#D3E7C9"/><path d="M131.763 138.483c-1.316-.996-3.147-.593-3.664-.092-1.034 1-.33 2.615-.35 2.865l.763 2.313-1.09 1.376c-.03.023 2.58 1.824 4.34 3.035v-9.497" fill="#463C39"/><path d="M131.763 140.756c-.34-.073-1.187-.208-2.082.007-.94.226-1.63-.967-1.854-.165-.15.536.015 1.31.015 1.31s.33 1.716.694 2.81c0 0-2.272 1.683-1.86 3.41.052.213 1.238 1.973 1.238 1.973s2.525.415 2.834.3c.526-.196.837-.574 1.017-1.004v-8.64" fill="#E9D5C3"/><path d="M131.763 145.366c-.41.442-.983 1-1.285 1.02-.503.036-1.053-.326-1.098-.442-.044-.115-.846-1.225-.846-1.225s.307 2.172.707 2.716c.4.544 1.34.12 1.683 0 .184-.063.543-.8.84-1.472v-.598" fill="#BBAC9E"/><path d="M129.96 153.318l1.27-3.042.552-.64s-1.082.413-1.33.445c-.72.094-1.63-.09-2.068-.19-.44-.097-.89-.564-1.107-.957-.217-.393-.43-1.45-.43-1.45l.187-.645-1.34 2.053s-.323.983-.606 1.632l4.872 2.796" fill="#5B5E67"/><path d="M126.74 151.47c.16-.9.44-2.564.5-3.564.1-1.643 1.328-3.187 1.328-3.187h-.814s-1.422-.347-2.435-.387c-1.09-.044-2.017.08-2.294.676-.167.358-.583 2.71-.784 3.877l4.498 2.582" fill="#E95465"/><path d="M123.41 149.56c.16-.995.43-2.738.43-2.738s-.85 1.937-1.005 2.308l-.03.082.606.347" fill="#DA4453"/><path d="M131.763 154.353v-7.275c-.074.188.067 1.61-.595 2.7-.813 1.337-1.042 2.79-1.106 3.6l1.7.975" fill="#E95465"/><path d="M131.763 152.252l11.85 6.696-.034-14.505-11.817-6.696v14.505" fill="#8978B5"/><path d="M131.763 154.355l11.85 6.697-.034-2.2-11.817-6.696v2.2" fill="#A28FC3"/><path d="M138.522 145.043l2.88 1.565v.39l-2.88-1.563v-.392M138.522 146.31l4.858 2.705v.268l-4.858-2.706v-.268M138.522 146.93l4.208 2.362v.268l-4.208-2.363v-.268M138.522 147.65l4.858 2.706v.268l-4.858-2.705v-.27M138.522 148.272l3.917 2.215v.268l-3.918-2.215v-.268M138.522 148.893l4.998 2.806v.267l-4.998-2.806v-.267M138.522 149.514l4.375 2.437v.27l-4.375-2.44v-.266M138.522 150.235l4.898 2.75v.27l-4.898-2.752v-.268M138.522 150.856l4.208 2.362v.268l-4.208-2.362v-.268" fill="#ECF0F3"/><path d="M131.763 141.143v9.3l5.788 3.38V144.5l-5.787-3.357" fill="#FFF"/><path d="M134.296 145.908l-.932-1.465-1.6.295v2.087c.528.624.95 1.266 1.255 1.787.72 1.236 4.53 3.133 4.53 3.133v-4.094l-3.254-1.742" fill="#6597D0"/><path d="M131.763 145.742v4.702l5.788 3.378v-5.224l-5.787-2.856" fill="#ACDEF9"/><path d="M131.777 118.597l11.794 6.83.035 16.49-11.82-6.817-.008-16.503" fill="#ECF0F3"/><path d="M140.164 126.85l-4.94-2.803v3.754l4.94 2.853v-3.802" fill="#5084C4"/><path d="M134.322 135.61l-2.54-1.454v.963l2.54 1.498v-1.01" fill="#E95465"/><path d="M140.164 138.91l-4.94-2.804v1.018l4.94 2.852v-1.065" fill="#A28FC3"/><path d="M131.783 127.763l2.433 1.367v.268l-2.433-1.367v-.267M131.783 128.385l1.782 1.02v.27l-1.782-1.02v-.27M131.783 129.11l2.433 1.363v.268l-2.433-1.364v-.267M131.783 129.73l1.49.875v.268l-1.49-.874v-.27M131.783 130.352l2.574 1.467v.267l-2.574-1.467v-.268M135.19 128.483l2.884 1.586v.39l-2.883-1.585v-.392M135.19 129.75l4.867 2.714v.268l-4.866-2.712v-.27M135.19 130.374l4.217 2.367v.27l-4.216-2.368v-.268M135.19 131.097l4.867 2.71v.268l-4.866-2.71v-.268M135.19 131.72l3.926 2.218v.27l-3.925-2.22v-.27M135.19 132.34l5.007 2.813v.27l-5.006-2.814v-.27M135.19 132.963l4.384 2.442v.268l-4.383-2.442v-.267M135.19 133.686l4.908 2.756v.27l-4.907-2.758v-.268" fill="#868C96"/><path d="M135.795 125.91l-.57.504v1.257l.73.422.06-.574 4.15 2.45v-1.203l-1.788-.94-.303-1.03-.92.554-.35-1.094-.694.54-.315-.886" fill="#A8C2E2"/><path d="M131.783 122.106v3.777l2.54 1.466v-3.8l-2.54-1.444" fill="#42B498"/><path d="M134.322 123.88s-.866.93-1.874.93c-.218 0-.442-.044-.665-.15v.713c1.082.64 2.54 1.11 2.54 1.11v-2.604" fill="#A1DACC"/><path d="M131.783 126.52v.393l1.156.652v-.393l-1.157-.652" fill="#868C96"/><path d="M131.787 80.346l-11.692-6.71-.12 16.79 11.812 6.41v-16.49" fill="#FBC67F"/><path d="M131.787 83.77l-2.247-2.068-1.068.337-.39.714-.14.925.192 1.65.243.85.49 1.237-.21.05-.144 2.608.704 2.187.428.407 2.142-1.1v-7.8" fill="#E9D5C3"/><path d="M131.787 82.096s-1.17-.6-1.513-.71c-.344-.113-1.124-.113-1.124-.113s-.94.47-1.21.877c-.27.405.194 3.18.194 3.18s.08-.826.946.677c.278.484-.075-1.968.19-1.947.265.02.744-.97.744-.97s.064.373.49.356c.28-.012.66.233 1.283.703v-2.054" fill="#56423A"/><path d="M131.787 88.794c-.147.095-.297.176-.427.213-.424.115-1.767-.588-2.083-1.023-.09-.125-.22-.394-.362-.737l-.18.17.152.29s.675 1.81 1.088 2.05c.413.24 1.513-.172 1.76-.355l.052-.046v-.562" fill="#BBAC9E"/><path d="M131.787 90.005c-.42.204-.937.448-1.874.087-.936-.36-.98-.608-1.15-1.553-.092-.526-.028-1.122-.028-1.122s-1.475-.527-2.057-.61c-.582-.083-1.69.822-1.857 1.014-.167.192-3.93 2.83-3.903 3.113l2.962 1.608 1.247-.952-.088 1.587 6.747 3.704v-6.875" fill="#5B5E67"/><path d="M131.784 118.612l-11.68-6.49-.035 16.507 11.714 6.47v-16.488" fill="#99D6F1"/><path d="M130.678 122.474l-2.66-1.82-.95.3-.343.634-.126.82.17 1.465.216.755.435 1.096-.185.043-.13 2.314.626 1.94 1.01 1.175 1.27-1.79.13-2.64s.267-.28.455-.84c.188-.56.288-2.49.288-2.49l-.205-.96" fill="#E4C1A4"/><path d="M130.678 121.283c-.656-.825-1.383-.908-1.687-1.008-.304-.1-1.32 0-1.32 0s-1.206.38-1.337 1.295c-.06.427.437 2.303.437 2.303s.174-2.906.942-1.572c.247.43 0-.7.235-.68.235.017 2.628.4 2.692 2.035.01.247.46-1.185.133 1.192 0 0 .8-2.44-.095-3.564" fill="#3C3C3B"/><path d="M130.406 126.366c-.27.537-.89.58-1.004.61-.376.104-1.338-.364-1.62-.75-.078-.11-.266-.28-.392-.583l-.087.082.135.256s.965 1.82 1.33 2.032c.367.213.977-.366 1.196-.528l.062-.274.38-.844" fill="#BDA28A"/><path d="M128.75 130.792c-.373.18.028-2.608-.803-2.928-.83-.32-.467-.306-.617-1.146-.084-.465-.027-.993-.027-.993s-1.308-.468-1.824-.542c-.517-.073-1.5.73-1.648.9-.15.17-3.486 2.51-3.462 2.76l2.627 1.427 1.106-.844-.078 1.406 7.76 4.268v-7.417l-1.584-.965-1.45 4.074" fill="#D470A8"/><path d="M143.55 106.36l-11.81-6.686v16.49l11.81 6.684v-16.49" fill="#ECF0F3"/><path d="M131.74 108.9l2.09 1.212v.392l-2.09-1.214v-.39M131.74 110.165l2.974 1.706v.27l-2.975-1.707v-.268M131.74 110.786l2.974 1.747v.268l-2.975-1.746v-.268M131.74 111.508l2.974 1.73v.267l-2.975-1.73v-.267M131.74 112.13l2.974 1.765v.267l-2.975-1.766v-.267M131.74 112.748l2.974 1.73v.268l-2.975-1.73v-.268M131.74 113.37l1.13.636v.267l-1.13-.636v-.267" fill="#5B5E67"/><path d="M131.718 103.45v4.78l2.975 1.737v-4.792l-2.975-1.725M135.996 115.496v3.077l6.345 3.59v-3.053l-6.344-3.614M131.74 99.63v1.194l11.81 6.685v-1.172l-11.81-6.708" fill="#42B498"/><path d="M131.7 105.15l.018 3.08 2.975 1.737-.026-3.105-2.968-1.71" fill="#A0C86A"/><path d="M140.61 109.543l2.093 1.213v.392l-2.092-1.213v-.392M140.61 110.273l2.093 1.213v.39l-2.092-1.21v-.393M140.61 111.016l2.093 1.212v.392l-2.092-1.213v-.39" fill="#5B5E67"/><path d="M136.277 107.998c-.02-.468.058-.886.228-1.2l1.687 2.077-1.915-.877" fill="#DA4453"/><path d="M138.502 111.51c-.673-.225-1.384-.94-1.83-1.93-.08-.18-.15-.36-.205-.538l1.725-.167.31 2.634" fill="#5084C4"/><path d="M138.502 111.51c.3.098.592.1.85-.016.837-.375.992-1.84.347-3.274-.354-.784-.872-1.396-1.407-1.727l-.1 2.382.31 2.634" fill="#6EB647"/><path d="M136.505 106.8c.124-.227.296-.398.513-.496.378-.17.832-.086 1.275.19l-.1 2.38-1.688-2.075" fill="#A28FC3"/><path d="M136.467 109.042l1.725-.167-1.915-.877c.014.33.077.684.19 1.044" fill="#F7BB40"/><path d="M136.533 114.48c.1.22.076.447-.053.505-.13.058-.316-.074-.416-.296-.1-.223-.076-.45.054-.508.13-.06.315.074.415.297M137.47 115.01c.1.22.075.448-.055.506-.13.06-.315-.074-.415-.296-.1-.222-.076-.45.053-.507.13-.058.316.075.416.297M138.405 115.54c.1.223.076.45-.054.508-.128.06-.314-.075-.414-.297-.1-.22-.076-.448.054-.506.13-.058.315.075.415.297" fill="#B8BEC6"/><path d="M143.597 87.192l-11.81-6.818v16.49l11.81 7.07V87.19" fill="#FFF"/><path d="M131.82 80.374v14.448l8.993 5.25V85.59l-8.993-5.216" fill="#3AAED9"/><path d="M134.007 82.98v7.145l-2.175 1.338V84.3l2.175-1.32" fill="#8A2C33"/><path d="M136.937 84.664v7.146l-4.447 2.596v-7.163l4.447-2.58" fill="#B83B46"/><path d="M139.377 86.115v7.145l-4.448 2.596v-7.162l4.447-2.58" fill="#E95465"/><path d="M137.153 89.2v.437l3.053 1.767v-.446l-3.053-1.758M137.153 90.055v.438l3.053 1.766v-.447l-3.053-1.758M137.153 90.91v.437l3.053 1.766v-.445l-3.053-1.76" fill="#FFF"/><path d="M142.298 99.704c.16.357.122.72-.085.815-.21.092-.507-.12-.668-.478-.16-.357-.122-.72.085-.815.21-.093.508.12.668.477" fill="#3AAED9"/><path d="M.762 73.738L168.72 170.15l.198 84.183L.796 158.013.762 73.738" fill="#8978B5"/><path d="M.762 157.452l167.958 96.41.198 12.655L.796 170.197l-.034-12.745" fill="#A28FC3"/><path d="M.796 74.16V112.2l11.658 6.48v16.488L.796 128.73v28.74l23.47 13.472v-28.95l-11.806-6.806-.006-16.505 11.795 6.833.015 7.852V87.593L.795 74.16" fill="#7A7291"/><path d="M.796 157.47v10.63l23.47 13.436v-10.594l-23.47-13.47" fill="#867D98"/><path d="M168.72 160.58L.762 63.87l.002-13.576 167.956 96.652v13.633" fill="#CCCCCD"/><path d="M4.326 56.09c.332.74.253 1.495-.178 1.688-.43.194-1.05-.248-1.382-.987-.332-.737-.253-1.493.178-1.686.43-.194 1.05.248 1.382.987" fill="#EB5C55"/><path d="M7.44 57.86c.333.737.253 1.493-.177 1.686-.43.193-1.05-.248-1.382-.987-.332-.74-.252-1.495.18-1.688.43-.194 1.05.248 1.38.987" fill="#F8BB31"/><path d="M10.556 59.627c.332.738.252 1.494-.18 1.687-.43.193-1.05-.248-1.38-.987-.333-.738-.253-1.494.178-1.688.43-.194 1.05.248 1.382.987" fill="#6EB647"/><path d="M43.57 81.782c-.27-1.103-.758-3.085-.898-3.575-.197-.688-.492-1.278-1.477-1.77-.984-.49-26.09-14.746-26.648-15.077-.558-.332-.624-.456-.92 0-.294.455-1.13 2.53-1.13 2.53l-11.7-6.7v7.145l167.923 96.65v-7.145L43.57 81.782" fill="#E8E6E6"/><path d="M172.49 273.865l-3.824 2.257.02-129.043 3.826-2.186-.02 128.97" fill="#868C96"/><path d="M168.687 147.08L.797 50.293l3.824-2.186 167.892 96.786-3.825 2.185" fill="#E9E9EB"/><path d="M112.713 157.972L42.17 117.06v53.33l70.543 41.18V157.97" fill="#FFF"/><path d="M24.265 144.497l-11.81-6.685v16.49l11.81 6.685v-16.49" fill="#2C2E33"/><path d="M24.265 163.943l-23.47-13.42v17.592l23.47 13.503v-17.675" fill="#5B5E67"/><path d="M14.475 165.99l-.18.08c.36.8.533 1.608.533 2.304 0 .488-.085.92-.243 1.257-.158.338-.382.577-.67.706-.156.07-.324.104-.502.104-.47.002-1.028-.247-1.555-.71-.527-.463-1.024-1.133-1.387-1.942-.36-.8-.533-1.608-.532-2.303 0-.49.085-.92.242-1.257.16-.338.383-.576.67-.705.157-.07.325-.105.504-.105.47-.002 1.026.247 1.554.71.527.463 1.023 1.134 1.388 1.943l.18-.08.18-.08c-.387-.857-.913-1.57-1.49-2.076-.575-.504-1.205-.807-1.812-.81-.23 0-.455.046-.665.14-.388.173-.68.495-.866.897-.188.405-.28.89-.28 1.425 0 .76.187 1.616.568 2.464.386.855.91 1.57 1.486 2.075.576.504 1.207.807 1.815.808.23 0 .454-.044.664-.14.388-.173.677-.494.865-.896.188-.403.28-.89.28-1.423 0-.76-.187-1.616-.567-2.464l-.18.08" fill="#B1B1B1"/><path d="M10.754 166.27l2.867 1.662c.094.055.215.023.27-.07.054-.095.022-.215-.072-.27l-2.866-1.66c-.094-.056-.214-.024-.27.07-.054.094-.022.214.072.268" fill="#B1B1B1"/><path d="M12.09 165.085v3.638c0 .108.087.196.196.196.11 0 .197-.09.197-.197v-3.638c0-.11-.088-.197-.197-.197-.11 0-.197.088-.197.197" fill="#B1B1B1"/><path d="M.906 64.278l167.802 96.683v9.612L.762 73.592l.144-9.314" fill="#2B2E32"/><path d="M158.458 164.654l10.225 5.96v-.057l-10.225-5.903" fill="#403B54"/><path d="M168.708 160.98v9.592l-.025-.015v.057l.025.014.012-9.642-.012-.006" fill="#3F4347"/><path d="M158.458 155.054v9.6l10.225 5.903.025.015v-9.593l-10.098-5.838-.152-.087" fill="#1B1D1F"/><path d="M.762 64.278v9.314l.142-9.195-.108-.062v-.037l-.034-.02" fill="#707171"/><path d="M.796 64.298v.037l.108.062v-.036L.797 64.3" fill="#666767"/><path d="M.762 73.592v.055l23.503 13.556v-.04L.762 73.593" fill="#707171"/><path d="M.905 64.36l-.143 9.232 23.503 13.57v-9.368L.905 64.36" fill="#1B1D1F"/><path d="M.796 168.118l167.86 96.472v11.523L.762 179.33l.034-11.212" fill="#2B2E32"/><path d="M12.454 99.632l-11.66-6.68.005 16.534 11.654 6.66V99.632" fill="#B9D0DE"/><path d="M8.673 101.49s-.732.148-.692.764c.04.617.104 1.59.85 2.188l.266-2.387-.423-.565" fill="#2C2E33"/><path d="M12.454 110.763c-.653.273-1.872.537-1.872.537s-.904-1.536-1.073-2.482c-.095-.525-.107-2.04-.107-2.04s-1.475-.526-2.057-.61c-.582-.082-2.367.223-2.534.415-.168.192-1.392 4.12-1.364 4.404l9.006 5.255v-5.48" fill="#FDCD55"/><path d="M12.454 102.593l-2.086-2.12-1.17.368-.425.784-.155 1.012.21 1.806.268.93.537 1.353-.23.054-.16 2.853.77 2.393.47.446 1.97-1.348v-8.53" fill="#E9D5C3"/><path d="M12.454 100.77c-.604-.49-1.293-.844-1.872-.752 0 0 .298.06 1.262.59.218.12.422.302.61.515v-.354" fill="#2C2E33"/><path d="M12.454 100.936l-1.284-.81-1.44-.49s-.83-.05-1.126.394c-.295.443.195 1.89.195 1.89s.062-.296.446-.327c.61-.047.396-.567.686-.544.29.022.097-.16.695.87.597 1.032.33.48.797.46.305-.012.72.255 1.03.578v-2.022" fill="#B17F49"/><path d="M12.454 108.156c-.146.095-.295.176-.425.21-.426.118-1.77-.586-2.086-1.022-.09-.124-.218-.393-.36-.735l-.18.17.15.288s.676 1.81 1.09 2.05c.41.24 1.512-.172 1.76-.355l.05-.046v-.56" fill="#BBAC9E"/><path d="M.704 131.067l11.656 6.53.035 16.555L.71 147.637l-.006-16.57" fill="#D3E7C9"/><path d="M12.373 138.352c-1.317-.995-3.147-.592-3.664-.09-1.034.997-.33 2.613-.35 2.863l.762 2.313-1.09 1.375c-.028.024 2.58 1.825 4.34 3.036v-9.498" fill="#463C39"/><path d="M12.373 140.626c-.34-.073-1.187-.21-2.082.007-.94.226-1.63-.968-1.853-.165-.15.536.014 1.31.014 1.31s.33 1.715.693 2.81c0 0-2.27 1.682-1.86 3.41.052.213 1.24 1.972 1.24 1.972s2.524.415 2.834.3c.525-.196.835-.574 1.016-1.005v-8.64" fill="#E9D5C3"/><path d="M12.373 145.235c-.41.443-.982 1-1.285 1.022-.503.034-1.053-.33-1.098-.443-.045-.115-.847-1.225-.847-1.225s.308 2.172.708 2.716c.4.543 1.34.12 1.683 0 .184-.063.544-.8.84-1.473v-.598" fill="#BBAC9E"/><path d="M10.57 153.188l1.27-3.042.552-.64s-1.082.413-1.33.444c-.72.092-1.628-.092-2.07-.19-.44-.097-.89-.565-1.105-.957-.217-.393-.43-1.452-.43-1.452l.187-.642-1.34 2.053c0 .002-.323.983-.606 1.63l4.872 2.798" fill="#5B5E67"/><path d="M7.35 151.34c.16-.9.442-2.564.5-3.564.098-1.643 1.327-3.187 1.327-3.187h-.813s-1.422-.347-2.436-.388c-1.088-.044-2.015.08-2.293.677-.167.358-.583 2.71-.783 3.877l4.497 2.582" fill="#E95465"/><path d="M4.022 149.43l.428-2.738S3.6 148.63 3.444 149l-.028.08.606.35" fill="#DA4453"/><path d="M12.373 154.222v-7.275c-.074.19.066 1.612-.595 2.702-.812 1.334-1.043 2.788-1.107 3.596l1.703.976" fill="#E95465"/><path d="M118.296 161.096l16.545 8.996v2.25l-16.544-8.996v-2.25M118.296 168.37l27.926 15.562v1.54l-27.926-15.56v-1.54M118.296 171.942l24.19 13.58v1.54l-24.19-13.58v-1.54M118.296 176.09l27.926 15.55v1.538l-27.926-15.548v-1.54M118.296 179.66l22.52 12.734v1.54l-22.52-12.733v-1.54M118.296 183.227l28.73 16.135v1.54l-28.73-16.135v-1.54M118.296 186.797l25.152 14.013v1.54l-25.152-14.013v-1.54M118.296 190.946l28.16 15.816v1.54l-28.16-15.817v-1.54M118.296 194.515l24.19 13.58v1.54l-24.19-13.58v-1.54" fill="#ECF0F3"/><path d="M112.713 211.57v-30.034L42.17 146.73v23.66l70.543 41.18" fill="#ACDEF9"/><path d="M42.17 141.856l22.228 13.122 7.655-3.475 6.634 7.977 9.95-1.837 5.36 8.427 18.716 10.02v23.533s-21.92-10.9-26.06-18.005c-4.14-7.105-12.048-18.06-23.02-22.392-10.973-4.332-21.464-3.38-21.464-4.248v-13.122" fill="#5084C4"/><path d="M12.454 80.358L.762 73.648.644 90.436l11.81 6.41V80.36" fill="#FBC67F"/><path d="M12.454 83.783l-2.246-2.07-1.07.338-.387.716-.14.925.192 1.652.244.85.49 1.237-.21.048-.145 2.61.705 2.186.428.408 2.14-1.1v-7.8" fill="#E9D5C3"/><path d="M12.454 82.108s-1.17-.598-1.513-.71c-.34-.113-1.122-.113-1.122-.113s-.94.47-1.21.876c-.27.407.194 3.182.194 3.182s.08-.827.946.677c.278.483-.074-1.968.19-1.948.265.02.744-.97.744-.97s.064.374.49.356c.28-.012.66.233 1.282.704v-2.054" fill="#56423A"/><path d="M12.454 88.807c-.146.095-.295.176-.425.21-.426.118-1.77-.586-2.086-1.022-.09-.124-.218-.393-.36-.735l-.18.17.15.29s.676 1.808 1.09 2.05c.41.24 1.512-.173 1.76-.356l.05-.046v-.56" fill="#BBAC9E"/><path d="M12.454 90.017c-.418.203-.935.448-1.872.087-.937-.36-.98-.607-1.15-1.553-.094-.524-.03-1.12-.03-1.12s-1.474-.527-2.056-.61c-.582-.083-1.69.822-1.858 1.014-.167.193-3.93 2.83-3.902 3.114l2.96 1.608 1.248-.953-.087 1.587 6.747 3.703v-6.876" fill="#5B5E67"/><path d="M12.454 118.68l-11.68-6.49L.74 128.7l11.714 6.472v-16.49" fill="#99D6F1"/><path d="M11.35 122.544l-2.66-1.82-.95.3-.344.633-.126.82.17 1.465.218.755.435 1.096-.187.044-.128 2.313.624 1.94 1.01 1.175 1.27-1.79.13-2.64s.265-.282.454-.84c.188-.56.287-2.49.287-2.49l-.203-.96" fill="#E4C1A4"/><path d="M11.35 121.353c-.657-.826-1.384-.91-1.688-1.01-.304-.1-1.32 0-1.32 0s-1.207.38-1.338 1.297c-.062.427.437 2.302.437 2.302s.174-2.905.942-1.57c.248.428 0-.702.236-.684.235.02 2.628.402 2.692 2.036.01.248.463-1.185.134 1.192 0 0 .8-2.44-.094-3.563" fill="#3C3C3B"/><path d="M11.077 126.436c-.27.536-.89.58-1.004.61-.377.103-1.337-.365-1.618-.75-.08-.11-.268-.28-.394-.583l-.085.08.134.258s.964 1.818 1.33 2.032c.367.213.976-.366 1.195-.528l.062-.275.38-.844" fill="#BDA28A"/><path d="M9.42 130.86c-.372.182.03-2.607-.802-2.927-.83-.32-.467-.306-.617-1.145-.083-.466-.025-.994-.025-.994s-1.31-.467-1.825-.54c-.516-.075-1.498.728-1.647.898-.15.17-3.486 2.51-3.462 2.762l2.628 1.425 1.107-.845-.078 1.407 7.757 4.268v-7.417l-1.58-.965-1.454 4.074" fill="#D470A8"/><path d="M12.454 118.68l11.795 6.833.033 16.49-11.823-6.817-.006-16.505" fill="#ECF0F3"/><path d="M20.84 126.937l-4.938-2.804v3.753l4.94 2.85v-3.8" fill="#5084C4"/><path d="M15 135.694l-2.54-1.452v.962l2.54 1.498v-1.008" fill="#E95465"/><path d="M20.84 138.997l-4.938-2.805v1.017l4.94 2.85v-1.063" fill="#A28FC3"/><path d="M12.46 127.848l2.433 1.367v.268l-2.433-1.367v-.268M12.46 128.47l1.782 1.022v.27l-1.782-1.024v-.267M12.46 129.193l2.433 1.365v.268l-2.433-1.364v-.27M12.46 129.816l1.49.873v.268l-1.49-.874v-.268M12.46 130.437l2.573 1.467v.27l-2.573-1.468v-.27M15.867 128.57l2.884 1.584v.392l-2.883-1.585v-.39M15.867 129.837l4.868 2.712v.267l-4.868-2.712v-.268M15.867 130.46l4.217 2.366v.27l-4.217-2.37v-.267M15.867 131.182l4.868 2.71v.27l-4.868-2.71v-.27M15.867 131.804l3.926 2.22v.268l-3.926-2.22v-.268M15.867 132.426l5.008 2.812v.27l-5.008-2.813v-.27M15.867 133.048l4.384 2.443v.27l-4.383-2.443v-.27M15.867 133.77l4.908 2.758v.268l-4.908-2.756v-.27" fill="#868C96"/><path d="M16.472 125.996l-.57.504v1.386l.72.394.07-.677 4.15 2.45v-1.203l-1.787-.94-.304-1.03-.92.555-.35-1.094-.693.54-.315-.884" fill="#A8C2E2"/><path d="M12.46 122.192v3.777l2.54 1.465v-3.8l-2.54-1.443" fill="#42B498"/><path d="M15 123.964s-.867.93-1.874.93c-.218 0-.443-.043-.667-.148v.71c1.083.642 2.54 1.112 2.54 1.112v-2.604" fill="#A1DACC"/><path d="M12.46 126.606v.392l1.156.65v-.39l-1.156-.652" fill="#868C96"/><path d="M24.296 106.32l-11.81-6.687v16.49l11.81 6.685v-16.49" fill="#ECF0F3"/><path d="M12.486 108.858l2.092 1.213v.393l-2.092-1.213v-.392M12.486 110.124l2.975 1.706v.268l-2.974-1.706v-.268M12.486 110.745l2.975 1.747v.268l-2.974-1.747v-.268M12.486 111.467l2.975 1.73v.267l-2.974-1.73v-.267M12.486 112.088l2.975 1.766v.268l-2.974-1.766v-.268M12.486 112.708l2.975 1.73v.267l-2.974-1.73v-.267M12.486 113.33l1.13.635v.268l-1.13-.636v-.268" fill="#5B5E67"/><path d="M12.465 103.41v4.78l2.976 1.736v-4.79l-2.975-1.727M16.744 115.455v3.078l6.344 3.59v-3.053l-6.344-3.615M12.486 99.59v1.194l11.81 6.684v-1.17l-11.81-6.71" fill="#42B498"/><path d="M12.447 105.11l.018 3.08 2.976 1.736-.027-3.104-2.966-1.712" fill="#A0C86A"/><path d="M21.358 109.503l2.092 1.213v.39l-2.092-1.212v-.39M21.358 110.233l2.092 1.212v.392l-2.092-1.213v-.39M21.358 110.975l2.092 1.212v.392l-2.092-1.214v-.39" fill="#5B5E67"/><path d="M17.024 107.957c-.02-.468.058-.885.23-1.2l1.685 2.078-1.916-.878" fill="#DA4453"/><path d="M19.25 111.468c-.674-.223-1.385-.94-1.83-1.93-.082-.18-.15-.358-.206-.537l1.725-.165.31 2.633" fill="#5084C4"/><path d="M19.25 111.468c.3.1.59.1.85-.014.835-.376.99-1.842.346-3.275-.353-.785-.87-1.397-1.406-1.728l-.1 2.383.31 2.633" fill="#6EB647"/><path d="M17.253 106.758c.123-.225.294-.397.512-.494.378-.17.832-.087 1.275.188l-.1 2.383-1.687-2.077" fill="#A28FC3"/><path d="M17.214 109l1.725-.165-1.916-.878c.014.33.077.684.19 1.044" fill="#F7BB40"/><path d="M17.28 114.438c.1.22.076.448-.054.507-.13.058-.316-.075-.415-.297-.1-.222-.075-.45.055-.507.13-.057.315.075.414.298M18.216 114.97c.1.22.076.448-.054.506-.13.058-.315-.075-.415-.297-.1-.223-.076-.45.053-.507.13-.06.316.074.416.296M19.152 115.5c.1.222.076.45-.053.508-.13.058-.317-.076-.417-.297-.1-.22-.076-.448.054-.506.13-.058.315.074.415.296" fill="#B8BEC6"/><path d="M24.23 87.176l-11.81-6.818v16.49l11.81 7.07V87.176" fill="#FFF"/><path d="M12.454 80.358v14.45l8.993 5.25V85.573l-8.993-5.216" fill="#3AAED9"/><path d="M14.642 82.964v7.146l-2.176 1.337v-7.163l2.176-1.32" fill="#8A2C33"/><path d="M17.572 84.65v7.144l-4.447 2.596v-7.162l4.447-2.58" fill="#B83B46"/><path d="M20.01 86.1v7.145l-4.446 2.596V88.68l4.447-2.58" fill="#E95465"/><path d="M17.788 89.185v.438l3.053 1.765v-.446l-3.052-1.757M17.788 90.04v.437l3.053 1.766v-.446L17.79 90.04M17.788 90.894v.438l3.053 1.766v-.446l-3.052-1.758" fill="#FFF"/><path d="M22.933 99.688c.16.357.122.722-.086.815-.207.094-.506-.12-.667-.477-.16-.357-.123-.72.086-.815.208-.09.507.122.667.478" fill="#3AAED9"/><path d="M98.016 199.875c-.547-2.063-.818-4.196-.818-6.332 0-3.62.778-7.24 2.303-10.52.422-.91.91-1.774 1.63-2.324.555-.426 1.26-.675 1.994-.83.585-.12 1.174-.18 1.762-.18 4.27-.01 8.488 3.13 9.978 7.24.775 2.125 1.246 4.32 1.246 6.43-.002 2.63-.722 5.118-2.488 7.24-.566.68-1.487 1.662-2.475 2.458-.493.4-1.003.752-1.485.998-.482.248-.934.384-1.297.383l-.046-.002-.01.393.012-.392c-.63-.017-1.58-.08-2.498-.214-.915-.132-1.81-.353-2.275-.627-.547-.31-1.41-1.125-2.34-2.203-1.402-1.62-2.996-3.84-4.23-5.944-.615-1.052-1.143-2.075-1.51-2.974-.372-.898-.577-1.678-.574-2.192 0-.163.02-.296.05-.397.066-.206-.05-.427-.257-.49-.208-.067-.43.05-.494.256-.06.198-.087.408-.087.63.005.933.425 2.122 1.07 3.47.967 2.013 2.46 4.344 3.957 6.322.748.99 1.495 1.887 2.182 2.613.686.727 1.302 1.28 1.835 1.59.65.37 1.59.578 2.554.723.96.142 1.932.205 2.59.224h.065c.55 0 1.106-.188 1.656-.468 1.644-.848 3.31-2.583 4.207-3.653 1.898-2.277 2.67-4.972 2.67-7.742 0-2.226-.494-4.507-1.294-6.7-1.617-4.418-6.064-7.747-10.717-7.756-.64 0-1.284.064-1.924.198-.8.17-1.618.446-2.31.974-.897.69-1.427 1.68-1.865 2.616-1.574 3.388-2.375 7.12-2.376 10.85 0 2.203.28 4.405.845 6.535.056.21.272.334.482.28.21-.057.335-.272.28-.482M70.425 183.337l24.19 13.58v11.273l-24.19-13.58v-11.273" fill="#E84E1B"/><path d="M71.842 186.53l20.064 11.19v1.54l-20.064-11.19v-1.54M71.842 189.473l20.064 11.19v1.54l-20.064-11.19v-1.54M71.842 192.352l12.883 7.19v1.538l-12.883-7.19v-1.538" fill="#ECF0F3"/><path d="M57.387 143.154l.39-9.556c.01-.217-.16-.4-.377-.408-.217-.01-.4.16-.41.377l-.39 9.556c-.008.216.16.4.378.408.217.01.4-.16.41-.376" fill="#5B61CE"/><path d="M53.725 138.44l4.464-5.516-.306-.247-.37.137c.733 1.957 1.464 3.914 2.195 5.872.076.203.302.306.505.23.204-.076.307-.302.232-.505l-2.195-5.87c-.05-.133-.165-.228-.305-.25-.14-.024-.28.03-.37.14l-4.464 5.515c-.137.17-.11.416.06.553.168.136.415.11.552-.06M45.005 139.017c3.93 2.554 7.543 5.68 11.715 8.01 2.086 1.167 4.292 2.117 6.572 2.834.207.066.428-.05.493-.256.066-.207-.05-.428-.257-.493-2.228-.7-4.385-1.628-6.424-2.768-4.08-2.276-7.68-5.388-11.67-7.983-.183-.12-.426-.068-.545.114-.12.182-.068.425.115.544" fill="#5B61CE"/><path d="M123.71 209.914l6.868 3.812v3.398l-6.867-3.813v-3.396" fill="#E84E1B"/><path d="M123.65 210.237l.015.1.863 2.735-.665.045-.818-2.726c-.015-.082-.075-.173-.136-.207l-.106-.005-.967.793v-6.138l3.43 6.13-1.465-.843c-.09-.034-.15.024-.15.117" fill="#1D1D1B"/><path d="M123.65 210.237l-.097.014.016.103.002.015.824 2.614-.46.03-.796-2.65-.095.03.097-.02c-.023-.113-.088-.215-.183-.274l-.046-.014-.105-.004-.068.022-.807.66v-5.554l3.074 5.492-1.16-.666-.014-.007-.084-.016-.152.074-.048.153v.014l.1-.013h.097l.005-.032-.005-.004.003.007.002-.002-.005-.004.003.007v-.002.003-.003.003l.014.003.035-.09-.05.084 1.468.843.118-.015.016-.118-3.43-6.13-.112-.047-.074.095v6.14l.057.087.104-.014.937-.768.068.003.004-.097-.05.085.09.14.002.01.817 2.727.1.07.665-.045.075-.043.012-.085-.86-2.727-.014-.092-.097.014h.1-.1" fill="#E84E1B"/><path d="M125.1 211.844l4.52 2.537v1.263l-4.52-2.537v-1.262" fill="#ECF0F3"/><path d="M119.34 224.553l6.868 3.813v3.398l-6.867-3.813v-3.397" fill="#93C01F"/><path d="M119.28 224.876l.015.1.863 2.735-.665.047-.818-2.727c-.015-.082-.075-.173-.136-.208l-.106-.005-.967.793v-6.14l3.43 6.13-1.466-.842c-.09-.033-.15.025-.15.118" fill="#1D1D1B"/><path d="M119.28 224.876l-.097.014.015.102.004.015.824 2.614-.462.033-.794-2.65-.095.027.097-.017c-.024-.115-.088-.217-.183-.276l-.046-.013-.106-.005-.067.02-.805.662v-5.554l3.073 5.49-1.158-.665-.014-.007-.084-.015-.152.074-.048.152v.014l.098-.014h.098l.007-.03-.005-.005.003.006h.002l-.005-.005.003.006.014.004.034-.092-.048.086 1.467.842.117-.015.017-.117-3.432-6.13-.11-.047-.074.095v6.14l.056.09.105-.015.937-.768.067.003.005-.098-.05.085.088.14.003.01.818 2.728.1.07.666-.046.075-.043.01-.085-.86-2.727-.013-.093-.097.014h.098-.098" fill="#93C01F"/><path d="M120.73 226.484l4.52 2.537v1.263l-4.52-2.537v-1.262" fill="#ECF0F3"/><text font-family="Titillium Web" font-size="13.077" font-weight="260" letter-spacing="-.001" fill="#000"><tspan x="12.234" y="15.044">Participants / </tspan></text><text font-family="Titillium Web" font-size="13.077" font-weight="260" fill="#000"><tspan x="12.234" y="31.072">Sc</tspan> <tspan x="24.971" y="31.072" letter-spacing="-.204">r</tspan> <tspan x="29.03" y="31.072">een Sha</tspan> <tspan x="72.629" y="31.072" letter-spacing="-.204">r</tspan> <tspan x="76.688" y="31.072">e</tspan></text><text font-family="Titillium Web" font-size="13.077" font-weight="260" fill="#000"><tspan x="230.901" y="313.445">Chat /</tspan></text><text font-family="Titillium Web" font-size="13.077" font-weight="260" letter-spacing="-.001" fill="#000"><tspan x="179.951" y="329.473">Activity </tspan> <tspan x="223.205" y="329.473" letter-spacing="-.162">S</tspan> <tspan x="229.987" y="329.473" letter-spacing=".008">t</tspan> <tspan x="234.532" y="329.473" letter-spacing="-.196">r</tspan> <tspan x="238.599" y="329.473">eam</tspan></text><text font-family="Titillium Web" font-size="13.077" font-weight="260" fill="#000"><tspan x="317.618" y="300.808">Mar</tspan> <tspan x="339.495" y="300.808" letter-spacing="-.682">k</tspan> <tspan x="344.437" y="300.808">-up</tspan></text><text font-family="Titillium Web" font-size="13.077" font-weight="260" letter-spacing="-.17" fill="#000"><tspan x="464.81" y="78.736">C</tspan> <tspan x="471.61" y="78.736">ollaboration</tspan></text><text font-family="Titillium Web" font-size="13.077" font-weight="260" fill="#000"><tspan x="164.218" y="39.228">Video</tspan></text><path d="M158.652 34.693h.393v89.43h-.393v-89.43z" fill="#000"/><text font-family="Titillium Web" font-size="13.077" font-weight="260" fill="#000"><tspan x="292.147" y="15.655">Sc</tspan> <tspan x="304.884" y="15.655" letter-spacing="-.204">r</tspan> <tspan x="308.943" y="15.655">een Sha</tspan> <tspan x="352.542" y="15.655" letter-spacing="-.204">r</tspan> <tspan x="356.601" y="15.655">e</tspan></text><path d="M283.98 11.12h.393v94.144h-.393V11.12zM5.165 11.12h.393v73.718h-.393v-73.72zM271.688 252.07h.394v82.666h-.394V252.07zM370.182 234.733h.393v71.392h-.393v-71.392zM503.692 215.643h.393v90.482h-.393v-90.482z" fill="#000"/><text font-family="Titillium Web" font-size="13.077" font-weight="260" letter-spacing="-.002" fill="#000"><tspan x="464.224" y="300.075">Notes</tspan></text><text font-family="Titillium Web" font-size="13.077" font-weight="260" letter-spacing="-.001" fill="#000"><tspan x="19.038" y="300.075">Multiple Pointers</tspan></text><path d="M118.637 228.673h.394v76.718h-.393v-76.717zM457.41 74.48h.394v74.57h-.394V74.48z" fill="#000"/></g></svg>