<svg width="502" height="451" viewBox="0 0 502 451" xmlns="http://www.w3.org/2000/svg" xmlns:xlink="http://www.w3.org/1999/xlink"><title>illu_meeting_a</title><defs><path id="a" d="M.396 5.46L9.462.23v12.807L.388 18.27.396 5.46"/><path id="c" d="M9.462.326L.41 5.558l-.026 12.9 9.068-5.213.01-12.92"/><path id="e" d="M.38 5.414L9.458.177l.004 12.81-9.085 5.226.003-12.8"/><path id="g" d="M18.395.4L.243 10.93 63.44 47.435l18.15-10.53L54.99 21.538l-9.148 5.27-11.105-6.41 9.174-5.26L18.394.4z"/></defs><g fill="none" fill-rule="evenodd"><path d="M501.66 268.16L315.655 160.915.113 342.694 186.117 449.94 501.66 268.16" fill="#5F5B6D"/><path d="M388.2 229.06l-93.09 53.958-38.95-22.48 46.42 26.825.034 3.445-49.418-28.557-12.37 7.15 31.75 18.453-.145.084 8.135 4.583-24.945 14.368 49.36 28.322 133.605-77.24-50.386-28.91M111.508 345l36.655 21.18-6.12-3.554L111.508 345m129.682-29.8l-90.772 52.284 7.568 4.373.033 3.444-50.226-29.022-40.178 23.228 89.33 51.254 133.602-77.24-49.358-28.32" fill="#585465"/><path d="M315.68 160.97L315.752.684.372 182.6.297 342.884 315.68 160.97" fill="#B8BEC6"/><path d="M232.524 107.92l-130.228 75.177.04 73.037 130.16-74.664.028-73.55" fill="#ECF0F3"/><path d="M102.323 232.184l.004 24.193 18.206-10.508v-.174l-18.197 10.438-.013-23.95" fill="#919599"/><path d="M120.533 172.904l-15.325 8.845-2.893 1.67v.57l9.083-5.237v12.97l-9.042 5.203-.04-11.957v.577l.02 70.587 18.197-10.438v-72.792" fill="#ABAEB0"/><path d="M102.287 175.646l130.38-75.116V89.984l-130.38 75.072v10.59" fill="#CCCCCD"/><path d="M112.365 164.476c.21-.857.59-2.396.698-2.777.153-.535.383-.993 1.147-1.375s20.253-11.454 20.686-11.71c.434-.26.484-.355.714 0 .23.352.88 1.963.88 1.963L232.64 95.34v5.55l-130.355 75.073v-5.55l10.078-5.937" fill="#E8E6E6"/><path d="M99.36 263.64l2.97 1.752-.018-100.23-2.97-1.7.017 100.177" fill="#CCD3DB"/><path d="M102.312 165.16l130.33-75.176-2.97-1.698-130.33 75.177 2.97 1.698" fill="#E9E9EB"/><path d="M102.312 183.994l9.086-5.24v12.968l-9.042 5.204-.044-12.932" fill="#FBC67F"/><path d="M135.704 177.222l21.997-12.5v16.73l-21.996 12.708v-16.938" fill="#5084C4"/><path d="M191.436 199.233l21.996-12.5v6.73l-21.996 12.708v-6.937" fill="#F7BB40"/><path d="M163.755 215.108l21.997-12.5v6.73l-21.997 12.71v-6.94" fill="#42B498"/><path d="M135.723 231.226l21.997-12.5v6.73l-21.997 12.71v-6.94" fill="#A28FC3"/><path d="M111.397 207.216l9.137-5.26v12.797l-9.137 5.27v-12.807" fill="#2C2E33"/><path d="M102.33 240.807l18.196-10.498v13.663l-18.197 10.562v-13.728" fill="#5B5E67"/><path d="M109.8 241.693l-.138-.063c-.296.66-.44 1.324-.44 1.914 0 .414.07.792.216 1.106.146.312.37.562.67.697.164.073.34.108.517.107.472 0 .96-.236 1.408-.628.448-.392.855-.947 1.155-1.612.296-.66.44-1.324.44-1.914 0-.414-.07-.792-.217-1.105-.144-.313-.37-.563-.67-.698-.164-.073-.338-.107-.516-.107-.472 0-.96.236-1.41.628-.446.393-.853.947-1.152 1.612l.14.063.138.062c.282-.628.668-1.15 1.077-1.508.41-.36.84-.554 1.207-.552.14 0 .268.026.39.08.223.1.397.287.52.55.122.26.19.596.19.975 0 .54-.135 1.167-.415 1.79-.283.627-.67 1.148-1.078 1.507-.41.36-.84.553-1.207.552-.14 0-.27-.027-.39-.082-.224-.1-.397-.286-.52-.547-.122-.26-.19-.597-.19-.976 0-.54.135-1.167.415-1.79l-.14-.06" fill="#B1B1B1"/><path d="M112.536 241.646l-2.225 1.29c-.072.044-.097.137-.055.21.043.073.136.098.21.055l2.224-1.29c.072-.042.097-.135.054-.208-.042-.073-.135-.098-.208-.056" fill="#B1B1B1"/><path fill="#B1B1B1" d="M111.347 240.99v2.825c0 .084.068.153.153.153.084 0 .153-.07.153-.153v-2.825c0-.085-.07-.153-.153-.153-.085 0-.153.068-.153.153"/><path d="M232.642 100.89l-130.346 75.076v7.465l130.372-75.327-.026-7.212" fill="#2B2E32"/><path d="M232.523 108.187l-7.81 4.513 7.81-4.513" fill="#686B6D"/><path d="M232.642 100.89l-7.93 4.568v7.242l7.81-4.513.146-.084-.026-7.212" fill="#1B1D1F"/><path d="M120.54 172.89l-12.056 6.966 12.05-6.955v.004l.007-.004v-.01" fill="#686B6D"/><path d="M120.533 172.9l-12.05 6.956-3.275 1.893 15.325-8.846v-.003" fill="#4E5052"/><path d="M120.54 165.468l-18.244 10.498v7.463l2.912-1.68 15.333-8.86v-7.422" fill="#1B1D1F"/><path d="M232.642 181.51l-130.306 74.934v8.95l130.332-75.174-.026-8.71" fill="#2B2E32"/><path d="M102.315 198.337l9.08-5.236.002 12.81-9.085 5.226.003-12.8" fill="#B9D0DE"/><path d="M111.397 221.374l-9.053 5.233-.025 12.9 9.068-5.213.01-12.92" fill="#D3E7C9"/><path d="M148.497 190.67l-12.844 7.066v1.748l12.844-7.065v-1.75M156.667 191.22l-21.014 12.096v1.196l21.014-12.095v-1.197M155.386 194.678l-19.733 11.386v1.196l19.733-11.387v-1.195M156.853 196.614l-21.2 12.198v1.196l21.2-12.2v-1.194M153.864 201.113l-18.21 10.447v1.196l18.21-10.448v-1.195M157.33 201.82l-21.677 12.488v1.196l21.678-12.487v-1.196M155.386 205.67l-19.733 11.386v1.196l19.733-11.386v-1.196M157.33 207.317l-21.677 12.487V221l21.678-12.487v-1.196M151.26 213.6l-15.607 8.952v1.196l15.606-8.95V213.6M177.2 174.018l-12.843 7.065v1.748l12.843-7.064v-1.748M185.37 174.567l-21.013 12.095v1.196l21.014-12.094v-1.197M184.09 178.024l-19.733 11.387v1.196l19.733-11.386v-1.196M185.557 179.96l-21.2 12.2v1.194l21.2-12.198v-1.196M182.568 184.46l-18.21 10.447v1.196l18.21-10.448v-1.196M186.035 185.168l-21.678 12.487v1.196l21.678-12.487v-1.195M179.483 191.615l-15.126 8.788v1.196l15.126-8.788v-1.197M204.44 158.264l-12.845 7.065v1.747l12.844-7.065v-1.748M212.61 158.814l-21.015 12.095v1.195l21.014-12.096v-1.196M211.328 162.27l-19.733 11.387v1.196l19.733-11.386v-1.197M212.795 164.206l-21.2 12.2v1.195l21.2-12.198v-1.196M209.806 168.705l-18.21 10.448v1.196l18.21-10.448v-1.197M213.273 169.414L191.595 181.9v1.197l21.678-12.487v-1.196M211.328 173.263l-19.733 11.386v1.195l19.733-11.386v-1.197M204.26 180.036l-12.665 7.362v1.195l12.664-7.36v-1.197" fill="#868C96"/><path d="M191.436 145.49l21.996-12.5v16.73l-21.996 12.71v-16.94" fill="#EC6D54"/><path d="M213.432 137.122l-12.8 6.973v5.774l-2.403 4.197-4.17-5.685-2.624 1.437v9.314l14.605-8.18-1.196-5.397 8.588-1.448v-6.988" fill="#F7B6AA"/><path d="M209.538 151.74l.053-3.932-1.774.778.014 4.14 1.708-.987" fill="#DA4453"/><path d="M163.755 160.94l21.997-12.5v16.73l-21.997 12.708V160.94" fill="#42B498"/><path fill="#F7F9F9" d="M185.752 156.962v2.506l.152-2.103s-.05-.16-.152-.403"/><path d="M163.755 162.41v11.607s11.235-3.624 15.125-7.842c-.477-.188-.965-.385-1.46-.588-.36-.146-.72-.296-1.084-.448-1.408 1.03-2.85 1.424-4.234 1.424-4.49 0-8.347-4.153-8.347-4.153m15.046-.368c-.394.897-.904 1.732-1.636 2.412l-.18.163c.763.317 1.513.62 2.235.906-.228-1.22-.4-2.464-.42-3.466v-.015m6.77-5.484l-.313 2.645c.168.056.333.145.495.265v-2.506c-.05-.118-.11-.255-.18-.404m-2.327-2.097c-.468 0-.993.215-1.573.763.678-.258 1.717-.367 2.58-.412-.297-.213-.633-.35-1.007-.35" fill="#A1DACC"/><path fill="#F7F9F9" d="M157.7 175.234v6.18-6.18"/><path d="M155.16 172.987l-1.403 3.94-3.087-2.402-1.557 4.877-4.103-2.475-1.354 4.593-7.952 4.27v5.275l18.473-10.915.314 3.016 3.21-1.753v-6.18l-2.54-2.246" fill="#A8C2E2"/><path d="M152.242 162.848l-16.584 9.47v2.97l16.584-9.47v-2.97" fill="#868C96"/><path d="M120.556 227.37l-9.155 5.192V221.37l9.156-5.265v11.266" fill="#8978B5"/><path d="M120.556 229.004l-9.168 5.29.013-1.732 9.156-5.265v1.707" fill="#A28FC3"/><path d="M118.703 219.492l-2.23 1.23v.306l2.23-1.23v-.306M120.237 219.616l-3.763 2.13v.207l3.763-2.13v-.207M119.733 220.385l-3.26 1.858v.208l3.26-1.857v-.208M120.237 220.667l-3.763 2.128v.208l3.763-2.127v-.21M119.508 221.566l-3.034 1.742v.208l3.034-1.742v-.208M120.345 221.566l-3.87 2.207v.208l3.87-2.206v-.208M119.863 222.32l-3.39 1.917v.208l3.39-1.918v-.208M120.268 222.653l-3.794 2.164v.207l3.794-2.163v-.207M119.733 223.443l-3.26 1.857v.21l3.26-1.86v-.207" fill="#ECF0F3"/><path d="M115.886 220.93v7.225l-4.485 2.656v-7.24l4.486-2.64" fill="#FFF"/><path d="M112.41 224.333l1.234.462 2.242-1.072v1.62c-.41.49-.737.99-.973 1.397-.558.964-3.512 2.457-3.512 2.457v-3.18l1.01-1.684" fill="#6597D0"/><path d="M115.886 224.503v3.652l-4.485 2.656v-4.057l4.486-2.25" fill="#ACDEF9"/><path d="M102.33 212.445l9.067-5.23v12.808l-9.074 5.235.008-12.813" fill="#99D6F1"/><g transform="translate(101.935 206.986)"><mask id="b" fill="#fff"><use xlink:href="#a"/></mask><path d="M5.745 4.283l2.36-1.615.84.265.307.563.11.73-.15 1.298-.193.67-.386.972.165.04.113 2.052-.553 1.72-.896 1.044-1.126-1.588-.116-2.342s-.236-.25-.403-.747c-.168-.496-.256-2.21-.256-2.21l.18-.852" fill="#E4C1A4" mask="url(#b)"/><path d="M5.745 3.225c.583-.732 1.227-.806 1.497-.894.27-.088 1.17 0 1.17 0s1.07.338 1.187 1.15c.054.38-.39 2.044-.39 2.044s-.043-1.574-.185-1.52c-.287.107-.798.024-1.538.73-.318.303.45-.918.24-.9-.064.004-.365.222-.776.623-.123.12.134-.624-.474-.38-.426.17-.673.672-.696 1.254-.01.22-.41-1.05-.12 1.058 0 0-.707-2.166.085-3.163" fill="#3C3C3B" mask="url(#b)"/><path d="M5.986 7.736c.24.477.79.514.89.542.335.092 1.188-.323 1.437-.666.07-.098.238-.248.35-.517l.075.072-.12.228s-.855 1.613-1.18 1.802c-.324.19-.865-.324-1.06-.468l-.055-.245-.337-.75" fill="#BDA28A" mask="url(#b)"/><path d="M7.457 11.664c.33.16-.03-1.518.5-2.174.498-.614.625-.697.758-1.44.074-.414.023-.883.023-.883s1.16-.415 1.618-.48c.458-.066 1.33.647 1.462.798.13.15 3.09 2.227 3.07 2.45l-2.33 1.266-.98-.748.064 1.314L2.74 16.85l.508-5.454s.723-1.723 1.177-2.158c.502-.48 1.743-1.19 1.743-1.19l1.29 3.616" fill="#6597D0" mask="url(#b)"/></g><path d="M111.397 193.104l9.118-5.272v12.808l-9.118 5.27v-12.806" fill="#ECF0F3"/><path d="M113.01 198.813l-1.616.957v.303l1.615-.955v-.305M113.722 199.414l-2.298 1.345v.207l2.298-1.345v-.208M113.722 199.897l-2.298 1.377v.208l2.298-1.378v-.207M113.722 200.457l-2.298 1.364v.208l2.298-1.363v-.208M113.722 200.94l-2.298 1.39v.21l2.298-1.393v-.208M113.722 201.42l-2.298 1.364v.208l2.298-1.363v-.21M112.268 202.76l-.874.503v.208l.874-.5v-.21" fill="#5B5E67"/><path d="M113.737 194.198v3.714l-2.297 1.368v-3.722l2.297-1.36M119.918 198.632v2.39l-4.898 2.832v-2.372l4.898-2.85M120.515 187.832v.894l-9.118 5.272-.003-.897 9.12-5.268" fill="#42B498"/><path d="M113.752 195.52l-.015 2.392-2.297 1.368.02-2.412 2.292-1.348" fill="#A0C86A"/><path d="M120.006 192.416l-1.615.956v.303l1.616-.955v-.304M120.006 192.982l-1.615.956v.305l1.616-.957v-.304M120.006 193.56l-1.615.955v.304l1.616-.957v-.304" fill="#5B5E67"/><path d="M117.746 194.235c.015-.364-.045-.687-.177-.93l-1.303 1.624 1.48-.695" fill="#DA4453"/><path d="M116.028 196.977c.52-.178 1.07-.74 1.413-1.51.063-.14.115-.28.16-.42l-1.333-.118-.24 2.047" fill="#5084C4"/><path d="M116.028 196.977c-.232.08-.458.082-.657-.006-.644-.285-.764-1.422-.266-2.54.272-.61.672-1.09 1.085-1.35l.077 1.85-.24 2.047" fill="#6EB647"/><path d="M117.57 193.305c-.096-.174-.23-.306-.396-.38-.293-.13-.643-.063-.985.154l.077 1.85 1.302-1.625" fill="#A28FC3"/><path d="M117.6 195.048l-1.333-.12 1.48-.693c-.012.256-.06.53-.148.813" fill="#F7BB40"/><path fill="#B8BEC6" d="M116.814 199.363c-.077.173-.06.35.042.394.1.044.243-.06.32-.233.077-.173.06-.35-.04-.394-.1-.044-.245.06-.322.233M116.09 199.782c-.076.173-.057.35.043.394.1.044.243-.06.32-.233.078-.173.06-.35-.04-.394-.1-.045-.245.06-.322.232M115.37 200.2c-.078.174-.06.35.04.395.1.044.243-.06.32-.234.078-.172.06-.348-.04-.392-.1-.044-.245.06-.32.233"/><path d="M111.397 178.753l9.138-5.27v12.927l-9.137 5.312v-12.97" fill="#FFF"/><path d="M118.39 174.705v11.328l-6.993 3.994v-11.274l6.994-4.048" fill="#3AAED9"/><path d="M111.39 182.493l.006 5.45 1.458-2.357v-5.602l-1.464 2.51" fill="#8A2C33"/><path d="M118.997 185.012c-.123.276-.094.56.067.635.16.075.39-.087.514-.362s.094-.56-.066-.635c-.16-.075-.39.087-.515.362" fill="#3AAED9"/><path d="M112.464 182.623v5.57l1.956-3.325v-5.602l-1.956 3.357" fill="#B83B46"/><path d="M114.02 181.813v5.568l1.957-3.324v-5.6l-1.957 3.357" fill="#E95465"/><path d="M117.533 180.186v.343l-2.366 1.352v-.347l2.366-1.35M117.533 180.854v.342l-2.366 1.352v-.347l2.366-1.346M117.533 181.52v.343l-2.366 1.35v-.347l2.366-1.345" fill="#FFF"/><path d="M185.4 167.474c-.425-.035-1.062-.176-1.83-.403-2.702-.792-7.058-2.61-11.037-4.36-3.983-1.75-7.59-3.43-8.86-3.963-.187-.08-.4.01-.48.195-.078.186.01.4.196.478.705.297 2.195.977 4.082 1.83 2.832 1.28 6.563 2.952 9.947 4.337 1.69.692 3.295 1.312 4.66 1.776 1.37.464 2.487.773 3.26.84.202.015.378-.134.395-.335.017-.2-.133-.377-.334-.394" fill="#5B61CE"/><path d="M180.405 150.07c-4.593 7.114-6.756 13.157-11.3 20.19-.603.932-1.323 2.125-1.965 3.352-.642 1.227-1.207 2.484-1.5 3.567-.053.193.062.394.257.447.195.052.396-.063.448-.258.267-.993.814-2.22 1.443-3.42.63-1.2 1.338-2.378 1.93-3.294 4.593-7.115 6.757-13.158 11.302-20.19.11-.17.06-.397-.11-.506-.17-.11-.395-.06-.505.11" fill="#5B61CE"/><path d="M157.083 212.267c-.72-1.224-1.72-2.248-2.92-2.99-.085-.053-.19-.068-.287-.042-.098.026-.18.092-.228.18-.686 1.288-1.295 2.605-1.82 3.938l.34.134.328-.16c-.445-.906-1.103-1.676-1.917-2.243-.095-.065-.214-.083-.322-.048-.108.034-.195.118-.233.224l-1.872 5.217.344.123.315-.186c-.464-.787-.757-1.193-1.1-1.552-.34-.358-.698-.646-1.328-1.26-.093-.09-.23-.125-.355-.09-.127.037-.225.138-.256.265-.17.695-.21 1.488-.308 2.243-.095.755-.25 1.46-.582 1.96l.306.2.34-.134c-.143-.36-.352-.636-.587-.842-.353-.31-.74-.47-1.078-.652-.34-.18-.63-.364-.872-.69-.085-.114-.228-.17-.368-.14-.14.03-.25.136-.283.276-.162.71-.5 1.545-.848 2.39-.346.848-.7 1.706-.884 2.505l.356.08.286-.226c-.477-.596-1.127-1.093-1.713-1.605-.588-.51-1.1-1.03-1.34-1.596-.062-.15-.217-.24-.378-.22-.16.02-.29.14-.318.302-.17 1.01-.41 1.79-.69 2.588-.277.797-.595 1.612-.907 2.66l.35.104.048-.362-.027.204.12-.17c-.015-.01-.05-.03-.093-.034l-.027.204.12-.17-.063.09.077-.078-.014-.01-.063.088.077-.078c-.02-.017-.085-.152-.133-.323-.08-.26-.15-.61-.21-.926-.03-.158-.057-.307-.085-.437-.03-.132-.053-.235-.097-.343-.078-.185-.293-.272-.48-.194-.184.08-.272.292-.193.48.003.004.02.06.038.133.063.266.14.765.248 1.208.055.225.115.436.198.62.043.092.09.18.163.264.072.08.183.175.35.198.178.024.346-.086.398-.258.302-1.016.612-1.812.897-2.628.284-.814.54-1.646.72-2.707l-.36-.06-.337.14c.324.756.926 1.333 1.53 1.863.608.527 1.23 1.013 1.622 1.51.087.11.23.16.367.128.137-.03.244-.137.276-.274.162-.71.5-1.545.848-2.39.347-.848.7-1.706.885-2.505l-.356-.08-.295.216c.222.302.482.518.74.683.385.247.76.395 1.05.578.29.185.5.376.656.758.05.127.168.215.303.228.136.014.268-.05.343-.163.437-.67.592-1.478.696-2.267.1-.79.145-1.568.292-2.16l-.355-.09-.256.263c.648.63 1.015.93 1.308 1.24.293.308.544.648 1 1.42.072.122.207.19.35.178.14-.014.26-.107.31-.24l1.87-5.217-.343-.123-.21.3c.712.495 1.287 1.167 1.68 1.964.064.13.2.21.344.204.144-.006.272-.097.325-.23.513-1.308 1.11-2.6 1.784-3.863l-.323-.172-.192.31c1.1.68 2.013 1.615 2.675 2.74.103.174.327.232.5.13.175-.103.233-.327.13-.5" fill="#E84E1B"/><path d="M211.002 149.408c-.1-.25-.27-.465-.48-.626-.212-.16-.47-.268-.754-.27-.13 0-.267.026-.396.08-.193.08-.34.21-.457.34-.117.134-.205.274-.28.4-.307.51-.574 1.04-.8 1.588-.092.226-.188.495-.19.797 0 .188.044.397.168.582.123.183.293.3.455.377.163.078.324.123.464.162.393.106.82.227 1.287.228.05 0 .1-.002.15-.005.27-.016.54-.083.79-.21.247-.126.474-.317.625-.578.044-.078.073-.154.1-.24.092-.294.157-.71.206-1.143.05-.433.078-.874.078-1.195 0-.133-.005-.244-.018-.342-.027-.187-.2-.317-.387-.29-.187.026-.317.2-.29.385.005.04.01.133.01.247 0 .323-.034.835-.092 1.294-.028.23-.063.448-.1.62-.02.088-.04.163-.057.22-.018.057-.036.097-.04.102-.074.13-.192.234-.345.312-.153.08-.338.126-.52.137l-.11.004c-.342 0-.713-.095-1.105-.204-.132-.036-.256-.074-.348-.12-.094-.044-.15-.09-.183-.14-.035-.053-.052-.113-.053-.203-.003-.142.057-.345.137-.536.214-.516.466-1.017.754-1.496.07-.115.14-.22.21-.3.07-.08.137-.133.205-.16.043-.02.086-.027.133-.027.1 0 .225.043.34.13.114.086.21.21.26.334.07.177.268.262.443.192.177-.07.262-.27.192-.444" fill="#5B61CE"/><path d="M144.96 221.103l-18.778 10.548v7.318l18.778-10.548v-7.317" fill="#E84E1B"/><path d="M143.36 223.987l-15.577 8.692v1.195l15.576-8.692v-1.196M141.407 227.263l-13.49 7.624v1.196l13.49-7.624v-1.197" fill="#ECF0F3"/><path d="M225.727 144.614l-13.23 7.418v4.82l13.23-7.42v-4.818" fill="#5B61CE"/><path d="M224.627 147.094l-10.928 6.112v1.196l10.927-6.113v-1.196" fill="#ECF0F3"/><path d="M109.297 163.423c-.26.574-.196 1.16.138 1.31.335.15.815-.193 1.073-.766.258-.574.196-1.16-.14-1.31-.333-.15-.813.192-1.07.766" fill="#6EB647"/><path d="M106.88 164.796c-.26.574-.197 1.16.137 1.31.335.15.815-.192 1.073-.766.258-.574.196-1.16-.14-1.31-.333-.15-.813.193-1.07.766" fill="#F8BB31"/><path d="M104.46 166.17c-.257.573-.195 1.16.14 1.31.334.15.814-.193 1.072-.767.258-.573.196-1.16-.14-1.31-.333-.15-.813.193-1.07.766" fill="#EB5C55"/><g transform="translate(101.935 221.05)"><mask id="d" fill="#fff"><use xlink:href="#c"/></mask><path d="M5.94 6.59c-.01-.207-.735-.866-.053-2.326.363-.78 2.19-2.725 2.824-2.104 0 0 .21-.124.33-.15.366-.076.747.4.948 1.134.183.668.363 1.736-.067 2.68-.297.652.78.617.78.617s.093-.27.308.44c.223.733.35 1.282.35 1.282S6.095 9.998 6.125 9.926c.03-.07.706-2.14.706-2.14L5.94 6.59" fill="#463C39" mask="url(#d)"/><path d="M9.887 3.793c-.152-.3-.5.876-.5.876-.125-.324-.114-.233-.12-.782-.004-.227-.4-.64-.4-.64s-.77.523-1.54 1.522c-.66.855-1.32.508-1.402 1.265-.055.52.164.987.164.987s.475 1.1.917 1.697c0 0-1.72 3.742-1.122 5.075.076.17 1.427.717 1.427.717s2.22-2.325 2.44-2.755c1.172-2.275.186-3.96.186-3.96s-.272-2.065-.153-2.454c0 0 .527-.714.102-1.55" fill="#EED2B7" mask="url(#d)"/><path d="M7.007 8.72s.8.23.854.29c.055.057.542-.124.918-.594.367-.46.977-2.63.977-2.63s-.22 2.718-.453 3.12c-.237.41-.892 1.666-1.307 1.55-.413-.112-.988-1.737-.988-1.737" fill="#BBAC9E" mask="url(#d)"/><path d="M7.686 13.15c.362-.134 1.206-.567 1.77-1.403.188-.28.925-1.707.925-1.707l-.278 1.115.57 4.902-5.538 3.187c-.732 1.474-.088-3.458-.088-3.458l.99-3.697s.607 1.443 1.65 1.06" fill="#5B5E67" mask="url(#d)"/><path d="M1.838 21.137s.597-6.117.81-6.922c.256-.962.52-1.728 1.554-2.81.916-.96 2.17-1.985 2.17-1.985l.662-.73s-.807 2.534-.665 4.253c.13 1.597.887 5.048.887 5.048M9.973 16.387s-.568-2.412-.023-5.633c.286-1.695-.177-2.8-.093-2.903V7.25c.293.29 2.806-.535 3.362-.342.503.175 1.09 2.366 1.248 3.163.206 1.04.586 2.997 1.1 3.144" fill="#E95465" mask="url(#d)"/><path d="M4.305 15.185s-.41 3.367-.488 4.058c-.08.71.223 1.2.223 1.2l.534-.555-.27-4.703" fill="#DA4453" mask="url(#d)"/></g><g transform="translate(101.935 192.924)"><mask id="f" fill="#fff"><use xlink:href="#e"/></mask><path d="M7.983 4.315s.552.112.522.577c-.03.465-.078 1.198-.64 1.65l-.2-1.8.318-.427" fill="#2C2E33" mask="url(#f)"/><path d="M4.25 8.666s.08.64.03.97c-.05.327-.253.94-.253.94l-.11.172 2.702 1.848.353-.337.58-1.805-.12-2.152-.173-.04.404-1.02.2-.702.16-1.36-.116-.764-.32-.59-.882-.278-1.85 1.88-.818 1.815.213 1.423" fill="#EED2B7" mask="url(#f)"/><path d="M7.187 2.917s.625-.037.848.298c.223.334-.147 1.425-.147 1.425s-.047-.224-.337-.247c-.458-.036-.297-.427-.515-.41-.22.018-.074-.12-.524.657-.45.778-.248.362-.6.347-.35-.014-.9.465-1.058.833-.16.367-.416 1.423-.416 1.423l-.34-.43V5.82l.836-1.795 1.17-.738 1.085-.37" fill="#925F36" mask="url(#f)"/><path d="M4.532 8.095s-.296.88-.66.815c-.3-.054-.76-1.098-.48-1.64.28-.545.613-.59.848-.452.236.136.29.897.292 1.277" fill="#2C2E33" mask="url(#f)"/><path fill="#2C2E33" mask="url(#f)" d="M4.202 5.703l-.277.196c-.12.27.013.943-.016.968l.266-.053c.03-.025-.095-.84.026-1.112"/><path d="M7.297 8.175c-.107.258-.204.46-.272.555-.238.328-1.25.858-1.57.77-.32-.087-.807-.54-.807-.54s.338.7.524.84c.186.137 1.016.448 1.327.267.31-.18.818-1.546.818-1.546l.115-.217-.136-.128" fill="#BBAC9E" mask="url(#f)"/><path d="M6.545 3.206s-.225.044-.95.445c-.84.463-1.414 2.114-1.414 2.114s-.237.554-.303.38c-.067-.17.293-1.424.822-1.973.528-.548 1.26-1.058 1.845-.964M4.5 8.14s.81.345 1.312.186c0 0 .1.123 0 .152-.098.03-.463.067-.493.043l-.17-.092-.74-.216.09-.07" fill="#2C2E33" mask="url(#f)"/><path d="M.925 17.896c.04-.452.21-3.338.15-3.657-.06-.32.5-1.026.827-1.46.327-.434 2.125-2.205 2.125-2.205s.505.39.92.64c.386.235 1.598.497 1.598.497s.68-1.158.808-1.87c.07-.397.08-1.54.08-1.54s1.112-.396 1.55-.46c.44-.06 1.784.17 1.91.314.126.145 1.05 3.196 1.028 3.41" fill="#F7BB40" mask="url(#f)"/><path fill="#D4A337" mask="url(#f)" d="M3.667 15.875c-.122-.12-.09-2.347-.09-2.347l.43 2.598-.34-.25M9.903 12.728c-.142-.327-.738-2.44-.738-2.44l.353 2.67.385-.23"/></g><path d="M401.173 231.21l-20.96 15.042-.453 2.806 23.13-15.296 4.646 19.89h1.615l-2.667-20.675 22.067 5.247-.91-1.898-22.702-7.14h-14.174l-.03 2.473 10.44-.45" fill="#2C2E33"/><path d="M389.295 252.13l-.647 2.894-1.74 3.692s.246 1.245.564 2.104c.38 1.03 4.428 2.243 4.786 2.234 1.108-.025 3.105-2.29 3.105-2.29l6.472-11.535-.384-2.966-1.013-.652-11.142 6.52" fill="#2C2E33"/><path d="M397.95 235.855l1.146 5.06 1.34 4.697-.57 4.16-2.778 3.94s-1.715 1.083-3.722.253c-2.007-.83-4.74-1.89-4.74-1.89l-1.256-5.5-1.21-3.928 11.79-6.792" fill="#3E6696"/><path d="M383.74 248.846c0 1.383-1.12 2.503-2.504 2.503-1.383 0-2.504-1.12-2.504-2.504 0-1.382 1.12-2.502 2.504-2.502s2.505 1.12 2.505 2.502" fill="#2C2E33"/><path d="M370.592 245.73l-.646 2.893-1.74 3.692s.246 1.244.564 2.104c.38 1.028 4.428 2.24 4.786 2.233 1.108-.026 3.105-2.29 3.105-2.29l6.473-11.535-.384-2.966-1.015-.65-11.143 6.518" fill="#2C2E33"/><path d="M380.707 231.092l1.266 5.586 1.342 4.697-.573 4.162-2.777 3.937s-1.715 1.084-3.722.254c-2.006-.83-4.738-1.89-4.738-1.89l-1.258-5.5-.706-3.86 11.167-7.386" fill="#3E6696"/><path d="M429.426 239.747c0 1.382-1.12 2.502-2.505 2.502-1.382 0-2.503-1.12-2.503-2.503 0-1.382 1.12-2.503 2.504-2.503 1.385 0 2.506 1.12 2.506 2.503M409.995 254.277c0 1.383-1.12 2.503-2.504 2.503-1.383 0-2.504-1.12-2.504-2.503 0-1.38 1.12-2.502 2.505-2.502 1.384 0 2.505 1.12 2.505 2.502M403.58 162.466c.805-1.375 23.086 4.964 25.27 5.876 2.182.912-7.05 37.23-7.05 37.23l-6.756 6.743-13.717-35.525s1.146-12.435 2.252-14.324" fill="#2C2E33"/><path d="M184.46 165.917l-1.612.93c.25.082.492.157.72.224.26.078.504.144.73.2l.162-1.353m1.292-11.132v.25l.03-.25h-.03" fill="#C9CCCF"/><path d="M184.804 159.13c-1.377 0-3 1.964-5.004 5.782-.118.225-.26.45-.426.672 1.276.5 2.46.937 3.474 1.264l1.612-.93.797-6.715c-.148-.05-.3-.073-.453-.073m-3.132-3.907c-.244.092-.44.204-.567.34-1.772 1.896-2.333 4.794-2.304 6.48 1.04-2.366 1.28-5.154 2.67-6.618.067-.072.135-.14.202-.202m3.74-.44c-.28 0-.694.004-1.16.028.6.432 1.043 1.174 1.32 1.748l.18-1.522v-.25c-.053-.002-.172-.004-.34-.004" fill="#389981"/><path d="M184.253 154.81c-.864.046-1.903.155-2.58.413-.068.063-.136.13-.204.202-1.39 1.464-1.63 4.252-2.67 6.617v.015c.02 1.002.192 2.246.42 3.466l.154.06c.165-.222.308-.446.426-.67 2.004-3.82 3.627-5.783 5.004-5.783.154 0 .305.024.453.073l.314-2.645c-.275-.574-.718-1.316-1.317-1.747" fill="#89BAAE"/><path d="M179.416 192.85l-10.704 6.22c.053 3.298.103 8.496.11 13.158l7.08-4.022 3.514-15.356m.705-3.08l-11.462 6.603c.01.37.022.884.034 1.51l10.79-6.268v.943l.64-2.788m.713-3.12l-12.21 7.004c-.007.594-.007 1.118-.002 1.544l11.813-6.806.4-1.743m.73-3.198l-12.864 7.402c-.022.552-.04 1.086-.052 1.59l12.5-7.17.417-1.822m.732-3.198l-13.444 7.756c-.037.54-.07 1.082-.097 1.616l13.122-7.55.417-1.822m.717-3.136l-13.906 8.004c-.058.53-.11 1.078-.158 1.637l13.663-7.884.402-1.758m-1.014-9.782l-2.113 1.22c.182.716.347 1.29.453 1.615.382 1.156-6.052 3.18-6.657 3.7-.448.385-1.067 2.01-1.357 2.827l4.87-2.68v1.75l-5.966 3.28c-.245.367-.55.767-.926 1.18-.443.49-.78 1.858-1.032 3.605l14.014-8.067.922-7.763c-.61-.148-1.328-.367-2.13-.64-.027-.007-.053-.016-.08-.026" fill="#C9CCCF"/><path d="M175.902 208.206l-7.08 4.022c.004 2.205-.003 4.29-.024 5.997l5.536-3.183.05-.203 1.518-6.634" fill="#389981"/><path d="M174.334 215.042l-5.536 3.183c-.03 2.328-.085 3.955-.178 4.23l4.543-2.62 1.17-4.793" fill="#25272B"/><path d="M177.2 174.018l-4.87 2.68c-.102.284-.163.47-.163.47s-.205.793-.933 1.88l5.966-3.282v-1.748M183.29 175.765l-14.014 8.067c-.06.41-.114.843-.165 1.29l13.907-8.004.234-1.024.04-.33M182.615 178.876l-13.663 7.883c-.035.413-.067.83-.096 1.25l13.443-7.756.315-1.378M181.882 182.075l-13.123 7.55c-.023.417-.042.828-.058 1.23l12.865-7.403.315-1.377M181.15 185.273l-12.5 7.17c-.01.428-.02.833-.024 1.21l12.21-7.004.314-1.377M180.436 188.392l-11.813 6.806c.004.286.01.528.02.717.004.11.01.266.015.458l11.463-6.603.316-1.378M179.483 191.615l-10.79 6.27c.005.36.012.755.02 1.184l10.703-6.22.067-.292v-.943" fill="#727780"/><path d="M179.386 166.373c.163.79.34 1.544.504 2.184l2.113-1.22c-.802-.274-1.685-.6-2.617-.964" fill="#389981"/><path d="M179.22 165.523c.052.286.108.57.166.85.932.363 1.815.69 2.617.963.026.01.052.02.078.027.804.272 1.52.49 2.132.64l.087-.732c-.228-.056-.472-.122-.73-.2-.23-.066-.47-.14-.722-.222-1.013-.327-2.198-.763-3.474-1.264l-.155-.06" fill="#4D53AF"/><path d="M206 210.588v18.13l-1.05 16.462-2.564 27.576s3.565 3.854 4.246 6.375c.68 2.52-6.528 1.987-6.528 1.987l-4.662-5.395-2.22 1.582s.895 3.063 1.468 4.994c.454 1.533-3.214 2.975-4.763 2.09-1.318-.75-3.86-2.994-4.665-4.853-1.078-2.486-1.645-1.066-1.887-1.348-1.602-1.873-1.78-2.44-1.78-2.44l.625-9.775s2.417-15.228 2.92-21.888c.25-3.33-2.01-14.394-2.763-20.833-.754-6.438 0-11.333 0-11.333l15.81.116 6.13-5.3 1.683 3.855" fill="#2C2E33"/><path d="M219.536 170.572l1.325-4.108s1.517-2.737 1.922-1.822c.16.364-.07 1.495.242 1.094.475-.608 1.53-3.01 1.794-3.307.54-.605 1.416-1.745 1.56-1.083.144.662-1.508 3.196-1.16 2.87.348-.325 1.158-2.69 2.012-2.137.236.153-.234 1.01-.234 1.01s1.03-.638.88.04c-.147.676-.513 1.472-.513 1.472s.322-.315.303.555c-.02.87-1.212 4.602-2.277 5.562-1.066.96-2.386 2.827-2.386 2.827l-3.468-2.975M174.1 222.19l-.948 5.376s.01 2.32 1.265 3.388 2.203 1.856 2.703 2.06c.5.204 1.092-.928 1.092-.928s-1.573-3.244-1.092-4.01c.48-.767.348 1.46 1.092 1.956.636.425.658-1.032.816-1.957.16-.925 0-3.028 0-3.028l-4.928-2.858" fill="#EED2B7"/><path d="M173.892 223.05l-.217 1.55s1.358 1.255 2.06 1.387c.7.13 3.43.48 3.345 0-.084-.48-.232-1.84-.232-1.84l-4.956-1.096" fill="#B7A587"/><path d="M195.34 153.323s.367.616 1.57 2.41c1.2 1.79 1.91 7.623 1.087 10.26-.824 2.637-1.715 5.428-4.948 3.572-.27-.154.58 1.152.58 1.152l1.372 2.092s3.023 2.955 3.35 4.45c.295 1.346-2.76 11.048-4.728 11.112-1.968.064-7.645-8.02-7.37-10.128.274-2.11-1.472-5.058-1.472-5.058l.9-11.528 3.052-4.952 6.605-3.383" fill="#EED2B7"/><path d="M181.69 155.184c.71-1.585 3.063-3.312 6.026-4.018 2.963-.706 6.466.05 7.882.825 1.417.774 1.31 3.742 1.31 3.742s-4.956.014-5.504 1.828c-.33 1.095-1.254 4.446-1.254 4.446s-1.278-1.844-2.057-1.77c-.78.076-1.334 1.568-.574 3.21.76 1.64 1.505 1.768 1.505 1.768l-2.186 3.65s-.177 1.506-1.07 2.834c-.89 1.328.106 3.77-1.42 5.078-1.528 1.31-1.914 10.42-5.65 8.1-3.735-2.316-1.768-7.458-1.768-7.458s-1.14-3.573.776-4.41c1.917-.837 4.956-2.82 4.913-3.39-.043-.57 2.07-2.833.43-4.51-1.642-1.68-2.07-8.34-1.36-9.924" fill="#463C39"/><path d="M185.77 178.452s5.878 2.53 8.153 2.055c2.276-.473 5.005-3.912 5.005-3.912l3.306 32.996.113.998s-3.15 2.97-7.57 3.62c-1.254.183-6.797-.646-6.797-.646l-2.21-35.11" fill="#5B5E67"/><path d="M186.073 171.187s-7.425 4.546-8.365 4.95c-1.973.85-3.452 6.254-3.54 7.236-.052.57-1.34 10.93-1.697 19.532-.257 6.228-.314 11.792-.314 11.792l.996 8.77s4.87 3.3 6.34 1.56c1.47-1.737.46-20.688.46-20.688s-.2 13.582 1.428 13.87c3.358.597 10.692 1.354 10.692 1.354s-1.49-31.22-2.213-33.736c-.722-2.515-2.997-7.437-3.44-9-.445-1.564-.347-5.64-.347-5.64" fill="#E95465"/><path d="M189.872 165.952s1.642 2.065 2.692 2.664c1.05.598 2.025.99 3.11.896.802-.07 1.39-1.006 1.39-1.006s-.535 1.922-1.884 1.915l-1.348-.006.255 1.18s-3.7-1.297-3.84-2.657c-.14-1.36-.375-2.985-.375-2.985" fill="#B7A587"/><path d="M179.95 204.34l2.183-12.974 1.053-1.688.054 9.797v8.228l-1.298 8.812-1.99-12.176" fill="#DA4453"/><path d="M194.01 171.244l6.512-.064 3.402 1.726 7.067 4.26 4.087-2.263 4.144-4.8 4.815 3.685-4.924 6.336s-2.17 2.39-4.238 4.584c-2.068 2.193-9.77-.33-9.77-.33s3.183 21.937 2.95 24.822c-.232 2.884-4.853 6.752-4.853 6.752l-3.284-18.49s-1.374-14.875-1.936-17.775c-.563-2.9-2.194-5.654-2.85-6.482-1.14-1.44-1.12-1.96-1.12-1.96" fill="#E95465"/><path d="M231.48 246.292l130.085-75.26 63.633 36.58L295.11 283.02l-63.63-36.726" fill="#D3E7C9"/><path d="M300.8 232.332c-.872-.608-8.303-1.453-9.784-7.36-.84-3.345 3.818-14.14 11.294-12.833 0 0 1.033-.895 1.812-1.218 2.432-1.006 7.22.19 11.566 2.7 3.803 2.196 8.835 5.743 9.028 9.714.13 2.632 7.25.735 7.25.735s-.2-1.04 3.397.917c3.596 1.957 5.953 3.438 5.953 3.438s-27.613 13.17-27.654 12.94c-.04-.228-2.742-6.92-2.742-6.92l-10.12-2.113" fill="#463C39"/><path d="M317.392 216.255c-2.215-.846-.346 4.04-.346 4.04-2.06-.924-1.648-.62-3.746-2.584-.882-.825-5.345-1.653-5.345-1.653s-3.43 3.308-4.864 8.148c-1.163 3.93-7.012 3.923-4.54 6.45 1.652 1.69 4.847 2.732 4.847 2.732s7 2.437 11.8 3.425c0 0 1.358 11.898 8.58 14.052.893.266 9.877-.348 9.877-.348s6.884-8.377 7.115-9.758c1.307-7.788-9.722-11.18-9.722-11.18s-8.38-6.12-8.882-7.634c0 0 1.22-3.4-4.774-5.69" fill="#EED2B7"/><path d="M315.196 236.812s5.78-.585 6.298-.504c.518.08 3.018-1.166 3.957-3.084.94-1.918-1.994-9.738-1.994-9.738s7.09 8.817 6.797 10.33c-.293 1.516-.724 5.86-3.57 6.17-2.847.312-11.487-3.174-11.487-3.174" fill="#BBAC9E"/><path d="M332.27 246.986c1.735-.803 5.514-2.99 6.702-5.827.41-.975 1.19-5.82 1.19-5.82l1.18 3.382 13.422 14.742-21.54 12.292c-.13-.075-8.72-9.672-8.72-9.672l-4.703-9.275s7.543 2.46 12.47.176" fill="#5B5E67"/><path d="M319.348 270.536s-13.478-11.072-14.772-12.913c-1.605-2.283-.094-5.948 2.378-9.844 2.3-3.628 6.588-8.11 6.588-8.11l1.726-2.982s3.066 7.785 8.897 11.63c5.048 3.33 14.086 11.152 14.086 11.152M352.535 251.016s-8.42-4.483-13.155-13.12c-2.783-5.08-8.932-7.59-8.7-8.033l-1.833-1.842c2.807.424 15.726-4.705 19.955-4.988 3.81-.255 15.15 3.6 17.835 5.676 3.366 2.604 10.423 6.285 13.7 5.938" fill="#E95465"/><path d="M361.975 245.297l-3.57-5.842-5.358-6.33 14.346 11.522-5.418.65M312.968 258.483s5.314 7.23 6.346 8.59c1.032 1.36 3.484 2.012 3.484 2.012s1.46-1.442 1.563-1.39c.103.053-11.392-9.212-11.392-9.212" fill="#DA4453"/><g transform="translate(231.594 235.537)"><mask id="h" fill="#fff"><use xlink:href="#g"/></mask><path d="M.243.4H81.59v47.035H.244V.4z" fill="#9FA99B" mask="url(#h)"/></g><path d="M425.045 207.702l-14.084 8.164.13.074 14.107-8.15-.152-.088m-68.776-39.728l-.01.005 5.296 3.06.01-.007-5.297-3.06" fill="#F0F3F6"/><path d="M410.96 215.866l-18.61 10.788.096.057 18.644-10.77-.13-.074" fill="#D0D2D8"/><path d="M382 211l19.327-15.68 2.252 1.184-3.247 4.41-8.57 4.913L382 211m-27.57-8.34l-1.037-.6 24.344-14.083 1.036.598-24.344 14.085m-14.9-8.607l-1.036-.598 10.854-6.397 1.035.598-10.854 6.397m10.098 5.834l-1.035-.6 21.922-12.536 1.035.6-21.922 12.537m2.4 1.386l-1.036-.6 27.894-16.036 1.035.598-27.893 16.038m-7.59-4.385l-1.037-.6 23.484-13.505 1.035.598-23.484 13.508m2.79 1.612l-1.035-.6 27.023-15.64 1.036.598-27.023 15.642m-5.193-3l-1.036-.598 27.03-15.637 1.037.598-27.03 15.637m19.53-24.467l-.01.006.35.2.038.022-32.814 18.873-.04-.023 63.26 36.542 32.695-18.952-37.005-21.376-1.88 1.972-3.358 3.68.302.175-.972.56-4.645 5.09 2.068-3.61-19.934 11.466-1.035-.6 21.99-12.646 1.34-2.34-24.695 14.198-1.036-.6 26.752-15.38 2.095-3.655 2.516 1.404-25.98-15.007" fill="#E7EEEC"/><path d="M355.187 167.35l-130.283 75.143-9.134-5.277 130.245-75.165 9.172 5.3" fill="#CCCCCD"/><path d="M221.054 237.078c.625.064 1.103.41 1.065.775-.038.365-.576.608-1.202.544-.625-.064-1.103-.41-1.065-.775.037-.364.574-.608 1.2-.544" fill="#EB5C55"/><path d="M223.452 235.674c.626.064 1.103.412 1.066.776-.037.364-.575.608-1.2.544-.627-.064-1.103-.41-1.066-.776.037-.364.574-.607 1.2-.544" fill="#F8BB31"/><path d="M225.85 234.27c.627.065 1.104.412 1.067.776-.037.365-.575.608-1.2.544-.627-.064-1.104-.41-1.067-.775.038-.364.575-.608 1.2-.544" fill="#6EB647"/><path d="M253.577 220.722c-.847-.247-2.37-.69-2.754-.786-.54-.135-1.05-.166-1.764.304s-20.054 11.78-20.493 12.026c-.44.246-.55.24-.357.616.19.375 1.262 1.743 1.262 1.743l-9.05 5.25 4.807 2.776 130.23-75.142-4.806-2.778-97.077 55.992" fill="#E8E6E6"/><path d="M302.58 287.363l.034 3.445-86.8-50.158.015-3.418 86.75 50.13" fill="#B8BEC6"/><path d="M432.892 215.725l-130.31 75.07.014-3.418 130.31-75.07-.014 3.418" fill="#868C96"/><path d="M279.185 263.378l-9.177 5.275 11.195 6.39 9.074-5.258-11.092-6.407" fill="#2C2E33"/><path d="M288.268 258.05l-9.083 5.328 11.092 6.407 9.084-5.328-11.092-6.407" fill="#B8BEC6"/><path d="M301.35 265.606l-18.143 10.536 11.835 6.836 18.198-10.504-11.89-6.868" fill="#5B5E67"/><path d="M298.925 272.972l-.015.152c.785.08 1.48.333 1.966.67.49.34.762.754.76 1.15l-.005.093c-.035.368-.303.702-.757.95-.452.247-1.08.398-1.777.397-.17 0-.342-.008-.517-.026-.786-.08-1.48-.333-1.968-.67-.49-.34-.76-.754-.76-1.15l.005-.09v-.01.008c.037-.37.305-.703.758-.95.452-.25 1.08-.4 1.778-.4.17 0 .34.01.517.028l.015-.152.016-.152c-.185-.02-.368-.028-.547-.028-.742 0-1.414.157-1.924.434-.508.277-.865.686-.917 1.19v-.003c-.004.042-.006.084-.006.124.002.54.354 1.03.89 1.4.54.374 1.28.64 2.11.724.187.02.37.03.55.03.74 0 1.413-.158 1.923-.435.507-.276.863-.685.915-1.188.004-.04.006-.082.006-.123 0-.54-.353-1.03-.89-1.4-.54-.373-1.278-.638-2.11-.724l-.015.152" fill="#B1B1B1"/><path d="M297.67 275.578l2.23-1.278c.073-.042.098-.135.056-.208-.04-.073-.135-.098-.208-.056l-2.23 1.278c-.074.04-.1.134-.058.208.042.073.135.098.21.056" fill="#B1B1B1"/><path d="M297.39 274.222l2.447 1.413c.073.042.166.017.208-.056.043-.074.018-.167-.055-.21l-2.448-1.413c-.073-.042-.166-.017-.208.056-.043.073-.017.166.056.21" fill="#B1B1B1"/><path d="M225.233 242.555l130.206-75.05 6.465 3.735-130.463 75.03-6.21-3.715" fill="#2B2E32"/><path fill="#707171" d="M355.477 167.527l.783.452-.783-.453"/><path d="M356.26 167.98l1.494.862-1.494-.863" fill="#6A6C6D"/><path d="M361.905 171.24l-32.816 18.872.04.023 32.813-18.873-.038-.022" fill="#666A69"/><path d="M355.477 167.527L322.663 186.4l6.426 3.712 32.815-18.872-6.428-3.713" fill="#1B1D1F"/><path d="M244.23 238.915l-12.775 7.347.038.022 12.737-7.37" fill="#302F37"/><path d="M249.7 235.77l-5.47 3.145-12.737 7.37 18.233-10.5-.027-.015" fill="#5E675C"/><path d="M225.313 242.602l-.084.05-.026-.016-.012.007 5.51 3.183-5.39-3.224" fill="#302F37"/><path fill="#666767" d="M225.288 242.588l-.084.048.025.015.083-.048-.025-.014"/><path d="M225.192 242.643l-.015.008 6.303 3.642.013-.008-.038-.022-.013.008-.74-.444-5.51-3.183" fill="#53575B"/><path d="M243.396 232.13l-18.108 10.458.025.014 6.13 3.668.012-.008L249.7 235.77l-6.304-3.64" fill="#1B1D1F"/><path d="M329.17 190.154l32.813-18.874 4.31 2.49-32.813 18.874-4.31-2.49" fill="#B8BEC6"/><path d="M349.348 187.058l-10.854 6.397 1.035.598 10.853-6.397-1.035-.598M368.03 179.265l-27.032 15.637 1.036.598 27.03-15.637-1.035-.598M366.884 182.783L343.4 196.29l1.036.598 23.483-13.507-1.036-.597M373.213 182.26L346.19 197.9l1.037.6 27.022-15.642-1.037-.598M370.515 186.75l-21.922 12.538 1.035.6 21.922-12.54-1.035-.597M378.886 184.637l-27.894 16.037 1.035.6 27.894-16.04-1.034-.597M377.737 187.977l-24.344 14.084 1.036.6 24.343-14.085-1.036-.598M382.936 188.293l-26.752 15.38 1.036.6 24.696-14.2 1.02-1.78M380.575 192.414l-21.99 12.647 1.036.6 19.935-11.466 1.02-1.78m2.227-.436l-.67.734.972-.56-.302-.174" fill="#ADB3B8"/><path d="M295.052 282.984l130.088-75.17 7.75 4.477-130.31 75.073-7.528-4.38" fill="#2B2E32"/><path d="M253.5 248.543l-9.022 5.23 11.125 6.42 9.007-5.234-11.11-6.417" fill="#B9D0DE"/><path d="M253.28 251.802s-.183.55.247.762c.43.213 1.11.548 1.8.28l-1.5-1.107-.546.065" fill="#2C2E33"/><path d="M255.492 249.693l-2.237.576-.206.927.36.59.622.497 1.296.56.73.183 1.118.165-.053.175 1.86 1.216 1.907.413.482-.14-.14-1.848-5.74-3.315" fill="#EED2B7"/><path d="M254.265 248.984c-.563.216-1.07.54-1.232.965 0 0 .156-.178.887-.62.166-.098.368-.165.584-.208l-.24-.138" fill="#2C2E33"/><path d="M254.378 249.05l-1.044.546-.89.776s-.355.538-.17.91c.183.37 1.347.603 1.347.603s-.175-.158-.046-.428c.205-.427-.227-.485-.1-.67.128-.187-.07-.13.856-.13.926 0 .45-.034.62-.355.11-.21.45-.384.79-.467l-1.362-.786" fill="#925F36"/><path d="M259.235 251.854c.007.136.003.268-.023.368-.087.33-1.082.96-1.498 1.002-.118.012-.35-.006-.635-.044l.043.187.254.01s1.48.25 1.8.067c.323-.184.473-1.082.446-1.32l-.01-.05-.378-.22" fill="#BBAC9E"/><path d="M260.988 252.867c-.07.545-.366 1.466-.366 1.466s-1.384.01-2.086-.245c-.39-.14-1.413-.72-1.413-.72s-.927.785-1.21 1.143c-.28.36-.77 1.676-.705 1.863.065.187 2.23 2.534 2.433 2.626l7.034-4.004-3.686-2.13" fill="#FDCD55"/><path d="M288.89 269.003l9.107-5.352-9.77-5.612-9.094 5.33 9.757 5.635" fill="#8978B5"/><path d="M290.304 269.82l9.108-5.35-1.494-.834-9.092 5.33 1.478.854" fill="#A28FC3"/><path d="M286.665 261.665l2.17-1.324.264.154-2.17 1.323-.265-.152M287.517 262.157l3.707-2.21.18.105-3.707 2.21-.18-.105M287.935 262.398l3.223-1.906.18.104-3.223 1.906-.18-.104M288.42 262.678l3.706-2.21.18.105-3.705 2.21-.18-.105M288.838 262.92l3.01-1.77.18.105-3.01 1.768-.18-.103M289.255 263.16l3.83-2.262.18.103-3.83 2.265-.18-.104M289.673 263.402l3.338-1.99.182.105-3.34 1.99-.18-.105M290.158 263.682l3.753-2.218.18.104-3.75 2.218-.182-.104M290.576 263.923l3.223-1.905.18.104-3.223 1.906-.18-.105" fill="#ECF0F3"/><path d="M281.416 264.686l6.257 3.614 4.52-2.572-6.27-3.622-4.507 2.58" fill="#FFF"/><path d="M285.606 264.838l-1.348.056-.423 1.19 1.404.81c.624-.113 1.22-.147 1.69-.148 1.11-.003 3.867-1.825 3.867-1.825l-2.754-1.59-2.437 1.508" fill="#6597D0"/><path d="M284.51 266.473l3.163 1.827 4.52-2.572-3.513-2.03-4.17 2.775" fill="#ACDEF9"/><path d="M266.33 255.935l9.175-5.26 11.105 6.384-9.176 5.285-11.105-6.41" fill="#ECF0F3"/><path d="M275.14 253.515l-3.806 2.225 2.526 1.46 3.836-2.208-2.556-1.477" fill="#EC6D54"/><path d="M278.76 260.838l-1.962 1.14.648.374 1.994-1.122-.68-.392" fill="#42B498"/><path d="M283.252 258.2l-3.805 2.226.685.396 3.836-2.207-.716-.414" fill="#F7BB40"/><path d="M272.497 259.494l1.865-1.102.18.104-1.864 1.102-.18-.104M272.916 259.736l1.38-.8.18.105-1.38.8-.18-.104M273.402 260.017l1.863-1.103.18.104-1.862 1.103-.18-.103M273.82 260.26l1.168-.663.18.105-1.166.66-.18-.103M274.24 260.5l1.985-1.157.18.104-1.985 1.157-.18-.104M274.305 257.487l2.187-1.32.264.153-2.187 1.32-.265-.153M275.16 257.98l3.713-2.213.18.104-3.714 2.214-.18-.104M275.577 258.22l3.23-1.91.18.106-3.23 1.91-.18-.105M276.064 258.502l3.713-2.213.18.103-3.713 2.214-.18-.105M276.482 258.744l3.017-1.772.18.105-3.017 1.772-.18-.106M276.9 258.986l3.837-2.268.18.104-3.836 2.268-.18-.104M277.32 259.227l3.344-1.993.18.105-3.345 1.992-.18-.105M277.805 259.508l3.76-2.222.182.104-3.76 2.223-.182-.105" fill="#868C96"/><path fill="#F7F9F9" d="M276.426 254.258l.81.468-.81-.468"/><path d="M276.426 254.258l-1.326.833-.81-.195.015.834-.872-.19.094.673-.718-.132.117.58.933.54.545-.332-.43-.31 3.26-1.833-.81-.467" fill="#F7B6AA"/><path d="M268.692 257.296l2.54 1.468 1.974-1.135-2.557-1.478-1.958 1.144" fill="#42B498"/><path d="M270.52 258.35l.37.215-.37-.214m.373-2.057l1.73 1-1.73-1" fill="#F7F9F9"/><path d="M270.87 256.28s.43 1.395-.46 2.008l.48.277c.846-.475 1.723-1.264 1.733-1.273l-1.73-1-.022-.012" fill="#A1DACC"/><path d="M271.662 259.01l.264.154.887-.523-.264-.15-.888.52" fill="#868C96"/><path d="M240.535 241.053l-9.055 5.24 11.248 6.603 8.9-5.436-11.093-6.407" fill="#FBC67F"/><path d="M242.84 242.384l-2.266.703-.188.848.33.54.568.454 1.185.51.666.168 1.022.15-.048.16 1.698 1.112 1.745.377.44-.128.092-1.866-5.246-3.03" fill="#EED2B7"/><path d="M241.712 241.732s-.857.553-1.065.74c-.21.186-.512.71-.512.71s-.048.814.12 1.152c.168.34 2.214 1.106 2.214 1.106s-.526-.374.822-.37c.434 0-1.353-.716-1.236-.885.117-.17-.363-.876-.363-.876s.275.1.43-.193c.1-.192.412-.35.97-.586l-1.38-.798" fill="#56423A"/><path d="M246.218 244.336c.008.135.004.267-.023.367-.087.33-1.08.96-1.497 1.002-.12.012-.35-.006-.636-.044l.045.188.254.01s1.48.25 1.802.067c.322-.183.472-1.082.445-1.32l-.01-.052-.38-.217" fill="#BBAC9E"/><path d="M247.033 244.806c-.026.36-.063.802-.67 1.29-.606.49-.79.422-1.49.168-.39-.14-.766-.416-.766-.416s-.927.786-1.21 1.144c-.28.358-.102 1.453-.038 1.64.063.188.376 3.74.578 3.83l2.23-1.363-.155-1.208 1.033.675 5.112-3.09-4.625-2.67" fill="#5B5E67"/><path d="M266.33 255.935l-8.903 5.317 11.09 6.438 8.904-5.347-11.09-6.408" fill="#99D6F1"/><path d="M268.498 258.178l-2.258 1.078-.167.753.293.477.504.403 1.05.454.592.148.907.134-.044.142 1.506.985 1.547.335 1.182-.22-.71-1.548-1.726-1.114s-.087-.288-.39-.63c-.302-.345-1.562-1.16-1.562-1.16l-.726-.238" fill="#E4C1A4"/><path d="M267.697 257.715c-.81.12-1.15.575-1.334.74-.185.166-.512.886-.512.886s-.213.96.352 1.403c.264.207 1.72.6 1.72.6s-1.888-1.244-.693-1.24c.384 0-.472-.274-.368-.424.103-.152 1.29-1.61 2.415-1.017.17.09-.617-.77.854.373 0 0-1.33-1.485-2.433-1.32" fill="#3C3C3B"/><path d="M271.01 259.873c.256.39.044.822.02.91-.076.294-.764.757-1.133.795-.105.012-.29.072-.545.038l.022.09.225.01s1.596.058 1.882-.105c.285-.162.133-.796.11-1.006l-.16-.148-.422-.583" fill="#BDA28A"/><path d="M273.344 262.705c-.023.32-1.743-1.033-2.28-.6-.54.434-.39.194-1.01-.03-.347-.125-.68-.37-.68-.37s-.823.697-1.073 1.015c-.25.318-.09 1.29-.034 1.455.057.166.335 3.315.514 3.397l1.98-1.21-.14-1.07.917.6 5.884-3.55-4.988-2.88-1.264.685 2.176 2.558" fill="#6597D0"/><path d="M262.677 243.222l-9.083 5.33 11.092 6.406 9.084-5.328-11.093-6.408" fill="#ECF0F3"/><path d="M259.8 252.136l1.628-.933.263.152-1.627.933-.264-.152M260.65 252.627l2.304-1.333.18.104-2.303 1.333-.18-.103M261.07 252.87l2.33-1.32.18.105-2.33 1.318-.18-.104M261.554 253.15l2.32-1.325.18.104-2.32 1.323-.18-.104M261.97 253.39l2.345-1.31.18.104-2.343 1.31-.18-.103M262.39 253.63l2.318-1.323.18.104-2.32 1.326-.18-.105M262.807 253.873l.867-.513.18.104-.867.513-.18-.104" fill="#5B5E67"/><path d="M256.125 250.032l3.217 1.857 2.324-1.322-3.224-1.863-2.317 1.327M265.89 251.84l2.07 1.197 4.88-2.862-2.054-1.187-4.895 2.853M253.564 248.534l.804.464 9.083-5.33-.787-.454-9.1 5.32" fill="#42B498"/><path d="M257.263 250.706l2.08 1.183 2.323-1.322-2.1-1.19-2.303 1.328" fill="#A0C86A"/><path d="M263.678 246.43l1.63-.93.262.15-1.628.934-.264-.153M264.17 246.715l1.628-.933.263.152-1.627.933-.264-.152M264.67 247.004l1.627-.933.263.153-1.628.933-.263-.152" fill="#5B5E67"/><path d="M260.956 248.74c-.323-.168-.574-.383-.718-.62l2.052-.324-1.334.944" fill="#DA4453"/><path d="M264.18 248.61c-.41.365-1.168.565-2.008.48-.15-.017-.3-.04-.44-.072l.558-1.222 1.89.815" fill="#5084C4"/><path d="M264.18 248.61c.185-.162.3-.358.322-.576.072-.707-.854-1.38-2.068-1.505-.664-.07-1.277.042-1.708.272l1.564.994 1.89.815" fill="#6EB647"/><path d="M260.238 248.12c-.104-.17-.153-.352-.134-.536.033-.32.265-.592.622-.782l1.564.994-2.052.324" fill="#A28FC3"/><path d="M261.732 249.018l.558-1.222-1.334.944c.226.118.49.213.776.278" fill="#F7BB40"/><path fill="#B8BEC6" d="M265.414 251.086c.188.02.332.124.32.233-.01.11-.172.182-.36.163-.188-.02-.332-.124-.32-.233.01-.11.172-.183.36-.164M266.135 250.664c.19.02.332.124.32.233-.01.11-.172.183-.36.164-.19-.018-.332-.123-.32-.232.01-.11.172-.183.36-.164M266.856 250.242c.188.02.332.124.32.233-.01.11-.172.183-.36.164-.188-.02-.332-.124-.32-.234.01-.11.172-.183.36-.164"/><path d="M249.695 235.798l-9.173 5.277 11.092 6.407 9.343-5.18-11.262-6.504" fill="#FFF"/><path d="M240.535 241.053l9.72 5.614 7.024-3.995-9.745-5.628-7 4.01" fill="#3AAED9"/><path d="M243.138 240.598l4.806 2.776.055 1.98-4.82-2.784-.042-1.972" fill="#8A2C33"/><path d="M245.41 239.285l4.806 2.776.02 3.995-4.82-2.783-.007-3.987" fill="#B83B46"/><path d="M247.332 238.212l4.806 2.776.02 3.994-4.818-2.783-.008-3.988" fill="#E95465"/><path d="M248.544 240.903l.294.17 2.374-1.363-.3-.173-2.368 1.366M249.12 241.235l.293.17 2.374-1.363-.3-.173-2.368 1.365M249.694 241.568l.294.17 2.374-1.364-.3-.173-2.368 1.368" fill="#FFF"/><path d="M257.608 241.53c.302.032.533.2.515.375-.018.176-.278.294-.58.263-.302-.03-.533-.198-.515-.374.018-.176.278-.293.58-.263" fill="#3AAED9"/><path d="M365.278 213.84l-.202-.345c-9.498 5.562-14.007 8.393-22.046 15.837l.273.293.293-.272c-2.428-2.6-3.454-6.19-4.682-9.644-2.066-5.787-4.895-11.313-8.4-16.404l-.33.227-.02.4c6.68.324 12.336 1.604 17.867 3.447 5.532 1.843 10.938 4.252 17.093 6.83l.155-.37-.202-.345.202.345.155-.37c-6.144-2.57-11.567-4.99-17.148-6.85-5.58-1.86-11.322-3.16-18.08-3.487-.153-.007-.296.072-.37.205-.074.133-.066.297.02.42 3.464 5.036 6.262 10.5 8.304 16.22 1.222 3.414 2.25 7.125 4.85 9.92.15.162.403.17.565.02 8.006-7.408 12.405-10.165 21.906-15.732.132-.077.208-.22.198-.372-.01-.152-.105-.284-.245-.343l-.155.37" fill="#5B61CE"/><path d="M340.024 221.696c.732-1.07 1.997-2.367 3.507-3.704 2.268-2.008 5.088-4.12 7.533-5.832 1.222-.856 2.35-1.612 3.27-2.205.917-.593 1.63-1.025 2-1.223.194-.105.267-.348.162-.542-.105-.195-.348-.268-.543-.164-.545.294-1.64.972-3.048 1.907-2.108 1.4-4.898 3.367-7.456 5.41-2.56 2.046-4.883 4.152-6.085 5.9-.125.182-.078.432.104.556.183.124.432.078.557-.104M333.953 214.583c1.55-1.795 3.554-3.318 5.512-4.907 1.956-1.59 3.87-3.246 5.212-5.35.12-.187.064-.435-.123-.553-.187-.12-.434-.064-.553.122-1.255 1.973-3.096 3.583-5.04 5.16-1.943 1.578-3.985 3.123-5.614 5.005-.145.167-.126.42.042.565.167.144.42.126.565-.042M341.91 213.823c-.34-.266-.643-.597-.854-.954-.213-.36-.333-.74-.333-1.117 0-.056.003-.112.008-.166v-.002c.032-.34.216-.7.488-.962.27-.264.616-.423.942-.42.074 0 .148.007.223.023.262.058.493.21.678.43.185.218.315.5.365.782.022.125.033.254.033.384 0 .476-.144.99-.346 1.487l.37.15-.082-.392c-.09.02-.185.028-.28.028-.285 0-.58-.088-.824-.242-.245-.153-.436-.37-.536-.61-.04-.096-.064-.202-.063-.285 0-.09.02-.144.052-.182.027-.038.11-.097.235-.16.396-.212.814-.365 1.185-.363.064 0 .128.004.19.013.188.026.386.122.52.248.136.128.2.268.2.398v.027l.4.008-.4-.017c-.007.153-.082.3-.245.47-.16.168-.397.332-.635.48-.505.32-1.067.607-1.5.6-.125 0-.24-.02-.352-.062-.172-.065-.32-.192-.426-.358-.107-.165-.167-.368-.166-.56v-.04c.014-.41.278-.848.664-1.14.175-.135.21-.386.075-.562-.135-.175-.386-.21-.562-.075-.535.41-.944 1.028-.977 1.744l.4.016-.4-.024-.002.08c0 .352.104.696.292.99.188.296.467.543.818.677.21.08.426.114.635.113.742-.007 1.39-.392 1.925-.72.256-.162.542-.35.785-.602.24-.247.453-.58.47-.993v-.05c0-.4-.194-.742-.453-.984-.26-.24-.595-.402-.953-.454-.103-.015-.204-.022-.304-.022-.58.003-1.108.217-1.56.456-.14.075-.325.17-.484.364-.17.21-.23.46-.23.685 0 .213.05.413.124.59.173.417.482.75.85.982.37.232.804.364 1.25.365.15 0 .298-.015.445-.046.132-.027.24-.117.29-.24.22-.55.403-1.153.404-1.788 0-.173-.015-.348-.046-.525-.076-.42-.26-.824-.54-1.157-.28-.332-.66-.594-1.118-.695-.132-.03-.265-.044-.396-.044-.58.003-1.107.267-1.5.65-.395.384-.67.898-.726 1.46v-.003c-.008.084-.012.166-.012.246 0 .55.174 1.068.445 1.524.27.456.64.854 1.05 1.176.173.137.425.107.56-.067.138-.174.108-.426-.066-.563M355.73 224.343c-1.983-1.496-4.086-2.843-6.284-4.026-.535-.287-1.082-.586-1.518-.934-.438-.35-.754-.733-.89-1.196-.063-.212-.286-.333-.498-.27-.212.062-.334.284-.27.496.2.677.648 1.19 1.16 1.596.512.407 1.1.722 1.636 1.012 2.163 1.164 4.23 2.49 6.18 3.96.177.133.428.098.562-.08.133-.175.098-.426-.08-.56" fill="#5B61CE"/><path d="M346.398 220.692l.118-3.496-.4-.014-.202.346c1.014.587 2.19.9 3.374.9.058 0 .116 0 .174-.003.22-.005.396-.19.39-.41-.005-.22-.19-.395-.41-.39l-.154.002c-1.043 0-2.085-.277-2.972-.79-.122-.072-.272-.073-.395-.005-.122.068-.2.196-.205.337l-.118 3.495c-.007.22.166.406.388.413.22.008.406-.165.413-.386" fill="#5B61CE"/><path d="M401.327 195.32L382 211l9.763-5.173 8.57-4.912 3.246-4.41-2.253-1.186" fill="#C5CBC8"/><path fill="#B4C5AB" d="M387.546 186.04l.494.286.006-.006-.5-.28"/><path d="M382.132 192.712l-2.577 1.482-2.068 3.61 4.645-5.092m2.9-8.075l-2.096 3.656.59-.34 1.036.6-2.646 1.52-1.34 2.34 1.492-.858.734.423 3.357-3.68 1.88-1.972-.494-.285-2.515-1.403" fill="#C5CBC8"/><path d="M383.526 187.954l-.59.34-1.02 1.78 2.646-1.522-1.036-.598M382.068 191.555l-1.493.86-1.02 1.78 2.577-1.483.67-.734-.734-.423" fill="#93989D"/><path d="M413.523 198.363l1.27 3.293-6.486-3.38 5.216.087" fill="#3E6696"/><path d="M395.274 164.015s.32 1.755.52 2.778c.2 1.022 1.24 1.857 1.24 1.857l-1.488 1.095-8.214 6.133-1.15-1.008-2.05-5.57.496-1.725.135-5.177-1.366-2.36-.72-2.172-.676-4.24.266-2.406.928-1.888 4.756-1.38 6.03 4.79 2.934 5.045-1.64 6.228" fill="#EED2B7"/><path d="M385.74 146.005s-2.207 1.38-2.86 2.456c-.654 1.077-.88 5.165-.88 5.165s.12-.708 1.023-.817c1.433-.172.877-1.376 1.563-1.35.686.025.214-.388 1.725 1.988 1.51 2.376.825 1.1 1.925 1.007 1.1-.09 3.232-.367 3.78.763.546 1.13.928 3.858.928 3.858s.796-2.632 1.68-2.98c.886-.348 1.633 1.035 1.653 1.69.008.255-.327 2.37-1.095 2.9-.594.412 1.045-.622 1.045-.622s2.322-4.318 2.29-7.41c-.025-2.404-1.93-5.388-1.93-5.388s-1.946-2.276-5.038-2.67c-3.092-.396-5.808 1.41-5.808 1.41" fill="#925F36"/><path d="M385.357 163.5c.482.73.897 1.19 1.162 1.438.928.87 2.28 1.672 3.212 1.213.933-.458 4.517-3.684 4.517-3.684s-1.263 3.726-1.753 4.26c-.49.536-2.857 1.984-3.92 1.61-1.065-.372-3.22-4.836-3.22-4.836" fill="#B7A587"/><path d="M378.845 205.346s-4.364.573-4.822 1.406c-.458.832.856.922.856.922s-1.946.617-1.963 1.154c-.017.54.014 1.883 2.493 3.05 2.478 1.165 5.637-.197 5.637-.197l4.377-3.346-.885-3.937-5.695.95" fill="#EED2B7"/><path d="M411.648 200.01l-9.783-4.25-2.634 4.573-15.956 9.758.474-1.488-.91-3.083-2.328-.452 13.035-12.765v-2.807l-7.63-4.44-8.92 14.553-5.94-3.44s4.8-8.15 5.013-9.597c.3-2.02-.703-6.663-.703-6.663-.326-.59-1.167-10.63-.836-12.638.096-.594 2.006-2.89 3.344-3.257 1.34-.366 6.857-.393 6.857-.393s-.325 3.86.373 4.91c1.257 1.89 4.658 4.368 4.658 4.368s3.242-3.084 4.235-4.094c1.842-1.875 1.28-4.79 1.28-4.79s5.85 1.757 7.33 2.598c1.482.84 3.09 1.64 3.513 2.566 1.113 2.428 3.15 6.986 4.9 14.854.756 3.398 2.784 14.168 2.784 14.168s-2.145 1.882-2.154 1.807" fill="#F7BB40"/><path d="M407.562 192.143c.364-.395-1.343-13.144-1.343-13.144l-4.355 16.76 8.505 3.632-2.808-7.25M394.49 186.682c.364-.395 2.095-11.204 2.095-11.204l-2.066 3.48-.975 10.538.945-2.814" fill="#C09531"/><path d="M371.056 196.17l-1.624 1.664s-.59 3.733 0 3.926c.59.193 4.14 2.718 4.616 2.083.477-.635 1.638-3.612 1.638-3.612s-.107 1.995 0 2.057c.108.062 1.1.337.966-1.5-.135-1.84-.09-3.783-.09-3.783l-3.26-1.26-2.246.426" fill="#EED2B7"/><path d="M374.385 206.554l2.507-.248v1.573s-.495-.217-1.21-.034c-.717.184-2.514.67-2.514.67l1.92-1.366-.703-.596" fill="#B7A587"/><path d="M374.18 207.336l1.73-4.393 1.577.423-1.502 4.16-1.118.288-.688-.478M373.496 210.458l-.328.93v2.094l1.405-1.234.27-.69-1.347-1.1" fill="#5B61CE"/><path d="M383.274 210.09l15.957-9.757 1.984-3.443-3.082 2.81-14.384 8.902-.474 1.49M391.493 188.344l1.45.85-2.45-2.874-1.994-4.337-.273 2.6-1.155-1.333-3.426-7.716.12 11.446-7.187 12.39.414.24c.375-.612 4.75-7.75 6.787-11.07l2.685-3.168 1.58.938v.01l1.515.89 1.956 1.16-.023-.026" fill="#C09531"/><path d="M369.332 201.68c.088-.05 3.583 1.67 3.583 1.67l1.06-.61 1.695-2.168s-1.534 3.262-1.67 3.37c-.138.108-.58.25-.832.22-.25-.03-3.836-2.482-3.836-2.482M374.823 211.57l2.685.22 2.306-.77 1.72-.93s1.218-.85 1.31-1.192c.095-.344.148-2.592.148-2.592l.756 2.296-.474 1.49-2.227 1.59s-.745.405-1.877.532c-1.133.127-2.723.073-3.242-.132-.518-.205-1.105-.51-1.105-.51" fill="#B7A587"/><path d="M375.326 201.108l.36-.877.104 1.27.35.447.287.145-.287.212s-.303.24-.454-.017c-.15-.256-.448-.97-.448-.97l.088-.21" fill="#B7A587"/><path d="M86.847 330.764l130.463-75.03 55.267 32.12-130.426 74.833-55.303-31.923" fill="#8978B5"/><path d="M142.043 362.626l130.15-74.824 8.372 4.718-130.153 74.967-8.37-4.86" fill="#A28FC3"/><path d="M187.884 287.7l-53.83 30.47 34.963 20.43 54.006-30.367-35.14-20.532" fill="#FFF"/><path d="M192.07 285.246l12.232-7.375 1.475.863-12.232 7.375-1.476-.862M196.84 288.033l20.892-12.304 1.01.59-20.893 12.303-1.01-.59M199.18 289.4l18.164-10.62 1.01.59-18.165 10.62-1.01-.59M201.9 290.99l20.884-12.31 1.01.59-20.884 12.31-1.01-.59M204.24 292.358l16.97-9.852 1.01.59-16.97 9.852-1.01-.59M206.578 293.724l21.578-12.61 1.01.59-21.578 12.61-1.01-.59M208.92 295.092l18.815-11.084 1.01.59-18.816 11.083-1.01-.588M211.64 296.68l21.15-12.36 1.01.59-21.152 12.36-1.01-.59M213.98 298.048l18.164-10.62 1.01.59-18.165 10.62-1.01-.59" fill="#ECF0F3"/><path d="M223.023 308.233l-19.69-11.505-49.827 32.808 15.51 9.063 54.007-30.367" fill="#ACDEF9"/><path d="M150.31 327.668l17.113-9.512.652-6.338 7.77-1.283 2.606-7.213 7.577-.277 13.735-8.403 15.43 9.015s-15.54 10.16-21.783 10.147c-6.243-.014-16.455.963-23.495 6.48-7.04 5.517-10.433 12.744-11.002 12.412l-8.603-5.028" fill="#5084C4"/><path d="M191.526 298.194c-4.21-1.164-7.99-3.843-10.48-7.427-.436-.624-.816-1.274-.9-1.956-.013-.108-.02-.217-.02-.327 0-.425.097-.865.24-1.293.518-1.55 1.608-2.825 2.99-3.715 1.382-.89 3.053-1.388 4.71-1.387.477 0 .953.04 1.422.126 1.898.345 3.706.975 5.19 1.96 1.487.984 2.652 2.315 3.298 4.09.32.88.758 2.446.756 3.657.002.538-.09.997-.27 1.28-.252.406-.656 1.004-1.096 1.552-.437.55-.925 1.05-1.282 1.25-.257.146-.695.305-1.244.446-1.65.427-4.308.728-6.623.727-1.07 0-2.068-.064-2.857-.203-.394-.07-.735-.16-1.002-.263-.268-.104-.458-.226-.556-.335-.11-.122-.3-.13-.42-.02-.123.112-.132.3-.02.422.194.21.46.362.78.487.952.368 2.432.505 4.075.508 1.578 0 3.295-.135 4.775-.355.74-.11 1.42-.243 1.998-.392.578-.15 1.05-.313 1.39-.506.49-.285.987-.82 1.452-1.395.46-.574.873-1.185 1.137-1.61.272-.44.357-.997.36-1.594-.004-1.342-.46-2.932-.793-3.86-.69-1.905-1.955-3.344-3.53-4.384-1.572-1.042-3.455-1.692-5.413-2.048-.504-.092-1.017-.137-1.53-.137-1.774.002-3.55.532-5.03 1.484-1.48.952-2.667 2.33-3.234 4.027-.156.468-.27.968-.27 1.483 0 .133.007.268.024.402.11.85.554 1.576 1.002 2.222 2.573 3.7 6.464 6.458 10.81 7.66.16.045.323-.048.367-.206.044-.158-.05-.322-.207-.366M170.12 309.905l18.164-10.62 7.39 4.32-18.164 10.62-7.39-4.32" fill="#E84E1B"/><path d="M172.755 310.2l15.018-8.836 1.01.59-15.02 8.837-1.008-.59M174.685 311.33l15.018-8.838 1.01.59-15.02 8.836-1.008-.59M176.573 312.432l9.644-5.673 1.01.59-9.645 5.672-1.01-.59" fill="#ECF0F3"/><path d="M156.988 318.212l-6.116-3.916c-.14-.088-.323-.048-.412.09-.09.14-.05.324.09.412l6.116 3.916c.138.09.323.05.412-.09.09-.14.048-.323-.09-.412" fill="#5B61CE"/><path d="M152.494 318.8l-1.906-5.032-.28.106-.05.294 4.69.813c.16.03.316-.08.344-.24.028-.164-.08-.318-.243-.346-1.564-.27-3.127-.543-4.69-.814-.106-.018-.213.02-.28.104-.07.083-.09.195-.05.295l1.906 5.032c.058.154.23.232.385.173.155-.058.233-.23.174-.384M149.535 324.727c3.18-1.594 6.61-2.76 9.737-4.594 1.562-.918 3.03-1.997 4.373-3.214.122-.11.13-.3.02-.422s-.3-.13-.42-.02c-1.313 1.19-2.748 2.243-4.276 3.14-3.054 1.797-6.473 2.96-9.703 4.576-.147.074-.207.253-.133.4.074.147.253.206.4.133" fill="#5B61CE"/><path d="M163.798 294.163l5.13-3.03 2.226 1.3-5.128 3.032-2.228-1.302" fill="#E84E1B"/><path d="M163.986 294.326l.073.03 2.12.482-.224.453-2.1-.51c-.06-.02-.143-.016-.19.01l-.042.068.15.936-4.025-2.352 5.332.104-1.115.637c-.057.046-.042.108.02.143" fill="#1D1D1B"/><path d="M163.986 294.326l-.027.07.07.03.012.002 2.03.462-.156.314-2.042-.495-.018.07.026-.07-.11-.017c-.05 0-.098.008-.142.032l-.025.025-.044.067-.01.053.125.78-3.64-2.128 4.775.093-.88.503-.01.007c-.037.03-.063.074-.063.122 0 .065.042.115.092.144l.01.006.026-.07.038-.064-.017-.014v-.002H164h.004-.004.004-.003l.003.003v-.003h-.003l.003.002.01-.01-.05-.057.038.064 1.114-.636.036-.082-.07-.057-5.334-.102-.073.054.034.084 4.026 2.352.08-.003.03-.073-.144-.908.028-.043-.063-.04.037.065.067-.013.06.01h.008l2.1.51.085-.038.225-.452v-.066l-.05-.04-2.117-.482-.066-.027-.028.07.038-.065-.038.064" fill="#E84E1B"/><path d="M165.596 293.994l3.393-1.984.826.484-3.393 1.983-.827-.483" fill="#ECF0F3"/><path d="M209.263 268.802l5.128-3.03 2.23 1.3-5.13 3.032-2.227-1.302" fill="#93C01F"/><path d="M209.45 268.966l.074.03 2.122.48-.225.454-2.1-.51c-.06-.022-.142-.017-.188.01l-.044.067.15.936-4.024-2.352 5.332.105-1.114.637c-.057.046-.042.108.02.144" fill="#1D1D1B"/><path d="M209.45 268.966l-.026.07.072.028.01.003 2.03.462-.155.313-2.04-.495-.02.072.026-.07-.11-.018c-.05 0-.097.01-.14.033l-.026.024-.044.066-.01.052.124.78-3.642-2.127 4.777.094-.88.503-.01.007c-.037.03-.063.074-.063.122 0 .065.042.115.092.144l.01.005.027-.07.04-.064-.018-.013v-.002h-.006.005-.004.005-.002l.003.003v-.002h-.002l.003.002.01-.01-.048-.056.037.064 1.113-.636.036-.083-.072-.056-5.333-.103-.074.054.036.086 4.024 2.35.08-.002.03-.073-.144-.907.03-.043-.064-.04.037.064.066-.013.06.01.007.003 2.1.51.085-.04.225-.452v-.065l-.05-.04-2.117-.482-.067-.027-.03.07.04-.065-.04.066" fill="#93C01F"/><path d="M211.06 268.633l3.393-1.984.828.483-3.392 1.983-.828-.483" fill="#ECF0F3"/><path d="M105.393 320.43l-18.15 10.532 54.808 31.66 18.235-10.483-18.298-10.57-9.148 5.27-11.106-6.41 9.174-5.26-25.515-14.74" fill="#7A7291"/><path d="M160.285 352.14l-18.234 10.48 8.388 4.846 18.152-10.53-8.305-4.797" fill="#867D98"/><path d="M210.592 251.843L80.31 326.987l-9.135-5.277 130.246-75.165 9.172 5.298" fill="#CCCCCD"/><path d="M76.458 321.572c.626.064 1.103.41 1.066.775-.037.365-.575.608-1.2.544-.626-.063-1.104-.41-1.066-.774.037-.365.574-.608 1.2-.544" fill="#EB5C55"/><path d="M78.857 320.168c.626.064 1.103.412 1.066.776-.037.364-.575.608-1.2.544-.626-.064-1.104-.412-1.067-.776.038-.364.575-.608 1.2-.544" fill="#F8BB31"/><path d="M81.256 318.765c.626.064 1.103.41 1.066.775-.037.365-.575.608-1.2.544-.627-.064-1.104-.41-1.067-.775.038-.365.575-.61 1.2-.545" fill="#6EB647"/><path d="M108.982 305.216c-.847-.247-2.37-.69-2.754-.786-.54-.135-1.05-.166-1.764.304-.713.47-20.053 11.78-20.492 12.026-.44.246-.55.24-.357.616.19.376 1.262 1.743 1.262 1.743l-9.05 5.248 4.806 2.776L210.866 252l-4.808-2.776-97.076 55.992" fill="#E8E6E6"/><path d="M157.986 371.857l.033 3.444-86.8-50.156.014-3.418 86.752 50.13" fill="#B8BEC6"/><path d="M288.296 300.22l-130.31 75.068.015-3.417 130.31-75.068-.014 3.417" fill="#868C96"/><path d="M156.755 350.1l-18.143 10.536 11.835 6.836 18.198-10.504-11.89-6.868" fill="#5B5E67"/><path d="M154.33 357.466l-.015.152c.785.08 1.48.332 1.967.67.49.34.76.753.76 1.15l-.006.092c-.037.37-.304.702-.758.95-.452.248-1.08.398-1.778.398-.168 0-.34-.008-.516-.026-.785-.08-1.48-.333-1.967-.67-.49-.34-.76-.754-.76-1.15l.005-.092c.037-.37.304-.703.76-.952.45-.247 1.077-.397 1.776-.397.168 0 .34.01.516.028l.032-.304c-.186-.02-.37-.028-.548-.028-.742 0-1.414.157-1.924.435-.507.277-.863.686-.915 1.188-.006.04-.008.083-.008.123.002.542.354 1.03.892 1.402.54.373 1.278.638 2.11.723.185.02.367.028.546.028.743 0 1.415-.157 1.924-.434.508-.277.864-.686.916-1.19.004-.04.007-.08.007-.122-.003-.54-.354-1.03-.892-1.4-.54-.373-1.278-.64-2.11-.724l-.015.152" fill="#B1B1B1"/><path d="M153.074 360.072l2.23-1.278c.074-.042.1-.135.057-.208-.04-.073-.134-.1-.207-.056l-2.23 1.278c-.074.04-.1.135-.058.208.042.073.135.098.21.056" fill="#B1B1B1"/><path d="M152.794 358.715l2.448 1.414c.073.04.166.016.208-.057.042-.073.018-.166-.056-.208l-2.447-1.414c-.072-.04-.166-.016-.208.057-.043.073-.02.166.054.208" fill="#B1B1B1"/><path d="M80.638 327.05L210.844 252l6.466 3.734-130.463 75.03-6.21-3.715" fill="#2B2E32"/><path d="M217.34 255.75l.008.006-.01-.005m-6.456-3.73l4.93 2.85-4.93-2.85" fill="#302F37"/><path d="M217.31 255.734l-6.797 3.91.07.04 6.765-3.928-.01-.005-.028-.016" fill="#403B54"/><path d="M210.882 252.02l-6.765 3.93 6.396 3.693 6.797-3.91-6.428-3.712" fill="#1B1D1F"/><path d="M80.718 327.096l-.085.048-.024-.014-.013.007 5.5 3.178-5.38-3.22" fill="#302F37"/><path d="M105.104 320.264L86.86 330.757l.038.02 18.234-10.497-.028-.016" fill="#403B54"/><path fill="#666767" d="M80.693 327.08l-.084.05.023.014.085-.048-.025-.015"/><path d="M80.597 327.137l-.015.008 6.303 3.64.013-.007-.037-.02-.013.006-.75-.45-5.5-3.177" fill="#53575B"/><path d="M98.8 316.623L80.694 327.08l.025.016 6.13 3.668.013-.007 18.244-10.493-6.303-3.64" fill="#1B1D1F"/><path d="M150.457 367.478l130.088-75.17 7.75 4.477-130.31 75.072-7.528-4.38" fill="#2B2E32"/><path d="M108.906 333.036l-9.023 5.23 11.125 6.42 9.007-5.233-11.11-6.417" fill="#B9D0DE"/><path d="M108.687 336.296s-.185.55.245.76c.43.215 1.11.55 1.8.282l-1.5-1.107-.545.066" fill="#2C2E33"/><path d="M110.897 334.187l-2.236.576-.206.928.36.59.622.498 1.297.56.73.183 1.118.166-.052.175 1.858 1.217 1.91.413.48-.14-.14-1.848-5.74-3.315" fill="#EED2B7"/><path d="M109.67 333.478c-.563.216-1.07.54-1.232.965 0 0 .156-.178.888-.618.165-.1.366-.166.583-.21l-.24-.137" fill="#2C2E33"/><path d="M109.783 333.543l-1.043.547-.89.777s-.356.537-.172.908c.184.37 1.348.604 1.348.604s-.176-.16-.047-.43c.204-.426-.23-.485-.1-.67.127-.186-.07-.128.855-.128.926 0 .45-.035.62-.356.11-.21.45-.384.788-.467l-1.36-.787" fill="#925F36"/><path d="M114.64 336.348c.007.135.003.268-.024.37-.087.328-1.08.956-1.497 1-.12.012-.35-.006-.636-.044l.044.187.254.012s1.48.25 1.8.066c.323-.184.473-1.083.446-1.32l-.01-.05-.38-.22" fill="#BBAC9E"/><path d="M116.393 337.36c-.07.546-.366 1.467-.366 1.467s-1.384.01-2.086-.245c-.388-.14-1.412-.72-1.412-.72s-.927.785-1.21 1.143c-.28.358-.77 1.675-.704 1.862.064.187 2.23 2.534 2.432 2.626l7.033-4.003-3.687-2.13" fill="#FDCD55"/><path d="M121.734 340.43l9.176-5.26 11.105 6.383-9.176 5.286-11.106-6.41" fill="#ECF0F3"/><path d="M130.544 338.01l-3.805 2.224 2.525 1.46 3.836-2.208-2.556-1.477" fill="#EC6D54"/><path d="M134.166 345.332l-1.963 1.14.647.374 1.995-1.122-.68-.392" fill="#42B498"/><path d="M138.657 342.695l-3.805 2.225.685.396 3.836-2.207-.716-.415" fill="#F7BB40"/><path d="M127.902 343.988l1.865-1.102.18.104-1.864 1.102-.18-.104M128.32 344.23l1.38-.8.18.105-1.38.8-.18-.105M128.807 344.51l1.864-1.102.18.104-1.862 1.103-.18-.104M129.226 344.753l1.167-.662.18.106-1.167.66-.18-.103M129.644 344.994l1.987-1.157.18.104-1.985 1.158-.18-.104M129.71 341.98l2.187-1.32.264.154-2.186 1.32-.264-.153M130.564 342.474l3.714-2.213.18.105-3.714 2.213-.18-.104M130.982 342.715l3.23-1.91.18.105-3.23 1.91-.18-.105M131.47 342.997l3.712-2.214.18.104-3.713 2.213-.18-.103M131.887 343.238l3.018-1.772.18.105-3.017 1.773-.18-.105M132.305 343.48l3.837-2.268.18.104-3.836 2.268-.18-.104M132.724 343.72l3.345-1.992.18.105-3.345 1.993-.18-.105M133.21 344.003l3.76-2.224.18.104-3.76 2.223-.18-.104" fill="#868C96"/><path d="M128.332 341.154l.933.54-.933-.54m3.5-2.402l.593.343-.594-.343" fill="#F7F9F9"/><path d="M131.83 338.753l-1.325.833-.81-.197.015.833-.872-.19.094.674-.717-.132.117.58.933.538.544-.33-.428-.31 3.258-1.833-.215-.125-.594-.342" fill="#F7B6AA"/><path d="M124.097 341.79l2.54 1.468 1.974-1.135-2.556-1.477-1.957 1.144" fill="#42B498"/><path d="M126.276 340.774s.428 1.395-.46 2.01l.478.275c.852-.48 1.734-1.273 1.734-1.273l-1.752-1.013" fill="#A1DACC"/><path d="M127.067 343.505l.264.153.888-.523-.264-.153-.887.523" fill="#868C96"/><path d="M95.94 325.547l-9.055 5.24 11.248 6.602 8.9-5.436-11.093-6.407" fill="#FBC67F"/><path d="M98.244 326.877l-2.265.704-.19.85.33.538.57.455 1.184.51.667.17 1.023.15-.048.16 1.698 1.11 1.745.378.44-.127.092-1.865-5.246-3.03" fill="#EED2B7"/><path d="M97.117 326.227s-.857.552-1.066.74c-.207.185-.51.71-.51.71s-.05.813.12 1.15c.167.34 2.214 1.107 2.214 1.107s-.525-.374.823-.37c.434 0-1.353-.716-1.236-.885.118-.17-.362-.877-.362-.877s.275.1.43-.192c.1-.19.412-.35.97-.586l-1.38-.797" fill="#56423A"/><path d="M101.623 328.83c.007.135.004.267-.023.367-.087.33-1.08.96-1.497 1.002-.12.01-.35-.007-.635-.045l.044.187.254.01s1.48.25 1.8.067c.323-.185.473-1.083.446-1.32l-.01-.052-.38-.218" fill="#BBAC9E"/><path d="M102.437 329.3c-.025.36-.06.802-.668 1.29-.608.49-.79.422-1.492.168-.39-.14-.766-.416-.766-.416s-.927.786-1.21 1.144c-.28.358-.102 1.453-.038 1.64.064.188.377 3.738.578 3.83l2.232-1.363-.156-1.207 1.033.675 5.113-3.088-4.626-2.672" fill="#5B5E67"/><path d="M121.734 340.43l-8.902 5.316 11.09 6.438 8.904-5.347-11.092-6.408" fill="#99D6F1"/><path d="M123.903 342.672l-2.258 1.078-.167.753.293.478.504.404 1.052.454.592.148.906.134-.043.142 1.507.986 1.548.334 1.182-.22-.71-1.548-1.725-1.113s-.087-.288-.39-.63c-.303-.345-1.563-1.16-1.563-1.16l-.727-.238" fill="#E4C1A4"/><path d="M123.1 342.21c-.81.12-1.147.574-1.332.74-.185.165-.513.885-.513.885s-.213.958.352 1.402c.263.207 1.72.6 1.72.6s-1.888-1.244-.693-1.24c.385 0-.47-.274-.367-.424.103-.15 1.29-1.608 2.415-1.016.17.09-.618-.77.854.373 0 0-1.332-1.485-2.435-1.32" fill="#3C3C3B"/><path d="M126.415 344.367c.256.39.045.822.02.91-.076.294-.764.757-1.133.795-.105.01-.292.072-.545.038l.022.09.224.01s1.597.058 1.883-.105c.285-.163.133-.797.108-1.007l-.16-.15-.42-.58" fill="#BDA28A"/><path d="M128.75 347.2c-.024.318-1.744-1.034-2.282-.6-.54.432-.388.193-1.01-.032-.346-.124-.68-.368-.68-.368s-.822.696-1.072 1.014c-.25.318-.092 1.29-.034 1.455.056.165.334 3.314.513 3.396l1.98-1.21-.14-1.07.917.6 5.884-3.55-4.99-2.882-1.263.687 2.176 2.56" fill="#6597D0"/><path d="M118.082 327.716l-9.084 5.33 11.093 6.406 9.085-5.33-11.093-6.406" fill="#ECF0F3"/><path d="M115.205 336.63l1.628-.933.263.152-1.628.932-.263-.152M116.056 337.12l2.303-1.332.18.104-2.304 1.334-.18-.105M116.473 337.363l2.332-1.318.18.104-2.33 1.317-.182-.104M116.96 337.643l2.318-1.324.18.103-2.32 1.324-.18-.104M117.377 337.885l2.343-1.31.18.103-2.343 1.31-.18-.103M117.794 338.126l2.32-1.326.18.104-2.32 1.326-.18-.104M118.212 338.367l.867-.513.18.104-.868.513-.18-.103" fill="#5B5E67"/><path d="M111.53 334.526l3.216 1.858 2.324-1.323-3.223-1.86-2.316 1.326M121.296 336.335l2.07 1.196 4.88-2.86-2.055-1.188-4.894 2.853M108.97 333.028l.803.464 9.083-5.33-.788-.454-9.1 5.32" fill="#42B498"/><path d="M112.668 335.2l2.078 1.184 2.324-1.323-2.1-1.187-2.302 1.327" fill="#A0C86A"/><path d="M119.083 330.925l1.63-.932.262.152-1.628.932-.264-.152M119.574 331.21l1.63-.934.262.152-1.628.933-.264-.15M120.074 331.498l1.628-.933.264.152-1.63.933-.262-.152" fill="#5B5E67"/><path d="M116.36 333.234c-.323-.17-.573-.383-.717-.62l2.05-.325-1.332.944" fill="#DA4453"/><path d="M119.586 333.105c-.412.364-1.17.564-2.01.478-.15-.016-.298-.04-.44-.07l.558-1.224 1.892.815" fill="#5084C4"/><path d="M119.586 333.105c.184-.163.3-.36.32-.577.073-.707-.853-1.38-2.067-1.505-.665-.067-1.278.043-1.71.273l1.564.993 1.892.815" fill="#6EB647"/><path d="M115.643 332.614c-.104-.17-.153-.352-.134-.536.03-.32.263-.592.62-.782l1.564.993-2.05.324" fill="#A28FC3"/><path d="M117.137 333.512l.557-1.223-1.333.944c.228.118.49.213.777.278" fill="#F7BB40"/><path fill="#B8BEC6" d="M120.82 335.58c.188.02.33.124.32.233-.012.11-.173.183-.36.164-.19-.02-.333-.124-.32-.233.01-.11.17-.183.36-.164M121.54 335.158c.188.02.332.124.32.233-.01.11-.172.184-.36.165-.188-.02-.332-.124-.32-.233.01-.11.172-.183.36-.164M122.26 334.737c.19.02.333.123.322.232-.012.11-.173.182-.36.163-.19-.02-.333-.124-.322-.233.012-.11.173-.183.36-.163"/><path d="M105.1 320.292l-9.173 5.277 11.092 6.406 9.342-5.18-11.262-6.504" fill="#FFF"/><path d="M95.94 325.547l9.72 5.614 7.023-3.994-9.742-5.628-7 4.01" fill="#3AAED9"/><path d="M98.543 325.092l4.807 2.776.054 1.98-4.818-2.783-.043-1.973" fill="#8A2C33"/><path d="M100.814 323.78l4.806 2.776.02 3.993-4.818-2.784-.008-3.987" fill="#B83B46"/><path d="M102.737 322.706l4.807 2.776.02 3.994-4.82-2.783-.007-3.987" fill="#E95465"/><path d="M103.95 325.397l.293.17 2.374-1.363-.3-.173-2.368 1.367M104.523 325.73l.295.17 2.374-1.364-.3-.173-2.37 1.366M105.1 326.06l.293.17 2.374-1.362-.3-.173-2.368 1.366" fill="#FFF"/><path d="M113.013 326.025c.302.03.533.2.514.374-.017.175-.277.293-.58.262-.302-.03-.532-.198-.514-.374.018-.176.278-.293.58-.263" fill="#3AAED9"/><path d="M125.472 353.096l9.065-5.235 11.118 6.464-9.066 5.26-11.118-6.488" fill="#D3E7C9"/><path d="M135.05 348.148c-1.2.49-1.663 1.872-1.536 2.414.256 1.082 1.622 1.244 1.78 1.356l1.86.396s.477 1.227.484 1.27c.004.026 2.26-1.012 3.78-1.715l-6.37-3.722" fill="#463C39"/><path d="M136.573 349.04c-.186.197-.616.71-.832 1.393-.225.718-1.303.71-.854 1.176.3.31.884.503.884.503s1.283.453 2.164.638c0 0 .215 2.18 1.54 2.58.163.05 1.82-.054 1.82-.054s1.293-1.526 1.34-1.78c.08-.426-.05-.783-.266-1.072l-5.795-3.385" fill="#EED2B7"/><path d="M139.665 350.845c.132.447.277 1.05.17 1.26-.18.35-.644.575-.74.56-.094-.015-1.16.086-1.16.086s1.58.647 2.106.593c.526-.054.62-.848.677-1.125.03-.148-.318-.677-.65-1.14l-.402-.233" fill="#BBAC9E"/><path d="M144.275 355.167l-1.53-2.04-.207-.62s-.16.884-.237 1.062c-.226.517-.715 1.052-.957 1.308-.243.257-.737.374-1.088.365-.35-.01-1.146-.28-1.146-.28l-.358-.38.84 1.703s.528.6.85 1.043l3.833-2.163" fill="#5B5E67"/><path d="M141.74 356.596c-.538-.46-1.54-1.3-2.188-1.732-1.063-.71-1.604-2.135-1.604-2.135l-.327.542s-.803.816-1.237 1.477c-.467.71-.756 1.38-.468 1.798.174.252 1.583 1.452 2.286 2.044l3.54-1.996" fill="#E95465"/><path d="M139.122 358.073c-.603-.495-1.663-1.36-1.663-1.36s.956 1.328 1.142 1.578l.044.05.476-.267" fill="#DA4453"/><path d="M145.693 354.367l-4.88-2.85c.097.122 1.11.586 1.573 1.455.57 1.067 1.453 1.79 1.97 2.15l1.337-.755" fill="#E95465"/><path d="M143.727 342.578l-9.177 5.275 11.133 6.51 9.164-5.34-11.12-6.445" fill="#2C2E33"/><path d="M111.39 181.91l-1.416-.18-.68.9-.25.77-.093.778.117 1.117.15.488.306.626-.133.163-.103 2.038.436 1.208.27.045 1.363-2.123.033-5.83" fill="#EED2B7"/><path d="M111.396 180.66s-.74.262-.956.387c-.217.124-.712.598-.712.598s-.597.923-.77 1.39c-.173.467.11 2.26.11 2.26s.053-.667.595-.068c.175.192-.038-1.426.13-1.57.167-.147.475-1.178.475-1.178s.04.24.31-.034c.177-.178.416-.226.81-.252l.008-1.535" fill="#56423A"/><path d="M111.368 185.666c-.093.16-.19.312-.27.417-.27.345-1.12.634-1.318.5-.057-.037-.138-.16-.226-.33l-.115.237.094.124s.42.942.68.87c.262-.07.96-1.046 1.12-1.333l.03-.065.004-.42" fill="#BBAC9E"/><path d="M111.363 186.57c-.267.407-.596.904-1.188 1.203-.593.3-.62.14-.722-.463-.058-.335-.014-.82-.014-.82s-.934.503-1.303.794c-.368.29-1.67 2.334-1.777 2.58-.107.245-1.3 5.302-1.284 5.497l2.368-1.362.47-2.103.282 1.664 3.137-1.85.03-5.14" fill="#5B5E67"/><path d="M238.007 362.887v7.873l3.7.2v-7.167l-3.7-.906" fill="#2C2E33"/><path d="M245.154 372.687s-1.51 2.93-2.28 3.095c-.773.164-3.452 1.68-4.943.74-4.314-2.715-7.946-8.672-8.763-9.82-1.08-1.517-1.1-2.614.424-3.662 1.93-1.326 4.1-.617 4.1-.617l4.938 2.758 6.526 7.507M224.22 382.018s-.22 2.668-.905 3.063c-.683.395-2.732 2.515-4.47 2.23-3.58-.583-12.027-8.84-13.19-10.295-1.162-1.454.33-3.61 1.912-4.568 1.583-.96 3.846.08 3.846.08l4.18 3.606 8.626 5.885" fill="#2C2E33"/><path d="M235.075 351.498l-1.45 11.44-.165 1.966-.67 2.14s2.156 3.507 3.894 4.497c1.74.99 4.436 3.237 5.337 3.055.903-.183 3.113-2.715 3.113-2.715l2.254-9.647 3.993-11.8-16.305 1.065M220.59 339.538l-7.657 4.33-1.045 28.247.272 2.13-.753 2.957s2.11 4.805 3.174 4.805 6.623 4.748 9.878 1.22c.757-.82.33-7.07.33-7.07l1.502-2.58.33-26.27-6.03-7.77" fill="#42B498"/><path d="M212.71 352.353s.963.425 2.055.192c1.176-.252 2.543-.448 3.14-.175.985.447 21.147 12.81 24.125 12.982 2.977.173 24.732-10.805 24.43-12.928-.304-2.123-26.546-15.764-26.546-15.764l-27.204 15.693" fill="#2C2E33"/><path d="M259.166 344.664l-27.97-7.762s-1.878-.644-4.48-.975l-13.783 7.94c.02.442.078.71.078.71s21.04 11.79 23.574 12.667c4.408 1.523 14.616-1.786 17.835-3.58 3.218-1.793 4.746-9 4.746-9" fill="#42B498"/><path d="M244.215 291.506l-3.454-7.493s-.846-5.5-.208-7.72c.638-2.22 4.024-4.31 5.547-5.23 1.522-.92 9.38-1.847 11.417 1.567 1.277 2.14.255 6.424 0 6.6-.203.143-.63 6.795-.63 6.795s-3.208 3.332-3.358 5.2c-.14 1.74-.47 5.194-.47 5.194l-10.423 2.27 1.578-7.184" fill="#56423A"/><path d="M257.4 274.257s1.246 1.265 1.487 3.285c.28 2.342.28 10.09-1.84 11.785-1.513 1.212-2.104 1.176-2.104 1.176l-.606 2.378s-.424 4.1-2.497 4.773c-2.073.672-8.845-1.294-8.845-1.294l1.22-4.854s3.583.606 4.803.257c1.22-.35 2.287-1.886 3.125-2.584.838-.7 2.383-1.645 2.383-1.645s-.827-.82-1.037-2.877c-.21-2.058 1.52-2.77 2.11-2.006.59.762.93 1.44.93 1.44l.174-8.05.695-1.785" fill="#EED2B7"/><path d="M213.95 321.732l-1.322 5.112 3.125 3.18s2.986 1.3 5.018 1.03c2.032-.27 10.944-11.9 10.944-11.9s-1.036 16.712-2.706 19.55c-1.67 2.837-.702 4.613 3.146 6.784 3.85 2.17 17.967 1.62 17.967 1.62l12.223-14.603s10.25-20.34 10.106-20.408c-.144-.066-1.79-12.083-5.2-13.464-3.407-1.38-13.06-3.974-13.06-3.974l-9.975-.193s-10.163 1.393-12.218 3.4c-2.056 2.005-16.4 20.718-16.4 20.718l-1.646 3.147" fill="#5B5E67"/><path d="M223.336 329.185l9.947-14.793-2.124 8.773-3.62 1.59-4.204 4.43M260.82 318.28l.166-11.543 2.582 8.857-2.75 2.687" fill="#414447"/><path d="M249.936 324.608c.33-2.31 27.813-18.108 27.256-16.09-.557 2.018-10.733 43.906-10.733 43.906l-22.403 11.54s5.548-37.044 5.88-39.356" fill="#2C2E33"/><path d="M274.258 320.35s1.264 6.9.418 8.868c-.436 1.015-3.173 2.477-3.173 2.477l2.755-11.344" fill="#5B5E67"/><path d="M219.14 310.997s-.077-1.937 0-2.657.022-2.138-.4-1.85c-.424.287-.62.958-.807.958-.187 0 .13-3.23-.49-3.586-.622-.356-3.488-.963-4.293 0-.805.964-.926 2.73-.926 2.73l1.265 5.153 5.65-.748" fill="#EED2B7"/><path d="M212.36 325.327c-.146-1.884.573-12.78.573-12.78s.37-1.776 2.39-1.986c2.018-.21 3.817.437 3.817.437l.614 4.03-6.062 12.9-1.33-2.6" fill="#5B5E67"/><path d="M212.933 304.17s-.35.688-.71 1.342c-.36.654.118 3.595.118 3.595l1.012 2.55.38-.424s-.704-1.993-1.104-3.31c-.404-1.33.305-3.753.305-3.753" fill="#B7A587"/><path d="M236.776 371.618l-20.962 15.044-.452 2.806 23.13-15.297 13.135 19.038h1.615l-11.157-19.822 22.067 5.248-.91-1.898-22.702-7.14h-14.174l-.03 2.472 10.44-.45" fill="#2C2E33"/><path d="M219.176 389.2c0 1.382-1.122 2.503-2.505 2.503-1.382 0-2.504-1.12-2.504-2.503 0-1.382 1.122-2.502 2.505-2.502 1.384 0 2.506 1.12 2.506 2.502M254.903 394.703c0 1.382-1.12 2.503-2.504 2.503-1.385 0-2.506-1.12-2.506-2.503 0-1.38 1.12-2.502 2.505-2.502 1.382 0 2.503 1.122 2.503 2.503M265.028 380.156c0 1.383-1.12 2.503-2.504 2.503s-2.505-1.12-2.505-2.504c0-1.382 1.12-2.502 2.504-2.502 1.383 0 2.504 1.12 2.504 2.502" fill="#2C2E33"/><path d="M240.535 295.052s1.43-.42 2.004-1.31c.574-.89-1.197-1.89-.85-2.038.35-.148 2.575-.495 4.188-.316 1.44.16 12.716-.58 13.18.862.252.783-2.064 1.606-2.03 2.064.083 1.17 1.325 1.568 1.325 1.568h-8.638l-9.18-.83" fill="#5B5E67"/><path d="M253.83 175.098c-.26-2.532 27.432-11.74 28.436-8.62 1.004 3.118 2.357 30.997 2.357 30.997l-25.565 14.742s-4.86-33.478-5.23-37.12" fill="#2C2E33"/><path d="M264.99 208.796l-1.384.8.01.008 1.382-.797-.007-.01" fill="#514D5D"/><path d="M264.998 208.807l-1.382.797 3.34 3.4.574-.33-2.532-3.867" fill="#AEAEAE"/><path d="M267.53 212.674l-.574.33 2.37 2.413-1.796-2.743" fill="#C5C4C4"/><path d="M264.924 208.694l-1.623.59.306.31 1.385-.798-.066-.102" fill="#25272B"/><path d="M298.12 189.666l-3.19 1.79.063.04 3.153-1.82-.026-.01" fill="#514D5D"/><path d="M316.22 197.513l-6.256 3.598 1.648 1.065 3.006.847 4.234.93 1.47-4.662-4.1-1.777" fill="#B4C5AB"/><path d="M298.146 189.677l-3.153 1.82 4.29 2.723.114.074 4.033-2.326-5.284-2.29" fill="#AEAEAE"/><path d="M303.43 191.968l-4.033 2.326 4.513 2.912 4.98-2.87-5.46-2.368" fill="#C5C4C4"/><path d="M308.89 194.335l-4.98 2.87 6.054 3.906 6.257-3.597-7.33-3.178" fill="#25272B"/><path d="M274.167 211.357l.674 1.58s1.757 2.223 1.892 2.556c.142.35-.027.702-.027.702s1.195.78 1.477 1.706c.28.927-1.405 1.965-1.405 1.965s-2.247.515-4.072-.28c-.434-.19-2.586-4.258-2.586-4.258l-1.242-2.258 1.56-3.786 3.73 2.073M272.746 157.78l7.695-5.265 2.742.865.998 1.835 1.08 3.37-1.046 3.256-.79 2.17-1.26 3.172.538.127.373 6.694-1.805 5.613-2.92 3.398-3.67-5.175-.607-7.395s-.126-.317-.54-1.404c-.107-.28-.434-.943-.546-1.275-.545-1.617-1.12-6.64-1.12-6.64l.88-3.345" fill="#D6B195"/><path d="M273.533 169.04c.782 1.555 3.067 2.15 3.4 2.24 1.09.298 3.372-1.525 4.184-2.644.232-.318.776-.807 1.14-1.686l.248.235-.39.743s-2.79 5.26-3.848 5.876c-1.06.617-2.865-1.09-3.498-1.56-.042-.03-.263-.71-.31-.758l-.927-2.445" fill="#AA8E78"/><path d="M278.326 181.85c1.074.522-.1-4.95 1.635-7.09 1.62-2.002 2.036-2.27 2.47-4.698.242-1.347.075-2.877.075-2.877s3.742-.72 5.234-.934c1.492-.212 4.376 1.48 4.806 1.973.43.493 6.985 11.196 6.914 11.924l-4.5.192-3.2-2.444-.36 15.666-19.83 11.44-2.244-14.345-.445 7.768 1.46 7.145-5.416 3.124s-4.2-5.874-4.627-8.917c-.427-3.044 2.82-19.714 2.82-19.714s2.177-4.657 5.764-6.902c1.92-1.2 5.193-2.715 5.193-2.715l4.253 11.404" fill="#6597D0"/><path d="M269.466 201.287l5.406 9.47-.54.99s-1.705-.165-2.465.3c-.76.467-2.07 2.14-2.07 2.14l.543 1.653-1.015-.423-4.4-6.723-1.398-6.127 5.94-1.28" fill="#6597D0"/><path d="M285.265 154.335l-.016-.002c-.704-2.615-3.378-3.496-3.378-3.496s-3.437-.68-4.316-.39c-.88.287-2.98.53-4.88 2.917-2.584 3.25-.084 12.73-.084 12.73-.95-6.877.536-2.6.564-3.315.075-1.898.584-3.432 1.974-3.988 1.98-.793 1.143 1.636 1.548 1.242 1.342-1.306 2.323-2.02 2.532-2.035.68-.054-.832 4.07.206 3.08 2.415-2.3 3.09-2.173 4.024-2.526.46-.174-.627 5.006-.627 5.006s.624-1.54 1.256-3.212c.18-.24.355-.436.444-.432.45.023-.088 1.14-.21 1.526-.156.483-.59 1.768-.597 1.79-.007.022 1.26-2.593 1.658-3.88.564-1.825.06-4.995-.1-5.017" fill="#3C3C3B"/><path d="M290.164 167.116l5.03 5.32 8.444 13.027 14.748 10.674s-.504 2.958-1.647 3.886c-1.143.928-3.774 2.152-3.774 2.152l-12.7-8.522-3.366-4.222-6.088-6.827-.648-15.487" fill="#6597D0"/><path d="M312.523 198.793s.32-2.048.786-2.06c.466-.01 3.366-1.098 3.366-1.098l1.71.502s3.677 2.998 4.014 3.43c.337.433.225 2.11 0 2.505-.224.395-2.832 2.58-3.548 1.88-.717-.7-2.66-1.88-2.66-1.88s1.188 1.175 0 1.228c-1.184.052-3.67-4.507-3.67-4.507" fill="#D6B195"/><path d="M275.827 214.307l1.608-1.484 1.675-.346-.7 1.554-1.678 1.463-.503-.546-.403-.64" fill="#E84E1B"/><path d="M274.49 215.4l-1.15-.94-.004 1.166s.39.864 1.373 1.255c.982.393 2.697-.112 2.697-.112s-.408-.774-.702-.573c-.878.6-2.215-.794-2.215-.794M272.4 219.143l1.584.41h2.023l1.664-.41s-.212.615-.893.722c-.68.107-2.405.38-3.44 0-1.036-.38-.937-.722-.937-.722" fill="#AA8E78"/><path d="M274.49 215.4l-4.427 4.034 1 1.258 4.587-4.47-.6-.345-.56-.476" fill="#E84E1B"/><path d="M268.878 195.318c.218-.652.322-7.935.322-7.935l2.667 5.936 1.68 2.315.668 5.652 3.998-.12-6.644 3.834-1.933-12.356-.76 2.674M291.4 193.562l.033-10.547 1.665 2.153-2.3-6.744-1.125 4.36.49 7.822-3.204 5.586 4.44-2.63" fill="#5084C4"/></g></svg>