<svg width="502" height="451" viewBox="0 0 502 451" xmlns="http://www.w3.org/2000/svg" xmlns:xlink="http://www.w3.org/1999/xlink"><title>illu_meeting_b</title><defs><path id="a" d="M.392 5.45L9.457.22V13.03L.383 18.262l.01-12.81"/><path id="c" d="M9.457.317L.404 5.55.38 18.45l9.068-5.214.01-12.92"/><path id="e" d="M.376 5.405L9.454.168l.003 12.81-9.085 5.226.004-12.8"/><path id="g" d="M18.39.39L.238 10.92l63.197 36.506 18.15-10.53-26.6-15.367-9.15 5.27-11.105-6.41 9.175-5.26L18.39.39z"/></defs><g fill="none" fill-rule="evenodd"><path d="M501.655 268.152L315.65 160.905.11 342.685 186.113 449.93l315.542-181.778" fill="#5F5B6D"/><path d="M388.194 229.05l-93.087 53.96-38.95-22.482h-.002l46.422 26.826.032 3.445-49.42-28.558-12.367 7.15 31.75 18.452-.147.084 8.134 4.583-24.944 14.37 49.36 28.32 133.604-77.24-50.386-28.91M111.543 345.013l36.604 21.152-6.11-3.548-30.494-17.604m129.643-29.822l-90.772 52.285 7.568 4.373.032 3.445-50.225-29.024-40.18 23.228 89.33 51.253 133.604-77.24-49.358-28.32" fill="#585465"/><path d="M315.675 160.96L315.748.676.366 182.59.293 342.876 315.675 160.96" fill="#B8BEC6"/><path d="M232.52 107.91L102.29 183.088l.04 73.037 130.16-74.663.027-73.552" fill="#ECF0F3"/><path d="M102.32 231.698l.003 24.67 18.206-10.508v-.173l-18.198 10.438-.013-24.427" fill="#919599"/><path d="M120.53 172.895l-15.578 8.99-2.64 1.526v.572l9.08-5.238v12.97l-9.04 5.204-.04-11.9v1.805l.02 69.302 18.197-10.438v-72.792" fill="#ABAEB0"/><path d="M102.282 175.638l130.382-75.116V89.976L102.28 165.048v10.59" fill="#CCCCCD"/><path d="M112.36 164.467c.21-.856.59-2.396.7-2.776.152-.534.38-.992 1.146-1.374.764-.382 20.253-11.454 20.686-11.71.433-.26.484-.355.713 0 .23.352.88 1.963.88 1.963l96.153-55.24v5.552l-130.355 75.072v-5.55l10.078-5.937" fill="#E8E6E6"/><path d="M99.355 263.63l2.97 1.753-.017-100.23-2.97-1.7.017 100.177" fill="#CCD3DB"/><path d="M102.308 165.152l130.33-75.177-2.97-1.698-130.33 75.177 2.97 1.698" fill="#E9E9EB"/><path d="M102.308 183.985l9.085-5.24v12.968l-9.04 5.205-.045-12.933" fill="#FBC67F"/><path d="M135.7 177.213l21.996-12.5v16.73L135.7 194.152v-16.937" fill="#5084C4"/><path d="M191.43 199.224l21.998-12.5v6.73l-21.997 12.708v-6.938" fill="#F7BB40"/><path d="M163.75 215.1l21.997-12.5v6.73L163.75 222.04v-6.94" fill="#42B498"/><path d="M135.718 231.218l21.997-12.5v6.73l-21.997 12.71v-6.94" fill="#A28FC3"/><path d="M111.393 207.207l9.136-5.26v12.797l-9.137 5.27v-12.807" fill="#2C2E33"/><path d="M102.324 240.798L120.52 230.3v13.665l-18.196 10.56V240.8" fill="#5B5E67"/><path d="M109.796 241.684l-.14-.062c-.295.658-.44 1.323-.44 1.913 0 .415.072.793.217 1.106.146.313.37.563.672.698.163.073.338.108.515.108.473 0 .962-.237 1.41-.628.446-.393.853-.948 1.153-1.613.296-.658.44-1.323.44-1.914 0-.413-.07-.79-.217-1.104-.145-.313-.37-.563-.67-.697-.164-.074-.34-.11-.517-.11-.473.002-.962.237-1.41.63-.446.392-.854.946-1.153 1.612l.278.125c.283-.63.668-1.15 1.077-1.51.41-.36.84-.553 1.207-.55.138 0 .268.026.39.08.223.1.397.286.52.548.122.26.188.597.188.976 0 .542-.134 1.168-.414 1.79-.282.628-.667 1.15-1.077 1.508-.41.36-.84.554-1.207.553-.138 0-.268-.026-.39-.08-.223-.1-.397-.286-.52-.548-.122-.262-.188-.597-.188-.977 0-.54.134-1.167.413-1.788l-.14-.063" fill="#B1B1B1"/><path d="M112.53 241.638l-2.224 1.29c-.073.043-.098.136-.055.21.043.072.137.097.21.054l2.225-1.29c.073-.043.097-.136.055-.21-.042-.072-.136-.097-.21-.054" fill="#B1B1B1"/><path fill="#B1B1B1" d="M111.343 240.98v2.826c0 .084.068.153.153.153.084 0 .152-.07.152-.154v-2.825c0-.084-.068-.152-.152-.152-.085 0-.153.068-.153.153"/><path d="M232.638 100.882l-130.346 75.075v7.465l130.372-75.328-.026-7.212" fill="#2B2E32"/><path d="M232.638 100.882l-7.93 4.567v7.242l7.956-4.598-.026-7.212" fill="#1B1D1F"/><path d="M120.536 172.88l-12.07 6.974 12.063-6.962v.003l.006-.004v-.01" fill="#686B6D"/><path d="M120.53 172.892l-12.063 6.962-3.515 2.03 15.577-8.99v-.002" fill="#4E5052"/><path d="M120.536 165.46l-18.244 10.497v7.463l2.66-1.535 15.584-9.004v-7.42" fill="#1B1D1F"/><path d="M232.638 181.503l-130.306 74.933v8.95l130.332-75.175-.026-8.707" fill="#2B2E32"/><path d="M102.31 198.328l9.08-5.236.003 12.81-9.085 5.226.003-12.8" fill="#B9D0DE"/><path d="M111.393 221.365l-9.054 5.233-.025 12.9 9.068-5.213.01-12.92" fill="#D3E7C9"/><path d="M148.492 190.662l-12.843 7.065v1.748l12.842-7.065v-1.748M156.662 191.212l-21.013 12.095v1.196l21.012-12.095v-1.196M155.382 194.67l-19.733 11.385v1.196l19.732-11.385v-1.196M156.848 196.605l-21.2 12.198V210l21.2-12.2v-1.195M153.86 201.104l-18.21 10.447v1.197l18.21-10.447v-1.196M157.326 201.812L135.65 214.3v1.195l21.676-12.487v-1.196M155.382 205.66l-19.733 11.387v1.196l19.732-11.386v-1.196M157.326 207.308l-21.677 12.487v1.197l21.676-12.488v-1.196M151.254 213.592l-15.605 8.952v1.196l15.604-8.952v-1.196M177.196 174.01l-12.844 7.064v1.748l12.844-7.065v-1.748M185.366 174.558l-21.014 12.095v1.197l21.014-12.095v-1.197M184.086 178.016l-19.734 11.386v1.196l19.734-11.387v-1.194M185.552 179.952l-21.2 12.198v1.196l21.2-12.2v-1.194M182.563 184.45l-18.21 10.448v1.196l18.21-10.447v-1.197M186.03 185.16l-21.678 12.486v1.196l21.678-12.488v-1.195M179.478 191.607l-15.126 8.787v1.196l15.126-8.787v-1.196M204.434 158.255l-12.844 7.065v1.748l12.844-7.065v-1.748M212.604 158.805L191.59 170.9v1.196L212.604 160v-1.195M211.324 162.262l-19.734 11.386v1.196l19.734-11.386v-1.196M212.79 164.198l-21.2 12.198v1.196l21.2-12.198v-1.196M209.802 168.697l-18.212 10.447v1.196l18.212-10.447v-1.196M213.268 169.405l-21.678 12.487v1.196l21.678-12.487v-1.195M211.324 173.254L191.59 184.64v1.197l19.734-11.387v-1.196M204.254 180.027l-12.664 7.362v1.194l12.664-7.36v-1.197" fill="#868C96"/><path d="M191.43 145.48l21.998-12.498v16.73L191.43 162.42v-16.94" fill="#EC6D54"/><path d="M213.428 137.114l-12.8 6.972v5.774l-2.404 4.198-4.17-5.685-2.623 1.437v9.314l14.606-8.18-1.196-5.396 8.588-1.448v-6.986" fill="#F7B6AA"/><path d="M209.534 151.73l.052-3.93-1.775.778.015 4.14 1.71-.988" fill="#DA4453"/><path d="M163.75 160.93l21.997-12.498v16.73L163.75 177.87v-16.94" fill="#42B498"/><path fill="#F7F9F9" d="M185.747 156.953v2.506l.153-2.103s-.052-.16-.153-.404"/><path d="M163.75 162.402v11.606s11.234-3.625 15.126-7.84c-.477-.19-.966-.387-1.462-.59-.357-.146-.72-.296-1.083-.448-1.407 1.03-2.85 1.425-4.232 1.425-4.49 0-8.348-4.153-8.348-4.153m15.046-.37c-.394.897-.905 1.733-1.637 2.413l-.182.163c.764.317 1.514.62 2.236.906-.226-1.22-.398-2.464-.417-3.465v-.018m6.77-5.483l-.315 2.645c.17.056.334.144.495.264v-2.507c-.05-.118-.11-.255-.18-.404m-2.326-2.098c-.467 0-.993.215-1.573.762.678-.258 1.718-.366 2.58-.41-.297-.216-.633-.352-1.006-.352" fill="#A1DACC"/><path d="M155.155 172.98l-1.403 3.94-3.086-2.404-1.558 4.877-4.103-2.474-1.353 4.59-7.952 4.272v5.274l18.473-10.915.313 3.018 3.21-1.754v-6.18l-2.54-2.245" fill="#A8C2E2"/><path d="M152.238 162.84l-16.585 9.468v2.97l16.585-9.47v-2.97" fill="#868C96"/><path d="M120.552 227.362l-9.155 5.19v-11.19l9.155-5.265v11.265" fill="#8978B5"/><path d="M120.552 228.995l-9.17 5.29.015-1.732 9.155-5.265v1.707" fill="#A28FC3"/><path d="M118.7 219.483l-2.23 1.232v.304l2.23-1.232v-.305M120.232 219.607l-3.763 2.13v.207l3.762-2.13v-.207M119.73 220.376l-3.26 1.858v.208l3.26-1.858v-.208M120.232 220.66l-3.763 2.126v.208l3.762-2.127v-.208M119.504 221.557l-3.035 1.742v.207l3.034-1.742v-.208M120.34 221.557l-3.87 2.207v.208l3.87-2.207v-.208M119.86 222.31l-3.39 1.918v.208l3.39-1.918v-.208M120.264 222.644l-3.795 2.164v.208l3.794-2.164v-.208M119.73 223.434l-3.26 1.858v.208l3.26-1.858v-.208" fill="#ECF0F3"/><path d="M115.88 220.922v7.224l-4.483 2.656v-7.24l4.484-2.64" fill="#FFF"/><path d="M112.407 224.325l1.232.46 2.24-1.07v1.62c-.408.488-.736.99-.97 1.396-.56.965-3.513 2.458-3.513 2.458v-3.18l1.01-1.683" fill="#6597D0"/><path d="M115.88 224.494v3.652l-4.483 2.656v-4.057l4.484-2.25" fill="#ACDEF9"/><path d="M102.327 212.436l9.066-5.23v12.808l-9.074 5.235.007-12.814" fill="#99D6F1"/><g transform="translate(101.935 206.986)"><mask id="b" fill="#fff"><use xlink:href="#a"/></mask><path d="M5.74 4.274L8.1 2.66l.84.264.308.563.11.73-.15 1.298-.193.67-.385.972.164.04.114 2.052-.553 1.72-.896 1.043-1.126-1.587-.116-2.343s-.236-.25-.403-.747c-.167-.496-.255-2.21-.255-2.21l.18-.852" fill="#E4C1A4" mask="url(#b)"/><path d="M5.74 3.216c.583-.732 1.227-.806 1.497-.894.27-.09 1.17 0 1.17 0s1.072.337 1.188 1.15c.054.38-.388 2.043-.388 2.043s-.045-1.574-.187-1.52c-.286.108-.797.024-1.538.73-.318.303.45-.917.24-.9-.063.004-.364.223-.775.623-.125.12.132-.624-.475-.38-.427.17-.674.672-.697 1.254-.008.22-.41-1.052-.12 1.057 0 0-.707-2.167.086-3.164" fill="#3C3C3B" mask="url(#b)"/><path d="M5.982 7.728c.24.476.788.513.89.542.335.09 1.187-.324 1.436-.667.07-.097.238-.247.35-.517l.076.072-.12.228S7.76 9 7.434 9.188c-.325.19-.866-.324-1.06-.468l-.055-.243-.338-.75" fill="#BDA28A" mask="url(#b)"/><path d="M7.452 11.655c.33.16-.03-1.518.502-2.174.496-.613.624-.695.757-1.44.075-.413.024-.882.024-.882s1.16-.414 1.618-.48c.458-.065 1.33.647 1.46.798.133.15 3.093 2.228 3.07 2.45l-2.328 1.266-.982-.75.065 1.315-8.9 5.083.507-5.453S3.967 9.664 4.42 9.23c.503-.48 1.743-1.19 1.743-1.19l1.29 3.615" fill="#6597D0" mask="url(#b)"/></g><path d="M111.393 193.095l9.118-5.272v12.808l-9.117 5.273v-12.808" fill="#ECF0F3"/><path d="M113.005 198.805l-1.616.956v.305l1.615-.956v-.305M113.717 199.405l-2.297 1.345v.208l2.297-1.344v-.21M113.717 199.888l-2.297 1.377v.208l2.297-1.377v-.208M113.717 200.448l-2.297 1.364v.208l2.297-1.364v-.208M113.717 200.93l-2.297 1.392v.208l2.297-1.39v-.21M113.717 201.412l-2.297 1.363v.208l2.297-1.363v-.208M112.263 202.752l-.874.502v.208l.873-.502v-.208" fill="#5B5E67"/><path d="M113.733 194.19v3.713l-2.297 1.37v-3.724l2.297-1.36M119.913 198.623v2.39l-4.898 2.832v-2.372l4.898-2.85M120.51 187.823v.894l-9.117 5.272-.004-.898 9.12-5.27" fill="#42B498"/><path d="M113.748 195.51l-.015 2.393-2.297 1.37.02-2.413 2.292-1.35" fill="#A0C86A"/><path d="M120 192.407l-1.614.956v.304l1.615-.956v-.303M120 192.973l-1.614.956v.304l1.615-.956v-.305M120 193.55l-1.614.956v.304l1.615-.956v-.304" fill="#5B5E67"/><path d="M117.74 194.226c.017-.364-.043-.687-.176-.93l-1.3 1.625 1.477-.694" fill="#DA4453"/><path d="M116.023 196.968c.52-.178 1.07-.74 1.413-1.51.062-.14.115-.28.158-.42l-1.33-.117-.24 2.048" fill="#5084C4"/><path d="M116.023 196.968c-.232.08-.457.083-.656-.006-.646-.285-.766-1.423-.268-2.54.272-.612.672-1.09 1.085-1.352l.078 1.85-.24 2.048" fill="#6EB647"/><path d="M117.564 193.297c-.095-.175-.227-.307-.395-.38-.293-.13-.644-.063-.985.153l.078 1.85 1.3-1.623" fill="#A28FC3"/><path d="M117.594 195.04l-1.33-.12 1.477-.694c-.01.256-.058.53-.146.813" fill="#F7BB40"/><path fill="#B8BEC6" d="M116.81 199.354c-.078.173-.06.35.04.394.1.044.244-.06.322-.233.077-.173.058-.35-.042-.394-.1-.043-.243.06-.32.234M116.087 199.773c-.077.173-.06.35.04.394.1.044.244-.06.322-.233.076-.173.058-.35-.043-.394-.1-.044-.243.06-.32.233M115.364 200.192c-.077.173-.058.35.04.394.1.044.245-.06.322-.234.077-.173.06-.35-.04-.393-.1-.045-.245.06-.322.232"/><path d="M111.393 178.744l9.138-5.27V186.4l-9.137 5.313v-12.97" fill="#FFF"/><path d="M118.386 174.697v11.327l-6.993 3.994v-11.274l6.993-4.047" fill="#3AAED9"/><path d="M111.385 182.485l.007 5.45 1.457-2.358v-5.602l-1.465 2.51" fill="#8A2C33"/><path d="M118.993 185.003c-.124.276-.094.56.066.635.16.076.39-.086.514-.36.123-.277.094-.56-.067-.636-.16-.076-.39.086-.514.36" fill="#3AAED9"/><path d="M112.46 182.615v5.568l1.956-3.324v-5.603l-1.956 3.358" fill="#B83B46"/><path d="M114.016 181.804v5.568l1.956-3.324v-5.602l-1.956 3.358" fill="#E95465"/><path d="M117.528 180.178v.342l-2.365 1.353v-.347l2.365-1.348M117.528 180.845v.342l-2.365 1.352v-.348l2.365-1.347M117.528 181.513v.34l-2.365 1.352v-.347l2.365-1.345" fill="#FFF"/><path d="M185.396 167.465c-.426-.035-1.063-.176-1.832-.403-2.7-.793-7.057-2.612-11.036-4.36-3.983-1.75-7.588-3.43-8.86-3.964-.187-.078-.4.01-.48.195-.078.186.01.4.196.478.706.298 2.197.978 4.084 1.83 2.83 1.28 6.563 2.954 9.946 4.338 1.693.693 3.297 1.313 4.662 1.776 1.37.464 2.486.773 3.26.84.2.016.378-.134.395-.335.017-.202-.132-.378-.333-.395" fill="#5B61CE"/><path d="M180.4 150.06c-4.593 7.115-6.756 13.158-11.3 20.19-.603.933-1.322 2.126-1.964 3.353-.643 1.227-1.208 2.484-1.5 3.567-.054.195.062.395.257.448.195.052.396-.063.448-.258.268-.992.815-2.22 1.444-3.42.628-1.2 1.338-2.377 1.93-3.293 4.593-7.115 6.756-13.158 11.3-20.19.11-.17.062-.397-.108-.506-.17-.108-.396-.06-.505.11" fill="#5B61CE"/><path d="M157.08 212.26c-.722-1.226-1.72-2.25-2.92-2.992-.087-.053-.192-.068-.29-.042-.096.026-.18.092-.226.18-.687 1.288-1.295 2.605-1.82 3.94l.34.132.328-.16c-.446-.906-1.103-1.675-1.918-2.243-.093-.064-.212-.082-.32-.048-.11.034-.195.118-.233.225l-1.872 5.216.344.123.315-.184c-.464-.788-.757-1.194-1.1-1.553-.34-.357-.697-.646-1.327-1.26-.094-.09-.23-.124-.356-.09-.125.037-.223.14-.254.266-.17.693-.21 1.486-.308 2.24-.095.756-.25 1.463-.582 1.962l.305.2.34-.135c-.142-.36-.352-.636-.586-.84-.355-.31-.742-.473-1.08-.653-.34-.18-.63-.365-.87-.69-.086-.115-.23-.17-.37-.14-.14.028-.25.135-.282.275-.162.71-.502 1.544-.85 2.39-.345.847-.7 1.705-.883 2.504l.357.082.286-.228c-.478-.596-1.128-1.093-1.713-1.605-.588-.51-1.1-1.03-1.338-1.596-.064-.15-.218-.24-.38-.22-.16.02-.29.142-.318.302-.172 1.008-.412 1.79-.69 2.587-.278.797-.596 1.612-.907 2.66l.35.104.047-.36-.026.203.12-.17c-.015-.01-.05-.028-.094-.034l-.026.203.12-.17-.064.09.078-.078-.014-.01-.064.088.078-.078c-.02-.017-.085-.15-.134-.323-.078-.26-.148-.612-.208-.927-.03-.158-.058-.307-.086-.436-.03-.133-.052-.237-.096-.344-.08-.186-.293-.273-.48-.195-.185.08-.272.294-.194.48.003.005.02.06.038.135.063.265.14.764.248 1.207.055.224.115.435.198.62.043.092.09.18.162.263.07.08.183.175.35.198.177.024.346-.085.397-.258.303-1.016.613-1.812.898-2.627.285-.815.54-1.647.72-2.707l-.36-.06-.337.142c.324.755.926 1.332 1.53 1.862.61.527 1.23 1.013 1.623 1.51.087.11.23.16.367.128.136-.03.244-.138.275-.275.162-.71.5-1.545.85-2.39.345-.848.698-1.706.883-2.505l-.356-.08-.294.215c.222.302.482.518.74.684.386.25.76.396 1.05.58.29.185.5.375.656.757.05.127.167.215.303.228.134.014.266-.05.34-.162.44-.67.594-1.48.697-2.27.1-.787.145-1.567.293-2.16l-.355-.088-.255.262c.647.63 1.015.93 1.308 1.24.292.308.543.648 1 1.42.07.122.207.19.348.178.142-.013.262-.107.31-.24.82-2.28 1.054-2.937 1.873-5.217l-.345-.123-.21.3c.712.496 1.288 1.168 1.68 1.965.065.13.2.21.344.204.143-.006.27-.098.324-.232.515-1.307 1.112-2.598 1.785-3.862l-.324-.17-.192.31c1.1.68 2.013 1.615 2.675 2.74.1.173.325.23.5.13.173-.104.23-.327.13-.5" fill="#E84E1B"/><path d="M210.998 149.4c-.1-.25-.27-.466-.482-.626-.21-.16-.468-.268-.753-.27-.13 0-.267.025-.396.08-.193.08-.34.208-.457.34-.116.133-.204.273-.28.4-.306.508-.573 1.04-.8 1.587-.092.227-.188.496-.19.798 0 .188.043.397.168.582.123.184.294.3.455.378.163.08.324.124.465.163.392.107.82.228 1.287.23.05 0 .1-.003.15-.006.27-.016.54-.083.79-.21.248-.126.474-.316.626-.578.045-.078.073-.154.1-.24.093-.294.158-.71.207-1.143.048-.433.076-.874.076-1.195 0-.133-.004-.243-.017-.34-.027-.188-.2-.32-.386-.293-.187.026-.318.2-.292.386.006.04.01.134.01.248 0 .323-.034.835-.092 1.294-.03.23-.064.447-.1.62-.02.087-.04.162-.057.22-.02.056-.037.096-.042.102-.073.128-.192.233-.345.312-.152.078-.337.125-.518.136l-.11.003c-.344 0-.715-.095-1.106-.204-.134-.035-.257-.072-.35-.118-.094-.045-.15-.09-.183-.142-.035-.052-.052-.11-.053-.202-.002-.142.058-.345.14-.536.212-.517.464-1.018.752-1.497.07-.115.138-.22.21-.3.07-.08.137-.132.204-.16.043-.018.086-.027.133-.027.1 0 .226.043.34.13.114.086.21.21.26.335.07.175.268.26.444.19.175-.07.26-.27.19-.444" fill="#5B61CE"/><path d="M144.956 221.094l-18.78 10.548v7.317l18.78-10.55v-7.316" fill="#E84E1B"/><path d="M143.354 223.978l-15.575 8.692v1.196l15.574-8.692v-1.196M141.403 227.254l-13.49 7.624v1.197l13.49-7.625v-1.196" fill="#ECF0F3"/><path d="M225.723 144.605l-13.23 7.418v4.82l13.23-7.42v-4.818" fill="#5B61CE"/><path d="M224.623 147.085l-10.928 6.113v1.195l10.928-6.113v-1.195" fill="#ECF0F3"/><path d="M109.292 163.414c-.258.574-.196 1.16.138 1.31.335.15.815-.192 1.073-.766.258-.574.196-1.16-.138-1.31-.335-.15-.815.193-1.073.766" fill="#6EB647"/><path d="M106.874 164.787c-.258.574-.196 1.16.14 1.31.333.15.813-.192 1.07-.766.26-.572.197-1.16-.137-1.31-.335-.15-.815.194-1.073.767" fill="#F8BB31"/><path d="M104.457 166.16c-.26.574-.197 1.16.138 1.31.334.15.814-.192 1.072-.766.258-.573.197-1.16-.138-1.31-.335-.15-.815.193-1.073.767" fill="#EB5C55"/><g transform="translate(101.935 221.05)"><mask id="d" fill="#fff"><use xlink:href="#c"/></mask><path d="M5.936 6.58c-.012-.206-.735-.864-.054-2.325.363-.778 2.192-2.725 2.824-2.104 0 0 .21-.123.328-.148.367-.077.748.398.95 1.133.182.668.363 1.736-.068 2.68-.297.652.78.617.78.617s.093-.27.308.44c.222.732.35 1.28.35 1.28S6.09 9.99 6.12 9.918c.03-.07.705-2.14.705-2.14l-.89-1.196" fill="#463C39" mask="url(#d)"/><path d="M9.883 3.785c-.152-.3-.5.875-.5.875-.125-.323-.114-.232-.12-.78-.004-.228-.4-.64-.4-.64s-.77.522-1.54 1.52c-.66.856-1.32.51-1.402 1.266-.055.52.165.987.165.987s.476 1.1.917 1.698c0 0-1.72 3.743-1.122 5.076.076.17 1.428.718 1.428.718s2.22-2.326 2.44-2.756c1.17-2.275.185-3.958.185-3.958S9.66 5.723 9.78 5.334c0 0 .527-.714.103-1.55" fill="#EED2B7" mask="url(#d)"/><path d="M7.002 8.71s.802.23.855.29c.053.058.54-.122.916-.593.367-.46.977-2.63.977-2.63s-.22 2.718-.453 3.12c-.237.41-.892 1.666-1.306 1.55-.412-.112-.988-1.736-.988-1.736" fill="#BBAC9E" mask="url(#d)"/><path d="M7.68 13.14c.364-.133 1.208-.566 1.77-1.402.19-.28.927-1.707.927-1.707l-.28 1.116.57 4.902-5.538 3.187c-.733 1.474-.09-3.457-.09-3.457l.993-3.698s.605 1.444 1.648 1.06" fill="#5B5E67" mask="url(#d)"/><path d="M1.833 21.13s.598-6.118.81-6.923c.256-.963.522-1.728 1.555-2.81.915-.96 2.17-1.986 2.17-1.986l.66-.73s-.806 2.535-.664 4.254c.133 1.598.888 5.05.888 5.05M9.97 16.38s-.57-2.414-.025-5.635c.287-1.695-.176-2.8-.093-2.903V7.24c.294.29 2.807-.536 3.362-.343.505.175 1.092 2.367 1.25 3.163.205 1.04.585 3 1.098 3.146" fill="#E95465" mask="url(#d)"/><path d="M4.3 15.176s-.41 3.368-.487 4.058c-.08.71.223 1.2.223 1.2l.534-.554-.27-4.704" fill="#DA4453" mask="url(#d)"/></g><g transform="translate(101.935 192.924)"><mask id="f" fill="#fff"><use xlink:href="#e"/></mask><path d="M7.98 4.307s.55.11.52.576c-.03.465-.078 1.198-.64 1.65l-.2-1.8.32-.426" fill="#2C2E33" mask="url(#f)"/><path d="M4.247 8.657s.08.64.03.97c-.052.328-.254.94-.254.94l-.11.173 2.702 1.847.353-.336.58-1.804-.12-2.152-.173-.04.405-1.02.2-.702.16-1.36-.117-.765-.32-.59L6.7 3.54 4.854 5.42l-.82 1.815.214 1.422" fill="#EED2B7" mask="url(#f)"/><path d="M7.182 2.908s.626-.037.848.298c.223.334-.147 1.426-.147 1.426s-.047-.225-.336-.247c-.46-.037-.298-.428-.517-.41-.218.017-.074-.12-.524.656-.45.78-.248.363-.6.348-.352-.014-.9.465-1.058.833-.16.37-.417 1.425-.417 1.425l-.338-.43v-.992l.835-1.797 1.17-.737 1.085-.372" fill="#925F36" mask="url(#f)"/><path d="M4.528 8.086s-.296.88-.66.815c-.3-.053-.76-1.097-.482-1.64.28-.543.614-.588.85-.45.235.135.29.896.292 1.276" fill="#2C2E33" mask="url(#f)"/><path fill="#2C2E33" mask="url(#f)" d="M4.197 5.694l-.277.197c-.12.272.013.944-.016.97l.267-.053c.03-.026-.093-.842.027-1.113"/><path d="M7.292 8.166c-.107.258-.204.46-.272.555-.238.33-1.25.86-1.57.772-.32-.087-.807-.542-.807-.542s.34.702.525.84c.186.14 1.015.45 1.326.268.31-.18.82-1.545.82-1.545l.114-.22-.136-.127" fill="#BBAC9E" mask="url(#f)"/><path d="M6.54 3.197s-.225.044-.95.445c-.84.463-1.414 2.113-1.414 2.113s-.237.554-.304.382c-.066-.173.293-1.426.823-1.975.53-.55 1.26-1.06 1.846-.965M4.497 8.133s.808.343 1.31.184c0 0 .1.123 0 .153-.097.03-.462.066-.492.043l-.17-.094-.738-.217.09-.07" fill="#2C2E33" mask="url(#f)"/><path d="M.92 17.887c.04-.452.21-3.338.15-3.657-.06-.32.5-1.025.828-1.46.326-.433 2.125-2.204 2.125-2.204s.505.39.92.64c.386.235 1.598.497 1.598.497s.68-1.158.808-1.87c.072-.397.08-1.54.08-1.54s1.112-.396 1.55-.458c.44-.063 1.784.167 1.91.312.127.145 1.05 3.196 1.03 3.41" fill="#F7BB40" mask="url(#f)"/><path fill="#D4A337" mask="url(#f)" d="M3.663 15.866c-.123-.12-.09-2.346-.09-2.346L4 16.117l-.337-.25M9.9 12.72c-.143-.328-.74-2.442-.74-2.442l.354 2.67.385-.23"/></g><path d="M383.737 248.838c0 1.382-1.122 2.502-2.505 2.502-1.383 0-2.505-1.12-2.505-2.502 0-1.382 1.122-2.503 2.505-2.503 1.383 0 2.505 1.12 2.505 2.503" fill="#2C2E33"/><path d="M373.178 244.315l-4.857 6.016s-1.72 2.296-1.732 3.332c-.012 1.036.803 1.793 1.677 2.783.77.873 4.037 1.928 4.396 1.954 1.472.105 3.773-2.06 3.773-2.06l4.665-9.233s3.384-4.794 2.22-7.373c-.533-1.18-2.34-1.222-2.34-1.222l-7.8 5.803" fill="#2C2E33"/><path d="M367.925 252.212s-.11 1.328.28 2.135c.39.808 4.548 2.732 5.4 2.53.85-.203 2.582-2.774 2.582-2.774s2.637-5.6 3.215-6.743c.58-1.142 2.93-4.388 3.035-5.002.105-.614.2-3.516-.937-3.83-1.138-.317-2.005-.716-2.53-1.994-.527-1.277-1.832-6.387-1.832-6.387l-6.66 4.55 3.365 6.438-1.8 5.487-4.118 5.59" fill="#EED2B7"/><path d="M369.847 249.086s1.476-2.13 3.69-1.74c2.21.39 3.417.993 3.793 1.32.376.325 1.407 1.51 1.407 1.51l-2.426 4.487s-1.525-2.027-4.357-2.72c-2.833-.692-4.028.27-4.028.27l1.922-3.127" fill="#5084C4"/><path d="M206.282 224.36l-12.47 1.98-11.065 3.223s4.342 17.053 4.233 17.683c-.695 4.028-2.88 10.06-2.88 10.06l10.32-5.148 2.245-18.03 1.872 15.978 8.62.556s-.592-7.094-.342-9.468c.25-2.373-.533-16.833-.533-16.833" fill="#EED2B7"/><path d="M183.166 231.623l.2.873s4.04 1.373 5.587 1.03c1.547-.344 6.016-1.29 6.016-1.29l1.375-2.575 2.492-.17s1.46.86 3.61.257c2.148-.6 3.782-1.803 3.782-1.803v-2.06l-19.856 3.09-3.208 2.65" fill="#B7A587"/><path d="M195.36 252.027s1.448-6.574 1.25-8.75c-.198-2.176-.015-11.712-.015-11.712l-.348-3.133-2.284 3.05s.98 8.134.98 11.1c0 2.967-1.03 8.525-1.03 8.525l1.446.92" fill="#B7A587"/><path d="M206.065 212.474l1.045 13.325s-.666 1.748-1 1.748c-.334 0-4.277 1.884-4.944 1.717-.667-.167-3.918-1-3.918-1l-1 .167s-.5 2.166-1.084 2.416c-.584.25-5.502 1.75-5.92 1.832-.416.084-5.495-.807-6.078-1.057-.584-.25-1.584-.5-1.584-1.333s-.33-12.894-.33-12.894l8.556-3.838h5.336l8.836-4.332 2.085 3.248M401.17 231.2l-20.962 15.043-.452 2.806 23.128-15.297 4.647 19.89h1.616l-2.668-20.675 22.067 5.248-.91-1.898-22.7-7.14H390.76l-.03 2.472 10.44-.45" fill="#2C2E33"/><path d="M392.063 250.577l-4.96 5.534s-1.984 3.016-2.025 4.05c-.042 1.03.475 2.047 1.653 2.724.953.548 4.07 1.633 4.424 1.694 1.447.247 3.778-1.692 3.778-1.692l4.696-9.005s3.638-4.212 2.563-6.896c-.49-1.228-2.273-1.446-2.273-1.446l-7.854 5.04M429.422 239.738c0 1.382-1.122 2.502-2.505 2.502-1.383 0-2.505-1.12-2.505-2.502 0-1.382 1.122-2.503 2.505-2.503 1.383 0 2.505 1.12 2.505 2.503M409.99 254.27c0 1.38-1.12 2.5-2.504 2.5-1.383 0-2.505-1.12-2.505-2.5 0-1.383 1.123-2.504 2.506-2.504 1.383 0 2.505 1.12 2.505 2.503M403.575 162.457c.806-1.375 23.086 4.965 25.27 5.876 2.183.912-7.05 37.232-7.05 37.232l-6.755 6.74-13.718-35.524s1.147-12.434 2.253-14.323" fill="#2C2E33"/><path d="M173.082 193.813l-4.43 2.55c.012.372.023.886.035 1.513l4.26-2.475c.044-.535.09-1.065.135-1.587m.267-2.88l-4.728 2.71c-.008.597-.01 1.12-.003 1.546l4.576-2.638c.05-.554.102-1.095.153-1.62m.298-2.934l-4.95 2.847c-.023.552-.04 1.086-.052 1.59l4.83-2.77c.058-.586.116-1.143.172-1.667m.324-2.95l-5.12 2.954c-.038.54-.07 1.082-.098 1.615l5.03-2.895c.07-.635.134-1.2.188-1.675m.477-3.01l-5.343 3.076c-.06.53-.113 1.08-.16 1.638l5.172-2.983.043-.402c.02-.234.12-.716.286-1.327m7.548-14.71l-2.113 1.22c.182.716.347 1.29.454 1.614.38 1.156-6.054 3.18-6.66 3.698-.447.386-1.065 2.013-1.355 2.83l4.87-2.68v1.747l-5.966 3.282c-.245.366-.55.765-.926 1.18-.444.488-.78 1.856-1.033 3.603l5.628-3.24c.635-1.837 1.633-3.95 2.805-4.455.586-.252 3.695-2.115 5.952-3.48l.553-4.655c-.612-.148-1.328-.367-2.132-.64-.026-.007-.052-.016-.078-.025m2.457-1.42l-1.61.93c.25.082.49.157.72.224.26.077.503.143.73.2l.16-1.354m1.292-11.132v.252l.03-.25s-.01-.002-.03-.002" fill="#C9CCCF"/><path d="M177.196 174.01l-4.87 2.68c-.102.283-.164.47-.164.47s-.205.792-.933 1.88l5.966-3.283v-1.748M174.898 180.584l-5.627 3.24c-.058.41-.113.842-.163 1.29l5.342-3.076c.117-.434.268-.933.448-1.454M174.12 183.767l-5.173 2.984c-.035.414-.067.832-.096 1.252l5.122-2.955c.062-.553.113-.988.147-1.28M173.785 186.722l-5.03 2.895c-.022.416-.04.827-.057 1.228l4.95-2.847c.047-.45.093-.878.137-1.276M173.475 189.665l-4.83 2.77c-.01.427-.02.833-.023 1.21l4.727-2.713c.04-.434.084-.858.125-1.267M173.196 192.552l-4.577 2.637c.002.285.008.528.017.716.005.112.01.266.016.458l4.43-2.55c.036-.427.074-.85.113-1.262" fill="#727780"/><path d="M172.847 196.655l-4.14 2.405c.053 3.3.104 8.497.11 13.16l3.414-1.94c.05-2.06.124-4.658.237-7.384.084-2.033.22-4.164.38-6.24" fill="#C9CCCF"/><path d="M172.23 210.28l-3.412 1.94c.003 2.204-.004 4.29-.024 5.997l3.528-2.03-.17-1.5s.017-1.76.08-4.407" fill="#389981"/><path d="M172.322 216.188l-3.528 2.03c-.03 2.327-.085 3.954-.18 4.228l4.147-2.392-.438-3.866" fill="#25272B"/><path d="M172.947 195.4l-4.26 2.476c.007.36.014.755.02 1.184l4.14-2.405.1-1.254" fill="#727780"/><path d="M179.382 166.365c.163.79.34 1.544.503 2.183l2.113-1.22c-.802-.274-1.684-.6-2.616-.963m5.418-7.244c-1.377 0-3 1.966-5.004 5.783-.118.225-.26.45-.427.672 1.276.5 2.46.937 3.474 1.264l1.61-.932.798-6.713c-.147-.05-.298-.074-.452-.074m-3.133-3.906c-.244.092-.44.204-.567.34-1.77 1.896-2.332 4.793-2.304 6.478 1.04-2.364 1.28-5.152 2.668-6.616.068-.072.136-.14.203-.202m3.742-.44c-.28 0-.696.004-1.162.03.6.43 1.042 1.17 1.318 1.745l.18-1.522v-.252c-.05 0-.17-.003-.337-.003" fill="#389981"/><path d="M184.248 154.803c-.863.045-1.903.153-2.58.41-.068.064-.136.13-.204.203-1.388 1.464-1.627 4.252-2.668 6.616v.017c.02 1 .192 2.244.418 3.464l.155.06c.165-.222.308-.446.426-.67 2.004-3.818 3.627-5.783 5.004-5.783.154 0 .305.026.452.075l.314-2.646c-.276-.575-.72-1.317-1.318-1.747" fill="#89BAAE"/><path d="M179.214 165.514c.054.286.11.57.168.85.932.363 1.814.69 2.616.964.026.01.052.018.078.026.804.272 1.52.49 2.132.64l.087-.732c-.227-.057-.47-.123-.73-.2-.23-.067-.47-.142-.72-.223-1.014-.328-2.2-.764-3.476-1.265l-.156-.06" fill="#4D53AF"/><path d="M219.532 170.563l1.325-4.108s1.515-2.737 1.92-1.822c.16.364-.07 1.495.243 1.094.474-.607 1.53-3.01 1.794-3.307.54-.604 1.416-1.744 1.56-1.082.143.662-1.51 3.196-1.16 2.87.348-.325 1.157-2.69 2.01-2.137.237.154-.233 1.01-.233 1.01s1.03-.636.883.04c-.148.677-.514 1.474-.514 1.474s.32-.316.3.554c-.02.87-1.21 4.602-2.276 5.562-1.065.96-2.385 2.828-2.385 2.828l-3.468-2.975M174.095 222.18l-.947 5.377s.01 2.32 1.264 3.388c1.256 1.068 2.203 1.857 2.704 2.06.5.204 1.09-.928 1.09-.928s-1.572-3.244-1.09-4.01c.48-.767.347 1.46 1.09 1.956.638.425.66-1.032.818-1.957.16-.925 0-3.028 0-3.028l-4.93-2.858" fill="#EED2B7"/><path d="M173.887 223.042l-.216 1.55s1.358 1.255 2.06 1.386c.7.132 3.43.48 3.345 0-.083-.48-.23-1.84-.23-1.84l-4.958-1.096" fill="#B7A587"/><path d="M195.335 153.314s.368.616 1.57 2.41c1.202 1.79 1.91 7.623 1.087 10.26-.824 2.637-1.715 5.43-4.947 3.572-.27-.154.58 1.152.58 1.152l1.372 2.092s3.024 2.957 3.35 4.452c.295 1.345-2.76 11.047-4.728 11.11-1.968.065-7.646-8.017-7.37-10.127.273-2.11-1.472-5.058-1.472-5.058l.9-11.528 3.05-4.953 6.607-3.383" fill="#EED2B7"/><path d="M181.686 155.175c.71-1.585 3.062-3.312 6.025-4.018 2.965-.706 6.467.05 7.884.825 1.416.773 1.31 3.74 1.31 3.74s-4.957.015-5.505 1.83c-.332 1.094-1.255 4.445-1.255 4.445s-1.277-1.844-2.056-1.77c-.78.076-1.336 1.568-.575 3.21.76 1.64 1.505 1.768 1.505 1.768l-2.186 3.65s-.175 1.506-1.067 2.834c-.892 1.327.105 3.768-1.423 5.078-1.527 1.31-1.912 10.418-5.648 8.1-3.736-2.317-1.768-7.46-1.768-7.46s-1.14-3.572.775-4.41c1.917-.836 4.957-2.82 4.913-3.388-.043-.57 2.07-2.833.43-4.512-1.642-1.678-2.07-8.338-1.36-9.923" fill="#463C39"/><path d="M185.766 178.444s5.877 2.528 8.153 2.054c2.274-.473 5.004-3.912 5.004-3.912l3.305 32.996.113.997s-3.15 2.968-7.57 3.618c-1.254.185-6.798-.645-6.798-.645l-2.21-35.11" fill="#5B5E67"/><path d="M186.068 171.178s-7.425 4.546-8.365 4.95c-1.972.85-3.45 6.254-3.54 7.237-.05.57-1.34 10.93-1.696 19.53-.258 6.23-.316 11.793-.316 11.793l.998 8.77s4.87 3.3 6.34 1.56c1.47-1.737.46-20.688.46-20.688s-.202 13.584 1.428 13.872c3.357.596 10.69 1.353 10.69 1.353s-1.49-31.22-2.21-33.735c-.723-2.516-2.997-7.438-3.44-9.002-.445-1.563-.348-5.64-.348-5.64" fill="#E95465"/><path d="M189.868 165.943s1.642 2.066 2.69 2.664c1.05.598 2.027.992 3.113.896.802-.07 1.39-1.006 1.39-1.006s-.536 1.922-1.884 1.915l-1.35-.007.256 1.18s-3.7-1.297-3.84-2.657c-.14-1.36-.374-2.985-.374-2.985" fill="#B7A587"/><path d="M179.947 204.33l2.18-12.972 1.054-1.69.056 9.8v8.226l-1.298 8.812-1.99-12.176" fill="#DA4453"/><path d="M194.007 171.236l6.51-.065 3.402 1.727 7.066 4.26 4.086-2.263 4.145-4.8 4.814 3.685-4.923 6.336s-2.172 2.39-4.24 4.583-9.77-.332-9.77-.332 3.183 21.94 2.95 24.823c-.23 2.886-4.853 6.754-4.853 6.754l-3.282-18.492s-1.374-14.874-1.937-17.774c-.562-2.9-2.194-5.653-2.85-6.48-1.14-1.44-1.118-1.962-1.118-1.962" fill="#E95465"/><path d="M231.476 246.283l130.085-75.26 63.634 36.58-130.087 75.406-63.63-36.727" fill="#D3E7C9"/><path d="M300.794 232.323c-.87-.608-8.302-1.452-9.783-7.36-.837-3.345 3.82-14.14 11.296-12.833 0 0 1.033-.894 1.812-1.216 2.43-1.007 7.22.19 11.565 2.698 3.804 2.198 8.835 5.744 9.03 9.715.127 2.632 7.25.736 7.25.736s-.2-1.043 3.395.915c3.597 1.957 5.954 3.44 5.954 3.44s-27.614 13.168-27.655 12.94c-.04-.23-2.742-6.922-2.742-6.922l-10.12-2.113" fill="#463C39"/><path d="M317.388 216.246c-2.215-.845-.346 4.04-.346 4.04-2.062-.924-1.65-.62-3.747-2.584-.88-.826-5.344-1.653-5.344-1.653s-3.43 3.306-4.863 8.147c-1.164 3.93-7.013 3.922-4.54 6.45 1.65 1.69 4.846 2.73 4.846 2.73s7 2.438 11.8 3.426c0 0 1.357 11.898 8.58 14.052.893.267 9.876-.348 9.876-.348s6.883-8.377 7.115-9.758c1.307-7.79-9.722-11.18-9.722-11.18s-8.38-6.12-8.88-7.635c0 0 1.218-3.4-4.775-5.69" fill="#EED2B7"/><path d="M315.192 236.803s5.78-.585 6.298-.504c.518.08 3.017-1.167 3.957-3.085.94-1.917-1.996-9.738-1.996-9.738s7.09 8.817 6.798 10.332c-.292 1.513-.724 5.857-3.57 6.168-2.846.31-11.486-3.175-11.486-3.175" fill="#BBAC9E"/><path d="M332.266 246.978c1.734-.804 5.513-2.992 6.702-5.828.408-.974 1.188-5.818 1.188-5.818l1.18 3.38 13.424 14.743-21.54 12.292c-.13-.075-8.72-9.672-8.72-9.672l-4.703-9.275s7.54 2.46 12.47.178" fill="#5B5E67"/><path d="M319.344 270.528s-13.48-11.073-14.772-12.913c-1.605-2.284-.094-5.948 2.377-9.845 2.3-3.627 6.588-8.11 6.588-8.11l1.725-2.98s3.066 7.784 8.898 11.63c5.048 3.328 14.086 11.15 14.086 11.15M352.53 251.007s-8.42-4.483-13.155-13.12c-2.783-5.078-8.93-7.59-8.7-8.032l-1.832-1.843c2.807.423 15.726-4.706 19.955-4.99 3.81-.254 15.15 3.6 17.835 5.677 3.366 2.603 10.423 6.284 13.7 5.937" fill="#E95465"/><path d="M361.97 245.288l-3.57-5.842-5.358-6.33 14.347 11.522-5.42.65M312.964 258.474s5.313 7.23 6.346 8.59c1.032 1.36 3.484 2.012 3.484 2.012s1.46-1.442 1.562-1.39c.103.053-11.392-9.212-11.392-9.212" fill="#DA4453"/><g transform="translate(231.594 235.537)"><mask id="h" fill="#fff"><use xlink:href="#g"/></mask><path d="M.238.39h81.348v47.036H.238V.39z" fill="#9FA99B" mask="url(#h)"/></g><path d="M425.04 207.693l-14.084 8.164.13.074 14.106-8.15-.152-.087m-68.775-39.728l-.01.005 5.297 3.06.01-.006.13.075-5.427-3.135" fill="#F0F3F6"/><path d="M410.956 215.857l-18.612 10.79.098.055 18.644-10.77-.13-.075" fill="#D0D2D8"/><path d="M381.996 210.99l19.326-15.68 2.253 1.186-3.246 4.41-8.57 4.913-9.764 5.17m-27.572-8.34l-1.036-.598 24.345-14.084 1.036.598-24.346 14.085m-14.9-8.606l-1.035-.598 10.853-6.397 1.036.597-10.855 6.397m10.1 5.834l-1.037-.6 21.923-12.536 1.037.598-21.923 12.538m2.4 1.386l-1.037-.6 27.894-16.036 1.037.6-27.894 16.036m-7.592-4.386l-1.034-.598 23.483-13.506 1.035.6-23.484 13.504m2.792 1.613l-1.035-.598 27.022-15.64 1.035.597-27.023 15.64m-5.192-2.998l-1.036-.6 27.03-15.636 1.036.6-27.03 15.636m19.53-24.468l-.008.006.387.223-32.816 18.874-.04-.023 63.26 36.542 32.696-18.953-37.005-21.376-1.88 1.972-3.358 3.68.303.174-.973.56-4.644 5.09 2.067-3.608-19.933 11.464-1.036-.598 21.99-12.647 1.342-2.34-24.697 14.198-1.036-.598 26.752-15.382 2.094-3.655 2.516 1.404-25.85-14.933-.13-.076" fill="#E7EEEC"/><path d="M355.182 167.34L224.9 242.485l-9.134-5.277 130.245-75.166 9.172 5.298" fill="#CCCCCD"/><path d="M221.05 237.07c.625.063 1.102.41 1.065.774-.037.365-.575.608-1.2.544-.627-.064-1.104-.41-1.067-.775.037-.364.575-.608 1.2-.544" fill="#EB5C55"/><path d="M223.448 235.666c.626.063 1.103.41 1.065.775-.037.365-.574.61-1.2.545-.626-.064-1.103-.41-1.066-.776.037-.365.575-.608 1.2-.544" fill="#F8BB31"/><path d="M225.847 234.262c.625.064 1.103.41 1.066.776-.038.364-.575.608-1.2.544-.627-.064-1.104-.412-1.067-.776.037-.364.575-.608 1.2-.544" fill="#6EB647"/><path d="M253.572 220.713c-.846-.247-2.37-.69-2.754-.785-.54-.136-1.05-.166-1.763.303-.713.47-20.053 11.78-20.493 12.027-.44.246-.548.24-.357.616.192.376 1.262 1.743 1.262 1.743l-9.05 5.25 4.807 2.776 130.233-75.144-4.808-2.776-97.078 55.99" fill="#E8E6E6"/><path d="M302.577 287.354l.032 3.445-86.8-50.16.015-3.417 86.752 50.13" fill="#B8BEC6"/><path d="M432.887 215.716l-130.31 75.07.014-3.418 130.312-75.07-.015 3.418" fill="#868C96"/><path d="M279.18 263.37l-9.177 5.275 11.195 6.39 9.074-5.258-11.092-6.407" fill="#2C2E33"/><path d="M288.264 258.04l-9.084 5.33 11.092 6.407 9.084-5.33-11.092-6.406" fill="#B8BEC6"/><path d="M301.346 265.597l-18.143 10.536 11.834 6.836 18.198-10.505-11.89-6.868" fill="#5B5E67"/><path d="M298.92 272.963l-.015.152c.786.08 1.48.333 1.967.67.49.34.76.754.76 1.15l-.005.093c-.037.368-.304.702-.758.95-.453.248-1.08.398-1.78.398-.168 0-.34-.01-.516-.027-.785-.08-1.478-.334-1.966-.672-.49-.338-.762-.753-.76-1.15l.004-.09c.038-.37.305-.704.76-.952.45-.248 1.078-.398 1.776-.398.17 0 .342.01.517.027l.016-.152.016-.152c-.186-.017-.368-.027-.548-.027-.742 0-1.414.157-1.924.435-.507.276-.863.685-.915 1.188-.005.04-.007.082-.007.123.002.54.354 1.028.89 1.4.54.372 1.28.637 2.11.722.186.02.37.028.548.028.743 0 1.415-.157 1.925-.434.507-.276.864-.685.916-1.188l.004-.03-.003.03c.004-.04.007-.082.007-.123-.002-.54-.354-1.03-.89-1.4-.54-.373-1.28-.638-2.11-.724l-.016.153" fill="#B1B1B1"/><path d="M297.664 275.57l2.23-1.28c.074-.04.1-.134.058-.207-.042-.073-.135-.098-.21-.056l-2.23 1.278c-.073.042-.098.135-.056.208.042.073.135.098.208.056" fill="#B1B1B1"/><path d="M297.385 274.213l2.447 1.413c.073.042.167.017.21-.056.04-.073.016-.166-.057-.208l-2.447-1.414c-.073-.042-.166-.017-.21.056-.04.073-.016.166.057.21" fill="#B1B1B1"/><path d="M225.23 242.546l130.205-75.05 6.466 3.735-130.462 75.03-6.21-3.714" fill="#2B2E32"/><path fill="#707171" d="M355.472 167.518l.784.452-.784-.452"/><path d="M356.256 167.97l5.296 3.06-5.296-3.06" fill="#6A6C6D"/><path d="M361.552 171.03l.35.2-32.818 18.874.04.023 32.815-18.874-.388-.223" fill="#666A69"/><path d="M355.472 167.518l-32.814 18.874 6.426 3.712L361.9 171.23l-6.428-3.712" fill="#1B1D1F"/><path d="M225.308 242.594l-.084.048-.024-.015-.012.007 5.497 3.177-5.377-3.216m18.872-3.66l-12.73 7.32.04.02 12.69-7.34" fill="#302F37"/><path d="M249.695 235.76l-5.515 3.173-12.69 7.342 18.232-10.497-.027-.017" fill="#5E675C"/><path fill="#666767" d="M225.283 242.58l-.083.047.024.015.084-.048-.025-.015"/><path d="M231.45 246.254l-.012.007.038.023.013-.008-.04-.02m-6.262-3.62l-.015.008 6.262 3.616-.75-.45-5.497-3.176" fill="#53575B"/><path d="M243.392 232.12l-18.11 10.46.026.014 6.127 3.665h.003l.013-.006 18.245-10.493-6.303-3.64" fill="#1B1D1F"/><path d="M329.165 190.145l32.814-18.874 4.31 2.49-32.815 18.875-4.31-2.49" fill="#B8BEC6"/><path d="M349.343 187.05l-10.854 6.396 1.035.598 10.854-6.397-1.037-.598M368.025 179.256l-27.03 15.637 1.035.6 27.03-15.638-1.035-.6M366.88 182.774l-23.484 13.506 1.035.598 23.485-13.505-1.036-.6M373.21 182.25l-27.023 15.642 1.035.6 27.023-15.643-1.036-.6M370.51 186.742L348.59 199.28l1.036.598 21.923-12.538-1.036-.598M378.88 184.628l-27.893 16.037 1.036.6 27.894-16.038-1.036-.6M377.733 187.968l-24.345 14.084 1.036.6 24.345-14.086-1.037-.598M382.932 188.283l-26.753 15.382 1.035.598 24.697-14.2 1.02-1.78M380.57 192.405l-21.99 12.647 1.037.598 19.933-11.464 1.02-1.78m2.227-.436l-.67.734.973-.56-.303-.174" fill="#ADB3B8"/><path d="M295.048 282.975l130.087-75.17 7.752 4.478-130.31 75.07-7.53-4.378" fill="#2B2E32"/><path d="M253.496 248.534l-9.022 5.23 11.125 6.42 9.005-5.234-11.11-6.416" fill="#B9D0DE"/><path d="M253.277 251.793s-.185.55.246.762c.43.213 1.11.548 1.8.28l-1.502-1.106-.543.063" fill="#2C2E33"/><path d="M255.488 249.684l-2.237.576-.205.928.36.59.622.497 1.297.56.73.183 1.118.166-.053.174 1.857 1.216 1.91.413.48-.14-.14-1.848-5.74-3.316" fill="#EED2B7"/><path d="M254.26 248.975c-.563.216-1.07.54-1.23.965 0 0 .154-.177.886-.618.166-.1.367-.166.583-.21l-.24-.137" fill="#2C2E33"/><path d="M254.373 249.04l-1.043.547-.89.777s-.355.537-.172.908c.184.37 1.348.604 1.348.604s-.176-.158-.046-.428c.204-.427-.228-.485-.1-.67.127-.186-.07-.13.856-.13.926 0 .45-.034.62-.354.11-.21.45-.385.788-.468l-1.36-.786" fill="#925F36"/><path d="M259.23 251.846c.007.135.004.267-.023.368-.087.33-1.08.958-1.498 1-.12.013-.35-.005-.636-.043l.045.188.253.01s1.48.25 1.8.067c.323-.184.473-1.082.445-1.32l-.01-.05-.378-.22" fill="#BBAC9E"/><path d="M260.984 252.858c-.07.545-.367 1.466-.367 1.466s-1.383.01-2.085-.244c-.39-.14-1.413-.722-1.413-.722s-.93.786-1.21 1.144c-.282.358-.77 1.675-.706 1.862.064.187 2.23 2.534 2.432 2.627l7.034-4.002-3.686-2.13" fill="#FDCD55"/><path d="M288.885 268.994l9.108-5.352-9.772-5.613-9.092 5.328 9.757 5.636" fill="#8978B5"/><path d="M290.3 269.81l9.108-5.35-1.494-.832-9.093 5.33 1.48.853" fill="#A28FC3"/><path d="M286.66 261.656l2.172-1.324.263.153-2.17 1.323-.264-.152M287.513 262.148l3.707-2.208.18.104-3.708 2.208-.18-.104M287.93 262.39l3.223-1.907.18.104-3.223 1.906-.18-.104M288.416 262.67l3.705-2.21.18.105-3.704 2.21-.18-.106M288.833 262.91l3.012-1.767.18.104-3.01 1.768-.182-.104M289.25 263.152l3.83-2.263.18.103-3.83 2.263-.18-.104M289.67 263.393l3.337-1.99.18.105-3.34 1.99-.178-.105M290.154 263.673l3.753-2.218.18.104-3.753 2.218-.18-.105M290.57 263.915l3.225-1.906.18.103-3.223 1.906-.18-.105" fill="#ECF0F3"/><path d="M281.412 264.677l6.257 3.614 4.52-2.57-6.27-3.623-4.508 2.58" fill="#FFF"/><path d="M285.602 264.83l-1.348.055-.423 1.19 1.405.81c.625-.112 1.22-.147 1.69-.148 1.11-.003 3.867-1.825 3.867-1.825l-2.753-1.59-2.438 1.507" fill="#6597D0"/><path d="M284.506 266.465l3.163 1.826 4.52-2.57-3.514-2.03-4.17 2.775" fill="#ACDEF9"/><path d="M266.324 255.927l9.177-5.26 11.106 6.383-9.177 5.286-11.106-6.41" fill="#ECF0F3"/><path d="M275.135 253.506l-3.805 2.225 2.525 1.46 3.836-2.207-2.555-1.477" fill="#EC6D54"/><path d="M278.757 260.83l-1.963 1.14.647.374 1.996-1.122-.68-.393" fill="#42B498"/><path d="M283.247 258.192l-3.804 2.225.684.396 3.837-2.207-.717-.414" fill="#F7BB40"/><path d="M272.493 259.485l1.864-1.102.18.104-1.864 1.103-.18-.105M272.91 259.727l1.38-.8.182.105-1.38.8-.18-.105M273.398 260.008l1.863-1.103.18.104-1.862 1.102-.18-.104M273.816 260.25l1.167-.662.18.105-1.166.66-.18-.103M274.234 260.49l1.987-1.156.182.104-1.987 1.158-.18-.105M274.3 257.478l2.187-1.32.264.153-2.185 1.32-.264-.152M275.154 257.97l3.715-2.212.18.104-3.715 2.213-.18-.104M275.573 258.212l3.23-1.91.18.105-3.23 1.91-.18-.105M276.06 258.494l3.712-2.214.18.104-3.713 2.214-.18-.104M276.478 258.735l3.017-1.772.18.105-3.017 1.772-.18-.105M276.896 258.977l3.836-2.268.18.103-3.836 2.268-.18-.103M277.314 259.22l3.346-1.995.18.105-3.345 1.993-.18-.104M277.8 259.5l3.76-2.223.182.104-3.76 2.224-.18-.104" fill="#868C96"/><path fill="#F7F9F9" d="M276.722 254.423l.508.294-.508-.294"/><path d="M276.422 254.25l-1.326.833-.81-.197.015.834-.872-.19.094.674-.717-.132.118.58.932.538.545-.33-.428-.31 3.258-1.833-.508-.294-.3-.173" fill="#F7B6AA"/><path d="M268.688 257.287l2.54 1.468 1.973-1.134-2.556-1.477-1.956 1.144" fill="#42B498"/><path d="M270.406 258.28l.292.168-.292-.168m.46-2.008l1.752 1.01-1.752-1.01" fill="#F7F9F9"/><path d="M270.866 256.272c.004.01.425 1.396-.46 2.008l.48.276c.844-.474 1.718-1.26 1.732-1.273l-1.752-1.01" fill="#A1DACC"/><path d="M271.657 259.002l.264.153.888-.523-.264-.152-.887.522" fill="#868C96"/><path d="M240.53 241.044l-9.054 5.24 11.248 6.603 8.9-5.436-11.093-6.406" fill="#FBC67F"/><path d="M242.835 242.375l-2.265.703-.19.848.33.54.57.454 1.184.512.668.167 1.02.15-.047.16 1.7 1.11 1.743.38.44-.13.093-1.865-5.245-3.03" fill="#EED2B7"/><path d="M241.708 241.724s-.857.553-1.066.74c-.21.185-.512.71-.512.71s-.048.813.12 1.15c.168.34 2.214 1.108 2.214 1.108s-.525-.375.823-.37c.434 0-1.352-.716-1.235-.886.117-.17-.364-.876-.364-.876s.276.102.43-.192c.1-.19.412-.35.97-.586l-1.38-.798" fill="#56423A"/><path d="M246.214 244.327c.007.135.003.267-.023.368-.086.33-1.08.958-1.497 1-.118.013-.35-.005-.635-.043l.045.188.253.01s1.48.25 1.8.066c.323-.183.474-1.082.446-1.32l-.01-.05-.378-.22" fill="#BBAC9E"/><path d="M247.028 244.797c-.026.36-.062.802-.67 1.29-.605.49-.788.422-1.49.168-.39-.14-.765-.415-.765-.415s-.928.785-1.21 1.143c-.282.36-.103 1.453-.04 1.64.066.188.378 3.74.58 3.83l2.23-1.363-.154-1.207 1.032.675 5.11-3.09-4.624-2.67" fill="#5B5E67"/><path d="M266.324 255.927l-8.902 5.316 11.092 6.44 8.903-5.35-11.093-6.406" fill="#99D6F1"/><path d="M268.493 258.17l-2.257 1.078-.167.752.292.478.503.403 1.05.455.593.148.906.134-.043.142 1.508.985 1.547.335 1.182-.222-.71-1.546-1.725-1.114s-.087-.29-.39-.632c-.303-.344-1.562-1.16-1.562-1.16l-.727-.237" fill="#E4C1A4"/><path d="M267.692 257.706c-.81.12-1.15.575-1.334.74-.185.166-.512.886-.512.886s-.213.96.35 1.402c.265.207 1.72.6 1.72.6s-1.887-1.244-.69-1.24c.384 0-.472-.274-.37-.424.105-.15 1.292-1.608 2.416-1.016.17.09-.617-.77.854.373 0 0-1.332-1.484-2.434-1.32" fill="#3C3C3B"/><path d="M271.005 259.864c.257.39.045.822.02.91-.076.294-.763.758-1.132.796-.105.01-.292.07-.545.038l.02.09.226.008s1.597.06 1.883-.104c.286-.162.133-.797.11-1.007l-.16-.148-.422-.583" fill="#BDA28A"/><path d="M273.34 262.696c-.023.32-1.744-1.033-2.282-.6-.538.434-.387.195-1.01-.03-.346-.125-.68-.37-.68-.37s-.82.698-1.07 1.015c-.25.32-.093 1.29-.036 1.456.057.166.334 3.315.513 3.397l1.98-1.21-.14-1.07.917.6 5.885-3.55-4.99-2.88-1.264.685 2.176 2.558" fill="#6597D0"/><path d="M262.673 243.214l-9.084 5.328 11.09 6.407 9.085-5.33-11.092-6.406" fill="#ECF0F3"/><path d="M259.795 252.127l1.628-.933.264.152-1.63.933-.262-.153M260.646 252.62l2.303-1.335.18.104-2.304 1.333-.18-.104M261.064 252.86l2.33-1.318.18.104-2.33 1.318-.18-.104M261.55 253.14l2.32-1.324.18.104-2.32 1.325-.18-.104M261.967 253.382l2.344-1.31.18.103-2.343 1.31-.18-.103M262.384 253.623l2.32-1.325.18.104-2.32 1.325-.18-.104M262.802 253.864l.867-.513.18.106-.868.512-.18-.104" fill="#5B5E67"/><path d="M256.12 250.023l3.217 1.858 2.324-1.32-3.223-1.863-2.316 1.326M265.886 251.833l2.07 1.195 4.88-2.862-2.055-1.187-4.894 2.853M253.56 248.525l.803.464 9.084-5.33-.788-.455-9.1 5.32" fill="#42B498"/><path d="M257.26 250.697l2.077 1.184 2.324-1.32-2.098-1.19-2.303 1.327" fill="#A0C86A"/><path d="M263.674 246.423l1.628-.933.264.152-1.63.933-.262-.152M264.165 246.706l1.628-.933.264.153-1.63.932-.262-.152M264.664 246.995l1.628-.933.264.152-1.628.933-.264-.152" fill="#5B5E67"/><path d="M260.95 248.73c-.322-.167-.572-.382-.717-.62l2.052-.323-1.334.944" fill="#DA4453"/><path d="M264.177 248.602c-.412.365-1.17.564-2.01.478-.15-.015-.298-.04-.44-.07l.558-1.223 1.892.815" fill="#5084C4"/><path d="M264.177 248.602c.183-.163.298-.36.32-.577.073-.707-.853-1.38-2.068-1.504-.665-.067-1.278.043-1.71.273l1.565.994 1.892.815" fill="#6EB647"/><path d="M260.233 248.11c-.104-.17-.152-.35-.133-.534.032-.32.264-.593.62-.783l1.565.994-2.052.324" fill="#A28FC3"/><path d="M261.728 249.01l.557-1.223-1.334.944c.228.12.49.215.778.28" fill="#F7BB40"/><path fill="#B8BEC6" d="M265.41 251.078c.188.02.33.123.32.232-.01.11-.172.183-.36.164-.19-.02-.332-.124-.32-.233.01-.11.172-.182.36-.162M266.13 250.656c.19.02.332.123.32.232-.01.11-.172.183-.36.164-.188-.02-.33-.124-.32-.233.01-.11.173-.183.36-.164M266.852 250.234c.188.02.33.123.32.233-.01.11-.172.182-.36.163-.19-.02-.332-.123-.32-.233.01-.11.172-.182.36-.163"/><path d="M249.69 235.79l-9.173 5.276 11.093 6.407 9.343-5.178-11.262-6.506" fill="#FFF"/><path d="M240.53 241.044l9.72 5.615 7.024-3.997-9.743-5.628-7 4.01" fill="#3AAED9"/><path d="M243.133 240.59l4.807 2.775.054 1.98-4.818-2.783-.043-1.973" fill="#8A2C33"/><path d="M245.404 239.276l4.807 2.777.02 3.993-4.818-2.783-.008-3.987" fill="#B83B46"/><path d="M247.327 238.203l4.807 2.776.02 3.993-4.82-2.783-.007-3.987" fill="#E95465"/><path d="M248.54 240.894l.294.17 2.373-1.363-.3-.172-2.368 1.366M249.114 241.226l.295.17 2.372-1.363-.3-.173-2.368 1.366M249.69 241.56l.294.17 2.374-1.365-.3-.173-2.37 1.367" fill="#FFF"/><path d="M257.604 241.523c.302.03.532.198.514.374-.018.176-.278.294-.58.262-.302-.03-.532-.2-.514-.375.017-.176.277-.293.58-.262" fill="#3AAED9"/><path d="M365.273 213.832l-.202-.346c-9.497 5.562-14.006 8.393-22.044 15.837l.272.294.293-.273c-2.426-2.6-3.452-6.188-4.68-9.643-2.067-5.786-4.896-11.312-8.4-16.403l-.33.227-.02.4c6.68.324 12.335 1.604 17.867 3.447 5.53 1.844 10.937 4.253 17.092 6.83l.153-.368-.202-.346.203.346.155-.37c-6.144-2.572-11.566-4.99-17.147-6.85-5.58-1.86-11.32-3.16-18.08-3.488-.152-.007-.296.073-.37.205-.074.132-.066.296.02.42 3.465 5.035 6.262 10.5 8.304 16.22 1.223 3.413 2.253 7.124 4.85 9.92.152.16.405.17.567.02 8.006-7.41 12.405-10.166 21.906-15.733.13-.077.207-.22.198-.372-.01-.152-.105-.284-.246-.343l-.155.37" fill="#5B61CE"/><path d="M340.02 221.687c.73-1.07 1.996-2.366 3.507-3.704 2.266-2.008 5.087-4.12 7.53-5.832 1.224-.855 2.352-1.61 3.27-2.204.918-.593 1.63-1.025 2-1.223.195-.105.268-.348.163-.542-.105-.194-.348-.267-.542-.162-.546.293-1.64.972-3.048 1.906-2.108 1.4-4.898 3.367-7.457 5.41-2.56 2.046-4.883 4.152-6.085 5.9-.125.183-.078.432.104.557.183.126.433.08.557-.103M333.948 214.574c1.55-1.795 3.555-3.318 5.513-4.906 1.957-1.59 3.87-3.246 5.213-5.352.118-.186.063-.433-.123-.552-.187-.12-.435-.064-.553.122-1.256 1.973-3.097 3.583-5.042 5.16-1.942 1.58-3.985 3.123-5.613 5.005-.145.17-.127.42.04.566.168.144.422.126.566-.042M341.906 213.815c-.34-.267-.643-.598-.855-.955-.21-.358-.33-.738-.33-1.116 0-.056 0-.112.007-.166v-.002c.03-.34.215-.7.486-.962.272-.264.616-.422.942-.42.075 0 .15.007.224.024.26.057.492.21.676.43.184.217.315.5.364.78.023.126.033.255.033.385 0 .476-.144.99-.346 1.488l.372.15-.084-.39c-.092.018-.185.027-.28.027-.285 0-.58-.088-.824-.24-.245-.155-.436-.37-.537-.612-.04-.096-.063-.202-.063-.285 0-.09.02-.142.052-.18.028-.04.11-.097.237-.162.396-.21.814-.363 1.185-.362.064 0 .128.004.19.013.19.025.387.12.52.247.137.13.2.268.2.398v.027l.4.008-.4-.017c-.006.15-.08.3-.245.47-.16.167-.396.33-.635.48-.504.32-1.066.605-1.5.598-.124 0-.24-.02-.35-.06-.174-.066-.32-.192-.428-.36-.106-.164-.166-.367-.166-.56l.002-.033v-.006c.013-.41.277-.847.663-1.14.176-.134.21-.385.075-.56-.134-.176-.385-.21-.56-.076-.537.41-.945 1.03-.978 1.744l.4.017-.4-.023-.002.078c0 .353.104.697.292.992.188.295.466.542.818.676.21.08.425.114.634.114.743-.008 1.39-.393 1.926-.722.256-.16.542-.35.786-.6.24-.248.452-.58.47-.994v-.05c0-.4-.194-.742-.453-.983-.262-.243-.595-.404-.954-.456-.103-.015-.205-.02-.305-.02-.58 0-1.107.216-1.56.454-.14.076-.325.173-.483.365-.17.21-.232.46-.23.685 0 .215.05.414.124.593.173.415.48.75.85.98.37.232.803.364 1.25.365.148 0 .297-.015.445-.046.132-.027.24-.118.29-.242.22-.548.403-1.152.404-1.787 0-.173-.013-.348-.045-.524-.076-.422-.26-.826-.54-1.16-.28-.33-.66-.593-1.118-.694-.133-.03-.266-.043-.397-.043-.58 0-1.106.265-1.5.648-.395.385-.67.9-.726 1.46-.01.082-.012.164-.012.244 0 .55.174 1.068.444 1.524.27.456.64.854 1.05 1.176.173.137.425.107.562-.067.137-.174.106-.426-.068-.562M355.725 224.334c-1.982-1.496-4.085-2.843-6.284-4.026-.534-.287-1.08-.586-1.516-.934-.438-.35-.755-.733-.89-1.196-.063-.212-.286-.333-.498-.27-.213.062-.334.284-.272.496.2.678.65 1.19 1.16 1.596.514.408 1.1.723 1.637 1.013 2.164 1.164 4.232 2.49 6.182 3.96.177.133.428.098.56-.078.134-.177.1-.428-.077-.56" fill="#5B61CE"/><path d="M346.394 220.683c.04-1.165.078-2.33.117-3.496l-.4-.014-.2.347c1.013.587 2.19.9 3.374.9l.173-.003c.222-.006.396-.19.39-.41-.005-.222-.19-.396-.41-.39h-.153c-1.044.002-2.086-.276-2.972-.79-.122-.07-.272-.072-.396-.004-.122.068-.2.197-.206.337-.04 1.165-.078 2.33-.117 3.496-.008.22.166.406.387.414.22.007.406-.166.414-.387" fill="#5B61CE"/><path d="M401.322 195.31l-19.326 15.68 9.763-5.17 8.57-4.914 3.245-4.41-2.253-1.186" fill="#C5CBC8"/><path fill="#B4C5AB" d="M387.542 186.032l.493.285.006-.006-.498-.278"/><path d="M382.127 192.704l-2.577 1.482-2.067 3.608 4.644-5.09m2.9-8.076l-2.095 3.655.59-.338 1.036.598-2.646 1.52-1.34 2.342 1.492-.86.733.425 3.358-3.68 1.88-1.973-.493-.285-2.516-1.404" fill="#C5CBC8"/><path d="M383.522 187.945l-.59.338-1.02 1.78 2.646-1.52-1.036-.598M382.064 191.546l-1.493.86-1.02 1.78 2.577-1.482.67-.734-.733-.424" fill="#93989D"/><path d="M413.52 198.354l1.268 3.293-6.485-3.38 5.216.087" fill="#3E6696"/><path d="M395.27 164.007s.318 1.754.52 2.777c.2 1.022 1.238 1.857 1.238 1.857l-1.487 1.096-8.213 6.133-1.148-1.01-2.052-5.57.496-1.723.134-5.178-1.366-2.36-.72-2.173-.676-4.24.266-2.406.927-1.887 4.755-1.38 6.032 4.79 2.932 5.045-1.64 6.23" fill="#EED2B7"/><path d="M385.734 145.996s-2.206 1.38-2.86 2.456c-.652 1.076-.878 5.165-.878 5.165s.12-.71 1.022-.818c1.433-.173.878-1.377 1.563-1.35.687.024.216-.39 1.726 1.987 1.51 2.376.824 1.1 1.924 1.007 1.1-.09 3.232-.367 3.78.763.547 1.13.928 3.858.928 3.858s.796-2.632 1.68-2.98c.886-.348 1.634 1.035 1.654 1.69.007.255-.328 2.37-1.096 2.9-.595.412 1.045-.622 1.045-.622s2.322-4.318 2.29-7.41c-.025-2.404-1.93-5.388-1.93-5.388s-1.946-2.276-5.037-2.67c-3.093-.396-5.81 1.41-5.81 1.41" fill="#925F36"/><path d="M385.353 163.492c.482.73.897 1.19 1.16 1.437.93.87 2.282 1.67 3.215 1.212.933-.46 4.516-3.685 4.516-3.685s-1.262 3.727-1.752 4.26c-.49.537-2.856 1.984-3.92 1.61-1.065-.372-3.22-4.835-3.22-4.835" fill="#B7A587"/><path d="M378.84 205.337s-4.363.573-4.82 1.406c-.46.833.855.923.855.923s-1.946.616-1.962 1.154c-.017.538.014 1.882 2.492 3.048 2.48 1.166 5.638-.196 5.638-.196l4.377-3.347-.885-3.937-5.695.95" fill="#EED2B7"/><path d="M411.643 200l-9.782-4.25-2.634 4.574-15.957 9.758.473-1.49-.91-3.082-2.327-.45 13.034-12.766v-2.806l-7.63-4.44-8.92 14.552-5.94-3.44s4.8-8.148 5.014-9.596c.298-2.02-.703-6.663-.703-6.663-.326-.588-1.167-10.628-.836-12.637.098-.594 2.008-2.89 3.346-3.256 1.338-.367 6.856-.393 6.856-.393s-.326 3.86.372 4.91c1.257 1.89 4.658 4.367 4.658 4.367s3.242-3.083 4.235-4.093c1.842-1.874 1.28-4.79 1.28-4.79s5.85 1.758 7.33 2.598c1.483.84 3.09 1.64 3.513 2.566 1.113 2.43 3.15 6.987 4.9 14.855.757 3.398 2.784 14.17 2.784 14.17s-2.144 1.88-2.154 1.806" fill="#F7BB40"/><path d="M407.557 192.134c.365-.395-1.343-13.144-1.343-13.144l-4.353 16.76 8.506 3.633-2.81-7.25M394.485 186.673c.365-.395 2.095-11.203 2.095-11.203l-2.065 3.48-.975 10.538.945-2.815" fill="#C09531"/><path d="M371.05 196.16l-1.623 1.665s-.59 3.733 0 3.926c.59.195 4.14 2.72 4.616 2.084.478-.635 1.64-3.612 1.64-3.612s-.11 1.994 0 2.056c.106.062 1.098.337.964-1.5-.134-1.84-.09-3.782-.09-3.782l-3.26-1.26-2.246.425" fill="#EED2B7"/><path d="M374.38 206.545l2.508-.247v1.572s-.496-.216-1.212-.032c-.716.183-2.513.67-2.513.67l1.922-1.367-.704-.595" fill="#B7A587"/><path d="M374.174 207.327l1.732-4.393 1.577.423-1.502 4.16-1.117.288-.69-.478M373.49 210.45l-.327.928v2.095l1.406-1.234.268-.69-1.347-1.1" fill="#5B61CE"/><path d="M383.27 210.082l15.956-9.758 1.984-3.443-3.082 2.81-14.385 8.903-.474 1.49M391.49 188.335l1.448.85-2.45-2.874-1.993-4.336-.272 2.6-1.156-1.332-3.426-7.717.12 11.446-7.185 12.39.415.24 6.786-11.07 2.685-3.167 1.582.938v.01l1.514.89 1.956 1.162-.023-.027" fill="#C09531"/><path d="M369.327 201.67c.088-.05 3.584 1.67 3.584 1.67l1.06-.608 1.695-2.17s-1.533 3.263-1.67 3.37c-.138.11-.58.25-.832.22-.25-.028-3.836-2.48-3.836-2.48M374.818 211.563l2.686.22 2.306-.77 1.72-.93s1.217-.85 1.31-1.194c.095-.345.148-2.592.148-2.592l.755 2.295-.474 1.49-2.227 1.59s-.746.405-1.878.532-2.723.073-3.242-.132c-.518-.205-1.105-.51-1.105-.51" fill="#B7A587"/><path d="M375.322 201.1l.36-.878.104 1.27.35.446.287.145-.288.213s-.303.238-.453-.018c-.15-.255-.448-.97-.448-.97l.088-.21" fill="#B7A587"/><path d="M86.843 330.755l130.462-75.03 55.267 32.12-130.425 74.833-55.304-31.923" fill="#8978B5"/><path d="M142.038 362.617l130.15-74.823 8.372 4.717-130.152 74.968-8.37-4.86" fill="#A28FC3"/><path d="M187.88 287.692l-53.83 30.47 34.962 20.43 54.006-30.368-35.14-20.532" fill="#FFF"/><path d="M192.065 285.237l12.232-7.375 1.476.862-12.233 7.375-1.475-.863M196.835 288.024l20.892-12.304 1.01.59-20.893 12.304-1.01-.59M199.175 289.392l18.165-10.62 1.01.59-18.165 10.62-1.01-.59M201.895 290.98l20.885-12.308 1.01.59-20.885 12.31-1.01-.59M204.236 292.35l16.97-9.852 1.01.59-16.97 9.85-1.01-.59M206.574 293.715l21.577-12.61 1.01.59-21.576 12.61-1.01-.59M208.914 295.083L227.73 284l1.01.59-18.816 11.082-1.01-.59M211.635 296.672l21.15-12.36 1.01.59-21.15 12.36-1.01-.59M213.975 298.04l18.164-10.62 1.01.59-18.166 10.62-1.01-.59" fill="#ECF0F3"/><path d="M223.018 308.224l-19.69-11.505-49.826 32.807 15.51 9.064 54.006-30.366" fill="#ACDEF9"/><path d="M150.306 327.66l17.113-9.513.65-6.338 7.77-1.284 2.607-7.213 7.576-.277 13.735-8.403 15.428 9.015s-15.538 10.16-21.78 10.147c-6.244-.014-16.455.963-23.496 6.48-7.04 5.518-10.432 12.744-11.002 12.412l-8.602-5.028" fill="#5084C4"/><path d="M191.52 298.185c-4.208-1.164-7.988-3.843-10.48-7.427-.434-.623-.814-1.274-.898-1.956-.014-.108-.02-.218-.02-.328 0-.425.096-.865.24-1.293.518-1.55 1.607-2.823 2.99-3.713 1.38-.89 3.053-1.39 4.708-1.388.478 0 .955.04 1.423.126 1.9.344 3.706.974 5.19 1.958 1.487.985 2.653 2.316 3.298 4.09.322.88.76 2.447.758 3.658 0 .537-.09.996-.27 1.28-.252.406-.657 1.003-1.097 1.55-.436.55-.924 1.05-1.28 1.25-.257.147-.695.306-1.244.447-1.65.427-4.308.727-6.624.726-1.07 0-2.068-.064-2.857-.203-.394-.07-.735-.158-1.002-.263-.267-.103-.457-.224-.555-.334-.11-.12-.3-.13-.422-.02-.12.112-.13.3-.02.422.196.21.462.363.78.487.953.37 2.434.505 4.076.508 1.58 0 3.295-.135 4.775-.355.74-.11 1.42-.243 1.998-.392.578-.15 1.05-.313 1.39-.505.492-.284.988-.82 1.452-1.394.46-.574.874-1.185 1.138-1.61.272-.44.358-.997.36-1.594-.003-1.343-.458-2.932-.793-3.86-.69-1.905-1.954-3.345-3.528-4.385-1.574-1.042-3.456-1.692-5.414-2.048-.505-.093-1.017-.138-1.53-.138-1.775 0-3.552.532-5.032 1.484-1.48.95-2.665 2.33-3.232 4.026-.156.467-.27.967-.27 1.482 0 .134.007.268.024.402.11.85.554 1.577 1 2.222 2.575 3.7 6.465 6.458 10.812 7.66.158.046.323-.048.367-.206.043-.16-.05-.323-.21-.367M170.115 309.896l18.164-10.62 7.39 4.32-18.165 10.62-7.39-4.32" fill="#E84E1B"/><path d="M172.75 310.192l15.018-8.837 1.01.59-15.018 8.837-1.01-.59M174.68 311.32l15.018-8.837 1.01.59-15.018 8.837-1.01-.59M176.568 312.423l9.645-5.672 1.01.59-9.646 5.673-1.01-.59" fill="#ECF0F3"/><path d="M156.983 318.203l-6.116-3.915c-.138-.09-.323-.05-.412.09-.09.138-.048.323.09.412l6.116 3.915c.14.09.324.05.413-.09.09-.14.05-.323-.09-.412" fill="#5B61CE"/><path d="M152.49 318.792l-1.907-5.033-.28.105-.05.294c1.563.27 3.127.54 4.69.813.162.028.316-.08.345-.243.028-.162-.08-.317-.243-.345-1.564-.27-3.127-.543-4.69-.814-.106-.017-.212.022-.28.105-.07.083-.088.195-.05.296.636 1.678 1.27 3.356 1.907 5.033.058.154.23.232.384.173.154-.058.232-.23.173-.384M149.53 324.718c3.18-1.594 6.612-2.76 9.737-4.594 1.563-.918 3.03-1.997 4.373-3.213.122-.11.132-.3.02-.42-.11-.122-.298-.132-.42-.02-1.313 1.188-2.748 2.243-4.275 3.14-3.054 1.796-6.473 2.958-9.703 4.575-.147.074-.206.253-.133.4.074.147.253.207.4.133" fill="#5B61CE"/><path d="M163.794 294.154l5.128-3.03 2.228 1.3-5.13 3.032-2.226-1.302" fill="#E84E1B"/><path d="M163.982 294.318l.073.03 2.122.48-.225.454-2.1-.51c-.06-.022-.143-.017-.19.01l-.043.067.148.935-4.024-2.352 5.333.104-1.114.637c-.057.046-.042.108.02.144" fill="#1D1D1B"/><path d="M163.982 294.318l-.028.07.073.028.01.003 2.03.46-.156.316-2.04-.496-.018.072.025-.07-.11-.018c-.05 0-.098.01-.14.033l-.027.024-.044.068-.01.053.124.78-3.64-2.126 4.776.092-.88.503-.01.006c-.038.03-.064.074-.064.122 0 .065.042.115.093.144l.01.005.027-.07.038-.064-.017-.014v-.003h-.006.005-.005.005-.004l.004.003v-.002h-.004l.004.002.008-.01-.047-.056.037.064 1.114-.636.035-.083-.072-.057-5.332-.104-.074.053.034.085 4.025 2.35.08-.002.032-.073-.145-.908.028-.043-.062-.04.037.064.067-.013.06.01.007.002 2.1.51.084-.04.225-.452v-.065l-.05-.04-2.117-.483-.066-.027-.028.07.038-.065-.038.065" fill="#E84E1B"/><path d="M165.59 293.985l3.394-1.983.828.483-3.394 1.984-.827-.485" fill="#ECF0F3"/><path d="M209.258 268.793l5.13-3.03 2.226 1.3-5.128 3.032-2.228-1.302" fill="#93C01F"/><path d="M209.447 268.957l.072.03 2.12.482-.224.45-2.1-.51c-.06-.02-.142-.016-.188.01l-.044.068.15.936-4.025-2.352 5.33.104-1.113.637c-.056.046-.04.108.02.144" fill="#1D1D1B"/><path d="M209.447 268.957l-.028.07.07.028.012.003 2.03.462-.156.314-2.042-.495-.017.07.025-.07-.11-.017c-.05 0-.098.01-.142.033l-.025.024-.044.067-.01.052.125.78-3.64-2.128 4.775.093-.88.503-.01.007c-.037.03-.063.074-.063.123 0 .064.042.114.092.143l.01.006.027-.07.037-.064-.017-.014v-.002h-.005l.005.002v-.002h-.005l.005.002h-.004.004-.004.004l.008-.008-.048-.057.038.064 1.114-.636.034-.082-.07-.056-5.333-.104-.073.054.034.085 4.026 2.35h.08l.03-.075-.144-.908.028-.043-.062-.04.037.065.066-.013.06.01.01.002 2.1.51.083-.04.225-.452v-.065l-.05-.04-2.117-.483-.066-.026-.027.07.037-.066-.037.065" fill="#93C01F"/><path d="M211.055 268.624l3.394-1.983.826.484-3.393 1.983-.828-.483" fill="#ECF0F3"/><path d="M105.39 320.423l-18.153 10.53 54.81 31.66 18.233-10.483-18.298-10.57-9.147 5.27-11.106-6.41 9.173-5.26-25.514-14.737" fill="#7A7291"/><path d="M160.28 352.13l-18.234 10.482 8.387 4.846 18.152-10.53-8.305-4.798" fill="#867D98"/><path d="M210.588 251.834L80.304 326.978l-9.133-5.276 130.246-75.166 9.172 5.298" fill="#CCCCCD"/><path d="M76.454 321.563c.626.064 1.103.41 1.066.775-.038.365-.575.608-1.2.544-.627-.064-1.104-.41-1.067-.775.038-.364.575-.608 1.2-.544" fill="#EB5C55"/><path d="M78.853 320.16c.625.064 1.103.41 1.066.775-.04.364-.576.608-1.202.544-.626-.065-1.103-.412-1.066-.777.037-.364.575-.607 1.2-.544" fill="#F8BB31"/><path d="M81.25 318.756c.628.064 1.105.41 1.067.776-.037.364-.575.607-1.2.543-.626-.063-1.103-.41-1.066-.775.038-.364.576-.608 1.2-.544" fill="#6EB647"/><path d="M108.978 305.207c-.848-.247-2.37-.69-2.754-.786-.54-.134-1.05-.165-1.764.305-.713.47-20.053 11.78-20.493 12.026-.44.246-.548.242-.356.618.192.375 1.263 1.742 1.263 1.742l-9.05 5.25 4.807 2.776 130.23-75.143-4.806-2.777-97.076 55.99" fill="#E8E6E6"/><path d="M157.982 371.848l.032 3.445-86.8-50.158.016-3.418 86.752 50.13" fill="#B8BEC6"/><path d="M288.292 300.21l-130.31 75.07.014-3.418 130.31-75.07-.014 3.418" fill="#868C96"/><path d="M156.75 350.09l-18.142 10.537 11.834 6.836 18.198-10.504-11.89-6.87" fill="#5B5E67"/><path d="M154.326 357.457l-.016.152c.785.08 1.48.332 1.967.67.49.338.76.752.76 1.15l-.005.092c-.037.368-.304.7-.76.95-.45.248-1.077.398-1.776.398-.17 0-.34-.01-.516-.027-.786-.08-1.48-.333-1.967-.67-.49-.34-.762-.754-.76-1.15l.005-.09.002-.02-.002.018c.037-.368.304-.702.758-.95.452-.248 1.08-.398 1.778-.398.168 0 .34.01.516.027l.016-.153.015-.15c-.185-.02-.368-.03-.546-.03-.742 0-1.415.157-1.924.435-.508.276-.864.685-.916 1.188l-.002.015.002-.016c-.004.04-.006.082-.006.123.002.54.354 1.03.89 1.4.54.373 1.28.638 2.11.723.186.02.37.028.548.028.742 0 1.414-.157 1.924-.434.507-.276.863-.685.915-1.188.005-.04.006-.082.006-.123 0-.54-.352-1.03-.89-1.402-.54-.372-1.277-.637-2.11-.722l-.014.15" fill="#B1B1B1"/><path d="M153.07 360.063l2.23-1.278c.073-.04.1-.135.057-.208-.042-.073-.135-.098-.21-.056l-2.23 1.28c-.073.04-.098.134-.057.207.043.073.136.098.21.056" fill="#B1B1B1"/><path d="M152.79 358.706l2.447 1.414c.073.042.166.017.21-.056.04-.073.016-.166-.057-.208l-2.447-1.414c-.073-.042-.167-.017-.21.056-.04.073-.016.166.057.208" fill="#B1B1B1"/><path d="M80.634 327.04l130.206-75.05 6.465 3.735-130.462 75.03-6.21-3.715" fill="#2B2E32"/><path d="M217.34 255.746h.003-.003m-6.462-3.734l4.635 2.678-4.635-2.678" fill="#302F37"/><path d="M217.305 255.725l-6.797 3.91.07.04 6.765-3.928h-.003l-.035-.022" fill="#403B54"/><path d="M210.878 252.012l-6.766 3.927 6.396 3.694 6.797-3.91-6.427-3.712" fill="#1B1D1F"/><path d="M105.1 320.256l-18.244 10.492.038.02 18.233-10.496-.028-.016" fill="#403B54"/><path fill="#53575B" d="M86.856 330.748l-.013.007.038.022.014-.008-.038-.022"/><path d="M80.713 327.087l-.083.05-.026-.016-.01.008 5.49 3.173-5.37-3.213" fill="#302F37"/><path fill="#666767" d="M80.69 327.073l-.086.048.026.016.083-.05-.024-.013"/><path d="M80.593 327.128l-.015.01 6.262 3.616-.756-.453-5.49-3.172" fill="#53575B"/><path d="M98.797 316.614l-18.108 10.46.023.013 6.127 3.667h.003l.013-.006 18.243-10.492-6.303-3.642" fill="#1B1D1F"/><path d="M150.453 367.47L280.54 292.3l7.75 4.476-130.308 75.072-7.53-4.38" fill="#2B2E32"/><path d="M108.902 333.027l-9.024 5.23 11.125 6.42 9.007-5.232-11.108-6.418" fill="#B9D0DE"/><path d="M108.682 336.287s-.185.55.246.762c.43.212 1.11.547 1.8.28l-1.5-1.107-.546.064" fill="#2C2E33"/><path d="M110.893 334.178l-2.237.576-.206.928.36.59.622.497 1.297.56.73.182 1.116.165-.052.175 1.858 1.216 1.91.413.48-.14-.14-1.847-5.74-3.315" fill="#EED2B7"/><path d="M109.665 333.47c-.563.215-1.07.54-1.23.965 0 0 .154-.178.886-.618.166-.1.368-.167.584-.21l-.24-.138" fill="#2C2E33"/><path d="M109.778 333.534l-1.043.547-.89.778s-.355.537-.17.908c.182.37 1.346.604 1.346.604s-.175-.158-.045-.428c.204-.427-.228-.485-.1-.67.128-.186-.07-.13.856-.13.927 0 .45-.034.62-.355.11-.21.45-.384.79-.467l-1.362-.786" fill="#925F36"/><path d="M114.635 336.34c.007.134.004.267-.023.368-.087.33-1.082.958-1.497 1-.12.013-.35-.005-.636-.043l.044.187.254.01s1.48.25 1.8.067c.323-.185.473-1.083.446-1.32l-.01-.052-.38-.22" fill="#BBAC9E"/><path d="M116.39 337.352c-.07.545-.367 1.466-.367 1.466s-1.384.01-2.086-.244c-.39-.14-1.413-.722-1.413-.722s-.927.786-1.21 1.144c-.28.358-.77 1.675-.705 1.862.063.187 2.23 2.534 2.43 2.626l7.034-4.002-3.685-2.13" fill="#FDCD55"/><path d="M121.73 340.42l9.175-5.26 11.106 6.384-9.175 5.286-11.106-6.41" fill="#ECF0F3"/><path d="M130.54 338l-3.805 2.225 2.526 1.46 3.837-2.208L130.54 338" fill="#EC6D54"/><path d="M134.162 345.324l-1.963 1.14.646.374 1.995-1.122-.678-.392" fill="#42B498"/><path d="M138.652 342.686l-3.805 2.225.685.397 3.836-2.207-.716-.414" fill="#F7BB40"/><path d="M127.898 343.98l1.865-1.103.18.104-1.865 1.104-.18-.105M128.316 344.22l1.38-.798.18.104-1.38.8-.18-.105M128.803 344.502l1.863-1.103.18.103-1.863 1.103-.18-.104M129.22 344.744l1.17-.662.18.105-1.168.66-.18-.103M129.64 344.985l1.986-1.157.18.104-1.986 1.158-.18-.105M129.706 341.972l2.186-1.32.265.153-2.188 1.32-.264-.153M130.56 342.465l3.714-2.213.18.104-3.714 2.213-.18-.105M130.978 342.706l3.23-1.91.18.105-3.23 1.91-.18-.104M131.464 342.988l3.713-2.214.18.104-3.712 2.214-.18-.104M131.883 343.23l3.017-1.773.18.105-3.017 1.772-.18-.105M132.3 343.47l3.837-2.267.18.104-3.835 2.268-.18-.104M132.72 343.712l3.345-1.993.18.104-3.345 1.993-.18-.105M133.206 343.994l3.76-2.223.18.105-3.76 2.223-.18-.104" fill="#868C96"/><path d="M128.327 341.145l.934.54-.933-.54m3.795-2.23l.513.296-.513-.296" fill="#F7F9F9"/><path d="M131.827 338.744l-1.326.833-.81-.197.015.834-.87-.19.092.674-.717-.132.117.58.934.538.545-.33-.428-.31 3.258-1.833-.808-.466" fill="#F7B6AA"/><path d="M124.093 341.78l2.54 1.47 1.973-1.136-2.557-1.477-1.957 1.144" fill="#42B498"/><path d="M127.088 341.237l.935.54-.935-.54" fill="#F7F9F9"/><path d="M126.27 340.766c.002 0 .43 1.394-.46 2.007l.48.277c.845-.474 1.72-1.26 1.733-1.272l-.935-.54-.817-.472" fill="#A1DACC"/><path d="M127.062 343.496l.264.153.887-.524-.264-.152-.888.522" fill="#868C96"/><path d="M95.935 325.538l-9.054 5.24 11.25 6.602 8.898-5.435-11.093-6.407" fill="#FBC67F"/><path d="M98.24 326.87l-2.265.702-.19.848.33.54.57.454 1.185.512.667.167 1.02.15-.047.16 1.7 1.112 1.744.378.44-.13.09-1.864-5.245-3.03" fill="#EED2B7"/><path d="M97.112 326.218s-.856.553-1.065.74c-.21.185-.512.71-.512.71s-.048.813.12 1.15c.168.34 2.215 1.108 2.215 1.108s-.526-.375.823-.372c.433 0-1.353-.715-1.236-.884.117-.17-.363-.876-.363-.876s.275.102.43-.192c.1-.19.41-.35.97-.586l-1.382-.798" fill="#56423A"/><path d="M101.62 328.82c.006.136.002.268-.024.37-.088.33-1.082.957-1.498 1-.12.012-.35-.006-.635-.044l.044.187.255.01s1.478.25 1.8.067c.322-.184.473-1.082.445-1.32l-.01-.05-.378-.22" fill="#BBAC9E"/><path d="M102.433 329.29c-.025.36-.062.803-.67 1.292-.605.488-.788.42-1.49.167-.39-.14-.766-.417-.766-.417s-.927.786-1.21 1.144c-.28.36-.102 1.454-.038 1.64.064.188.376 3.738.578 3.83l2.232-1.363-.156-1.207 1.033.675 5.11-3.09-4.624-2.67" fill="#5B5E67"/><path d="M121.73 340.42l-8.903 5.317 11.092 6.438 8.9-5.347-11.09-6.407" fill="#99D6F1"/><path d="M123.898 342.663l-2.257 1.08-.166.75.292.48.504.402 1.05.454.593.147.906.135-.044.14 1.507.987 1.547.334 1.182-.222-.71-1.546-1.725-1.114s-.087-.288-.39-.632c-.303-.344-1.563-1.16-1.563-1.16l-.726-.237" fill="#E4C1A4"/><path d="M123.097 342.2c-.81.12-1.15.575-1.334.74-.185.166-.512.886-.512.886s-.213.96.352 1.402c.264.207 1.72.6 1.72.6s-1.888-1.244-.692-1.24c.384 0-.47-.274-.368-.424.104-.15 1.29-1.608 2.415-1.016.17.09-.617-.77.854.374 0 0-1.33-1.485-2.433-1.322" fill="#3C3C3B"/><path d="M126.41 344.358c.257.39.045.822.02.91-.076.294-.763.757-1.132.795-.105.01-.292.072-.545.04l.02.088.226.01s1.597.06 1.882-.104c.286-.163.133-.797.11-1.007l-.16-.15-.42-.582" fill="#BDA28A"/><path d="M128.744 347.19c-.022.32-1.743-1.033-2.28-.6-.54.433-.39.195-1.01-.03-.347-.125-.68-.37-.68-.37s-.822.698-1.073 1.015c-.248.318-.09 1.29-.033 1.455.057.166.334 3.315.513 3.397l1.98-1.21-.14-1.07.917.6 5.884-3.55-4.988-2.88-1.264.685 2.176 2.558" fill="#6597D0"/><path d="M118.078 327.708l-9.084 5.328 11.092 6.407 9.084-5.328-11.092-6.407" fill="#ECF0F3"/><path d="M115.2 336.62l1.628-.932.263.152-1.627.933-.263-.152M116.05 337.113l2.305-1.334.18.103-2.303 1.334-.18-.104M116.47 337.354l2.33-1.318.18.104-2.33 1.318-.18-.104M116.954 337.634l2.32-1.324.18.104-2.32 1.324-.18-.104M117.372 337.876l2.344-1.31.18.103-2.344 1.31-.18-.104M117.79 338.117l2.318-1.325.18.104-2.318 1.325-.18-.103M118.207 338.358l.867-.513.18.105-.867.512-.18-.104" fill="#5B5E67"/><path d="M111.526 334.517l3.216 1.858 2.324-1.322-3.224-1.862-2.316 1.327M121.29 336.327l2.07 1.195 4.88-2.862-2.053-1.187-4.896 2.854M108.964 333.02l.804.463 9.084-5.328-.79-.456-9.098 5.32" fill="#42B498"/><path d="M112.663 335.19l2.08 1.185 2.323-1.322-2.1-1.19-2.303 1.328" fill="#A0C86A"/><path d="M119.08 330.917l1.627-.933.263.152-1.628.933-.263-.153M119.57 331.2l1.628-.933.263.153-1.627.932-.263-.152M120.07 331.49l1.628-.934.263.152-1.628.933-.263-.15" fill="#5B5E67"/><path d="M116.356 333.225c-.323-.17-.573-.383-.718-.62l2.052-.325-1.334.945" fill="#DA4453"/><path d="M119.582 333.096c-.412.365-1.17.564-2.01.478-.15-.016-.298-.04-.44-.07l.558-1.224 1.892.816" fill="#5084C4"/><path d="M119.582 333.096c.183-.163.298-.36.32-.577.073-.708-.853-1.38-2.068-1.506-.664-.067-1.277.043-1.708.273l1.564.993 1.892.816" fill="#6EB647"/><path d="M115.638 332.606c-.103-.17-.152-.353-.134-.536.033-.32.265-.593.622-.783l1.564.993-2.052.326" fill="#A28FC3"/><path d="M117.133 333.503l.557-1.223-1.334.945c.227.118.49.214.777.278" fill="#F7BB40"/><path fill="#B8BEC6" d="M120.815 335.572c.188.02.33.123.32.232-.01.11-.173.183-.36.164-.19-.02-.332-.124-.32-.233.01-.11.172-.183.36-.163M121.536 335.15c.188.02.33.123.32.232-.01.11-.173.183-.36.164-.19-.02-.332-.124-.32-.233.01-.11.172-.183.36-.163M122.257 334.728c.188.02.33.123.32.233-.01.11-.173.183-.36.164-.19-.02-.332-.124-.32-.233.01-.108.172-.18.36-.162"/><path d="M105.095 320.283l-9.172 5.277 11.092 6.407 9.343-5.18-11.263-6.504" fill="#FFF"/><path d="M95.935 325.538l9.72 5.614 7.024-3.995-9.744-5.628-7 4.008" fill="#3AAED9"/><path d="M98.538 325.083l4.807 2.776.055 1.98-4.82-2.784-.042-1.973" fill="#8A2C33"/><path d="M100.81 323.77l4.806 2.777.02 3.993-4.82-2.783-.007-3.987" fill="#B83B46"/><path d="M102.732 322.697l4.807 2.776.02 3.994-4.82-2.783-.008-3.987" fill="#E95465"/><path d="M103.944 325.388l.295.17 2.372-1.363-.3-.173-2.368 1.366M104.52 325.72l.294.17 2.373-1.363-.3-.173-2.368 1.367M105.094 326.052l.295.17 2.372-1.362-.3-.174-2.368 1.366" fill="#FFF"/><path d="M113.008 326.017c.303.03.533.198.515.374-.018.177-.277.294-.58.264-.302-.03-.533-.2-.515-.375.018-.176.278-.294.58-.263" fill="#3AAED9"/><path d="M125.468 353.087l9.065-5.235 11.117 6.464-9.065 5.26-11.117-6.49" fill="#D3E7C9"/><path d="M135.044 348.14c-1.197.49-1.662 1.87-1.534 2.413.255 1.082 1.62 1.244 1.78 1.356l1.86.395s.476 1.227.483 1.27c.005.027 2.26-1.012 3.78-1.714l-6.37-3.72" fill="#463C39"/><path d="M136.568 349.03c-.185.198-.616.71-.83 1.394-.227.718-1.305.71-.857 1.176.3.31.886.504.886.504s1.282.453 2.163.638c0 0 .214 2.178 1.538 2.58.164.05 1.82-.055 1.82-.055s1.295-1.526 1.34-1.778c.08-.43-.048-.785-.264-1.075l-5.796-3.385" fill="#EED2B7"/><path d="M139.66 350.836c.133.447.277 1.05.17 1.26-.18.35-.643.575-.74.56-.094-.015-1.16.086-1.16.086s1.58.646 2.106.592c.525-.054.618-.848.676-1.125.03-.15-.317-.678-.65-1.14l-.402-.234" fill="#BBAC9E"/><path d="M144.27 355.158l-1.53-2.04-.207-.62s-.158.884-.236 1.062c-.228.518-.717 1.053-.96 1.31-.24.256-.736.373-1.086.364-.35-.01-1.146-.28-1.146-.28l-.356-.38.84 1.703s.528.6.85 1.043l3.833-2.162" fill="#5B5E67"/><path d="M141.736 356.587c-.54-.46-1.542-1.3-2.19-1.732-1.06-.708-1.603-2.135-1.603-2.135l-.327.543s-.803.816-1.238 1.477c-.467.71-.756 1.38-.467 1.8.175.25 1.583 1.45 2.287 2.043l3.54-1.996" fill="#E95465"/><path d="M139.118 358.064l-1.664-1.36s.958 1.328 1.144 1.578l.043.05.478-.268" fill="#DA4453"/><path d="M145.69 354.358l-4.88-2.85c.095.122 1.107.586 1.572 1.456.57 1.066 1.452 1.79 1.968 2.15l1.34-.756" fill="#E95465"/><path d="M143.722 342.57l-9.176 5.274 11.132 6.51 9.164-5.34-11.12-6.445" fill="#2C2E33"/><path d="M111.385 181.902l-1.415-.182-.68.9-.25.772-.093.778.115 1.116.15.488.307.626-.134.164-.104 2.038.437 1.207.27.045 1.36-2.124.035-5.828" fill="#EED2B7"/><path d="M111.392 180.65s-.74.263-.956.388c-.217.124-.712.598-.712.598s-.598.923-.77 1.39c-.174.467.108 2.26.108 2.26s.055-.666.597-.068c.173.192-.04-1.426.128-1.57.168-.146.475-1.177.475-1.177s.04.24.31-.033c.177-.178.417-.225.81-.252l.01-1.535" fill="#56423A"/><path d="M111.363 185.657c-.093.16-.19.312-.27.417-.27.345-1.12.635-1.318.5-.057-.036-.137-.16-.226-.33l-.115.237.094.126s.42.942.68.87c.26-.07.96-1.047 1.118-1.334l.033-.066.003-.42" fill="#BBAC9E"/><path d="M111.358 186.562c-.266.406-.596.903-1.188 1.203-.592.3-.618.14-.722-.463-.057-.336-.013-.82-.013-.82s-.934.502-1.302.793c-.37.292-1.67 2.334-1.777 2.58-.107.245-1.3 5.302-1.284 5.497l2.368-1.363.47-2.104.28 1.664 3.138-1.85.03-5.138" fill="#5B5E67"/><path d="M195.598 230.24l.054-3.2.98-5.384.893 4.232 1.95 2.876s-1.614-.66-2.605-.45c-.54.116-1.272 1.926-1.272 1.926" fill="#212327"/><path d="M386.66 257.95s-1.206 1.445-.845 2.288c.362.843 4.36 2.214 5.213 2.185 1.828-.06 3.83-1.22 3.83-1.22s2.653-5.904 3.256-6.99c.603-1.083 2.807-4.177 3.135-4.697.387-.617.157-3.09-1.282-4.096-.976-.683-1.676-1.81-2.16-3.135-.48-1.325-1.44-5.46-1.44-5.46l-6.694 3.897s2.725 5.417 2.81 6.595c.087 1.18-1.605 5.452-1.605 5.452l-4.22 5.18" fill="#EED2B7"/><path d="M388.644 255.016s1.515-1.984 3.686-1.382c2.17.603 3.342 1.32 3.704 1.682.36.36 1.346 1.874 1.346 1.874l-2.522 4.012s-1.447-2.168-4.22-3.132c-2.773-.964-3.98-.12-3.98-.12l1.986-2.934" fill="#5084C4"/><path d="M228.873 345.05l4.14 20.172s.658 3.946 1.33 4.192c.67.247 4.59.083 4.59.083s-.2-5.926-.355-7.303c-.154-1.376.704-10.432 1.038-11.755.334-1.325-.88-7.354-.88-7.354l-9.863 1.964" fill="#EED2B7"/><path d="M238.84 368.394s.258 2.56.402 3.41c.145.852-1.663 3.196-3.203 3.23-1.54.034-4.59-4.25-4.59-4.25s-5.875-2.146-6.82-3.07c-.677-.664-1.557-1.682-.23-2.88 1.195-1.08 3.646-2.32 4.538-1.774.892.546 2.93 1.388 2.93 1.388l2.016.968 4.955 2.978M211.95 346.856s-.64 1.385-.48 2.397c.16 1.013.907 6.286.907 6.286l1.866 20.507s.213 3.995.853 4.314c.64.32 4.553.595 4.553.595s.46-5.912.46-7.297c0-1.385 1.863-10.29 2.343-11.567.48-1.278-.053-7.403-.053-7.403l-10.45-7.83" fill="#EED2B7"/><path d="M212.705 352.344s.963.425 2.055.192c1.177-.252 2.543-.447 3.142-.175.984.45 21.146 12.81 24.123 12.984 2.977.172 24.732-10.806 24.43-12.93-.303-2.122-26.545-15.763-26.545-15.763l-27.205 15.694" fill="#2C2E33"/><path d="M259.16 344.655l-28.568-5.29s-3.938-1.8-6.54-2.132l-11.124 6.626c.02.44.078.708.078.708s2.922 1.638 6.72 3.738c6.392 3.535 15.263 8.38 16.854 8.93 4.408 1.523 14.615-1.787 17.835-3.58 3.218-1.794 4.746-9 4.746-9" fill="#42B498"/><path d="M244.21 291.497l-3.454-7.493s-.846-5.5-.208-7.72c.638-2.22 4.024-4.31 5.547-5.23 1.523-.92 9.38-1.847 11.417 1.567 1.277 2.14.255 6.425 0 6.602-.203.142-.63 6.795-.63 6.795s-3.207 3.33-3.357 5.2c-.14 1.74-.47 5.194-.47 5.194l-10.423 2.272 1.578-7.185" fill="#56423A"/><path d="M257.394 274.248s1.247 1.265 1.488 3.285c.28 2.342.28 10.09-1.838 11.785-1.514 1.213-2.106 1.176-2.106 1.176l-.605 2.378s-.425 4.1-2.497 4.772c-2.073.672-8.845-1.294-8.845-1.294l1.22-4.853s3.584.606 4.803.257c1.22-.35 2.287-1.886 3.125-2.584.838-.698 2.384-1.643 2.384-1.643s-.827-.82-1.037-2.878c-.21-2.06 1.52-2.77 2.11-2.007.59.762.93 1.44.93 1.44l.174-8.05.694-1.785" fill="#EED2B7"/><path d="M213.947 321.723l-1.323 5.112 3.124 3.18s2.987 1.3 5.018 1.03c2.032-.27 10.943-11.9 10.943-11.9s-1.037 16.713-2.706 19.55c-1.67 2.837-.703 4.613 3.146 6.784 3.848 2.17 17.967 1.62 17.967 1.62l12.222-14.604s10.247-20.34 10.104-20.408c-.142-.066-1.79-12.083-5.197-13.463-3.408-1.38-13.062-3.975-13.062-3.975l-9.975-.192s-10.162 1.393-12.218 3.4c-2.056 2.005-16.4 20.718-16.4 20.718l-1.645 3.147" fill="#5B5E67"/><path d="M223.332 329.176l9.946-14.793-2.123 8.773-3.62 1.59-4.203 4.43M260.814 318.272l.168-11.544 2.582 8.857-2.75 2.687" fill="#414447"/><path d="M249.932 324.6c.33-2.312 27.812-18.11 27.256-16.09-.557 2.017-10.733 43.905-10.733 43.905l-22.402 11.54s5.548-37.043 5.88-39.356" fill="#2C2E33"/><path d="M274.254 320.342s1.263 6.898.418 8.867c-.436 1.014-3.174 2.476-3.174 2.476l2.756-11.344" fill="#5B5E67"/><path d="M219.135 310.988s-.077-1.937 0-2.657.023-2.137-.4-1.85c-.423.29-.62.96-.807.96-.186 0 .132-3.23-.49-3.587-.62-.356-3.487-.963-4.293 0-.805.964-.926 2.73-.926 2.73l1.265 5.153 5.65-.748" fill="#EED2B7"/><path d="M212.356 325.318c-.146-1.884.572-12.78.572-12.78s.37-1.776 2.39-1.986c2.02-.21 3.817.436 3.817.436l.614 4.03-6.063 12.9-1.33-2.6" fill="#5B5E67"/><path d="M212.928 304.16s-.35.69-.71 1.343c-.358.654.118 3.596.118 3.596l1.01 2.55.383-.426s-.707-1.992-1.106-3.308c-.405-1.332.304-3.755.304-3.755" fill="#B7A587"/><path d="M236.77 371.61l-20.96 15.043-.452 2.806 23.128-15.297 13.137 19.036h1.615l-11.158-19.822 22.068 5.247-.91-1.898-23.313-8.078-19.57 3.284v1.408l16.416-1.733" fill="#2C2E33"/><path d="M219.17 389.19c0 1.383-1.12 2.504-2.504 2.504-1.383 0-2.504-1.12-2.504-2.503 0-1.38 1.12-2.5 2.504-2.5s2.505 1.12 2.505 2.5M254.9 394.695c0 1.38-1.123 2.502-2.506 2.502-1.383 0-2.505-1.12-2.505-2.502 0-1.382 1.12-2.503 2.504-2.503 1.383 0 2.505 1.12 2.505 2.503M265.024 380.148c0 1.382-1.122 2.502-2.505 2.502-1.384 0-2.505-1.12-2.505-2.502 0-1.382 1.12-2.503 2.504-2.503 1.382 0 2.504 1.12 2.504 2.503" fill="#2C2E33"/><path d="M240.53 295.043s1.43-.42 2.005-1.31c.575-.89-1.197-1.89-.85-2.038.35-.148 2.576-.495 4.188-.316 1.44.158 12.716-.58 13.18.862.252.782-2.064 1.605-2.03 2.063.083 1.17 1.325 1.568 1.325 1.568h-8.637l-9.18-.83" fill="#5B5E67"/><path d="M253.824 175.09c-.258-2.533 27.434-11.74 28.437-8.622 1.005 3.12 2.36 30.998 2.36 30.998l-25.567 14.743s-4.858-33.48-5.23-37.12" fill="#2C2E33"/><path d="M264.986 208.787l-1.384.8.01.01 1.38-.8-.006-.01" fill="#514D5D"/><path d="M264.993 208.798l-1.382.798 3.34 3.4.575-.33-2.532-3.868" fill="#AEAEAE"/><path d="M267.525 212.665l-.574.33 2.37 2.413-1.795-2.743" fill="#C5C4C4"/><path d="M264.92 208.685l-1.623.59.305.31 1.384-.798-.067-.102" fill="#25272B"/><path d="M298.115 189.657l-3.19 1.79.063.04 3.153-1.82-.025-.01" fill="#514D5D"/><path d="M316.217 197.504l-6.257 3.6 1.648 1.062 3.005.847 4.234.93 1.47-4.662-4.1-1.776" fill="#B4C5AB"/><path d="M298.14 189.668l-3.152 1.82 4.29 2.723.114.075 4.034-2.326-5.285-2.292" fill="#AEAEAE"/><path d="M303.426 191.96l-4.034 2.325 4.514 2.912 4.98-2.87-5.46-2.368" fill="#C5C4C4"/><path d="M308.887 194.326l-4.98 2.87 6.053 3.907 6.257-3.6-7.33-3.177" fill="#25272B"/><path d="M274.162 211.348l.675 1.58s1.756 2.224 1.89 2.556c.142.35-.026.703-.026.703s1.196.778 1.477 1.705c.282.926-1.404 1.964-1.404 1.964s-2.247.515-4.073-.28c-.433-.19-2.585-4.258-2.585-4.258l-1.242-2.258 1.56-3.785 3.73 2.073M272.74 157.772l7.696-5.266 2.742.865.998 1.836 1.08 3.37-1.047 3.256-.792 2.17-1.258 3.17.538.128.372 6.695-1.805 5.613-2.92 3.398-3.67-5.175-.607-7.394s-.126-.317-.54-1.404c-.106-.28-.434-.943-.545-1.276-.545-1.617-1.12-6.64-1.12-6.64l.878-3.344" fill="#D6B195"/><path d="M273.53 169.032c.78 1.554 3.065 2.148 3.398 2.24 1.09.297 3.373-1.526 4.185-2.645.23-.318.776-.807 1.14-1.686l.248.236-.39.743s-2.79 5.26-3.848 5.876c-1.058.617-2.864-1.09-3.497-1.56-.042-.03-.263-.712-.308-.76l-.928-2.444" fill="#AA8E78"/><path d="M278.322 181.84c1.073.523-.1-4.95 1.634-7.09 1.62-2 2.035-2.27 2.47-4.697.24-1.347.075-2.877.075-2.877s3.742-.72 5.235-.933c1.492-.214 4.376 1.477 4.806 1.97.43.494 6.986 11.197 6.916 11.925l-4.5.192-3.2-2.443-.36 15.666-19.832 11.44-2.242-14.345-.445 7.77 1.458 7.143-5.416 3.126s-4.2-5.875-4.627-8.918c-.428-3.043 2.82-19.714 2.82-19.714s2.177-4.657 5.764-6.9c1.92-1.203 5.19-2.718 5.19-2.718l4.255 11.404" fill="#6597D0"/><path d="M269.46 201.278l5.407 9.47-.54.99c.002 0-1.705-.165-2.464.302-.76.466-2.07 2.138-2.07 2.138l.542 1.653-1.014-.422-4.4-6.722-1.397-6.128 5.938-1.28" fill="#6597D0"/><path d="M285.26 154.326l-.016-.002c-.703-2.614-3.376-3.496-3.376-3.496s-3.437-.68-4.317-.39c-.878.287-2.98.53-4.88 2.917-2.583 3.25-.083 12.73-.083 12.73-.95-6.877.536-2.6.565-3.315.074-1.896.583-3.43 1.973-3.987 1.982-.793 1.143 1.637 1.548 1.242 1.342-1.305 2.323-2.018 2.533-2.035.68-.053-.832 4.07.205 3.082 2.416-2.3 3.09-2.174 4.026-2.526.46-.175-.627 5.005-.627 5.005s.623-1.54 1.254-3.21c.18-.24.356-.437.445-.432.45.022-.088 1.138-.212 1.525-.154.483-.59 1.768-.596 1.79-.006.022 1.262-2.593 1.66-3.88.563-1.824.057-4.995-.1-5.017" fill="#3C3C3B"/><path d="M290.16 167.107l5.03 5.32 8.444 13.027 14.747 10.674s-.503 2.958-1.645 3.886c-1.143.928-3.773 2.152-3.773 2.152l-12.7-8.522-3.366-4.22-6.09-6.83-.647-15.487" fill="#6597D0"/><path d="M312.52 198.784s.317-2.048.784-2.06c.468-.01 3.368-1.098 3.368-1.098l1.71.502s3.677 2.998 4.014 3.43c.336.433.224 2.11 0 2.505-.225.395-2.832 2.582-3.55 1.88-.715-.7-2.657-1.88-2.657-1.88s1.185 1.175 0 1.228c-1.187.054-3.67-4.506-3.67-4.506" fill="#D6B195"/><path d="M275.823 214.298l1.608-1.484 1.676-.346-.7 1.555-1.68 1.46-.5-.545-.403-.64" fill="#E84E1B"/><path d="M274.486 215.392l-1.15-.94-.004 1.166s.39.863 1.372 1.255c.984.392 2.7-.114 2.7-.114s-.41-.775-.703-.573c-.877.6-2.214-.795-2.214-.795M272.395 219.134l1.584.41h2.023l1.663-.41s-.212.615-.893.722c-.682.107-2.405.38-3.44 0-1.037-.38-.938-.722-.938-.722" fill="#AA8E78"/><path d="M274.486 215.392l-4.427 4.033.998 1.258 4.587-4.47-.6-.345-.56-.476" fill="#E84E1B"/><path d="M268.873 195.31c.22-.653.322-7.936.322-7.936l2.668 5.936 1.678 2.316.67 5.652 4-.12-6.646 3.834-1.932-12.357-.76 2.675M291.395 193.553l.033-10.547 1.665 2.153-2.3-6.745-1.124 4.36.49 7.823-3.206 5.585 4.44-2.63" fill="#5084C4"/><path d="M234.792 350.115c-1.65 0-3.26-.805-4.95-1.65-1.943-.97-13.35-6.64-13.35-6.64l1.273-.79s10.706 5.316 12.65 6.287c1.887.943 3.056 1.433 4.61 1.123 1.167-.233 1.585-1.144 1.838-1.76l2.033.243c-.047.117-1.078 2.678-3.16 3.094-.316.064-.63.093-.944.093" fill="#95EFD8"/><path d="M232.866 346.426c-1.01 0-2.847-.8-6.156-2.43-.708-.35-1.32-.653-1.696-.815-1.612-.693-5.907-2.696-6.08-2.78l1.376-.807c.042.02 3.625 1.73 5.21 2.414.406.175 1.032.483 1.757.84 1.467.724 2.49 1.247 3.28 1.608 1.53 1.185 3.06 1.58 3.06 1.58-.175.333-.29.39-.75.39M228.205 341.42l-6.417-2.65 1.393-.826 5.177 2.2-.152 1.275" fill="#95EFD8"/><path d="M214.456 351.45l-1.298-1.946-1.154-1.955-.07-2.07.994-1.62 1.368-.68 6.238 3.57-.81 1.556-5.268 3.143" fill="#42B498"/><path d="M236.68 354.567c-1.324 0-3.093-.925-5.213-1.812-.332-.14-.638-.267-.906-.375-.975-.39-3.047-1.79-4.876-2.79-1.34-.735-5.1-3.112-5.515-3.273-1.04-.403-6.332-2.012-7.115-2.48l1.2-.748c3.487 1.16 6.956 2.627 7.666 2.903.47.182 2.64 1.525 4.38 2.475 1.796.983 3.72 2.553 4.624 2.914.274.11.586.24.925.382 1.515.634 4.052 1.697 5.11 1.503 1.045-.192 2.46-1.053 2.92-2.11.54-1.24.798-4.1.807-4.135l1.762.037c-.038.14-.82 3.276-1.397 4.605-.66 1.52-2.484 2.607-3.863 2.86-.16.03-.33.042-.51.042" fill="#95EFD8"/><path d="M244.55 347.17c-.528 2.505-1.194 5.906-1.815 6.797-1.137 1.63-2.706 2.052-4.87 2.206-1.702.12-3.734-.84-4.445-1.207l.016-.013c-.62-.293-14.46-7.477-14.608-7.617-.13-.13-3.337-.997-6.878-1.705l.054 1.76c1.374.274 3.358.692 4.105.425.51.306 3.18.284 3.455.498l13.23 7.18.003-.003c1.033.562 3.525 1.803 5.4 1.803.13 0 .26-.004.387-.013 2.136-.153 3.707-.27 5.213-2.43.974-1.395 2.143-6.99 2.288-7.68h-1.537M243.604 357.21l1.766-1.905-.212 1.624-1.554.28" fill="#95EFD8"/><path d="M213.443 349.94c.132-.034 5.963-1.39 5.963-1.39l-1.91.986-3.435 1.408-.617-1.005" fill="#95EFD8"/><path d="M219.825 377.683s.212 2.688.344 3.584c.13.896-1.82 3.31-3.434 3.31-1.615 0-5.603-3.647-5.603-3.647s-6.723-2.762-7.064-3.695c-.34-.933-.145-3.34 1.274-4.564 1.28-1.103 1.872-1.76 2.794-1.168.922.592 3.91 2.498 3.91 2.498l2.653.446 5.125 3.237" fill="#EED2B7"/><path d="M238.003 362.878v7.873l3.7.2v-7.166l-3.7-.906" fill="#2C2E33"/><path d="M188.44 225.808c-.31 0-.563.252-.563.562 0 .31.252.562.563.562.31 0 .563-.252.563-.562 0-.31-.252-.562-.563-.562M185.174 224.47c-.31 0-.563.252-.563.562 0 .31.253.562.564.562.31 0 .562-.252.562-.562 0-.31-.252-.562-.562-.562M184.88 227.31c-.31 0-.563.25-.563.562 0 .31.252.562.562.562.31 0 .562-.252.562-.562 0-.31-.252-.563-.563-.563M188.324 228.668c-.31 0-.562.252-.562.562 0 .31.252.563.562.563.31 0 .563-.252.563-.563 0-.31-.252-.562-.563-.562M191.086 227.668c-.31 0-.563.252-.563.563 0 .31.253.563.563.563.31 0 .563-.252.563-.562 0-.31-.253-.562-.564-.562M191.85 224.274c-.312 0-.564.252-.564.563 0 .31.252.562.563.562.31 0 .56-.253.56-.563 0-.31-.25-.563-.56-.563M188.288 222.447c-.31 0-.562.25-.562.56 0 .312.25.564.562.564.31 0 .563-.25.563-.562 0-.31-.25-.56-.562-.56M184.303 221.075c-.31 0-.563.252-.563.563 0 .31.252.562.563.562.31 0 .562-.252.562-.562 0-.31-.252-.563-.562-.563M182.453 223.394c-.31 0-.563.25-.563.562 0 .31.252.562.563.562.31 0 .562-.252.562-.562 0-.31-.252-.562-.562-.562M183.062 230.215c-.31 0-.563.25-.563.56 0 .313.25.564.562.564.31 0 .562-.252.562-.564 0-.31-.252-.56-.562-.56M185.903 230.802c-.31 0-.562.252-.562.563 0 .31.253.56.563.56.31 0 .563-.25.563-.56 0-.31-.252-.563-.563-.563M191.392 230.574c-.31 0-.563.25-.563.562 0 .31.25.562.562.562.31 0 .562-.252.562-.562 0-.31-.252-.562-.562-.562M193.842 229.007c-.31 0-.563.252-.563.562 0 .31.25.56.562.56.31 0 .562-.25.562-.56 0-.31-.252-.563-.562-.563M194.038 226.037c-.31 0-.563.25-.563.562 0 .31.252.56.563.56.31 0 .563-.25.563-.56 0-.312-.25-.563-.562-.563M195.638 223.59c-.31 0-.562.25-.562.56 0 .312.252.563.562.563.21 0 .393-.115.49-.284l.066-.367c-.042-.268-.275-.474-.556-.474" fill="#873944"/><path fill="#81343E" d="M196.194 224.063l-.066.366c.046-.083.073-.178.073-.28 0-.03-.002-.058-.006-.087"/><path d="M193.482 221.468c-.31 0-.562.25-.562.56 0 .312.252.564.562.564.31 0 .563-.252.563-.563 0-.31-.252-.562-.563-.562M189.954 219.835c-.31 0-.563.252-.563.563 0 .31.253.562.564.562.31 0 .563-.252.563-.562 0-.31-.252-.563-.563-.563M193.862 218.006c-.31 0-.563.253-.563.563 0 .31.25.56.562.56.31 0 .563-.25.563-.56 0-.31-.253-.564-.563-.564M196.365 219.738c-.31 0-.562.252-.562.562 0 .31.252.562.562.562.31 0 .563-.25.563-.562 0-.31-.252-.562-.563-.562M197.04 216.468c-.31 0-.563.25-.563.562 0 .31.252.562.562.562.31 0 .562-.252.562-.562 0-.31-.252-.562-.563-.562M193.38 214.833c-.31 0-.562.25-.562.56 0 .31.252.563.562.563.31 0 .563-.252.563-.562 0-.31-.252-.56-.563-.56M196.414 213.92c-.312 0-.563.25-.563.56 0 .31.252.563.564.563.31 0 .562-.252.562-.563 0-.31-.252-.56-.562-.56M199.446 213.197c-.31 0-.563.25-.563.562 0 .31.252.56.563.56.31 0 .563-.25.563-.56 0-.312-.253-.563-.564-.563M200.168 216.083c-.31 0-.563.252-.563.562 0 .31.252.562.563.562.31 0 .563-.252.563-.562 0-.31-.25-.562-.562-.562M199.494 219.065c-.31 0-.563.25-.563.562 0 .31.254.562.564.562.31 0 .563-.252.563-.563 0-.31-.252-.562-.563-.562M198.435 222.19c-.31 0-.563.253-.563.564 0 .31.253.56.563.56.31 0 .563-.25.563-.56 0-.31-.252-.563-.563-.563M200.505 224.02c-.31 0-.562.25-.562.56 0 .312.252.563.562.563.31 0 .563-.25.563-.562 0-.31-.252-.56-.563-.56M198.27 226.224c-.158 0-.3.065-.403.17l.62.91c.202-.084.344-.284.344-.517 0-.31-.25-.563-.56-.563" fill="#873944"/><path d="M197.867 226.393c-.1.102-.16.24-.16.394 0 .31.252.56.562.56.076 0 .15-.014.216-.042l-.62-.912" fill="#81343E"/><path fill="#873944" d="M195.65 227.245c-.2.087-.34.285-.34.515 0 .224.132.417.322.508l.017-1.023"/><path d="M195.874 227.198c-.08 0-.156.017-.225.047l-.018 1.023c.073.035.155.054.242.054.31 0 .562-.25.562-.562 0-.31-.252-.562-.562-.562" fill="#81343E"/><path d="M201.324 227.482c-.31 0-.563.252-.563.562 0 .31.253.562.564.562.31 0 .562-.25.562-.562 0-.31-.252-.562-.562-.562M203.42 225.072c-.31 0-.56.252-.56.562 0 .31.25.562.56.562.313 0 .564-.25.564-.562 0-.31-.25-.562-.563-.562M201.853 221.422c-.31 0-.563.25-.563.562 0 .31.253.562.563.562.31 0 .563-.252.563-.562 0-.31-.252-.562-.563-.562M202.19 218.247c-.31 0-.563.252-.563.562 0 .31.252.56.563.56.31 0 .563-.25.563-.56 0-.31-.252-.563-.563-.563M204.405 222.384c-.312 0-.563.25-.563.562 0 .31.25.562.563.562.31 0 .562-.252.562-.562 0-.31-.252-.562-.562-.562M206.378 224.548c-.31 0-.562.25-.562.562 0 .31.252.562.562.562.31 0 .563-.25.563-.562 0-.31-.25-.562-.562-.562M204.982 219.402c-.31 0-.562.25-.562.562 0 .31.252.562.562.562.31 0 .563-.252.563-.562 0-.31-.252-.562-.563-.562M205.56 215.794c-.31 0-.563.252-.563.562 0 .31.252.562.563.562.31 0 .562-.25.562-.562 0-.31-.25-.562-.562-.562M182.048 218.89c-.31 0-.562.25-.562.56 0 .31.252.563.562.563.31 0 .563-.252.563-.562 0-.31-.25-.56-.562-.56" fill="#873944"/><path fill="#CA7E8A" d="M181.353 221.15l-.013.003.027 1.09.015.002-.03-1.094"/><path d="M181.442 221.133l-.09.018.03 1.095.06.012c.31 0 .562-.25.562-.56 0-.312-.252-.564-.562-.564" fill="#873944"/><path fill="#C9726C" d="M188.336 232.604l.002.014c.19.022.403.045.538.057.018.002.038.003.06.003h.044c-.16-.014-.382-.04-.644-.074"/><path d="M188.882 231.96c-.31 0-.563.25-.563.562l.016.082c.262.035.483.06.644.073.126-.005.29-.03.445-.057l.02-.098c0-.31-.253-.563-.563-.563" fill="#873944"/><path fill="#C9726C" d="M205.802 227.638c-.238.088-.586.23-.988.398.005.005.01.01.013.015l.976-.392v-.02"/><path d="M205.246 227.123c-.31 0-.563.252-.563.562 0 .135.052.254.13.35.403-.166.75-.31.99-.397-.026-.287-.262-.515-.557-.515M206.62 221.18c-.312 0-.564.253-.564.563 0 .31.252.562.563.562.066 0 .13-.016.19-.038l-.07-1.062c-.04-.008-.078-.024-.12-.024M205.795 213.38l-.69.767c.093.187.28.318.503.318.31 0 .563-.252.563-.562 0-.244-.157-.447-.375-.524M203.085 215.385c-.177.095-.302.276-.302.49 0 .31.252.562.563.562.31 0 .562-.25.562-.562 0-.16-.07-.303-.178-.405-.33.3-.536.474-.536.474l-.11-.56" fill="#873944"/><path fill="#E14C5C" d="M203.725 215.465l-.53.48s.206-.175.535-.475l-.005-.005"/><path d="M202.46 211.862c-.224.074-.39.28-.39.528 0 .308.25.56.56.56l-.17-1.088M185.767 218.834c-.053.085-.092.18-.092.288 0 .31.252.562.563.562.31 0 .563-.252.563-.562 0-.054-.016-.102-.03-.15l-.476-.073-.527-.066" fill="#873944"/><path fill="#E14C5C" d="M185.775 218.82l-.008.014.527.065-.52-.08"/><path fill="#CA7E8A" d="M181.513 227.24c-.01.01-.018.02-.026.03l.025.72.02.02c-.005-.244-.012-.502-.02-.77"/><path d="M181.923 227.05c-.165 0-.308.075-.41.19l.02.77c.1.1.237.163.39.163.31 0 .563-.25.563-.56 0-.312-.252-.564-.563-.564" fill="#873944"/><path d="M387.226 242.033s1.696 1.89 2.438 1.703c.742-.185 1.484.742 1.484.742s2.04.556 3.896 0c1.855-.556 2.864-2.292 2.864-2.292l-.525-2.716 1.197-3.98-11.354 6.543" fill="#3E6696"/></g></svg>