<svg width="51" height="50" viewBox="0 0 51 50" xmlns="http://www.w3.org/2000/svg"><title>linkedin</title><g transform="translate(.747)" fill="none" fill-rule="evenodd"><ellipse fill="#4FC1E9" cx="25.129" cy="25" rx="25.039" ry="25"/><path d="M11.74 19.885h6.666v17.592H11.74V19.885zm3.287-8.19c-1.946 0-3.522 1.374-3.522 3.07 0 1.695 1.576 3.067 3.522 3.067 1.945 0 3.523-1.372 3.523-3.068 0-1.695-1.578-3.07-3.523-3.07zM40 25.517c0-1.98-1.092-4.57-4.286-5.68-1.524-.532-3.492-.612-5.54.148-2.046.76-2.91 2.166-2.91 2.166v.002c-.045.02-.08.043-.126.06-.184-.22-.103-2.327-.103-2.327h-5.998v17.592h6.85v-10.47c0-1.01 1.077-2.11 2.253-2.276h.85c1.364.165 2.215 1.01 2.272 2.474V37.48H40V31.347c.07-1.96.136-3.923 0-5.83z" fill="#FFF"/></g></svg>