<svg width="15" height="14" viewBox="0 0 15 14" xmlns="http://www.w3.org/2000/svg"><title>Fill 54</title><path d="M.57 2.98c.297.3.713.448 1.21.448H1.8c.532 0 .947-.15 1.262-.447.316-.313.466-.677.466-1.14 0-.447-.167-.827-.466-1.125C2.76.418 2.346.27 1.83.27 1.317.27.9.417.587.714.27 1.013.104 1.393.104 1.84c0 .463.15.827.465 1.14zM.286 13.815h3.056v-9.13H.287v9.13zm7.79 0V8.72c0-.314.033-.562.1-.744.132-.314.332-.58.597-.794.25-.215.58-.315.98-.315.53 0 .913.182 1.163.546.25.364.382.877.382 1.522v4.88h3.055V8.587c0-1.357-.316-2.382-.963-3.076-.648-.695-1.496-1.042-2.558-1.042-.382 0-.748.05-1.064.15-.315.08-.58.214-.813.395-.216.166-.382.33-.515.48-.133.148-.266.314-.382.512h.017V4.685H5.02l.017.446v2.73c0 1.52 0 3.507-.017 5.954h3.057z" fill="#4FC1E9" fill-rule="evenodd"/></svg>