<svg width="137" height="22" viewBox="0 0 137 22" xmlns="http://www.w3.org/2000/svg"><title>Connecter Logo</title><path d="M6.348 1.432c.913 0 1.69.126 2.334.374.643.25 1.115.587 1.416 1.015.3.428.518.826.654 1.195.134.368.212.76.233 1.18 0 .416.26.626.778.626.27 0 .466-.07.59-.21.126-.137.188-.397.188-.775 0-1.333-.555-2.472-1.663-3.417C9.767.473 8.257 0 6.347 0 4.46 0 2.932.508 1.758 1.523.588 2.537 0 4.12 0 6.268v9.463c0 2.15.576 3.733 1.728 4.747C2.878 21.492 4.388 22 6.255 22c1.93 0 3.458-.478 4.59-1.433 1.13-.956 1.696-2.09 1.696-3.403 0-.398-.06-.667-.186-.806-.125-.14-.332-.21-.623-.21-.455 0-.703.21-.745.628-.062.417-.124.746-.186.985-.064.24-.194.563-.39.97-.198.41-.448.728-.748.956-.3.23-.726.433-1.276.612-.55.18-1.198.27-1.944.27-3.258 0-4.887-1.613-4.887-4.837V6.27c0-3.223 1.6-4.836 4.793-4.836zM22.575 0c-1.908 0-3.428.503-4.558 1.507-1.13 1.005-1.697 2.592-1.697 4.76v9.464c0 2.17.566 3.757 1.697 4.762 1.13 1.005 2.65 1.508 4.558 1.508 1.888 0 3.408-.503 4.56-1.508 1.15-1.005 1.726-2.592 1.726-4.76V6.267c0-2.17-.575-3.756-1.726-4.76C25.984.502 24.464 0 22.574 0zm4.73 15.73c0 1.613-.41 2.822-1.23 3.628-.82.806-1.985 1.21-3.5 1.21-3.132 0-4.698-1.613-4.698-4.837V6.27c0-3.223 1.566-4.836 4.698-4.836 1.515 0 2.68.404 3.5 1.21.82.806 1.23 2.015 1.23 3.626v9.463zM74.463 1.433c.187 0 .343-.074.467-.223.124-.15.186-.324.186-.523 0-.458-.218-.687-.654-.687H63.384c-.5 0-.747.22-.747.656v20.507c0 .44.248.658.747.658h11.078c.436 0 .654-.228.654-.686 0-.2-.062-.374-.187-.522-.125-.15-.28-.224-.468-.224h-10.27v-8.806h4.95c.435 0 .652-.22.652-.657 0-.198-.062-.368-.187-.507-.124-.14-.28-.21-.466-.21h-4.947V1.432h10.27zm9.327 0c.912 0 1.69.126 2.333.374.643.25 1.115.587 1.416 1.015.3.428.518.826.653 1.195.134.368.213.76.233 1.18 0 .416.26.626.78.626.267 0 .465-.07.59-.21.124-.137.186-.397.186-.775 0-1.333-.556-2.472-1.664-3.417C87.208.473 85.698 0 83.788 0c-1.886 0-3.417.508-4.59 1.523-1.17 1.014-1.757 2.596-1.757 4.745v9.463c0 2.15.577 3.733 1.73 4.747C80.32 21.492 81.83 22 83.695 22c1.93 0 3.46-.478 4.59-1.433 1.13-.956 1.696-2.09 1.696-3.403 0-.398-.062-.667-.187-.806-.124-.14-.332-.21-.622-.21-.456 0-.706.21-.747.628-.062.417-.124.746-.187.985-.063.24-.193.563-.39.97-.197.41-.446.728-.747.956-.3.23-.726.433-1.276.612-.55.18-1.198.27-1.944.27-3.258 0-4.886-1.613-4.886-4.837V6.27c0-3.223 1.598-4.836 4.792-4.836zM103.914 0H91.592c-.187 0-.342.07-.467.21-.125.14-.187.307-.187.506 0 .2.062.37.187.508.125.14.28.208.467.208h5.414v19.73c0 .44.26.66.78.66.517 0 .776-.22.776-.66V1.433h5.353c.436 0 .654-.248.654-.745 0-.458-.22-.687-.655-.687zm15.636 1.432c.187 0 .343-.074.468-.223.125-.15.187-.324.187-.523 0-.458-.22-.687-.654-.687h-11.078c-.498 0-.747.22-.747.656v20.507c0 .44.25.658.747.658h11.08c.434 0 .653-.228.653-.686 0-.2-.062-.374-.187-.522-.125-.15-.28-.224-.467-.224h-10.268v-8.806h4.947c.435 0 .653-.22.653-.657 0-.198-.062-.368-.187-.507-.124-.14-.28-.21-.467-.21h-4.948V1.432h10.27zm12.378 10.06c3.38-.458 5.072-2.358 5.072-5.7 0-2.05-.607-3.528-1.82-4.434C133.965.453 132.383 0 130.433 0h-5.32c-.21 0-.375.06-.5.18-.124.118-.187.268-.187.447v20.536c0 .44.26.658.778.658.52 0 .78-.218.78-.657v-9.52h4.324l4.885 9.163c.394.697.716 1.044.965 1.044.25 0 .45-.074.606-.224.157-.15.234-.322.234-.522 0-.12-.03-.24-.093-.358l-4.98-9.254zm-5.944-1.224V1.432h4.45c3.34 0 5.01 1.463 5.01 4.39 0 2.965-1.67 4.446-5.01 4.446h-4.45zM57.597.225c-.26-.15-.567-.224-.92-.224-.352 0-.658.075-.917.225-.26.148-.39.363-.39.64V16.12L47.624 1.583c-.29-.557-.587-.96-.887-1.21C46.434.125 46.066 0 45.63 0c-.87 0-1.306.29-1.306.866L44.3 16.12 36.554 1.583c-.29-.557-.587-.96-.887-1.21-.3-.248-.67-.372-1.105-.372-.87 0-1.306.29-1.306.866v20.06c0 .278.13.497.39.656.258.16.564.24.917.24.353 0 .66-.08.92-.24.258-.16.388-.378.388-.656V5.672l8.092 15.015c.435.756.984 1.134 1.648 1.134.353 0 .66-.078.92-.238.258-.16.388-.378.388-.656l.022-15.254 8.09 15.015c.436.756.986 1.134 1.65 1.134.352 0 .66-.078.92-.238.257-.16.388-.378.388-.656V.866c0-.278-.13-.493-.39-.64z" fill="#FFF" fill-rule="evenodd"/></svg>