<svg width="51" height="50" viewBox="0 0 51 50" xmlns="http://www.w3.org/2000/svg"><title>google</title><g transform="translate(.672)" fill="none" fill-rule="evenodd"><ellipse fill="#4FC1E9" cx="25.039" cy="25" rx="25.039" ry="25"/><path d="M38.717 17.927h-3.61v3.637h-1.81v-3.637h-3.614v-1.82h3.614v-3.642h1.81v3.642h3.61v1.82M26.252 28.46c-1-.935-3.21-2.055-3.327-3.544-.112-1.465 1.418-1.973 2.283-2.87.656-.674 1.398-1.806 1.52-3.065.238-2.297-.937-4.1-1.997-4.976h1.714c.49-.5 1.745-1.463 1.62-1.92-2.982.152-5.877-.204-8.47 0-5.28.413-8.465 5.913-5.326 9.963 1.145 1.472 2.986 2.072 5.52 2.296-.734 1.222.053 3.045.57 3.542-4.765.22-9.265 1.39-9.038 6.132.03.54.256 1.396.474 1.822 2.754 5.21 16.674 4.48 16.746-2.784.02-2.33-1.186-3.57-2.288-4.596zm-9.127-14.27c.31-.31.79-.542 1.33-.67 3.125-.713 5.23 2.893 5.233 5.937 0 1.634-.78 3.366-2.283 3.64-4.06.74-7.272-5.89-4.28-8.906zM14.46 32.29c.562-1.992 2.14-3.047 4.944-3.35 2.706-.287 5.412.803 6.187 3.063 2.54 7.404-13.188 7.575-11.13.288z" fill="#FFF"/></g></svg>