<svg width="950" height="851" viewBox="0 0 950 851" xmlns="http://www.w3.org/2000/svg"><title>Program Copy</title><g fill="none" fill-rule="evenodd"><path d="M787.927 699.337L476 473M784 235.27L472 467M476 468L165.914 684.51M470.914 155.125V474M165.914 219.702L470 466" stroke="#193441" stroke-width="6" stroke-linecap="square"/><g transform="translate(634 79.288)"><ellipse stroke="#979797" stroke-width="3" fill="#90959B" cx="139.764" cy="139.75" rx="139.764" ry="139.75"/><text font-family="Exo 2.0" font-size="16" font-weight="420" fill="#FFF"><tspan x="77.172" y="124.327">We help you with </tspan> <tspan x="60.148" y="143.327">logistics including co-</tspan> <tspan x="52.42" y="162.327">working space, housing, </tspan> <tspan x="69.572" y="181.327">and other logistical </tspan> <tspan x="50.34" y="200.327">questions you may have.</tspan></text><text font-family="Exo 2.0" font-size="24" font-weight="420" fill="#FFF"><tspan x="50.928" y="81.885">Accommodation</tspan></text></g><g transform="translate(330 1.673)"><ellipse stroke="#979797" stroke-width="3" fill="#CFC291" cx="139.764" cy="139.75" rx="139.764" ry="139.75"/><text font-family="Exo 2.0" font-size="16" font-weight="420" fill="#FFF"><tspan x="53.532" y="123.827">We know how to build a </tspan> <tspan x="38.868" y="142.827">team to run U.S. operations.</tspan>  <tspan x="70.828" y="180.827">We help with agile, </tspan> <tspan x="65.988" y="199.827">outsourcing, remote </tspan> <tspan x="44.012" y="218.827">collaboration, and culture.</tspan></text><text font-family="Exo 2.0" font-size="24" font-weight="420" fill="#FFF"><tspan x="110.508" y="81.885">Team</tspan></text></g><g transform="translate(26 79.288)"><ellipse stroke="#979797" stroke-width="3" fill="#D1DBBD" cx="139.764" cy="139.75" rx="139.764" ry="139.75"/><text font-family="Exo 2.0" font-size="16" font-weight="420" fill="#000"><tspan x="50.78" y="120.808">We help you incorporate </tspan> <tspan x="67.38" y="139.808">a U.S. corporation, a </tspan> <tspan x="60.804" y="158.808">requirement for a U.S. </tspan> <tspan x="71.66" y="177.808">round of financing.</tspan></text><text font-family="Exo 2.0" font-size="24" font-weight="420" fill="#000"><tspan x="65.22" y="75.058">Incorporation</tspan></text></g><g transform="translate(306 304)"><ellipse stroke="#979797" stroke-width="3" fill="#193441" cx="163.748" cy="163.845" rx="163.748" ry="163.845"/><text font-family="Exo 2.0" font-size="16" font-weight="420" fill="#FFF"><tspan x="42.316" y="121.504">Product - market fit is an ongoing </tspan> <tspan x="45.188" y="140.504">struggle, anchored in the culture </tspan> <tspan x="95.588" y="159.504">of an organization.</tspan>  <tspan x="67.596" y="197.504">We help you optimize your </tspan> <tspan x="42.284" y="216.504">product, measure results, iterate, </tspan> <tspan x="40.812" y="235.504">prototype, and communicate with </tspan> <tspan x="141.62" y="254.504">users.</tspan></text><text font-family="Exo 2.0" font-size="24" font-weight="420" fill="#FFF"><tspan x="120.764" y="76.98">Product</tspan></text></g><g transform="translate(620.927 520.923)"><ellipse stroke="#979797" stroke-width="3" fill="#91AA9D" cx="163.748" cy="163.845" rx="163.748" ry="163.845"/><text font-family="Exo 2.0" font-size="16" font-weight="420" fill="#FFF"><tspan x="39.932" y="121.504">Scaling a business can be learned. </tspan> <tspan x="45.276" y="140.504">We offer a curriculum to prepare </tspan> <tspan x="69.164" y="159.504">you for the things that are </tspan> <tspan x="94.348" y="178.504">different in the U.S.</tspan>  <tspan x="42.98" y="216.504">We show you how to organize for </tspan> <tspan x="133.052" y="235.504">success.</tspan></text><text font-family="Exo 2.0" font-size="24" font-weight="420" fill="#FFF"><tspan x="103.532" y="76.98">Curriculum</tspan></text></g><g transform="translate(1.5 520.923)"><ellipse stroke="#979797" stroke-width="3" fill="#FF712C" cx="163.773" cy="163.845" rx="163.748" ry="163.845"/><text font-family="Exo 2.0" font-size="16" font-weight="420" fill="#FFF"><tspan x="49.837" y="126.504">We use a repeatable process to </tspan> <tspan x="42.109" y="145.504">test for demand and we establish </tspan> <tspan x="63.717" y="164.504">a reference architecture for </tspan> <tspan x="80.469" y="183.504">marketing automation.</tspan>  <tspan x="55.205" y="221.504">We like scalable and low-cost </tspan> <tspan x="64.509" y="240.504">user acquisition, combining </tspan> <tspan x="53.557" y="259.504">inbound marketing with inside </tspan> <tspan x="95.589" y="278.504">consultative sales.</tspan></text><text font-family="Exo 2.0" font-size="24" font-weight="420" fill="#FFF"><tspan x="104.517" y="81.98">Customers</tspan></text></g></g></svg>