<svg width="903" height="498" viewBox="0 0 903 498" xmlns="http://www.w3.org/2000/svg"><title>Group</title><g transform="translate(-15 2)" fill="none" fill-rule="evenodd"><ellipse stroke="#193441" stroke-width="3" cx="484.022" cy="269.5" rx="202.977" ry="201.5"/><g transform="translate(539.93 344)"><ellipse stroke="#193441" stroke-width="3" fill="#FF712C" cx="75.55" cy="75" rx="75.55" ry="75"/><path d="M74.26 36c-12.313 0-23.34 8.07-26.632 19.678-.86 2.55-1.29 5.24-1.29 8.212 0 11.61 5.3 16.14 9.452 19.678.43.283.716.708 1.145.99 3.437 2.833 5.44 5.24 6.587 10.336v16.28c0 2.407 1.86 4.248 4.296 4.248H81.42c2.292 0 3.723-1.7 3.723-4.247V95.743c1.576-4.955 3.723-7.645 6.3-9.91 2.292-1.557 4.296-3.397 6.015-5.38 2.434-2.548 3.866-5.238 4.725-8.494 1.002-2.832 1.432-5.664 1.432-8.637C103.472 48.458 90.012 36 74.26 36zm7.733 75.033c0 1.416-.572 1.416-.716 1.416H67.674c-.86 0-1.288-.85-1.288-1.417v-1.416h15.75v-2.83h-15.75v-2.832h15.75l-.143 7.078zm17.183-40.065c-.716 2.832-2.148 5.238-4.153 7.504-1.575 1.982-3.436 3.54-5.584 4.955l-.144.14c-3.15 2.69-5.584 5.947-7.303 11.468v6.088h-15.75V94.47c-1.29-5.947-3.867-9.203-7.59-12.318-.43-.283-.716-.566-1.145-.85-4.01-3.397-8.59-7.078-8.59-17.554 0-2.69.428-5.096 1.144-7.362C53.07 46.052 62.95 38.69 73.975 38.69c14.032 0 26.346 11.326 26.346 24.35.288 2.69-.142 5.38-1.144 7.928zm-24.342-8.352c-4.01 0-7.303 3.256-7.303 7.22 0 3.54 2.58 6.37 5.872 7.078V92.77h2.864V76.914c3.436-.708 6.014-3.54 6.014-7.078 0-4.106-3.294-7.22-7.446-7.22zm1.432 11.467v-4.106h-2.864v4.106c-1.862-.566-3.293-2.265-3.293-4.39 0-2.547 2.146-4.67 4.724-4.67 2.577 0 4.725 2.123 4.725 4.67 0 2.125-1.29 3.824-3.294 4.39z" fill="#000"/><text font-family="Exo 2.0" font-size="24" font-weight="420" fill="#113958"><tspan x="176.545" y="68.152">Machine</tspan> <tspan x="176.545" y="97.152">Learning</tspan></text></g><g transform="translate(0 119)"><ellipse stroke="#193441" stroke-width="3" fill="#90959B" cx="282.611" cy="75" rx="74.991" ry="75"/><text font-family="Exo 2.0" font-size="23.823" font-weight="420" fill="#113958"><tspan x="13.272" y="63.005">Disrupt IT with </tspan> <tspan x="14.272" y="92.005">Micro Services</tspan></text><path d="M316.007 67.07v-1.94c0-17.45-14.1-31.55-31.546-31.55h-.175c-14.98 0-27.67 10.4-30.84 24.676-10.222.705-18.33 9.34-18.33 19.917v.705c0 10.927 8.99 19.916 19.915 19.916h13.57V95.27h-13.57c-8.988 0-16.39-7.404-16.39-16.392v-.705c0-8.99 7.402-16.392 16.39-16.392h1.41l.176-1.41c2.29-13.394 13.923-23.264 27.67-23.264h.175c15.51 0 28.022 12.514 28.022 28.024v.176c0 1.058 0 2.115-.176 3.173l-.176 1.937h2.643c6.52 0 11.984 5.288 11.984 11.986v.88c0 6.522-5.287 11.986-11.984 11.986h-14.627v3.524h14.45c8.46 0 15.51-6.874 15.51-15.51v-.88c0-7.933-6.17-14.63-14.1-15.335zm-30.136 9.164c-.175-.176-.528-.353-.704-.353-.705-.35-1.586-.35-2.115.178l-10.573 10.398c-.705.705-.705 1.763 0 2.468.353.352.88.53 1.234.53.53 0 .882-.178 1.234-.53l7.578-7.403v33.137c0 1.057.705 1.762 1.763 1.762 1.057 0 1.762-.706 1.762-1.763V81.52l7.578 7.756c.353.353.88.53 1.234.53.527 0 .88-.177 1.232-.53.705-.705.705-1.762 0-2.467l-10.22-10.576z" fill="#000"/></g><g transform="translate(405.954)"><ellipse stroke="#193441" stroke-width="3" fill="#91AA9D" cx="75.55" cy="75" rx="75.55" ry="75"/><path d="M123.902 64.167L76.052 40 28.206 64.167 51.71 78v23.5c0 4.833 3.19 8.5 7.555 8.5h33.41c4.364 0 7.554-3.5 7.554-8.5V78l10.073-6v16h3.357V70.167l10.242-6zm-47.85-20.334L116.85 64.5 76.053 88.667 35.257 64.5l40.796-20.667zM97.04 101.5c0 2.5-1.344 5-4.198 5h-33.41c-3.022 0-4.197-2.5-4.197-5V80L76.22 92.333 97.208 80v21.5h-.168z" fill="#000"/></g><text font-family="Exo 2.0" font-size="24" font-weight="420" fill="#113958" transform="translate(405.954)"><tspan x="179.305" y="32">Reduce the cost of </tspan> <tspan x="179.305" y="61">education</tspan></text><g transform="translate(607.42 147)"><ellipse stroke="#193441" stroke-width="3" fill="#D1DBBD" cx="75.55" cy="75" rx="75.55" ry="75"/><text font-family="Exo 2.0" font-size="24" font-weight="420" fill="#113958"><tspan x="173.339" y="62.851">MarTech and </tspan> <tspan x="173.339" y="91.851">analytics</tspan></text><path d="M53.444 52.94V37.986c0-.888-.59-1.48-1.474-1.48s-1.474.592-1.474 1.48V52.94c-2.505.594-4.42 2.815-4.42 5.628v.296c0 2.666 1.915 5.035 4.42 5.627v47.534c0 .888.59 1.48 1.474 1.48s1.474-.592 1.474-1.48V64.49c2.505-.59 4.42-2.812 4.42-5.626v-.296c0-2.813-1.915-5.034-4.42-5.627zm1.474 5.924c0 1.48-1.18 2.814-2.8 2.814h-.295c-1.474 0-2.8-1.185-2.8-2.814v-.296c0-1.48 1.18-2.813 2.8-2.813h.295c1.473 0 2.8 1.184 2.8 2.813v.296zm22.105 8.885V37.984c0-.888-.59-1.48-1.473-1.48-.884 0-1.474.592-1.474 1.48V67.75c-2.505.59-4.42 2.812-4.42 5.626v.296c0 2.665 1.915 5.035 4.42 5.627v32.724c0 .888.59 1.48 1.474 1.48s1.473-.592 1.473-1.48V79.3c2.506-.593 4.422-2.815 4.422-5.628v-.296c0-2.814-1.916-5.035-4.422-5.627zm1.474 5.922c0 1.48-1.18 2.813-2.8 2.813h-.295c-1.473 0-2.8-1.184-2.8-2.813v-.296c0-1.48 1.18-2.814 2.8-2.814h.295c1.474 0 2.8 1.185 2.8 2.814v.296zm22.106 8.885V37.985c0-.888-.59-1.48-1.474-1.48-.885 0-1.474.592-1.474 1.48v44.572c-2.506.592-4.422 2.813-4.422 5.627v.296c0 2.665 1.916 5.034 4.422 5.627v17.917c0 .888.59 1.48 1.473 1.48.884 0 1.473-.592 1.473-1.48V94.107c2.505-.593 4.42-2.814 4.42-5.627v-.296c0-2.814-1.915-5.035-4.42-5.627zm1.474 5.923c0 1.48-1.18 2.813-2.8 2.813h-.295c-1.474 0-2.8-1.184-2.8-2.813v-.296c0-1.48 1.18-2.814 2.8-2.814h.295c1.473 0 2.8 1.185 2.8 2.814v.296z" fill="#000"/></g><g transform="translate(134.982 344)"><ellipse stroke="#193441" stroke-width="3" fill="#CFC291" cx="230.679" cy="75" rx="75.55" ry="75"/><text font-family="Exo 2.0" font-size="24" font-weight="420" fill="#113958"><tspan x=".565" y="84.72"> B2B SAAS</tspan> <tspan x=".565" y="113.72">Services</tspan></text><g fill="#000"><path d="M264.757 38.848H196.6c-4.337 0-7.745 3.38-7.745 7.685v49.184c0 4.304 3.408 7.685 7.745 7.685h68.157c4.337 0 7.745-3.38 7.745-7.685V46.533c0-4.304-3.408-7.685-7.745-7.685zm4.647 56.87c0 2.612-2.014 4.61-4.647 4.61H196.6c-2.633 0-4.647-1.998-4.647-4.61V46.532c0-2.613 2.014-4.61 4.647-4.61h68.157c2.633 0 4.647 1.997 4.647 4.61v49.184zm-24.784 16.866h-7.745V104.9c0-.923-.62-1.538-1.55-1.538s-1.548.615-1.548 1.537v7.684h-6.196V104.9c0-.923-.62-1.538-1.548-1.538-.93 0-1.55.615-1.55 1.537v7.684h-6.196c-.93 0-1.55.615-1.55 1.537 0 .923.62 1.538 1.55 1.538h26.334c.93 0 1.55-.615 1.55-1.537 0-.92-.62-1.536-1.55-1.536z"/><path d="M245.212 53.38v2.076h7.006L236.743 70.61 224.196 59.4l-20.703 11.833 1.046 1.764 19.342-11.002 12.86 11.52 16.835-16.606v6.85h2.09V53.38h-10.455z"/><path d="M211.858 75.8v13.91h37.64V71.024l-12.755 10.07L223.15 69.78l-11.292 6.02zm2.09 11.833v-10.69l8.993-4.672 13.803 11.522 10.665-8.407v12.248h-33.46z"/></g></g></g></svg>