<svg width="137" height="25" viewBox="0 0 137 25" xmlns="http://www.w3.org/2000/svg"><title>Logo SteamFab</title><g fill="#FFF" fill-rule="evenodd"><path d="M136.526 15.97c-.098-.466-.256-.892-.454-1.26-.197-.37-.434-.698-.71-1.008-.277-.31-.652-.524-1.086-.68-.435-.154-.928-.23-1.48-.23-.553 0-1.264.076-2.133.25-.868.156-1.638.37-2.31.64V7.364h-1.223V24.71h.908l.355-1.3c.355.272 1.007.582 1.954.93.948.35 1.757.505 2.41.505.65 0 1.223-.116 1.716-.368.474-.252.87-.562 1.165-.93.296-.388.533-.834.71-1.376.178-.542.316-1.065.376-1.59.06-.522.098-1.2.098-2.014 0-.853-.098-1.706-.296-2.597zm-1.717 6.414c-.495.794-1.166 1.182-1.995 1.182-1.283 0-2.744-.368-4.402-1.085v-7.848c1.58-.407 3.04-.6 4.402-.6.85 0 1.5.31 1.954.95.532.696.79 1.995.79 3.894-.02 1.55-.258 2.733-.75 3.508zm-14.274-9.632c-2.092 0-3.968.213-5.646.66v.91c2.39-.233 4.205-.35 5.45-.35 1.54 0 2.31.737 2.31 2.19v1.474h-5.154c-.612 0-1.145.116-1.6.348-.927.485-1.4 1.357-1.4 2.578v1.357c0 .91.276 1.627.85 2.15.57.523 1.262.775 2.07.775.81 0 1.738-.174 2.765-.543.435-.155.83-.29 1.205-.445.375-.155.67-.29.888-.388.218-.098.336-.156.356-.156l.334 1.415h.948V16.18c0-1.143-.316-1.996-.948-2.558-.63-.6-1.44-.872-2.428-.872zm2.113 9.632l-.357.135c-.553.193-1.283.406-2.21.64-.435.115-.89.212-1.363.29-.474.077-.928.116-1.342.116-.415 0-.79-.136-1.125-.426-.316-.272-.474-.737-.474-1.357V20.64c0-1.105.57-1.687 1.716-1.764l5.153-.31v3.818zM105.947 8.527c-.73 0-1.362.233-1.875.678-.514.446-.77 1.183-.77 2.19V24.69h1.283v-7.364l7.6-.175v-.968l-7.6-.174v-4.613c0-.523.118-.93.335-1.2.22-.273.633-.408 1.225-.408h6.95v-.95l-6.95-.31h-.197zm-10.58 4.283c-1.58 0-3.06.523-4.482 1.59-.257-.505-.652-.892-1.224-1.164-.553-.27-1.125-.426-1.737-.426-.592 0-1.046.04-1.323.116-.178.04-.335.078-.454.097-.118.02-.276.078-.454.155-.178.078-.316.136-.375.175-.08.038-.218.116-.416.213-.197.116-.315.174-.355.213-.04.038-.18.115-.396.25-.217.137-.335.234-.375.253l-.593-1.318h-2.033V24.69h2.606v-8.605c.67-.407 1.243-.697 1.677-.852.435-.155.948-.252 1.52-.252.573 0 1.007.156 1.303.485.296.31.435.756.435 1.337v7.907H91.3v-8.683c.672-.504 1.402-.814 2.152-.93.375-.078.81-.116 1.303-.116.494 0 .87.156 1.165.485.276.31.434.756.434 1.337v7.907h2.606V16.82c0-1.202-.316-2.17-.928-2.907-.572-.737-1.48-1.105-2.665-1.105zm-21.064-.058c-2.33 0-4.205.252-5.646.736v1.667c2.408-.155 4.185-.252 5.29-.252.573 0 .987.116 1.264.33.276.213.414.64.414 1.24.02 0 .02.077.02.252 0 .174 0 .426-.02.756h-3.87c-1.223 0-2.11.29-2.664.873-.553.58-.83 1.337-.83 2.248v1.202c0 .853.297 1.57.87 2.17.592.582 1.382.892 2.408.892.553 0 1.165-.116 1.816-.348.652-.233 1.185-.446 1.58-.68.394-.212.61-.367.67-.464l.593 1.357h2.032v-8.335c.02-2.442-1.303-3.643-3.928-3.643zm1.342 8.915l-.553.252c-.375.154-.868.328-1.46.483-.593.155-1.086.252-1.5.252-.415 0-.71-.077-.93-.252-.216-.155-.314-.465-.314-.93v-.775c0-.776.374-1.202 1.104-1.28l3.652-.27v2.52zm-9.14-4.574c0-1.318-.197-2.248-.572-2.81-.198-.31-.415-.562-.652-.756-.237-.194-.572-.33-.967-.426-.415-.096-.81-.154-1.204-.193-.394-.04-1.026-.04-1.875-.04-.848 0-1.618.098-2.29.273-.67.193-1.243.58-1.697 1.162-.592.776-.87 2.287-.87 4.496 0 2.21.278 3.78.85 4.67.573.892 1.6 1.338 3.1 1.338 2.724 0 4.717-.213 5.94-.62v-1.783c-1.045.155-2.23.252-3.552.252-1.323 0-2.112-.04-2.39-.097-.275-.058-.512-.194-.73-.368-.394-.33-.59-1.085-.59-2.23h4.243c2.17-.018 3.256-.968 3.256-2.867zm-7.5.872c0-.484.018-.95.058-1.395.04-.446.217-.834.533-1.182.237-.272.948-.407 2.132-.407.927 0 1.52.117 1.756.35.257.232.375.794.375 1.686 0 .64-.374.95-1.144.95h-3.71zM51.66 9.67h-2.11l-.495 3.276-2.033.562v1.55h2.033v5.465c0 2.79.988 4.206 2.942 4.206h2.487V23.06c-.1 0-.67-.155-1.698-.465-.375-.116-.65-.35-.848-.678-.198-.33-.277-.912-.277-1.726V15.04h2.962v-2.094h-2.96V9.67zm-9.494 5.776h-2.843c-.71 0-1.204-.117-1.5-.35-.296-.232-.454-.697-.454-1.433v-1.047c0-.814.177-1.318.532-1.53.355-.214.83-.31 1.42-.31.594 0 1.58.02 3.002.057 1.362.058 2.37.117 3 .155V8.953c-.61-.155-1.52-.29-2.724-.406-1.204-.117-2.033-.194-2.527-.194H38.79c-.375 0-.81.058-1.322.194-.514.135-.968.348-1.402.64-.868.62-1.303 1.704-1.303 3.255v1.415c0 .814.12 1.51.356 2.112.157.406.393.735.67 1.007.276.27.69.504 1.224.697.533.194 1.164.29 1.895.29h2.762c.593 0 1.027.156 1.264.447.237.31.355.737.355 1.3v1.104c0 .698-.275 1.163-.828 1.376-.276.097-.513.174-.75.194-.217.038-.948.038-2.152.038-.158 0-2.112.06-4.362-.213-1.62-.194-2.705-1.067-3.18-1.532-4.282-4.573-4.894-10.058-10.797-14.438-3.157-2.345-5.585-2.868-8.37-2.868h-1.677c-1.54 0-1.54.02-1.54.02s4.324.33 7.64 3.507c3.514 3.37 6 10.154 9.22 13.313 4.658 4.593 9.178 4.38 9.178 4.38l5.39.213h.277c1.026 0 1.875-.155 2.566-.446 1.343-.562 1.994-1.782 1.994-3.643v-1.24c0-.582-.06-1.105-.197-1.59-.435-1.608-1.62-2.44-3.534-2.44z"/><path d="M2.507.078c2.172 0 4.067.406 6.534 2.228 4.798 3.547 5.094 8.062 8.865 11.706 2.684 2.597 6.258 2.635 6.258 2.635l-3.87-.038s-3.533.154-7.146-3.412C10.64 10.736 8.707 5.446 5.962 2.81 3.376.31 0 .078 0 .078s0-.02 1.204-.02"/></g></svg>