<svg width="15" height="13" viewBox="0 0 15 13" xmlns="http://www.w3.org/2000/svg"><title>Fill 178</title><path d="M5.05 12.595c1.062 0 2.058-.165 3.006-.496.93-.35 1.727-.795 2.39-1.358.65-.562 1.23-1.207 1.712-1.935.465-.744.83-1.505 1.063-2.3.234-.792.35-1.586.35-2.397v-.38c.58-.43 1.08-.943 1.495-1.538-.582.23-1.146.396-1.728.447.648-.382 1.097-.928 1.313-1.64-.582.348-1.213.597-1.894.73-.598-.63-1.33-.944-2.193-.944-.814 0-1.528.28-2.11.86-.58.595-.88 1.29-.88 2.117 0 .215.034.446.084.678-1.23-.05-2.376-.363-3.455-.908-1.063-.563-1.977-1.29-2.724-2.2-.266.463-.415.96-.415 1.505 0 .496.133.975.365 1.422.25.43.565.776.98 1.058-.482-.017-.93-.15-1.362-.38v.033c0 .728.233 1.356.68 1.902.466.546 1.03.877 1.728 1.025-.265.067-.53.1-.797.1-.166 0-.35-.016-.564-.05.2.596.547 1.092 1.062 1.473.515.396 1.097.594 1.745.594-1.096.86-2.326 1.274-3.72 1.274-.267 0-.5 0-.715-.033 1.378.893 2.923 1.34 4.584 1.34" fill="#93999F" fill-rule="evenodd"/></svg>