<svg width="40" height="40" viewBox="0 0 40 40" xmlns="http://www.w3.org/2000/svg"><title>twitter icon hover</title><g fill="none" fill-rule="evenodd"><circle fill="#FFF" cx="20" cy="20" r="20"/><path d="M12.7 18.354v3.122c-.115.81-.115 2.102 0 2.91.115 1.733.774 2.93 1.746 3.817 1.007 1.47 4.434 1.386 7.278 1.386 3.05 0 5.452.287 5.876-1.874 1.005-4.77-5.85-2.934-9.656-3.398-.143-.4.078-.9 0-1.457v-2.84c3.128-.345 7.856.9 9.305-1.11.314-.35.446-.724.49-1.18.393-4.417-6.19-2.425-9.796-2.98.288-2.75-.28-4.92-2.307-5.133-4.223-.442-2.64 5.298-2.938 8.737m12.52-5.686c2.507.147 3.82 1.485 4.547 3.4.643 3.306-1.116 5.753-4.128 6.103 3.06.44 5.14 3.404 3.916 6.794-.833 1.462-1.942 2.656-4.13 2.776h-7.413c-2.87-.064-4.58-1.286-5.945-2.845-.95-1.298-1.624-2.873-1.606-5.13.163-3.84.023-7.975.066-11.93.302-2.59 1.768-4.03 4.34-4.368h.905c2.576.34 3.975 1.842 4.34 4.37v.83h5.108" fill="#3BAFDA"/></g></svg>