<svg width="51" height="50" viewBox="0 0 51 50" xmlns="http://www.w3.org/2000/svg"><title>twitter</title><g fill="none" fill-rule="evenodd"><path d="M25.04 50c13.827 0 25.038-11.193 25.038-25S38.868 0 25.038 0C11.21 0 0 11.193 0 25s11.21 25 25.04 25z" fill="#4FC1E9"/><path d="M15.874 22.943v3.902c-.143 1.012-.143 2.627 0 3.64.145 2.164.968 3.662 2.184 4.768 1.26 1.84 5.542 1.734 9.097 1.734 3.812 0 6.815.36 7.345-2.342 1.256-5.962-7.313-3.668-12.07-4.248-.18-.5.097-1.126 0-1.82v-3.553c3.91-.43 9.82 1.125 11.63-1.385.395-.44.56-.908.613-1.477.494-5.522-7.736-3.032-12.243-3.727.36-3.435-.35-6.148-2.883-6.415-5.28-.55-3.302 6.624-3.673 10.923m15.652-7.108c3.132.184 4.773 1.856 5.682 4.25.805 4.132-1.394 7.19-5.16 7.628 3.828.55 6.426 4.255 4.897 8.492-1.04 1.827-2.428 3.32-5.16 3.47h-9.27c-3.587-.08-5.725-1.607-7.43-3.556-1.188-1.624-2.03-3.592-2.007-6.412.203-4.8.028-9.97.082-14.913.378-3.24 2.21-5.038 5.425-5.462h1.13c3.22.424 4.97 2.303 5.427 5.462v1.04h6.384" fill="#FFF"/></g></svg>